<?xml version="1.0" encoding="UTF-8"?>
<svg id="Layer_1" data-name="Layer 1" xmlns="http://www.w3.org/2000/svg" viewBox="0 0 172.13 38.05">
  <defs>
    <style>
      .cls-1, .cls-2 {
        fill: #231f20;
      }

      .cls-3 {
        fill: #fff;
      }

      .cls-2 {
        opacity: .3;
      }
    </style>
  </defs>
  <rect class="cls-3" x="1.37" width="170.75" height="31.53"/>
  <g>
    <path class="cls-2" d="M2.1,27.07c-1.4-1.68-2.1-4.07-2.1-7.17v-.5c0-.06,0-.13.02-.22h13.96v2.21H2.5l1.02-.49c-.01,2.08.39,3.68,1.2,4.79.81,1.11,1.98,1.66,3.51,1.66,1.67,0,2.95-.66,3.84-1.98.89-1.32,1.34-3.22,1.34-5.69s-.48-4.23-1.44-5.36c-.96-1.13-2.48-1.69-4.58-1.69-1.09,0-2.18.15-3.25.45-1.07.3-2.15.76-3.23,1.37l-.18-.16.98-2.52c2-1.04,4.09-1.56,6.25-1.56,2.84,0,5.03.81,6.58,2.44,1.55,1.63,2.32,3.94,2.32,6.93,0,2.04-.36,3.82-1.07,5.32-.72,1.5-1.73,2.66-3.05,3.48-1.32.81-2.88,1.22-4.69,1.22-2.57,0-4.55-.84-5.95-2.52ZM5.31,36.47c-.65-.6-.98-1.38-.98-2.34,0-.81.25-1.63.74-2.47.49-.84,1.22-1.69,2.19-2.55h2.52c-.77.6-1.41,1.32-1.93,2.17-.52.85-.78,1.59-.78,2.25,0,1.03.63,1.54,1.89,1.54.38,0,.77-.06,1.19-.18.42-.12.79-.27,1.11-.45l.14.12-.51,2.03c-.31.21-.77.39-1.37.55-.6.16-1.17.23-1.7.23-1.03,0-1.87-.3-2.52-.9Z"/>
    <path class="cls-1" d="M24.57,17.95h-3.01v-7.15c1.48-.29,2.62-.81,3.42-1.57.79-.76,1.19-1.72,1.19-2.86,0-1.08-.34-1.92-1.01-2.53-.67-.61-1.6-.91-2.78-.91-.6,0-1.22.08-1.87.22-.64.15-1.27.35-1.87.62l-.1-.12.45-1.8c.51-.25,1.14-.44,1.89-.59.75-.14,1.52-.21,2.29-.21,1.86,0,3.34.46,4.42,1.38,1.09.92,1.63,2.17,1.63,3.74s-.51,2.81-1.52,3.86c-1.02,1.05-2.39,1.7-4.12,1.96l.98-.86v6.82Z"/>
    <path class="cls-2" d="M44.93,27.07c-1.4-1.68-2.1-4.07-2.1-7.17v-.5c0-.06,0-.13.02-.22h13.96v2.21h-11.48l1.02-.49c-.01,2.08.39,3.68,1.2,4.79.81,1.11,1.98,1.66,3.51,1.66,1.67,0,2.95-.66,3.84-1.98.89-1.32,1.34-3.22,1.34-5.69s-.48-4.23-1.44-5.36c-.96-1.13-2.48-1.69-4.58-1.69-1.09,0-2.18.15-3.25.45-1.07.3-2.15.76-3.23,1.37l-.18-.16.98-2.52c2-1.04,4.09-1.56,6.25-1.56,2.84,0,5.03.81,6.58,2.44,1.55,1.63,2.32,3.94,2.32,6.93,0,2.04-.36,3.82-1.07,5.32-.72,1.5-1.73,2.66-3.05,3.48-1.32.81-2.88,1.22-4.69,1.22-2.57,0-4.55-.84-5.95-2.52ZM55.84,35.61h-8.61v1.64l4.59-6h-2.5l-3.73,4.92v1.88h10.25v-2.44Z"/>
    <path class="cls-1" d="M65.99,17.95h-2.54l6.86-10.37-.04,1.66h-8.69v-2.46h10.33v2.23l-5.92,8.95Z"/>
  </g>
</svg>