<?xml version="1.0" encoding="UTF-8"?>
<svg id="Layer_1" xmlns="http://www.w3.org/2000/svg" version="1.1" viewBox="0 0 172.1 38">
  <!-- Generator: Adobe Illustrator 29.3.1, SVG Export Plug-In . SVG Version: 2.1.0 Build 151)  -->
  <defs>
    <style>
      .st0, .st1 {
        fill: #231f20;
      }

      .st2 {
        fill: #fff;
      }

      .st1 {
        isolation: isolate;
        opacity: .3;
      }
    </style>
  </defs>
  <rect class="st2" x="0" width="172.1" height="38"/>
  <g>
    <path class="st1" d="M2.1,27.1c-1.4-1.7-2.1-4.1-2.1-7.2v-.5c0,0,0-.1,0-.2h14v2.2H2.5l1-.5c0,2.1.4,3.7,1.2,4.8.8,1.1,2,1.7,3.5,1.7s2.9-.7,3.8-2,1.3-3.2,1.3-5.7-.5-4.2-1.4-5.4c-1-1.1-2.5-1.7-4.6-1.7s-2.2.1-3.2.4c-1.1.3-2.2.8-3.2,1.4l-.2-.2,1-2.5c2-1,4.1-1.6,6.2-1.6s5,.8,6.6,2.4,2.3,3.9,2.3,6.9-.4,3.8-1.1,5.3c-.7,1.5-1.7,2.7-3.1,3.5-1.3.8-2.9,1.2-4.7,1.2-2.6,0-4.6-.8-5.9-2.5h0ZM5.3,36.5c-.7-.6-1-1.4-1-2.3s.2-1.6.7-2.5c.5-.8,1.2-1.7,2.2-2.5h2.5c-.8.6-1.4,1.3-1.9,2.2-.5.8-.8,1.6-.8,2.2,0,1,.6,1.5,1.9,1.5s.8,0,1.2-.2.8-.3,1.1-.5h.1c0,.1-.5,2.1-.5,2.1-.3.2-.8.4-1.4.5-.6.2-1.2.2-1.7.2-1,0-1.9-.3-2.5-.9h0Z"/>
    <path class="st0" d="M24.6,18h-3v-7.1c1.5-.3,2.6-.8,3.4-1.6.8-.8,1.2-1.7,1.2-2.9s-.3-1.9-1-2.5-1.6-.9-2.8-.9-1.2,0-1.9.2c-.6.2-1.3.3-1.9.6h-.1c0-.1.5-1.9.5-1.9.5-.2,1.1-.4,1.9-.6.8-.1,1.5-.2,2.3-.2,1.9,0,3.3.5,4.4,1.4,1.1.9,1.6,2.2,1.6,3.7s-.5,2.8-1.5,3.9c-1,1.1-2.4,1.7-4.1,2l1-.9v6.8h0Z"/>
    <path class="st1" d="M44.9,27.1c-1.4-1.7-2.1-4.1-2.1-7.2v-.5c0,0,0-.1,0-.2h14v2.2h-11.5l1-.5c0,2.1.4,3.7,1.2,4.8.8,1.1,2,1.7,3.5,1.7s3-.7,3.8-2,1.3-3.2,1.3-5.7-.5-4.2-1.4-5.4c-1-1.1-2.5-1.7-4.6-1.7s-2.2.1-3.2.4-2.2.8-3.2,1.4l-.2-.2,1-2.5c2-1,4.1-1.6,6.2-1.6s5,.8,6.6,2.4c1.5,1.6,2.3,3.9,2.3,6.9s-.4,3.8-1.1,5.3c-.7,1.5-1.7,2.7-3,3.5-1.3.8-2.9,1.2-4.7,1.2-2.6,0-4.5-.8-6-2.5h0ZM55.8,35.6h-8.6v1.6l4.6-6h-2.5l-3.7,4.9v1.9h10.2v-2.4Z"/>
    <path class="st0" d="M66,18h-2.5l6.9-10.4v1.7h-8.7v-2.5h10.3v2.2l-5.9,8.9h0Z"/>
  </g>
</svg>