<?xml version="1.0" encoding="UTF-8"?>
<svg id="Layer_1" data-name="Layer 1" xmlns="http://www.w3.org/2000/svg" viewBox="0 0 174.31 31.53">
  <defs>
    <style>
      .cls-1 {
        fill: #231f20;
      }

      .cls-2 {
        fill: #fff;
      }
    </style>
  </defs>
  <rect class="cls-2" x="3.56" width="170.75" height="31.53"/>
  <g>
    <path class="cls-1" d="M2.97,29.11H0l9.36-15.33-.31,1.11V3.44h3.5v11.39l-.31-1.11,9.14,15.39h-4.06l-6.99-12.07h-.16l-7.19,12.07ZM18.26,12.5l-14.9,3.09v-2.54l15.29-3.14-.39,2.6Z"/>
    <path class="cls-1" d="M26.83,29.11h-3.67l8.91-19.69,1.31,5.78h-.59l-5.96,13.91ZM41.49,29.11h-3.22l-6.29-16.44-2.11-5.49c-.4-1.08-.87-1.83-1.4-2.26-.53-.42-1.24-.63-2.14-.63s-1.89.15-2.93.45l-.18-.18,1.15-3.07c.78-.21,1.52-.31,2.23-.31.89,0,1.67.18,2.36.54.69.36,1.32.93,1.88,1.71s1.1,1.81,1.61,3.09l9.02,22.6ZM38.54,9.44l-12.89,2.66v-2.48l13.26-2.73-.37,2.56Z"/>
    <path class="cls-1" d="M55.98,29.11h-2.97l9.36-15.33-.31,1.11V3.44h3.5v11.39l-.31-1.11,9.14,15.39h-4.06l-6.99-12.07h-.16l-7.19,12.07ZM57.25,15.26l-1.6-.76c.47-1.43,1.11-2.55,1.93-3.34.82-.79,1.73-1.19,2.71-1.19.73,0,1.46.18,2.19.53v3.12c-.39-.22-.83-.41-1.31-.56-.48-.15-.89-.22-1.23-.22-1.08,0-1.98.81-2.7,2.42ZM67.1,14.81c-.35,0-.7-.04-1.05-.12s-.62-.18-.82-.31v-3.07c.38.2.74.34,1.08.44.34.1.68.15,1.01.15,1.35,0,2.38-.79,3.09-2.38l1.62.76c-.46,1.39-1.13,2.5-2.01,3.31-.89.81-1.86,1.22-2.91,1.22Z"/>
    <path class="cls-1" d="M79.45,29.11h-3.67l8.91-19.69,1.31,5.78h-.59l-5.96,13.91ZM94.12,29.11h-3.22l-6.29-16.44-2.11-5.49c-.4-1.08-.87-1.83-1.4-2.26-.53-.42-1.25-.63-2.18-.63s-1.89.15-2.89.45l-.18-.18,1.15-3.07c.74-.21,1.47-.31,2.19-.31.9,0,1.7.18,2.39.54.7.36,1.33.93,1.89,1.71s1.1,1.81,1.61,3.09l9.02,22.6ZM79.7,13.09l-1.66-.78c.3-1.42.8-2.54,1.51-3.36.71-.82,1.54-1.23,2.49-1.23.35,0,.72.07,1.11.2l1,2.95c-.64-.35-1.2-.53-1.68-.53-.65,0-1.2.22-1.64.65-.44.44-.82,1.14-1.13,2.1ZM88.06,11.72c-.22,0-.44-.02-.66-.05-.22-.03-.41-.07-.57-.13l-1.15-2.97c.75.47,1.48.7,2.17.7.65,0,1.19-.22,1.61-.66.42-.44.77-1.14,1.04-2.09l1.72.8c-.31,1.42-.83,2.51-1.54,3.26-.72.76-1.59,1.13-2.62,1.13Z"/>
  </g>
</svg>