<?xml version="1.0" encoding="UTF-8"?>
<svg id="Layer_1" data-name="Layer 1" xmlns="http://www.w3.org/2000/svg" viewBox="0 0 172.26 31.53">
  <defs>
    <style>
      .cls-1, .cls-2 {
        fill: #231f20;
      }

      .cls-3 {
        fill: #fff;
      }

      .cls-2 {
        opacity: .3;
      }
    </style>
  </defs>
  <rect class="cls-3" x="1.51" width="170.75" height="31.53"/>
  <g>
    <path class="cls-2" d="M1.65,28.05c-1.1-.99-1.65-2.29-1.65-3.91,0-2.13.98-3.7,2.94-4.71,1.96-1,5.04-1.5,9.23-1.5h.53v2.11h-.53c-3.02,0-5.23.32-6.62.97-1.39.64-2.09,1.66-2.09,3.06,0,.94.31,1.67.93,2.21.62.53,1.47.8,2.55.8,2.2,0,4.13-1.34,5.78-4.02v2.3c-.62,1.3-1.53,2.32-2.71,3.07-1.19.74-2.52,1.11-4,1.11-1.8,0-3.25-.49-4.35-1.48ZM12.11,24.57v-6.93c0-1.81-.38-3.12-1.14-3.92s-2-1.2-3.7-1.2c-.79,0-1.71.09-2.73.27-1.03.18-1.98.42-2.85.72l-.18-.18.94-2.4c1.11-.29,2.1-.49,2.97-.62.87-.13,1.71-.2,2.52-.2,2.47,0,4.35.53,5.62,1.6,1.28,1.07,1.91,2.64,1.91,4.71v7.38c0,1.72.19,3.48.57,5.29h-3.11c-.51-1.25-.78-2.76-.82-4.53Z"/>
    <path class="cls-1" d="M20.67,14.9c-.4-.41-.6-.97-.6-1.69s.21-1.33.63-1.76c.42-.43,1.01-.64,1.75-.64s1.27.2,1.67.61c.4.4.6.96.6,1.68s-.22,1.32-.65,1.76c-.44.44-1.03.66-1.77.66-.69,0-1.23-.21-1.63-.62ZM20.77,28.94c-.4-.41-.6-.97-.6-1.69s.21-1.33.63-1.76c.42-.43,1.01-.64,1.75-.64s1.27.2,1.67.61c.4.4.6.96.6,1.68s-.22,1.32-.65,1.76c-.44.44-1.03.66-1.77.66-.69,0-1.23-.21-1.63-.62Z"/>
    <path class="cls-2" d="M31.03,28.05c-1.1-.99-1.65-2.29-1.65-3.91,0-2.13.98-3.7,2.94-4.71,1.96-1,5.04-1.5,9.23-1.5h.53v2.11h-.53c-3.02,0-5.23.32-6.62.97-1.39.64-2.09,1.66-2.09,3.06,0,.94.31,1.67.93,2.21.62.53,1.47.8,2.55.8,2.2,0,4.13-1.34,5.78-4.02v2.3c-.62,1.3-1.53,2.32-2.71,3.07-1.19.74-2.52,1.11-4,1.11-1.8,0-3.25-.49-4.35-1.48ZM41.49,24.57v-6.93c0-1.81-.38-3.12-1.14-3.92s-2-1.2-3.7-1.2c-.79,0-1.71.09-2.73.27-1.03.18-1.98.42-2.85.72l-.18-.18.94-2.4c1.11-.29,2.1-.49,2.97-.62.87-.13,1.71-.2,2.52-.2,2.47,0,4.35.53,5.62,1.6,1.28,1.07,1.91,2.64,1.91,4.71v7.38c0,1.72.19,3.48.57,5.29h-3.11c-.51-1.25-.78-2.76-.82-4.53Z"/>
    <path class="cls-1" d="M50.06,14.9c-.4-.41-.6-.97-.6-1.69s.21-1.33.63-1.76c.42-.43,1.01-.64,1.75-.64s1.27.2,1.67.61c.4.4.6.96.6,1.68s-.22,1.32-.65,1.76c-.44.44-1.03.66-1.77.66-.69,0-1.23-.21-1.63-.62Z"/>
    <path class="cls-2" d="M71.01,28.05c-1.1-.99-1.65-2.29-1.65-3.91,0-2.13.98-3.7,2.94-4.71,1.96-1,5.04-1.5,9.23-1.5h.53v2.11h-.53c-3.02,0-5.23.32-6.62.97-1.39.64-2.09,1.66-2.09,3.06,0,.94.31,1.67.93,2.21.62.53,1.47.8,2.55.8,2.2,0,4.13-1.34,5.78-4.02v2.3c-.62,1.3-1.53,2.32-2.71,3.07-1.19.74-2.52,1.11-4,1.11-1.8,0-3.25-.49-4.35-1.48ZM81.47,24.57v-6.93c0-1.81-.38-3.12-1.14-3.92s-2-1.2-3.7-1.2c-.79,0-1.71.09-2.73.27-1.03.18-1.98.42-2.85.72l-.18-.18.94-2.4c1.11-.29,2.1-.49,2.97-.62.87-.13,1.71-.2,2.52-.2,2.47,0,4.35.53,5.62,1.6,1.28,1.07,1.91,2.64,1.91,4.71v7.38c0,1.72.19,3.48.57,5.29h-3.11c-.51-1.25-.78-2.76-.82-4.53Z"/>
    <path class="cls-1" d="M96.24,10.63l-3.59,6.41-3.59-6.41h7.19ZM96.24,29.11h-7.19l3.59-6.41,3.59,6.41Z"/>
    <path class="cls-2" d="M102.06,28.05c-1.1-.99-1.65-2.29-1.65-3.91,0-2.13.98-3.7,2.94-4.71,1.96-1,5.04-1.5,9.23-1.5h.53v2.11h-.53c-3.02,0-5.23.32-6.62.97-1.39.64-2.09,1.66-2.09,3.06,0,.94.31,1.67.93,2.21.62.53,1.47.8,2.55.8,2.2,0,4.13-1.34,5.78-4.02v2.3c-.62,1.3-1.53,2.32-2.71,3.07-1.19.74-2.52,1.11-4,1.11-1.8,0-3.25-.49-4.35-1.48ZM112.51,24.57v-6.93c0-1.81-.38-3.12-1.14-3.92s-2-1.2-3.7-1.2c-.79,0-1.71.09-2.73.27-1.03.18-1.98.42-2.85.72l-.18-.18.94-2.4c1.11-.29,2.1-.49,2.97-.62.87-.13,1.71-.2,2.52-.2,2.47,0,4.35.53,5.62,1.6,1.28,1.07,1.91,2.64,1.91,4.71v7.38c0,1.72.19,3.48.57,5.29h-3.11c-.51-1.25-.78-2.76-.82-4.53Z"/>
    <path class="cls-1" d="M126.68,10.63l-3.59,6.41-3.59-6.41h7.19Z"/>
  </g>
</svg>