<?xml version="1.0" encoding="UTF-8"?>
<svg id="Layer_1" xmlns="http://www.w3.org/2000/svg" version="1.1" viewBox="0 0 174.3 31.5">
  <!-- Generator: Adobe Illustrator 29.3.1, SVG Export Plug-In . SVG Version: 2.1.0 Build 151)  -->
  <defs>
    <style>
      .st0 {
        fill: #231f20;
      }

      .st1 {
        fill: #fff;
      }
    </style>
  </defs>
  <rect class="st1" width="174.3" height="31.5"/>
  <g>
    <path class="st0" d="M3,29.1H0l9.4-15.3-.3,1.1V3.4h3.5v11.4l-.3-1.1,9.1,15.4h-4.1l-7-12.1h-.2l-7.2,12.1h0ZM18.3,12.5l-14.9,3.1v-2.5l15.3-3.1-.4,2.6h0Z"/>
    <path class="st0" d="M26.8,29.1h-3.7l8.9-19.7,1.3,5.8h-.6s-6,13.9-6,13.9ZM41.5,29.1h-3.2l-6.3-16.4-2.1-5.5c-.4-1.1-.9-1.8-1.4-2.3-.5-.4-1.2-.6-2.1-.6s-1.9.2-2.9.4l-.2-.2,1.1-3.1c.8-.2,1.5-.3,2.2-.3s1.7.2,2.4.5,1.3.9,1.9,1.7,1.1,1.8,1.6,3.1l9,22.6h0ZM38.5,9.4l-12.9,2.7v-2.5l13.3-2.7-.4,2.6h0Z"/>
    <path class="st0" d="M56,29.1h-3l9.4-15.3-.3,1.1V3.4h3.5v11.4l-.3-1.1,9.1,15.4h-4.1l-7-12.1h-.2l-7.2,12.1h0ZM57.2,15.3l-1.6-.8c.5-1.4,1.1-2.6,1.9-3.3s1.7-1.2,2.7-1.2,1.5.2,2.2.5v3.1c-.4-.2-.8-.4-1.3-.6-.5-.1-.9-.2-1.2-.2-1.1,0-2,.8-2.7,2.4h0ZM67.1,14.8c-.3,0-.7,0-1.1-.1s-.6-.2-.8-.3v-3.1c.4.2.7.3,1.1.4.3.1.7.1,1,.1,1.3,0,2.4-.8,3.1-2.4l1.6.8c-.5,1.4-1.1,2.5-2,3.3-.9.8-1.9,1.2-2.9,1.2h0Z"/>
    <path class="st0" d="M79.4,29.1h-3.7l8.9-19.7,1.3,5.8h-.6s-6,13.9-6,13.9ZM94.1,29.1h-3.2l-6.3-16.4-2.1-5.5c-.4-1.1-.9-1.8-1.4-2.3-.5-.4-1.2-.6-2.2-.6s-1.9.2-2.9.4l-.2-.2,1.2-3.1c.7-.2,1.5-.3,2.2-.3s1.7.2,2.4.5c.7.4,1.3.9,1.9,1.7s1.1,1.8,1.6,3.1l9,22.6h0ZM79.7,13.1l-1.7-.8c.3-1.4.8-2.5,1.5-3.4s1.5-1.2,2.5-1.2.7,0,1.1.2l1,3c-.6-.4-1.2-.5-1.7-.5s-1.2.2-1.6.6c-.4.4-.8,1.1-1.1,2.1ZM88.1,11.7c-.2,0-.4,0-.7,0s-.4,0-.6-.1l-1.2-3c.8.5,1.5.7,2.2.7s1.2-.2,1.6-.7.8-1.1,1-2.1l1.7.8c-.3,1.4-.8,2.5-1.5,3.3-.7.8-1.6,1.1-2.6,1.1h0Z"/>
  </g>
</svg>