<?xml version="1.0" encoding="UTF-8"?>
<svg id="Layer_1" xmlns="http://www.w3.org/2000/svg" version="1.1" viewBox="0 0 173.6 31.5">
  <!-- Generator: Adobe Illustrator 29.3.1, SVG Export Plug-In . SVG Version: 2.1.0 Build 151)  -->
  <defs>
    <style>
      .st0 {
        fill: #231f20;
      }

      .st1 {
        fill: #fff;
      }
    </style>
  </defs>
  <rect class="st1" width="173.6" height="31.5"/>
  <g>
    <path class="st0" d="M7.4,19.7v2.4c-2.3-.1-4.1-.7-5.4-1.8-1.3-1.1-2-2.5-2-4.3s.3-2.1.8-2.9,1.2-1.5,2.2-2,2-.7,3.2-.7,1.2,0,1.6.2v2.2c-.5-.1-1-.2-1.5-.2-.9,0-1.7.3-2.2.9-.5.6-.8,1.4-.8,2.3s.4,2,1.1,2.7c.7.7,1.8,1.1,3.1,1.2h0ZM9.9,29.1h-3.4V1.7l3.4-.5v27.9h0ZM9.2,22l.2-2.3c.8,0,1.6,0,2.3-.3.7-.2,1.5-.5,2.3-.8h.1c0,.1-.6,2.4-.6,2.4-.5.3-1.1.5-2,.7-.9.2-1.6.3-2.4.3Z"/>
    <path class="st0" d="M26.6,29.1v-2.9c1.4-.5,2.7-1.3,4-2.5,1.3-1.1,2.4-2.4,3.3-3.8l1,.3,1,.3c-.5,1.2-1.3,2.4-2.3,3.6-1,1.2-2.1,2.2-3.3,3.1s-2.4,1.5-3.6,1.9h0ZM41.9,21.7h-14.7v-2.3h15l-.3,2.3ZM37.2,19.6h-5.1c-1.2-1.6-2.1-3.2-2.7-5-.6-1.7-.9-3.5-.9-5.4s.2-3.2.8-4.4c.5-1.2,1.2-2.1,2.2-2.8,1-.6,2.1-1,3.5-1,2,0,3.5.6,4.6,2,1.1,1.3,1.6,3.1,1.6,5.4s-.3,3.7-1,5.6c-.7,1.9-1.6,3.7-2.9,5.4h0ZM34.7,19.1h0c.7-.9,1.2-1.9,1.7-3,.5-1.1.8-2.3,1-3.5.2-1.2.3-2.5.3-3.8,0-3.5-1-5.3-2.8-5.3s-2.8,1.9-2.8,5.6.2,3.7.7,5.3c.5,1.7,1.2,3.2,2.1,4.7h0ZM42.8,26.3l-.4,2.8c-1.9-.7-3.6-1.6-5.1-3s-2.8-3-4-5h2.7c.9,1.1,1.9,2.1,3.1,3.1,1.2.9,2.4,1.6,3.7,2.1h0Z"/>
  </g>
</svg>