<?xml version="1.0" encoding="UTF-8"?>
<svg id="Layer_1" xmlns="http://www.w3.org/2000/svg" version="1.1" viewBox="0 0 173.4 34.7">
  <!-- Generator: Adobe Illustrator 29.3.1, SVG Export Plug-In . SVG Version: 2.1.0 Build 151)  -->
  <defs>
    <style>
      .st0 {
        fill: #231f20;
      }

      .st1 {
        fill: #fff;
      }
    </style>
  </defs>
  <rect class="st1" y="0" width="173.4" height="34.7"/>
  <g>
    <path class="st0" d="M3.7,32.3H0L8.9,12.6l1.3,5.8h-.6s-6,13.9-6,13.9ZM18.3,32.3h-3.2l-6.3-16.4-2.1-5.5c-.4-1.1-.9-1.8-1.4-2.3-.5-.4-1.2-.6-2.1-.6s-1.9.2-2.9.4l-.2-.2,1.2-3.1c.8-.2,1.5-.3,2.2-.3s1.7.2,2.4.5,1.3.9,1.9,1.7,1.1,1.8,1.6,3.1l9,22.6h0ZM15.4,12.6l-12.9,2.7v-2.5l13.3-2.7-.4,2.6h0ZM13.1,0c.9,0,1.6.3,2.1.9.5.6.8,1.4.8,2.3s-.4,2.5-1.3,3.4c-.9,1-2.1,1.6-3.5,1.9l-.5-1.8c1.8-.4,2.7-1.3,2.7-2.7s-.1-.9-.3-1.3l1.4.6c-.4.5-1,.8-1.7.8s-1-.2-1.4-.5c-.4-.3-.5-.8-.5-1.4s.2-1.2.7-1.6C11.8.2,12.4,0,13.1,0h0Z"/>
    <path class="st0" d="M34.4,32.3h-3.7l8.9-19.7,1.3,5.8h-.6s-6,13.9-6,13.9ZM49.1,32.3h-3.2l-6.3-16.4-2.1-5.5c-.4-1.1-.9-1.8-1.4-2.3-.5-.4-1.2-.6-2.2-.6s-1.9.2-2.9.4l-.2-.2,1.1-3.1c.7-.2,1.5-.3,2.2-.3s1.7.2,2.4.5c.7.4,1.3.9,1.9,1.7s1.1,1.8,1.6,3.1l9,22.6h0ZM34.7,16.2l-1.7-.8c.3-1.4.8-2.5,1.5-3.4s1.5-1.2,2.5-1.2.7,0,1.1.2l1,2.9c-.6-.4-1.2-.5-1.7-.5s-1.2.2-1.6.6c-.4.4-.8,1.1-1.1,2.1ZM43,14.9c-.2,0-.4,0-.7,0s-.4,0-.6-.1l-1.2-3c.8.5,1.5.7,2.2.7s1.2-.2,1.6-.7c.4-.4.8-1.1,1-2.1l1.7.8c-.3,1.4-.8,2.5-1.5,3.3-.7.8-1.6,1.1-2.6,1.1h0ZM43.8,0c.9,0,1.6.3,2.1.9.5.6.8,1.4.8,2.3s-.4,2.5-1.3,3.4c-.9,1-2,1.6-3.5,1.9l-.5-1.8c1.8-.4,2.7-1.3,2.7-2.7s-.1-.9-.3-1.3l1.3.6c-.4.5-1,.8-1.7.8s-1-.2-1.4-.5c-.3-.3-.5-.8-.5-1.4s.2-1.2.7-1.6c.4-.4,1-.6,1.7-.6h0Z"/>
  </g>
</svg>