<?xml version="1.0" encoding="UTF-8"?>
<svg id="Layer_1" xmlns="http://www.w3.org/2000/svg" version="1.1" viewBox="0 0 172.3 31.5">
  <!-- Generator: Adobe Illustrator 29.3.1, SVG Export Plug-In . SVG Version: 2.1.0 Build 151)  -->
  <defs>
    <style>
      .st0, .st1 {
        fill: #231f20;
      }

      .st2 {
        fill: #fff;
      }

      .st1 {
        isolation: isolate;
        opacity: .3;
      }
    </style>
  </defs>
  <rect class="st2" width="172.3" height="31.5"/>
  <g>
    <path class="st1" d="M1.6,28c-1.1-1-1.6-2.3-1.6-3.9s1-3.7,2.9-4.7c2-1,5-1.5,9.2-1.5h.5v2.1h-.5c-3,0-5.2.3-6.6,1-1.4.6-2.1,1.7-2.1,3.1s.3,1.7.9,2.2c.6.5,1.5.8,2.6.8,2.2,0,4.1-1.3,5.8-4v2.3c-.6,1.3-1.5,2.3-2.7,3.1-1.2.7-2.5,1.1-4,1.1s-3.2-.5-4.3-1.5h0ZM12.1,24.6v-6.9c0-1.8-.4-3.1-1.1-3.9s-2-1.2-3.7-1.2-1.7,0-2.7.3c-1,.2-2,.4-2.8.7l-.2-.2.9-2.4c1.1-.3,2.1-.5,3-.6.9-.1,1.7-.2,2.5-.2,2.5,0,4.3.5,5.6,1.6,1.3,1.1,1.9,2.6,1.9,4.7v7.4c0,1.7.2,3.5.6,5.3h-3.1c-.5-1.2-.8-2.8-.8-4.5h0Z"/>
    <path class="st0" d="M20.7,14.9c-.4-.4-.6-1-.6-1.7s.2-1.3.6-1.8,1-.6,1.8-.6,1.3.2,1.7.6c.4.4.6,1,.6,1.7s-.2,1.3-.6,1.8c-.4.4-1,.7-1.8.7s-1.2-.2-1.6-.6ZM20.8,28.9c-.4-.4-.6-1-.6-1.7s.2-1.3.6-1.8,1-.6,1.8-.6,1.3.2,1.7.6c.4.4.6,1,.6,1.7s-.2,1.3-.6,1.8c-.4.4-1,.7-1.8.7s-1.2-.2-1.6-.6Z"/>
    <path class="st1" d="M31,28c-1.1-1-1.6-2.3-1.6-3.9s1-3.7,2.9-4.7c2-1,5-1.5,9.2-1.5h.5v2.1h-.5c-3,0-5.2.3-6.6,1-1.4.6-2.1,1.7-2.1,3.1s.3,1.7.9,2.2c.6.5,1.5.8,2.5.8,2.2,0,4.1-1.3,5.8-4v2.3c-.6,1.3-1.5,2.3-2.7,3.1-1.2.7-2.5,1.1-4,1.1s-3.2-.5-4.4-1.5h0ZM41.5,24.6v-6.9c0-1.8-.4-3.1-1.1-3.9s-2-1.2-3.7-1.2-1.7,0-2.7.3c-1,.2-2,.4-2.9.7l-.2-.2.9-2.4c1.1-.3,2.1-.5,3-.6.9-.1,1.7-.2,2.5-.2,2.5,0,4.3.5,5.6,1.6,1.3,1.1,1.9,2.6,1.9,4.7v7.4c0,1.7.2,3.5.6,5.3h-3.1c-.5-1.2-.8-2.8-.8-4.5h0Z"/>
    <path class="st0" d="M50.1,14.9c-.4-.4-.6-1-.6-1.7s.2-1.3.6-1.8c.4-.4,1-.6,1.8-.6s1.3.2,1.7.6c.4.4.6,1,.6,1.7s-.2,1.3-.7,1.8c-.4.4-1,.7-1.8.7s-1.2-.2-1.6-.6Z"/>
    <path class="st1" d="M71,28c-1.1-1-1.7-2.3-1.7-3.9s1-3.7,2.9-4.7c2-1,5-1.5,9.2-1.5h.5v2.1h-.5c-3,0-5.2.3-6.6,1-1.4.6-2.1,1.7-2.1,3.1s.3,1.7.9,2.2c.6.5,1.5.8,2.6.8,2.2,0,4.1-1.3,5.8-4v2.3c-.6,1.3-1.5,2.3-2.7,3.1-1.2.7-2.5,1.1-4,1.1s-3.2-.5-4.3-1.5h0ZM81.5,24.6v-6.9c0-1.8-.4-3.1-1.1-3.9s-2-1.2-3.7-1.2-1.7,0-2.7.3c-1,.2-2,.4-2.8.7l-.2-.2.9-2.4c1.1-.3,2.1-.5,3-.6s1.7-.2,2.5-.2c2.5,0,4.3.5,5.6,1.6,1.3,1.1,1.9,2.6,1.9,4.7v7.4c0,1.7.2,3.5.6,5.3h-3.1c-.5-1.2-.8-2.8-.8-4.5h0Z"/>
    <path class="st0" d="M96.2,10.6l-3.6,6.4-3.6-6.4h7.2,0ZM96.2,29.1h-7.2l3.6-6.4,3.6,6.4h0Z"/>
    <path class="st1" d="M102.1,28c-1.1-1-1.7-2.3-1.7-3.9s1-3.7,2.9-4.7c2-1,5-1.5,9.2-1.5h.5v2.1h-.5c-3,0-5.2.3-6.6,1-1.4.6-2.1,1.7-2.1,3.1s.3,1.7.9,2.2c.6.5,1.5.8,2.6.8,2.2,0,4.1-1.3,5.8-4v2.3c-.6,1.3-1.5,2.3-2.7,3.1-1.2.7-2.5,1.1-4,1.1s-3.2-.5-4.3-1.5h0ZM112.5,24.6v-6.9c0-1.8-.4-3.1-1.1-3.9s-2-1.2-3.7-1.2-1.7,0-2.7.3c-1,.2-2,.4-2.8.7l-.2-.2.9-2.4c1.1-.3,2.1-.5,3-.6s1.7-.2,2.5-.2c2.5,0,4.3.5,5.6,1.6,1.3,1.1,1.9,2.6,1.9,4.7v7.4c0,1.7.2,3.5.6,5.3h-3.1c-.5-1.2-.8-2.8-.8-4.5h0Z"/>
    <path class="st0" d="M126.7,10.6l-3.6,6.4-3.6-6.4h7.2,0Z"/>
  </g>
</svg>