<?xml version="1.0" encoding="UTF-8"?>
<svg id="Layer_1" data-name="Layer 1" xmlns="http://www.w3.org/2000/svg" viewBox="0 0 173.57 31.53">
  <defs>
    <style>
      .cls-1 {
        fill: #231f20;
      }

      .cls-2 {
        fill: #fff;
      }
    </style>
  </defs>
  <rect class="cls-2" x="2.82" width="170.75" height="31.53"/>
  <g>
    <path class="cls-1" d="M7.36,19.69l-.08,2.42c-2.21-.1-3.98-.7-5.3-1.8-1.32-1.09-1.98-2.52-1.98-4.28,0-1.11.26-2.09.78-2.94.52-.85,1.24-1.52,2.16-2.01s1.97-.73,3.15-.73c.61,0,1.15.07,1.62.2l-.02,2.23c-.52-.12-1.02-.18-1.5-.18-.92,0-1.66.29-2.22.87-.55.58-.83,1.36-.83,2.35,0,1.11.36,1.99,1.09,2.66.73.66,1.77,1.07,3.12,1.21ZM9.9,29.11h-3.4V1.72l3.4-.55v27.93ZM9.22,22.03l.23-2.32c.79,0,1.56-.09,2.29-.27.74-.18,1.49-.46,2.28-.84l.14.14-.59,2.3c-.48.27-1.15.51-1.99.7-.85.2-1.63.29-2.36.29Z"/>
    <path class="cls-1" d="M26.64,29.11v-2.87c1.37-.51,2.71-1.34,4.02-2.49,1.31-1.15,2.41-2.42,3.28-3.82l.96.31.98.27c-.55,1.24-1.32,2.44-2.3,3.6-.99,1.17-2.09,2.19-3.29,3.07-1.2.88-2.42,1.52-3.64,1.92ZM41.89,21.7h-14.67v-2.34h15l-.33,2.34ZM37.24,19.59h-5.14c-1.21-1.57-2.13-3.23-2.74-4.97-.62-1.74-.93-3.53-.93-5.38,0-1.71.25-3.16.76-4.37.51-1.2,1.25-2.12,2.22-2.75.97-.63,2.14-.95,3.51-.95,1.98,0,3.51.65,4.6,1.95,1.09,1.3,1.63,3.12,1.63,5.45,0,1.84-.34,3.71-1.03,5.63-.68,1.92-1.64,3.71-2.88,5.38ZM34.7,19.14l-.1.04c.65-.92,1.2-1.95,1.65-3.07.45-1.12.79-2.3,1.03-3.54.23-1.24.35-2.5.35-3.78,0-3.52-.95-5.27-2.85-5.27s-2.83,1.86-2.83,5.57c0,1.9.23,3.69.69,5.35.46,1.67,1.15,3.24,2.06,4.71ZM42.77,26.33l-.41,2.77c-1.89-.66-3.58-1.65-5.09-2.96s-2.84-2.97-4.01-4.99l2.73-.12c.86,1.19,1.88,2.25,3.07,3.19,1.18.94,2.42,1.64,3.71,2.1Z"/>
  </g>
</svg>