<?xml version="1.0" encoding="UTF-8"?>
<svg id="Layer_1" data-name="Layer 1" xmlns="http://www.w3.org/2000/svg" viewBox="0 0 173.44 34.69">
  <defs>
    <style>
      .cls-1 {
        fill: #231f20;
      }

      .cls-2 {
        fill: #fff;
      }
    </style>
  </defs>
  <rect class="cls-2" x="2.68" y="3.16" width="170.75" height="31.53"/>
  <g>
    <path class="cls-1" d="M3.67,32.27H0L8.91,12.58l1.31,5.78h-.59l-5.96,13.91ZM18.34,32.27h-3.22l-6.29-16.44-2.11-5.49c-.4-1.08-.87-1.83-1.4-2.26-.53-.42-1.24-.63-2.14-.63s-1.89.15-2.93.45l-.18-.18,1.15-3.07c.78-.21,1.52-.31,2.23-.31.89,0,1.67.18,2.36.54.69.36,1.32.93,1.88,1.71s1.1,1.81,1.61,3.09l9.02,22.6ZM15.39,12.6l-12.89,2.66v-2.48l13.26-2.73-.37,2.56ZM13.11,0c.87,0,1.56.29,2.06.87.5.58.75,1.36.75,2.35,0,1.32-.44,2.46-1.33,3.43-.89.97-2.05,1.59-3.5,1.87l-.51-1.8c1.77-.43,2.66-1.33,2.66-2.71,0-.44-.11-.89-.33-1.33l1.35.62c-.42.52-.98.78-1.68.78-.56,0-1.01-.17-1.36-.52-.35-.34-.52-.8-.52-1.38,0-.65.22-1.18.66-1.58.44-.4,1.02-.61,1.74-.61Z"/>
    <path class="cls-1" d="M34.41,32.27h-3.67l8.91-19.69,1.31,5.78h-.59l-5.96,13.91ZM49.08,32.27h-3.22l-6.29-16.44-2.11-5.49c-.4-1.08-.87-1.83-1.4-2.26-.53-.42-1.25-.63-2.18-.63s-1.89.15-2.89.45l-.18-.18,1.15-3.07c.74-.21,1.47-.31,2.19-.31.9,0,1.7.18,2.39.54.7.36,1.33.93,1.89,1.71s1.1,1.81,1.61,3.09l9.02,22.6ZM34.67,16.25l-1.66-.78c.3-1.42.8-2.54,1.51-3.36.71-.82,1.54-1.23,2.49-1.23.35,0,.72.07,1.11.2l1,2.95c-.64-.35-1.2-.53-1.68-.53-.65,0-1.2.22-1.64.65-.44.44-.82,1.14-1.13,2.1ZM43.02,14.88c-.22,0-.44-.02-.66-.05-.22-.03-.41-.07-.57-.13l-1.15-2.97c.75.47,1.48.7,2.17.7.65,0,1.19-.22,1.61-.66.42-.44.77-1.14,1.04-2.09l1.72.8c-.31,1.42-.83,2.51-1.54,3.26-.72.76-1.59,1.13-2.62,1.13ZM43.85,0c.87,0,1.56.29,2.06.87.5.58.75,1.36.75,2.35,0,1.32-.44,2.46-1.33,3.43-.89.97-2.05,1.59-3.5,1.87l-.51-1.8c1.77-.43,2.66-1.33,2.66-2.71,0-.44-.11-.89-.33-1.33l1.35.62c-.42.52-.98.78-1.68.78-.56,0-1.01-.17-1.36-.52-.35-.34-.52-.8-.52-1.38,0-.65.22-1.18.66-1.58.44-.4,1.02-.61,1.74-.61Z"/>
  </g>
</svg>