<?xml version="1.0" encoding="UTF-8"?>
<svg id="Layer_1" data-name="Layer 1" xmlns="http://www.w3.org/2000/svg" viewBox="0 0 170.75 37.56">
  <defs>
    <style>
      .cls-1 {
        fill: #231f20;
      }

      .cls-2 {
        fill: #fff;
      }
    </style>
  </defs>
  <rect class="cls-2" width="170.75" height="31.53"/>
  <path class="cls-1" d="M14.16,37.56c-.64,0-1.16-.05-1.56-.16-.4-.1-.77-.21-1.09-.31l-.59-2.32.14-.14c.56.17,1.04.29,1.45.37.4.08.83.12,1.29.12,1.02,0,1.81-.29,2.38-.86.57-.57.86-1.52.86-2.85v-2.3L5.19,12.97c-.42-.57-.8-1.15-1.15-1.72-.35-.57-.7-1.16-1.04-1.76h-.16v19.61H.01V3.44h2.71l11.84,16.13c.42.56.8,1.13,1.16,1.7.36.57.7,1.17,1.03,1.78h.16V3.44h2.83v27.69c0,2.14-.47,3.74-1.4,4.81-.93,1.07-2.33,1.61-4.19,1.61Z"/>
</svg>