<?xml version="1.0" encoding="UTF-8"?>
<svg id="Layer_1" xmlns="http://www.w3.org/2000/svg" version="1.1" viewBox="0 0 170.8 37.6">
  <!-- Generator: Adobe Illustrator 29.3.1, SVG Export Plug-In . SVG Version: 2.1.0 Build 151)  -->
  <defs>
    <style>
      .st0 {
        fill: #231f20;
      }

      .st1 {
        fill: #fff;
      }
    </style>
  </defs>
  <rect class="st1" width="170.8" height="37.6"/>
  <path class="st0" d="M14.2,37.6c-.6,0-1.2,0-1.6-.2-.4,0-.8-.2-1.1-.3l-.6-2.3h.1c.6,0,1,.2,1.4.2.4,0,.8.1,1.3.1,1,0,1.8-.3,2.4-.9s.9-1.5.9-2.9v-2.3L5.2,13c-.4-.6-.8-1.1-1.2-1.7-.3-.6-.7-1.2-1-1.8h-.2v19.6H0V3.4h2.7l11.8,16.1c.4.6.8,1.1,1.2,1.7.4.6.7,1.2,1,1.8h.2V3.4h2.8v27.7c0,2.1-.5,3.7-1.4,4.8s-2.3,1.6-4.2,1.6h0Z"/>
</svg>