<?xml version="1.0" encoding="UTF-8"?>
<svg id="Layer_1" xmlns="http://www.w3.org/2000/svg" version="1.1" viewBox="0 0 173.3 87.5">
  <!-- Generator: Adobe Illustrator 29.3.1, SVG Export Plug-In . SVG Version: 2.1.0 Build 151)  -->
  <defs>
    <style>
      .st0 {
        fill: #231f20;
      }

      .st1 {
        fill: #bf2429;
      }

      .st2 {
        fill: #fff;
      }
    </style>
  </defs>
  <rect class="st2" x="0" width="173.3" height="87.5"/>
  <g>
    <path class="st0" d="M4.4,24.7h-.2c.2,4.8,1.4,11.7,1.4,12.7s-1.2,2-2.1,2-1.5-.4-1.5-1.4.3-3.6.4-13.6c0-11.1,0-23.2,8-23.2s5.6,3.2,5.6,6.7-1.2,4.6-3.1,6.2l.9.6c2.6,1.7,3.8,4.3,3.8,7.4,0,4.7-3,7.7-6.6,7.7s-4.8-1.3-6.7-5h0ZM14.2,8.4c0-2.1-1.4-4-3.6-4-5.5,0-6.3,10.5-6.3,15.5s2.3,6.3,6.1,6.3,5-2.4,5-5.1-1.2-5-3.7-6c-.9.6-2.3,1.2-3.6,1.2s-1.5-.5-1.5-1.1,1.1-2.3,3.1-2.3,1.3.1,1.9.4c1.5-1.2,2.6-2.8,2.6-5h0Z"/>
    <path class="st0" d="M28,29c-.5-4.1-1.9-14.2-7-14.2s-1,0-1.5.2c-.2-.4-.4-.9-.4-1.3,0-1.3,1.1-2.6,2.6-2.6,3.3,0,5.6,5.7,7.4,14.2h.1c1.4-4.4,4.7-14.1,7.7-14.1s1.9.6,2.2,2c-4.3,2.2-8.1,9.7-9.4,15.3.4,3.1.7,6.3.7,8.6s-1.3,2.3-2.4,2.3-1.5-.5-1.5-1.8c0-2.9.7-5.8,1.5-8.6h0Z"/>
    <path class="st0" d="M40.4,21.1c0-4.5,2.5-9.2,6-9.2s1.6.5,2.9,1.5h.1c-2.9-3.7-7.3-6.2-7.3-9.2s1.1-3.2,3.5-3.2c4.2,0,10,5.3,10,7s-.8,1.4-2.2,1.8c-3.8-4.2-7.5-6.7-8.9-6.7s-.8.4-.8.8c0,1.4,1.7,2.6,4.6,5.1,3,2.5,6.2,5.9,6.2,11.2s-3.7,9.4-7.6,9.4-6.4-4.8-6.4-8.6h0ZM49.2,14.7c-4.2,0-7.2,2.8-7.2,6.8s1.1,4.8,4.3,4.8,5.7-3.4,5.7-6.6-.6-3.4-1.5-4.8h-1.3c0,0,0,0,0,0Z"/>
    <path class="st0" d="M58.3,16.3c0-6.8,2.1-15.1,6.6-15.1s6,7.5,6,14-1.6,14.5-6.3,14.5-6.3-6.4-6.3-13.4h0ZM60,15.6v1.2c0,5.3,1.4,9.4,4.4,9.4s5-5,5-11.2h-.2c-.5,1.4-1.3,1.6-2.8,1.6-2,0-4.6-.5-6.5-.9h0ZM64.8,14.1c1.8,0,3.1,0,4.5-.4-.2-5-1.6-9.1-4.2-9.1s-4.5,3.2-5.1,9.4c1.9,0,3.5.1,4.8.1h0Z"/>
    <path class="st0" d="M85.4,23.9c-.8-2.6-1.4-5.2-2-7.9h-.1c-2,4.3-4.2,8.6-6,13-.1.2-.2.2-.6.2-.9,0-2.8.1-3,.1s-.2,0-.2-.1,0-.1.1-.3c2.8-5.9,5.9-11.2,8.9-17v-.5c-.9-3.2-1.7-6.7-5.5-6.7s-2.3.2-3.5.6c0-.5,0-.6,0-.8,0-2,1.5-3.3,3.6-3.3,5.5,0,6.3,6.7,7.8,12.5l.3,1.1c2.5,9.6,3,11.4,5.2,11.4s1.2-.1,1.8-.4c.2.4.2.8.2,1.1,0,1.5-1.1,2.7-2.6,2.7-2.7,0-3.7-3.8-4.2-5.7Z"/>
    <path class="st0" d="M101.7,37.4c0-1.5.2-5,.3-7.6-4.5-.5-7.9-4.1-7.9-8.8,0-7,6.4-10.8,9.4-10.8s1,.6,1,1.4-.3,1.5-.9,1.9c-5,1.1-7.8,4.4-7.8,7.8s3.2,4.9,6.2,5.1c.3-7.5,1.3-14.1,6.4-14.1s5,3.6,5,7.3c0,5.8-3.7,9.8-9.4,10.1.2,3.5,1,6.6,1,7.5s-1,1.6-1.9,1.6-1.4-.3-1.4-1.5h0ZM111.9,19.8c0-2.7-1.4-4.3-3.4-4.3-4,0-4.2,5.1-4.5,11,3.8-.3,7.9-2.5,7.9-6.7Z"/>
    <path class="st0" d="M124.4,27.3h-.1c-1.9,3.6-4.4,7.6-6.2,11.3-.1.2-.2.2-.6.2-.9,0-2.7.1-2.9.1s-.2,0-.2-.1,0-.1.1-.3c2.6-4.8,6.8-11.5,8.8-14.9-2-6.9-2.8-9.1-5.8-9.1s-1.1,0-1.9.3c-.1-.4-.2-.8-.2-1.1,0-1.5,1.1-2.6,2.8-2.6s3.9,2,6.3,10.6h0l6.1-9.9c.3-.5.8-.5,1.6-.5s1.5,0,1.9.2c.2,0,.3.2.3.2,0,.2-4,5.9-8.8,13.5,3.1,9.8,3.7,10.8,6.3,10.8s1.3-.2,1.9-.5c.2.4.2.8.2,1.2,0,1.4-1.1,2.6-2.7,2.6-2.8,0-4.1-3.3-6.8-12.1h0Z"/>
    <path class="st0" d="M135.7,21c0-5,2-8.5,3.6-9.4.3-.2.6-.3,1.1-.3,1.1,0,2.1,1,2.1,2.4-3.9,1.8-5.3,5.2-5.3,8s1.8,4.6,3.8,4.6,2.8-.8,3.6-2.1c-.4-1.1-.9-2.8-.9-4.5s1.1-2.4,2.2-2.4,1.6.5,1.6,2.1-.5,3.7-1.2,5.2c.8.9,1.9,1.6,3.3,1.6,2.9,0,3.9-3.4,3.9-5.9s-.8-5.5-2.8-7.6c-.2-.2-.2-.2-.2-.3,0-.2.8-1.1,1.1-1.1s4.3,3.5,4.3,9.8-1.5,8.7-6,8.7-3.1-1.3-4.2-3.6h-.2c-.9,1.5-2.5,3.6-4.7,3.6s-5.1-3.2-5.1-8.7h0Z"/>
    <path class="st0" d="M6,76.6h0v5.2c0,3.9,0,4,2.7,4.2,0,0,.1.2.1.5s0,.6-.2.6c-.5,0-3.2-.1-4.1-.1-1.4,0-3.8.1-4.3.1S0,86.9,0,86.6s0-.6.2-.6c2-.2,2.3-.3,2.3-4.2v-23.7c0-5.6,2.5-8.9,7.9-8.9s7.2,2.2,7.2,6.1-1.5,5.2-4.6,6.5v.2c4.2.9,6,3.7,6,7.1,0,6-4.4,8.7-9,8.7s-3-.3-4-1.1h0ZM9.4,63.5c-1.2,0-1.8-.6-1.8-1.3s.7-1.5,2.1-1.5,1.3.2,2.1.5c1.7-1,2.3-3.1,2.3-5.2s-.6-5.5-4-5.5-4.3,2.4-4.3,6.2v17.3c0,1.6,1.9,2.4,4.1,2.4,4.3,0,5.3-3.3,5.3-7.1s-1.1-5.7-3.4-6.4c-.7.4-1.4.7-2.4.7h0Z"/>
    <path class="st0" d="M25.2,83.7c0-2.8,1.8-5.6,2.9-7.2l-4.6-11.3c-1.5-3.8-1.7-4.1-3.6-4.2-.1,0-.2-.2-.2-.4s0-.6.2-.6c.5,0,3,0,4,0s3.4,0,3.9,0,.2.2.2.5,0,.5-.2.5c-1.2,0-1.7.2-1.7,1s.2,1.1.7,2.3l3.6,8.7h0l3.6-8.7c.6-1.6.7-1.9.7-2.4,0-.8-.6-.9-2.1-1-.1,0-.1-.2-.1-.4s0-.6.2-.6c.4,0,2.5,0,3.2,0,1.1,0,2.9,0,3.4,0s.1.2.1.5,0,.5-.1.5c-1.9.1-2,.5-3.7,4.3l-4.1,9.6c1.2,2.3,2.7,5.8,2.7,8s-2.4,4.6-5,4.6-3.8-1.2-3.8-3.7h0ZM29,78.2c-1.1,1.4-2,3.9-2,5.4s.5,2.2,1.9,2.2,1.9-1,1.9-2.3-1-4.4-1.6-5.4c0,0-.2,0-.2,0Z"/>
    <path class="st0" d="M39.8,69.5c0-4.9,2.6-8,7.6-9.5-2.1-1.6-5-3.4-5-6.2s2.6-4.6,6.9-4.6,6,1.6,6,3.1-.6,1.6-1.8,1.6-.8,0-1.2-.2c-.1-2.2-1-3.2-3.3-3.2s-3.6,1-3.6,2.6.9,2.3,3.5,4.3c3.4,2.7,7.7,5.9,7.7,11.6s-3,8.7-8.7,8.7-8.1-3.2-8.1-8.2h0ZM43.5,69.1c0,2.9.9,7.3,4.8,7.3s4.5-3.2,4.5-6.7-1.4-6.4-4.2-8.8c-3.9.9-5,4.4-5,8.2h0Z"/>
    <path class="st1" d="M60.1,63.9c0-9.8,2.9-14.7,8.4-14.7s8,.8,8,13.7-2.7,14.8-8.4,14.8-8.1-.9-8.1-13.8h0ZM73,64.1h-9.4c0,3.6.5,12.4,4.8,12.4s4.6-8.8,4.6-12.4h0ZM73,62.5c0-3.6-.5-12.1-4.7-12.1s-4.6,8.6-4.7,12.1h9.3Z"/>
    <path class="st0" d="M90.9,71.9c-.8-2.6-1.4-5.2-2-7.9h-.1c-2,4.3-4.2,8.6-6,13-.1.2-.2.2-.6.2-.9,0-2.8.1-3,.1s-.2,0-.2-.1,0-.1.1-.3c2.8-5.8,5.9-11.2,8.9-17v-.5c-.9-3.2-1.7-6.7-5.5-6.7s-2.3.2-3.5.6c0-.5,0-.6,0-.8,0-2,1.5-3.3,3.6-3.3,5.5,0,6.3,6.7,7.8,12.5l.3,1.1c2.5,9.6,3,11.4,5.2,11.4s1.2-.1,1.8-.4c.2.4.2.8.2,1.1,0,1.5-1.1,2.7-2.6,2.7-2.7,0-3.7-3.8-4.2-5.8h0Z"/>
    <path class="st0" d="M106.5,86.6c0-.2,0-.6.2-.6,2.4-.2,2.7-.3,2.7-4.2v-4.1c-5.2-.4-9.6-2.9-9.6-9s4.3-8.9,9.6-9.4v-6c0-2.7-.4-2.9-2.8-2.9s-.2-.2-.2-.5,0-.5.2-.5c1.3-.1,4.6-.3,5.5-.3s.8.2.8.8l-.2,9.3c5.2.3,9.7,2.7,9.7,8.7s-4.2,9.2-9.7,9.8v4.1c0,3.9,0,4,2.7,4.2.1,0,.2.2.2.5s0,.6-.2.6c-.5,0-3.1-.1-4-.1-1.4,0-4,.1-4.6.1s-.2-.2-.2-.5h0ZM109.3,60.5c-4.2.5-6.1,3.2-6.1,7.8s1.7,7.7,6.1,8.3c0,0,0-16.1,0-16.1ZM112.6,76.6c4.3-.5,6.1-3.2,6.1-7.9s-1.5-7.8-6.1-8.3v16.1h0Z"/>
    <path class="st0" d="M132.3,76.4l-1.9,4.8c-1.7,4.2-3.2,6.3-5.7,6.3s-2.4-1-2.4-2.1.2-1.1.6-1.6c.8.4,1.5.5,2.1.5,2.5,0,3.4-2.2,5.3-7l1.2-2.9-3.6-8.6c-1.7-4.1-2.4-4.7-4.6-4.8-.1,0-.2-.2-.2-.4s0-.6.2-.6c.5,0,3.1,0,4.1,0s1.2,0,1.6,0,.3.2.5.5c.4,1.1.8,2.2,1.6,4.2l2.4,5.6,1.8-4.3c1.7-4.2,3.3-6.5,5.7-6.5s2,.9,2,1.9-.2,1.3-.6,1.8c-.5-.2-.8-.3-1.5-.3-2.4,0-3.4,1.9-5.5,7l-1,2.5,3.8,9c1.7,4.1,2.4,4.7,4.6,4.8.1,0,.2.1.2.5s0,.6-.2.6c-.5,0-3.1-.1-4-.1s-1.2,0-1.6,0-.3-.2-.5-.6c-.4-1.1-.8-2.2-1.6-4.2l-2.5-6h0Z"/>
    <path class="st0" d="M155.8,74.5h0c-.7,1.7-1.6,3.2-4.4,3.2-4.2,0-7.1-3.4-7.1-8.2s2.8-8.6,8-9.8c.3,0,.6,1.2.4,1.3-3,1.2-4.7,3.8-4.7,8.4s1.6,7,3.9,7,2.6-1.1,3.1-4.2c-.6-1.1-1.2-3.1-1.2-4.6s1-2.6,2-2.6,2,.6,2,2.6-.5,3.1-1.1,4.7c.6,2.9,1.9,4.2,3.5,4.2,2.3,0,3.7-2.7,3.7-7s-1.6-7.2-4.4-8.4c-.2,0,.2-1.3.4-1.3,5.2,1.2,7.7,5,7.7,9.5s-3.1,8.5-7.3,8.5-3.4-1-4.4-3.2h0Z"/>
  </g>
</svg>