<?xml version="1.0" encoding="UTF-8"?>
<svg id="Layer_1" data-name="Layer 1" xmlns="http://www.w3.org/2000/svg" viewBox="0 0 174.06 82.4">
  <defs>
    <style>
      .cls-1 {
        fill: #231f20;
      }

      .cls-2 {
        fill: #bf2429;
      }

      .cls-3 {
        fill: #fff;
      }
    </style>
  </defs>
  <rect class="cls-3" width="174.06" height="82.4"/>
  <g>
    <path class="cls-1" d="M4.95,24.95l-.16.04c.2,4.52,1.36,11.07,1.36,12.07s-1.12,1.92-2.04,1.92c-.72,0-1.4-.4-1.4-1.36,0-1.04.32-3.4.4-12.99.08-10.55.08-22.11,7.64-22.11,3.24,0,5.36,3.04,5.36,6.36,0,2.35-1.11,4.36-2.99,5.91l.87.53c2.48,1.64,3.64,4.12,3.64,7.04,0,4.44-2.84,7.32-6.28,7.32-2.32,0-4.56-1.28-6.4-4.72ZM14.23,9.4c0-2.04-1.36-3.84-3.44-3.84-5.2,0-5.96,10.03-5.96,14.79,0,3.6,2.24,6.04,5.84,6.04,3.24,0,4.76-2.32,4.76-4.84,0-2.28-1.16-4.8-3.56-5.68-.88.6-2.24,1.16-3.44,1.16-1,0-1.44-.44-1.44-1,0-.76,1.04-2.24,2.96-2.24.62,0,1.24.14,1.84.37,1.43-1.13,2.44-2.67,2.44-4.77Z"/>
    <path class="cls-1" d="M27.63,29.04c-.48-3.87-1.8-13.52-6.72-13.52-.48,0-.96.04-1.48.24-.24-.4-.36-.84-.36-1.24,0-1.28,1.04-2.48,2.48-2.48,3.12,0,5.36,5.44,7.04,13.55h.1c1.33-4.23,4.49-13.47,7.38-13.47.96,0,1.8.56,2.08,1.92-4.08,2.08-7.68,9.27-8.92,14.59.4,2.96.68,6.04.68,8.16,0,1.24-1.28,2.2-2.28,2.2-.76,0-1.44-.52-1.44-1.72,0-2.75.66-5.56,1.44-8.22Z"/>
    <path class="cls-1" d="M38.64,21.47c0-4.32,2.36-8.79,5.68-8.79,1,0,1.56.44,2.8,1.44l.12-.12c-2.74-3.37-6.96-5.74-6.96-8.68,0-1.64,1.08-3,3.32-3,3.96,0,9.56,5.08,9.56,6.68,0,.68-.72,1.32-2.12,1.76-3.64-4-7.12-6.36-8.52-6.36-.52,0-.76.4-.76.8,0,1.32,1.6,2.44,4.36,4.84,2.84,2.4,5.88,5.6,5.88,10.67,0,5.4-3.48,8.96-7.28,8.96-4.16,0-6.08-4.52-6.08-8.2ZM46.99,15.39c-4.04,0-6.88,2.68-6.88,6.48,0,2.08,1.04,4.52,4.12,4.52,3.72,0,5.44-3.24,5.44-6.32,0-1.65-.57-3.24-1.41-4.6l-1.27-.08Z"/>
    <path class="cls-1" d="M55.64,16.91c0-6.44,1.96-14.39,6.32-14.39,4.12,0,5.72,7.12,5.72,13.31s-1.52,13.83-6.04,13.83c-3.96,0-6-6.08-6-12.75ZM57.15,16.24v1.15c0,5.04,1.36,8.92,4.2,8.92,3.15,0,4.79-4.76,4.8-10.68l-.16-.03c-.44,1.32-1.28,1.52-2.64,1.52-1.93,0-4.36-.43-6.2-.87ZM61.79,14.83c1.76,0,2.96-.09,4.32-.33-.2-4.8-1.48-8.71-4-8.71-2.25,0-4.25,3.08-4.85,8.92,1.8.09,3.32.12,4.53.12Z"/>
    <path class="cls-1" d="M80.83,24.11c-.76-2.48-1.31-5-1.91-7.56h-.13c-1.88,4.08-3.96,8.16-5.72,12.35-.12.2-.16.2-.6.24-.88.04-2.64.12-2.84.12-.16,0-.24-.04-.24-.12,0-.04.04-.12.12-.28,2.67-5.57,5.64-10.64,8.47-16.14l-.11-.45c-.76-3.04-1.48-6.4-5.16-6.4-1.32,0-2.16.16-3.32.56-.08-.44-.08-.6-.08-.8,0-1.88,1.4-3.12,3.44-3.12,5.28,0,5.96,6.36,7.4,11.91l.28,1.08c2.36,9.15,2.84,10.83,4.96,10.83.48,0,1.16-.12,1.76-.4.16.36.2.72.2,1.08,0,1.4-1.04,2.56-2.48,2.56-2.52,0-3.48-3.6-4.04-5.48Z"/>
    <path class="cls-1" d="M95.67,36.98c0-1.38.17-4.72.32-7.27-4.25-.52-7.52-3.88-7.52-8.33,0-6.68,6.12-10.23,8.92-10.23.6,0,.96.56.96,1.32,0,.6-.28,1.4-.88,1.84-4.8,1.08-7.4,4.24-7.4,7.48s3.06,4.63,5.9,4.87c.25-7.12,1.28-13.46,6.06-13.46,2.72,0,4.8,3.44,4.8,6.92,0,5.52-3.56,9.34-8.96,9.66.21,3.33.96,6.25.96,7.1,0,.92-.96,1.52-1.8,1.52s-1.36-.32-1.36-1.4ZM105.35,20.27c0-2.56-1.36-4.12-3.24-4.12-3.85,0-4.03,4.9-4.25,10.51,3.59-.29,7.49-2.37,7.49-6.4Z"/>
    <path class="cls-1" d="M116.35,27.43h-.11c-1.86,3.43-4.16,7.27-5.89,10.75-.12.2-.16.2-.6.24-.88.04-2.56.12-2.76.12-.16,0-.24-.04-.24-.12,0-.04.04-.12.12-.28,2.48-4.61,6.49-10.97,8.37-14.16-1.9-6.6-2.7-8.62-5.53-8.62-.52,0-1.08.08-1.8.28-.12-.36-.16-.72-.16-1.04,0-1.4,1-2.52,2.64-2.52,2.28,0,3.72,1.88,5.96,10.11h.09l5.83-9.47c.28-.44.76-.48,1.52-.48.56,0,1.4.08,1.76.2.24.08.28.16.28.24,0,.2-3.84,5.58-8.38,12.84,2.96,9.3,3.51,10.3,5.98,10.3.48,0,1.2-.16,1.8-.44.16.36.24.76.24,1.12,0,1.36-1.08,2.48-2.6,2.48-2.68,0-3.88-3.16-6.52-11.55Z"/>
    <path class="cls-1" d="M126.8,21.39c0-4.72,1.88-8.08,3.48-8.99.28-.16.56-.28,1.08-.28,1.08,0,2,.92,2.04,2.24-3.68,1.72-5.04,5-5.04,7.6,0,3.04,1.72,4.36,3.6,4.36,1.32,0,2.68-.72,3.48-1.96-.4-1.04-.88-2.67-.88-4.24,0-1.4,1.08-2.32,2.08-2.32.8,0,1.56.52,1.56,1.96s-.47,3.54-1.17,5c.76.88,1.86,1.56,3.13,1.56,2.8,0,3.72-3.2,3.72-5.64s-.8-5.28-2.64-7.28c-.16-.16-.24-.24-.24-.32,0-.24.8-1,1-1,.24,0,4.08,3.36,4.08,9.31,0,3.12-1.4,8.28-5.68,8.28-1.72,0-3-1.28-4.04-3.48h-.18c-.81,1.4-2.34,3.48-4.5,3.48-2.56,0-4.88-3.04-4.88-8.28Z"/>
    <path class="cls-1" d="M6.43,70.63l-.08.04v4.96c0,3.72,0,3.84,2.6,4.04.08,0,.12.24.12.44,0,.24-.04.56-.16.56-.48,0-3.04-.12-3.88-.12-1.32,0-3.6.12-4.12.12-.16,0-.2-.24-.2-.48,0-.2.04-.52.2-.52,1.88-.16,2.24-.32,2.24-4.04v-22.59c0-5.32,2.4-8.51,7.52-8.51,4.36,0,6.84,2.08,6.84,5.8,0,2.44-1.48,4.92-4.36,6.16v.17c4.04.84,5.68,3.55,5.68,6.79,0,5.72-4.16,8.24-8.56,8.24-1.48,0-2.88-.32-3.84-1.04ZM9.71,58.15c-1.16,0-1.72-.6-1.72-1.24,0-.72.68-1.44,2-1.44.56,0,1.24.16,2.04.52,1.64-1,2.2-2.96,2.2-5,0-2.68-.6-5.28-3.8-5.28-3.36,0-4.08,2.32-4.08,5.88v16.47c0,1.48,1.84,2.28,3.88,2.28,4.12,0,5.04-3.16,5.04-6.76,0-2.77-1.09-5.4-3.24-6.08-.67.38-1.37.64-2.32.64Z"/>
    <path class="cls-1" d="M25.23,77.42c0-2.63,1.7-5.35,2.76-6.91l-4.36-10.72c-1.48-3.64-1.6-3.88-3.48-4.04-.12,0-.16-.16-.16-.4s.04-.56.2-.56c.48,0,2.84.08,3.8.08,1.16,0,3.28-.08,3.72-.08.16,0,.16.24.16.48s0,.48-.16.48c-1.16.08-1.64.16-1.64.96,0,.44.16,1.08.64,2.24l3.39,8.28h.05l3.4-8.24c.6-1.52.64-1.8.64-2.28,0-.8-.56-.88-2.04-.96-.12,0-.12-.16-.12-.4s0-.56.16-.56c.36,0,2.36.08,3.04.08,1.08,0,2.8-.08,3.2-.08.12,0,.12.24.12.48s0,.48-.12.48c-1.8.12-1.92.48-3.48,4.08l-3.95,9.14c1.18,2.22,2.59,5.5,2.59,7.65,0,2.88-2.28,4.36-4.72,4.36-2.12,0-3.64-1.12-3.64-3.56ZM28.79,72.19c-1.08,1.36-1.88,3.72-1.88,5.16,0,1.16.52,2.12,1.8,2.12s1.76-.92,1.76-2.16c0-1.74-.99-4.24-1.52-5.12h-.16Z"/>
    <path class="cls-1" d="M38.88,63.83c0-4.65,2.51-7.59,7.21-9.04-1.97-1.56-4.73-3.22-4.73-5.88s2.44-4.4,6.6-4.4c3.88,0,5.68,1.56,5.68,2.96,0,.84-.6,1.56-1.72,1.56-.32,0-.72-.04-1.16-.24-.12-2.08-1-3.04-3.16-3.04-2.32,0-3.44,1-3.44,2.48,0,1.4.88,2.16,3.36,4.08,3.28,2.52,7.32,5.6,7.32,11.03,0,4.6-2.84,8.32-8.28,8.32-4.68,0-7.68-3.08-7.68-7.83ZM42.44,63.47c0,2.76.84,7,4.52,7,3.16,0,4.32-3,4.32-6.4,0-3.77-1.32-6.12-4.05-8.36-3.69.84-4.79,4.21-4.79,7.76Z"/>
    <path class="cls-2" d="M58.4,58.51c0-9.32,2.72-13.99,8.04-13.99,2.88,0,7.6.76,7.6,13.07,0,9.2-2.56,14.07-7.96,14.07-2.96,0-7.68-.84-7.68-13.15ZM70.68,58.67h-8.92c.04,3.47.48,11.79,4.52,11.79s4.37-8.41,4.4-11.79ZM70.67,57.23c-.04-3.47-.49-11.55-4.43-11.55s-4.42,8.16-4.47,11.55h8.9Z"/>
    <path class="cls-1" d="M75.64,71.19c-.16,0-.2-.32-.2-.56s.04-.4.16-.4c1.84-.16,2.28-.6,4-4.28l5.24-11.17c-1.9-4.85-3.1-7.26-5.48-7.26-.56,0-1.36.08-2.12.44-.32-.44-.48-.92-.48-1.36,0-1.12.96-2.08,2.56-2.08,2.24,0,3.96,2.2,5.6,6.4l1.96,5c1.04,2.68,2,5,4.04,10.15,1.48,3.76,1.72,4.04,3.56,4.16.12,0,.12.24.12.48s0,.48-.12.48c-.4,0-2.12-.08-3.2-.08-.68,0-2.68.08-3.04.08-.16,0-.16-.32-.16-.56s0-.4.12-.4c1.48-.08,1.96-.16,1.96-.96,0-.44-.12-1.04-.64-2.36l-3.25-8.44h-.03l-3.92,8.48c-.52,1.12-.8,1.88-.8,2.32,0,.8.56.88,1.72.96.16,0,.16.24.16.48s0,.48-.16.48c-.44,0-2.64-.08-3.8-.08-.96,0-3.32.08-3.8.08Z"/>
    <path class="cls-1" d="M101.86,80.18c0-.2.04-.52.16-.52,2.28-.16,2.56-.32,2.56-4.04v-3.9c-4.98-.38-9.15-2.78-9.15-8.54s4.1-8.45,9.15-8.94v-5.7c0-2.6-.4-2.8-2.68-2.8-.12,0-.16-.2-.16-.44s.04-.48.16-.48c1.2-.12,4.36-.32,5.2-.32.56,0,.76.24.76.8l-.16,8.86c4.96.3,9.19,2.53,9.19,8.25s-3.98,8.8-9.19,9.29v3.91c0,3.72,0,3.84,2.56,4.04.12,0,.16.24.16.44,0,.24-.04.56-.2.56-.44,0-2.96-.12-3.84-.12-1.32,0-3.84.12-4.36.12-.12,0-.16-.24-.16-.48ZM104.58,55.28c-3.99.5-5.8,3.01-5.8,7.43s1.66,7.32,5.8,7.89v-15.31ZM107.7,70.64c4.1-.46,5.8-3.05,5.8-7.49,0-4.79-1.4-7.41-5.8-7.88v15.36Z"/>
    <path class="cls-1" d="M126.26,70.43l-1.85,4.56c-1.6,4-3.04,6-5.4,6-1.48,0-2.28-.92-2.28-1.96,0-.48.16-1,.52-1.52.76.36,1.4.48,1.96.48,2.4,0,3.24-2.12,5.08-6.68l1.17-2.8-3.45-8.2c-1.64-3.92-2.32-4.44-4.4-4.56-.12,0-.16-.16-.16-.4s.04-.56.2-.56c.44,0,2.96.08,3.88.08.68,0,1.12-.04,1.52-.04.24,0,.32.16.44.52.36,1.08.72,2.12,1.52,3.96l2.24,5.33,1.68-4.13c1.64-4.04,3.16-6.24,5.44-6.24,1.36,0,1.88.84,1.88,1.8,0,.6-.2,1.24-.56,1.72-.44-.2-.8-.32-1.4-.32-2.32,0-3.24,1.8-5.24,6.72l-.99,2.37,3.59,8.54c1.64,3.92,2.32,4.44,4.4,4.56.12,0,.16.12.16.44,0,.36-.04.56-.2.56-.44,0-2.92-.12-3.84-.12-.68,0-1.16.04-1.56.04-.24,0-.32-.16-.44-.52-.36-1.08-.72-2.12-1.52-3.96l-2.39-5.68Z"/>
    <path class="cls-1" d="M148.43,68.59h-.09c-.7,1.6-1.53,3.08-4.23,3.08-4,0-6.76-3.2-6.76-7.79s2.68-8.16,7.64-9.32c.32,0,.52,1.12.4,1.2-2.84,1.12-4.48,3.64-4.48,8,0,4.12,1.48,6.68,3.68,6.68,1.4,0,2.52-1.04,3-4-.56-1.04-1.16-2.96-1.16-4.36,0-1.76.92-2.44,1.88-2.44s1.88.6,1.88,2.44c0,1.5-.48,2.99-1.02,4.43.58,2.72,1.8,3.97,3.3,3.97,2.16,0,3.52-2.6,3.52-6.68,0-4.4-1.56-6.84-4.2-8.04-.16-.08.2-1.2.4-1.2,4.92,1.16,7.36,4.72,7.36,9.04,0,4.8-3,8.08-6.92,8.08-2.12,0-3.28-.96-4.2-3.08Z"/>
  </g>
</svg>