<?xml version="1.0" encoding="UTF-8"?>
<svg id="Layer_1" data-name="Layer 1" xmlns="http://www.w3.org/2000/svg" viewBox="0 0 173.32 87.48">
  <defs>
    <style>
      .cls-1 {
        fill: #231f20;
      }

      .cls-2 {
        fill: #bf2429;
      }

      .cls-3 {
        fill: #fff;
      }
    </style>
  </defs>
  <rect class="cls-3" x="2.56" width="170.75" height="31.53"/>
  <g>
    <path class="cls-1" d="M4.45,24.74l-.17.04c.21,4.75,1.43,11.63,1.43,12.68s-1.18,2.02-2.14,2.02c-.76,0-1.47-.42-1.47-1.43,0-1.09.34-3.57.42-13.65.08-11.09.08-23.22,8.02-23.22,3.4,0,5.63,3.19,5.63,6.68,0,2.47-1.17,4.58-3.14,6.2l.91.56c2.6,1.72,3.82,4.32,3.82,7.39,0,4.66-2.98,7.68-6.59,7.68-2.44,0-4.79-1.34-6.72-4.96ZM14.19,8.4c0-2.14-1.43-4.03-3.61-4.03-5.46,0-6.26,10.54-6.26,15.54,0,3.78,2.35,6.34,6.13,6.34,3.4,0,5-2.44,5-5.08,0-2.39-1.22-5.04-3.74-5.96-.92.63-2.35,1.22-3.61,1.22-1.05,0-1.51-.46-1.51-1.05,0-.8,1.09-2.35,3.11-2.35.65,0,1.3.15,1.93.39,1.5-1.19,2.56-2.8,2.56-5.01Z"/>
    <path class="cls-1" d="M27.96,29.03c-.5-4.06-1.89-14.2-7.05-14.2-.5,0-1.01.04-1.55.25-.25-.42-.38-.88-.38-1.3,0-1.34,1.09-2.6,2.6-2.6,3.28,0,5.63,5.71,7.39,14.23h.1c1.4-4.44,4.71-14.15,7.75-14.15,1.01,0,1.89.59,2.18,2.02-4.28,2.18-8.06,9.74-9.36,15.33.42,3.11.71,6.34.71,8.57,0,1.3-1.34,2.31-2.39,2.31-.8,0-1.51-.55-1.51-1.81,0-2.89.69-5.84,1.51-8.64Z"/>
    <path class="cls-1" d="M40.38,21.08c0-4.53,2.48-9.24,5.96-9.24,1.05,0,1.64.46,2.94,1.51l.13-.13c-2.88-3.54-7.31-6.03-7.31-9.11,0-1.72,1.13-3.15,3.49-3.15,4.16,0,10.04,5.33,10.04,7.01,0,.71-.76,1.39-2.23,1.85-3.82-4.2-7.47-6.68-8.94-6.68-.55,0-.8.42-.8.84,0,1.39,1.68,2.56,4.58,5.08,2.98,2.52,6.17,5.88,6.17,11.21,0,5.67-3.65,9.41-7.64,9.41-4.37,0-6.38-4.75-6.38-8.61ZM49.16,14.7c-4.24,0-7.22,2.81-7.22,6.8,0,2.18,1.09,4.75,4.33,4.75,3.91,0,5.71-3.4,5.71-6.63,0-1.73-.6-3.4-1.48-4.83l-1.33-.08Z"/>
    <path class="cls-1" d="M58.35,16.3c0-6.76,2.06-15.12,6.63-15.12,4.33,0,6,7.47,6,13.98s-1.6,14.53-6.34,14.53c-4.16,0-6.3-6.38-6.3-13.4ZM59.95,15.59v1.21c0,5.29,1.43,9.36,4.41,9.36,3.31,0,5.03-5,5.04-11.22l-.17-.03c-.46,1.39-1.34,1.6-2.77,1.6-2.03,0-4.58-.45-6.51-.91ZM64.82,14.11c1.85,0,3.11-.09,4.54-.35-.21-5.04-1.55-9.14-4.2-9.14-2.36,0-4.46,3.23-5.09,9.36,1.89.09,3.49.13,4.76.13Z"/>
    <path class="cls-1" d="M85.4,23.86c-.8-2.6-1.38-5.25-2.01-7.94h-.14c-1.97,4.28-4.16,8.57-6,12.98-.13.21-.17.21-.63.25-.92.04-2.77.13-2.98.13-.17,0-.25-.04-.25-.13,0-.04.04-.13.13-.29,2.8-5.85,5.92-11.18,8.89-16.95l-.12-.47c-.8-3.19-1.55-6.72-5.42-6.72-1.39,0-2.27.17-3.49.59-.08-.46-.08-.63-.08-.84,0-1.97,1.47-3.28,3.61-3.28,5.54,0,6.26,6.68,7.77,12.51l.29,1.13c2.48,9.62,2.98,11.38,5.21,11.38.5,0,1.22-.13,1.85-.42.17.38.21.76.21,1.13,0,1.47-1.09,2.69-2.6,2.69-2.65,0-3.65-3.78-4.24-5.75Z"/>
    <path class="cls-1" d="M101.73,37.38c0-1.45.18-4.96.34-7.63-4.46-.55-7.89-4.07-7.89-8.75,0-7.01,6.42-10.75,9.36-10.75.63,0,1.01.59,1.01,1.39,0,.63-.29,1.47-.92,1.93-5.04,1.13-7.77,4.45-7.77,7.85s3.21,4.86,6.19,5.11c.26-7.47,1.34-14.14,6.36-14.14,2.86,0,5.04,3.61,5.04,7.26,0,5.79-3.74,9.82-9.41,10.14.22,3.5,1.01,6.56,1.01,7.45,0,.97-1.01,1.6-1.89,1.6s-1.43-.34-1.43-1.47ZM111.89,19.82c0-2.69-1.43-4.32-3.4-4.32-4.04,0-4.23,5.14-4.46,11.04,3.77-.3,7.86-2.49,7.86-6.72Z"/>
    <path class="cls-1" d="M124.44,27.34h-.12c-1.95,3.6-4.37,7.63-6.18,11.3-.13.21-.17.21-.63.25-.92.04-2.69.13-2.9.13-.17,0-.25-.04-.25-.13,0-.04.04-.13.13-.29,2.6-4.84,6.81-11.53,8.79-14.88-1.99-6.93-2.83-9.06-5.81-9.06-.55,0-1.13.08-1.89.29-.13-.38-.17-.76-.17-1.09,0-1.47,1.05-2.65,2.77-2.65,2.39,0,3.91,1.97,6.26,10.62h.09l6.12-9.95c.29-.46.8-.5,1.6-.5.59,0,1.47.08,1.85.21.25.08.29.17.29.25,0,.21-4.03,5.86-8.8,13.49,3.11,9.77,3.68,10.82,6.28,10.82.5,0,1.26-.17,1.89-.46.17.38.25.8.25,1.18,0,1.43-1.13,2.6-2.73,2.6-2.81,0-4.07-3.32-6.84-12.14Z"/>
    <path class="cls-1" d="M135.74,21c0-4.95,1.97-8.48,3.65-9.45.29-.17.59-.29,1.13-.29,1.13,0,2.1.97,2.14,2.35-3.86,1.81-5.29,5.25-5.29,7.98,0,3.19,1.81,4.58,3.78,4.58,1.39,0,2.81-.76,3.65-2.06-.42-1.09-.92-2.8-.92-4.45,0-1.47,1.13-2.44,2.18-2.44.84,0,1.64.55,1.64,2.06s-.49,3.72-1.23,5.25c.8.92,1.95,1.64,3.29,1.64,2.94,0,3.91-3.36,3.91-5.92s-.84-5.54-2.77-7.64c-.17-.17-.25-.25-.25-.34,0-.25.84-1.05,1.05-1.05.25,0,4.28,3.53,4.28,9.78,0,3.28-1.47,8.69-5.96,8.69-1.81,0-3.15-1.34-4.24-3.65h-.19c-.85,1.47-2.46,3.65-4.72,3.65-2.69,0-5.12-3.19-5.12-8.69Z"/>
    <path class="cls-1" d="M6,76.6l-.08.04v5.21c0,3.91,0,4.03,2.73,4.24.08,0,.13.25.13.46,0,.25-.04.59-.17.59-.5,0-3.19-.13-4.07-.13-1.39,0-3.78.13-4.33.13-.17,0-.21-.25-.21-.5,0-.21.04-.55.21-.55,1.97-.17,2.35-.34,2.35-4.24v-23.73c0-5.58,2.52-8.94,7.89-8.94,4.58,0,7.18,2.18,7.18,6.09,0,2.56-1.55,5.17-4.58,6.47v.18c4.24.88,5.96,3.73,5.96,7.13,0,6-4.37,8.65-8.99,8.65-1.55,0-3.02-.34-4.03-1.09ZM9.45,63.5c-1.22,0-1.81-.63-1.81-1.3,0-.76.71-1.51,2.1-1.51.59,0,1.3.17,2.14.55,1.72-1.05,2.31-3.11,2.31-5.25,0-2.81-.63-5.54-3.99-5.54-3.53,0-4.28,2.44-4.28,6.17v17.3c0,1.55,1.93,2.39,4.07,2.39,4.33,0,5.29-3.32,5.29-7.1,0-2.91-1.14-5.67-3.4-6.38-.7.4-1.44.67-2.44.67Z"/>
    <path class="cls-1" d="M25.25,83.74c0-2.76,1.78-5.62,2.9-7.25l-4.58-11.26c-1.55-3.82-1.68-4.07-3.65-4.24-.13,0-.17-.17-.17-.42s.04-.59.21-.59c.5,0,2.98.08,3.99.08,1.22,0,3.44-.08,3.91-.08.17,0,.17.25.17.5s0,.5-.17.5c-1.22.08-1.72.17-1.72,1.01,0,.46.17,1.13.67,2.35l3.56,8.69h.05l3.57-8.65c.63-1.6.67-1.89.67-2.39,0-.84-.59-.92-2.14-1.01-.13,0-.13-.17-.13-.42s0-.59.17-.59c.38,0,2.48.08,3.19.08,1.13,0,2.94-.08,3.36-.08.13,0,.13.25.13.5s0,.5-.13.5c-1.89.13-2.02.5-3.65,4.28l-4.15,9.61c1.24,2.33,2.72,5.77,2.72,8.03,0,3.02-2.39,4.58-4.96,4.58-2.23,0-3.82-1.18-3.82-3.74ZM28.98,78.24c-1.13,1.43-1.97,3.91-1.97,5.42,0,1.22.55,2.23,1.89,2.23s1.85-.97,1.85-2.27c0-1.83-1.04-4.45-1.6-5.38h-.17Z"/>
    <path class="cls-1" d="M39.76,69.46c0-4.88,2.64-7.97,7.57-9.49-2.07-1.64-4.97-3.38-4.97-6.17s2.56-4.62,6.93-4.62c4.07,0,5.96,1.64,5.96,3.11,0,.88-.63,1.64-1.81,1.64-.34,0-.76-.04-1.22-.25-.13-2.18-1.05-3.19-3.32-3.19-2.44,0-3.61,1.05-3.61,2.6,0,1.47.92,2.27,3.53,4.28,3.44,2.65,7.68,5.88,7.68,11.59,0,4.83-2.98,8.73-8.69,8.73-4.91,0-8.06-3.23-8.06-8.23ZM43.49,69.08c0,2.9.88,7.35,4.75,7.35,3.32,0,4.54-3.15,4.54-6.72,0-3.96-1.39-6.42-4.25-8.78-3.87.88-5.03,4.42-5.03,8.15Z"/>
    <path class="cls-2" d="M60.08,63.88c0-9.78,2.86-14.7,8.44-14.7,3.02,0,7.98.8,7.98,13.73,0,9.66-2.69,14.78-8.36,14.78-3.11,0-8.06-.88-8.06-13.82ZM72.98,64.05h-9.36c.04,3.64.5,12.39,4.75,12.39s4.59-8.83,4.62-12.39ZM72.97,62.53c-.04-3.64-.51-12.14-4.65-12.14s-4.64,8.57-4.69,12.14h9.34Z"/>
    <path class="cls-1" d="M90.93,71.86c-.8-2.6-1.38-5.25-2-7.94h-.14c-1.97,4.28-4.16,8.57-6,12.98-.13.21-.17.21-.63.25-.92.04-2.77.13-2.98.13-.17,0-.25-.04-.25-.13,0-.04.04-.13.13-.29,2.8-5.85,5.92-11.18,8.89-16.95l-.12-.47c-.8-3.19-1.55-6.72-5.42-6.72-1.39,0-2.27.17-3.49.59-.08-.46-.08-.63-.08-.84,0-1.97,1.47-3.28,3.61-3.28,5.54,0,6.26,6.68,7.77,12.51l.29,1.13c2.48,9.62,2.98,11.38,5.21,11.38.5,0,1.22-.13,1.85-.42.17.38.21.76.21,1.13,0,1.47-1.09,2.69-2.6,2.69-2.65,0-3.65-3.78-4.24-5.75Z"/>
    <path class="cls-1" d="M106.48,86.64c0-.21.04-.55.17-.55,2.39-.17,2.69-.34,2.69-4.24v-4.09c-5.23-.4-9.62-2.92-9.62-8.97s4.3-8.87,9.62-9.38v-5.98c0-2.73-.42-2.94-2.81-2.94-.13,0-.17-.21-.17-.46s.04-.5.17-.5c1.26-.13,4.58-.34,5.46-.34.59,0,.8.25.8.84l-.17,9.31c5.21.32,9.66,2.66,9.66,8.66s-4.18,9.25-9.66,9.75v4.1c0,3.91,0,4.03,2.69,4.24.13,0,.17.25.17.46,0,.25-.04.59-.21.59-.46,0-3.11-.13-4.03-.13-1.39,0-4.03.13-4.58.13-.13,0-.17-.25-.17-.5ZM109.34,60.49c-4.19.52-6.09,3.16-6.09,7.8s1.74,7.68,6.09,8.28v-16.08ZM112.61,76.61c4.3-.48,6.09-3.2,6.09-7.86,0-5.03-1.47-7.78-6.09-8.27v16.14Z"/>
    <path class="cls-1" d="M132.29,76.39l-1.94,4.79c-1.68,4.2-3.19,6.3-5.67,6.3-1.55,0-2.39-.97-2.39-2.06,0-.5.17-1.05.55-1.6.8.38,1.47.5,2.06.5,2.52,0,3.4-2.23,5.33-7.01l1.23-2.94-3.62-8.61c-1.72-4.12-2.44-4.66-4.62-4.79-.13,0-.17-.17-.17-.42s.04-.59.21-.59c.46,0,3.11.08,4.07.08.71,0,1.18-.04,1.6-.04.25,0,.34.17.46.55.38,1.13.76,2.23,1.6,4.16l2.35,5.6,1.76-4.34c1.72-4.24,3.32-6.55,5.71-6.55,1.43,0,1.97.88,1.97,1.89,0,.63-.21,1.3-.59,1.81-.46-.21-.84-.34-1.47-.34-2.44,0-3.4,1.89-5.5,7.05l-1.04,2.49,3.77,8.98c1.72,4.12,2.44,4.66,4.62,4.79.13,0,.17.13.17.46,0,.38-.04.59-.21.59-.46,0-3.07-.13-4.03-.13-.71,0-1.22.04-1.64.04-.25,0-.34-.17-.46-.55-.38-1.13-.76-2.23-1.6-4.16l-2.51-5.96Z"/>
    <path class="cls-1" d="M155.75,74.46h-.09c-.73,1.68-1.61,3.23-4.44,3.23-4.2,0-7.1-3.36-7.1-8.19s2.81-8.57,8.02-9.78c.34,0,.55,1.18.42,1.26-2.98,1.18-4.7,3.82-4.7,8.4,0,4.33,1.55,7.01,3.86,7.01,1.47,0,2.65-1.09,3.15-4.2-.59-1.09-1.22-3.11-1.22-4.58,0-1.85.97-2.56,1.97-2.56s1.97.63,1.97,2.56c0,1.58-.5,3.14-1.07,4.65.61,2.86,1.89,4.17,3.46,4.17,2.27,0,3.7-2.73,3.7-7.01,0-4.62-1.64-7.18-4.41-8.44-.17-.08.21-1.26.42-1.26,5.17,1.22,7.73,4.96,7.73,9.49,0,5.04-3.15,8.48-7.26,8.48-2.23,0-3.44-1.01-4.41-3.23Z"/>
  </g>
</svg>