<?xml version="1.0" encoding="UTF-8"?>
<svg id="Layer_1" xmlns="http://www.w3.org/2000/svg" version="1.1" viewBox="0 0 173.6 80.7">
  <!-- Generator: Adobe Illustrator 29.3.1, SVG Export Plug-In . SVG Version: 2.1.0 Build 151)  -->
  <defs>
    <style>
      .st0 {
        fill: #231f20;
      }

      .st1 {
        fill: #bf2429;
      }

      .st2 {
        fill: #fff;
      }
    </style>
  </defs>
  <rect class="st2" width="173.6" height="80.7"/>
  <g>
    <path class="st0" d="M8,10.6H0v-2.5h19.7l-.4,2.5h-7.8v23.1h-3.6V10.6h0Z"/>
    <path class="st0" d="M28.3,8.1h2.3l10.3,25.7h-3.9l-2.7-7.4h-10.2l-2.8,7.4h-3.2s10.4-25.7,10.3-25.7ZM24.7,5.2L33,0l1.8,3.1-9.1,3.7-1-1.5h0ZM33.3,23.8l-4-10.9h-.1l-4.2,10.9h8.3Z"/>
    <path class="st0" d="M44.1,38.6l-.8-1.5c1.7-.6,2.6-1.6,2.7-3.2-.2,0-.3,0-.5,0-.7,0-1.2-.2-1.6-.6-.4-.4-.6-.9-.6-1.6s.2-1.3.7-1.7c.5-.4,1.1-.6,1.8-.6s1.5.3,2,.9c.5.6.7,1.4.7,2.5s-.4,2.6-1.1,3.6c-.8,1-1.8,1.8-3.2,2.2h0Z"/>
    <path class="st0" d="M60.1,33.7h-3.6v-11.5h-5.4v-2.5h5.4v-9.2h-8v-2.5h19.7l-.3,2.5h-7.8v9.2h5.6l-.3,2.5h-5.3v11.5h0Z"/>
    <path class="st0" d="M71.5,8.1h15l-.3,2.5h-11.1v8.6h9.5v2.5h-9.5v9.6h11.8v2.5h-15.4V8.1h0Z"/>
    <path class="st0" d="M94.8,33.9c-.9-.2-1.8-.5-2.7-.9s-1.6-.8-2.2-1.3l-.7-2.8h.1c1.4.8,2.8,1.5,4,2,1.3.5,2.6.7,3.8.7s3.1-.4,4.2-1.2,1.6-1.8,1.6-3.1-.2-1.4-.5-2c-.3-.6-1-1.1-1.9-1.7-.9-.5-2.2-1.1-3.9-1.8-1.1-.4-2.2-1-3.2-1.5-1.1-.6-1.9-1.3-2.6-2.2s-1-2.1-1-3.5c0-2.1.8-3.8,2.4-5s3.8-1.9,6.6-1.9,2.3.1,3.5.4c1.1.3,2.1.6,2.9,1.1v2.6c-1.1-.5-2.1-.9-3.1-1.2-1-.2-1.9-.4-3-.4-1.8,0-3.3.4-4.4,1.1-1.1.7-1.6,1.7-1.6,2.9s.4,1.8,1.2,2.5,2.3,1.5,4.4,2.3c1.1.4,2.1.9,3.1,1.3.9.5,1.8,1,2.5,1.5s1.2,1.3,1.6,2.1.6,1.8.6,2.9-.4,2.8-1.1,3.9-1.8,2-3.1,2.6-2.9.9-4.7.9-1.9,0-2.8-.3Z"/>
    <path class="st0" d="M8,52.6H0v-2.5h19.7l-.4,2.5h-7.8v23.1h-3.6v-23.1h0Z"/>
    <path class="st0" d="M30.4,50.1h2.3l10.3,25.7h-3.9l-2.7-7.4h-10.2l-2.8,7.4h-3.2s10.4-25.7,10.3-25.7ZM26.9,47.2l8.3-5.2,1.8,3.1-9.1,3.7-1-1.5h0ZM35.4,65.8l-4-10.9h-.1l-4.2,10.9h8.3Z"/>
    <path class="st0" d="M45.8,80.6l-.8-1.5c1.7-.6,2.6-1.6,2.7-3.2-.2,0-.3,0-.5,0-.7,0-1.2-.2-1.6-.6-.4-.4-.6-.9-.6-1.6s.2-1.3.7-1.7c.5-.4,1.1-.6,1.8-.6s1.5.3,2,.9c.5.6.7,1.4.7,2.5s-.4,2.6-1.1,3.6c-.8,1-1.8,1.8-3.2,2.2h0Z"/>
    <path class="st0" d="M63.8,75.7h-3.6v-11.5h-5.4v-2.5h5.4v-9.2h-8v-2.5h19.7l-.3,2.5h-7.8v9.2h5.6l-.3,2.5h-5.3v11.5h0Z"/>
    <path class="st0" d="M75.1,50.1h15l-.3,2.5h-11.1v8.6h9.5v2.5h-9.5v9.6h11.8v2.5h-15.4v-25.7h0Z"/>
    <path class="st0" d="M98.5,75.9c-.9-.2-1.8-.5-2.7-.9s-1.6-.8-2.2-1.3l-.7-2.8h.1c1.4.8,2.8,1.5,4,2s2.6.7,3.8.7,3.1-.4,4.2-1.2,1.6-1.8,1.6-3.2-.2-1.4-.5-2c-.3-.6-1-1.1-1.9-1.7-.9-.6-2.2-1.2-3.9-1.8-1.1-.4-2.2-1-3.2-1.5-1.1-.6-1.9-1.3-2.6-2.2s-1-2.1-1-3.5c0-2.1.8-3.8,2.4-5s3.8-1.9,6.6-1.9,2.3.1,3.5.4,2.1.6,2.9,1.1v2.6c-1.1-.5-2.1-.9-3.1-1.2-1-.2-1.9-.4-3-.4-1.8,0-3.3.4-4.4,1.1-1.1.7-1.6,1.7-1.6,2.9s.4,1.8,1.2,2.5,2.3,1.5,4.4,2.3c1.1.4,2.1.9,3.1,1.3.9.5,1.8,1,2.5,1.5.7.6,1.2,1.3,1.6,2.1s.6,1.8.6,2.9-.4,2.8-1.1,3.9-1.8,2-3.1,2.6-2.9.9-4.7.9-1.9,0-2.8-.3Z"/>
  </g>
  <polygon class="st1" points="50.8 80.7 56.4 80.7 53.6 77.9 50.8 80.7"/>
  <polygon class="st1" points="13.3 80.7 18.9 80.7 16.1 77.9 13.3 80.7"/>
</svg>