<?xml version="1.0" encoding="UTF-8"?>
<svg id="Layer_1" xmlns="http://www.w3.org/2000/svg" version="1.1" viewBox="0 0 173.8 79.6">
  <!-- Generator: Adobe Illustrator 29.3.1, SVG Export Plug-In . SVG Version: 2.1.0 Build 151)  -->
  <defs>
    <style>
      .st0 {
        fill: #231f20;
      }

      .st1 {
        fill: #bf2429;
      }

      .st2 {
        fill: #fff;
      }
    </style>
  </defs>
  <rect class="st2" x="-.3" y="0" width="173.7" height="79.5"/>
  <g>
    <path class="st0" d="M7.9,29.1h-3.4v-13.6c2.2-.4,3.8-1.2,5-2.3,1.1-1.1,1.7-2.6,1.7-4.3s-.5-2.9-1.5-3.8-2.3-1.4-4-1.4-1.8,0-2.7.4-1.9.6-2.8,1h-.2c0-.3.6-2.6.6-2.6.7-.4,1.5-.7,2.6-.9s2.1-.4,3.1-.4c2.6,0,4.6.7,6.1,2s2.3,3.1,2.3,5.4-.7,4.2-2.2,5.7c-1.2,1.3-2.7,2.2-4.6,2.7v12.1h0Z"/>
    <path class="st0" d="M28.6,26.2c-.6.9-1.3,1.6-2.2,2.2-1.2.7-2.5,1.1-4,1.1s-3.2-.5-4.4-1.5-1.6-2.3-1.6-3.9,1-3.7,3-4.7c1.9-1,5-1.5,9.2-1.5v-.3c0-1.8-.4-3.1-1.1-3.9s-2-1.2-3.7-1.2-1.7,0-2.7.3c-1,.2-2,.4-2.9.7l-.2-.2.9-2.4c1.1-.3,2.1-.5,3-.6s1.7-.2,2.5-.2c2.5,0,4.4.5,5.6,1.6,1.3,1.1,1.9,2.6,1.9,4.7v7.4c0,1.7.2,3.5.6,5.3h-3.1c-.3-.8-.6-1.8-.7-2.9h0ZM28.5,20c-3,0-5.2.3-6.6,1-1.4.6-2.1,1.7-2.1,3.1s.3,1.7.9,2.2,1.5.8,2.5.8c1.9,0,3.7-1,5.2-3.1v-3.9h.1Z"/>
    <path class="st0" d="M41.8,29.1h-3.4v-13.6c2.2-.4,3.8-1.2,5-2.3s1.7-2.6,1.7-4.3-.5-2.9-1.5-3.8-2.3-1.4-4-1.4-1.8,0-2.7.4c-.9.2-1.9.6-2.8,1h0c0,0,.6-2.5.6-2.5.7-.4,1.5-.7,2.6-.9s2.1-.4,3.1-.4c2.5,0,4.6.7,6.1,2s2.3,3.1,2.3,5.4-.7,4.2-2.2,5.7c-1.2,1.3-2.7,2.2-4.6,2.7v12.1h0Z"/>
    <path class="st0" d="M48.7,37.3c-.4,0-.8-.2-1.1-.3l-.5-2.2h0c1,.2,1.9.4,2.5.4,1,0,1.7-.3,2.2-.9.4-.6.6-1.6.6-3V10.6h3.4v20.4c0,4.3-1.9,6.4-5.6,6.4s-1.2,0-1.6-.2h0ZM52.6,6.7c-.4-.4-.5-.9-.5-1.5s.2-1.2.6-1.6.9-.6,1.5-.6,1.2.2,1.5.6.6.9.6,1.5-.2,1.2-.6,1.6c-.4.4-.9.6-1.6.6s-1.1-.2-1.5-.6Z"/>
    <path class="st0" d="M68.6,29.5c-2.6,0-4.6-.5-6.2-1.5-1.5-1-2.3-2.3-2.3-3.9s.4-2.3,1.3-3.2,2.1-1.4,3.7-1.7h0c-2.8-.9-4.3-2.3-4.3-4.2s.7-2.7,2.2-3.6,3.4-1.4,5.7-1.4,2.2.1,3.3.3c1.1.2,2.1.5,2.8.9v2.4c-.8-.4-1.7-.7-2.8-.9-1.1-.2-2.1-.3-3-.3-1.5,0-2.6.3-3.5.8-.8.5-1.2,1.2-1.2,2.2s.5,1.7,1.5,2.2,2.6.7,4.8.7h2v2.3h-2.6c-2.2,0-3.8.2-4.8.8s-1.6,1.3-1.6,2.3.5,1.9,1.5,2.5,2.4.9,4.2.9,2.1-.1,3.1-.3,1.9-.5,2.8-.9h0c0,.1-.6,2.5-.6,2.5-.8.4-1.7.7-2.8.9-1.1.2-2.2.3-3.5.3h.2Z"/>
    <path class="st0" d="M80.8,27c-1.6-1.7-2.4-4-2.4-7s.9-5.6,2.6-7.3,4.2-2.6,7.3-2.6,3.2.3,4.5.8v2.4c-1.5-.5-3-.8-4.4-.8-4.3,0-6.4,2.4-6.4,7.1s.6,4.2,1.7,5.5,2.8,1.9,4.9,1.9,3-.4,4.6-1.1h0c0,.1-.6,2.4-.6,2.4-.6.3-1.3.6-2.3.8-.9.2-1.9.3-2.8.3-2.9,0-5.1-.8-6.7-2.5h0ZM80.6,2.2l1.6-1.1,4.8,4.6,4.8-4.6,1.6,1.2-4.8,6.4h-3.3l-4.8-6.4h.1Z"/>
    <path class="st0" d="M112.8,37c-.6.3-1.3.5-2.1.5s-1.7-.2-2.2-.6-1.1-1.1-1.5-2l-3.5-7.6-5.3,9.9h-3.2l7.2-13-4.3-9.4c-.3-.7-.6-1.2-.9-1.4-.3-.3-.7-.4-1.2-.4s-.9,0-1.3.3h0c0-.1.6-2.7.6-2.7.4-.3,1.1-.4,1.8-.4s1.7.2,2.3.8,1.2,1.4,1.8,2.7l3.2,7.1,5.2-10.2h3.2l-7,13.3,4.2,9.1c.3.6.6,1,.9,1.2s.8.4,1.3.4,1,0,1.3-.3h0c0,0-.6,2.7-.6,2.7h0Z"/>
    <path class="st0" d="M113.3,6.8h3.1l1.9,6.3c0,.4.2.7.3,1,0,.3.2.7.2,1h0c0-.3.2-.6.2-1s.2-.7.3-1.1l2.3-6.3h2.8l2.3,6.3c0,.4.2.7.3,1s.2.6.2,1.1h0c0-.4,0-.7.2-1,0-.3.2-.7.3-1l2-6.3h2.5l-3.8,11.2h-3.1l-2.2-5.7c0-.4-.2-.7-.3-1.1s-.2-.7-.2-1h0c0,.3,0,.6-.2,1,0,.4-.2.8-.4,1.1l-2.2,5.8h-3.1l-3.6-11.2h.3Z"/>
    <path class="st0" d="M135.4,27c-1.5-1.7-2.3-4-2.3-7s.8-5.5,2.4-7.3c1.6-1.8,3.9-2.6,6.7-2.6s4.9.8,6.5,2.5,2.3,4,2.3,6.9-.4,3.8-1.1,5.3c-.8,1.5-1.8,2.6-3.2,3.5s-3,1.2-4.9,1.2c-2.7,0-4.8-.8-6.4-2.5h0ZM146.1,25.3c.9-1.3,1.4-3.2,1.4-5.6s-.5-4.2-1.4-5.5c-.9-1.2-2.3-1.8-4.1-1.8s-3.2.6-4.1,1.8c-.9,1.2-1.4,3.1-1.4,5.5s.4,4.3,1.4,5.6c.9,1.3,2.2,1.9,4,1.9s3.2-.6,4.1-1.9h.1Z"/>
    <path class="st0" d="M157.1,28.4c-.7-.8-1.1-1.9-1.1-3.3v-12h-2.8l.3-2.2h2.5v-4.8l3.4-.6v5.2h4.6v2.3h-4.6v11.5c0,.9.2,1.6.5,1.9.3.4.8.6,1.6.6s1,0,1.4-.2,1-.4,1.6-.7h.1c0,.1-.6,2.4-.6,2.4-.5.3-1,.6-1.6.7-.6.2-1.2.3-1.9.3-1.4,0-2.5-.4-3.3-1.1h0Z"/>
    <path class="st0" d="M7.9,71.1h-3.4v-13.7c2.2-.4,3.8-1.2,5-2.3,1.1-1.2,1.7-2.6,1.7-4.3s-.5-2.9-1.5-3.8-2.3-1.4-4-1.4-1.8,0-2.7.4-1.9.6-2.8,1h-.2c0,0,.6-2.5.6-2.5.7-.4,1.5-.7,2.6-.9s2.1-.3,3.1-.3c2.6,0,4.6.7,6.1,2s2.3,3.1,2.3,5.4-.7,4.2-2.2,5.7c-1.2,1.3-2.7,2.2-4.6,2.7v12h0Z"/>
    <path class="st0" d="M29.4,68.2c-.6.9-1.3,1.6-2.2,2.2-1.2.7-2.5,1.1-4,1.1s-3.2-.5-4.4-1.5c-1.1-1-1.6-2.3-1.6-3.9s1-3.7,3-4.7c1.9-1,5-1.5,9.2-1.5v-.3c0-1.8-.4-3.1-1.1-3.9s-2-1.2-3.7-1.2-1.7,0-2.7.3c-1,.2-2,.4-2.9.7l-.2-.2.9-2.4c1.1-.3,2.1-.5,3-.6s1.7-.2,2.5-.2c2.5,0,4.4.5,5.6,1.6,1.3,1.1,1.9,2.6,1.9,4.7v7.4c0,1.7.2,3.5.6,5.3h-3.1c-.3-.8-.6-1.8-.7-2.9h0ZM29.3,62c-3,0-5.2.3-6.6,1s-2.1,1.7-2.1,3.1.3,1.7.9,2.2,1.5.8,2.5.8c1.9,0,3.7-1,5.2-3.1v-3.9h.1Z"/>
    <path class="st0" d="M43.4,71.1h-3.4v-13.7c2.2-.4,3.8-1.2,5-2.3,1.2-1.2,1.7-2.6,1.7-4.3s-.5-2.9-1.5-3.8-2.3-1.4-4-1.4-1.8,0-2.7.4c-.9.2-1.9.6-2.8,1h0c0,0,.6-2.5.6-2.5.7-.4,1.5-.7,2.6-.9s2.1-.3,3.1-.3c2.5,0,4.6.7,6.1,2s2.3,3.1,2.3,5.4-.7,4.2-2.2,5.7c-1.2,1.3-2.7,2.2-4.6,2.7v12h0Z"/>
    <path class="st0" d="M50.4,79.3c-.4,0-.8-.2-1.1-.3l-.5-2.2h0c1,.2,1.9.3,2.5.3,1,0,1.7-.3,2.2-.9.4-.6.6-1.6.6-2.9v-20.7h3.4v20.4c0,4.3-1.9,6.4-5.6,6.4s-1.2,0-1.6-.2h0ZM54.3,48.7c-.4-.4-.5-.9-.5-1.5s.2-1.2.6-1.6.9-.6,1.5-.6,1.2.2,1.5.6.6.9.6,1.5-.2,1.2-.6,1.6-.9.6-1.6.6-1.1-.2-1.5-.6Z"/>
    <path class="st0" d="M70.2,71.5c-2.6,0-4.6-.5-6.2-1.4-1.5-1-2.3-2.3-2.3-3.9s.4-2.3,1.3-3.2,2.1-1.4,3.7-1.7h0c-2.8-.9-4.3-2.3-4.3-4.2s.7-2.7,2.2-3.6c1.5-.9,3.4-1.4,5.7-1.4s2.2,0,3.3.3,2.1.5,2.8.9v2.4c-.8-.4-1.7-.7-2.8-.9-1.1-.2-2.1-.3-3-.3-1.5,0-2.6.3-3.5.8-.8.5-1.2,1.2-1.2,2.2s.5,1.7,1.5,2.2,2.6.7,4.8.7h2v2.3h-2.6c-2.2,0-3.8.2-4.8.8-1,.6-1.6,1.3-1.6,2.3s.5,1.9,1.5,2.5,2.4.9,4.2.9,2.1,0,3.1-.3,1.9-.5,2.8-.9h0c0,0-.6,2.5-.6,2.5-.8.4-1.7.7-2.8.9-1.1.2-2.2.3-3.5.3h0l.2-.2Z"/>
    <path class="st0" d="M82.8,69c-1.6-1.7-2.4-4-2.4-7s.9-5.5,2.6-7.3c1.7-1.7,4.2-2.6,7.3-2.6s3.2.3,4.5.8v2.4c-1.5-.5-3-.8-4.4-.8-4.3,0-6.4,2.4-6.4,7.1s.6,4.2,1.7,5.5,2.8,1.9,4.9,1.9,3-.4,4.6-1.1h0c0,0-.6,2.4-.6,2.4-.6.3-1.3.6-2.3.8-.9.2-1.9.3-2.8.3-2.9,0-5.1-.8-6.7-2.5h0ZM82.6,44.2l1.6-1.2,4.8,4.6,4.8-4.6,1.6,1.2-4.8,6.5h-3.3l-4.8-6.5h.1Z"/>
    <path class="st0" d="M114.8,79.1c-.6.3-1.3.5-2.1.5s-1.7-.2-2.2-.6-1.1-1.1-1.5-2l-3.5-7.6-5.3,9.9h-3.2l7.2-13-4.3-9.4c-.3-.7-.6-1.2-.9-1.5s-.7-.4-1.2-.4-.9,0-1.3.3h0c0,0,.6-2.7.6-2.7.4-.3,1.1-.4,1.8-.4s1.7.2,2.3.8,1.2,1.4,1.8,2.7l3.2,7.1,5.2-10.2h3.2l-7,13.3,4.2,9.1c.3.6.6,1,.9,1.2s.8.4,1.3.4,1,0,1.3-.3h0c0,0-.6,2.7-.6,2.7h0Z"/>
    <path class="st0" d="M115.4,48.8h3.1l1.9,6.3c0,.3.2.7.3,1,0,.3.2.7.2,1h0c0-.3.2-.6.2-1s.2-.7.3-1.1l2.3-6.3h2.8l2.3,6.3c.1.4.2.7.3,1s.2.7.2,1.1h.1c0-.4.1-.7.2-1,0-.3.2-.7.3-1l2-6.3h2.5l-3.8,11.2h-3.1l-2.2-5.7c0-.4-.2-.7-.3-1.1s-.2-.7-.2-1h0c0,.3,0,.6-.2,1,0,.4-.2.8-.4,1.2l-2.2,5.8h-3.1l-3.6-11.2h0l.2-.2Z"/>
    <path class="st0" d="M139.1,69c-1.5-1.7-2.3-4-2.3-7s.8-5.5,2.4-7.3c1.6-1.8,3.9-2.7,6.7-2.7s4.9.8,6.5,2.5,2.3,4,2.3,6.9-.4,3.8-1.1,5.3-1.8,2.7-3.2,3.5-3,1.2-4.9,1.2c-2.7,0-4.8-.8-6.4-2.5h0ZM149.8,67.3c.9-1.3,1.4-3.2,1.4-5.6s-.5-4.2-1.4-5.5c-.9-1.2-2.3-1.8-4.1-1.8s-3.2.6-4.1,1.8c-.9,1.2-1.4,3.1-1.4,5.5s.4,4.3,1.4,5.6c.9,1.3,2.2,1.9,4,1.9s3.2-.6,4.1-1.9h.1Z"/>
    <path class="st0" d="M160.8,70.4c-.7-.8-1.1-1.9-1.1-3.3v-12h-2.8l.3-2.2h2.5v-4.8l3.4-.5v5.2h4.6v2.3h-4.6v11.5c0,.9.2,1.6.5,1.9.3.4.8.6,1.6.6s1,0,1.4-.2,1-.4,1.6-.7h.1c0,0-.6,2.4-.6,2.4-.5.3-1,.6-1.6.7-.6.2-1.2.3-1.9.3-1.4,0-2.5-.4-3.3-1.1h0Z"/>
  </g>
  <polygon class="st1" points="34 76.1 39.6 76.1 36.8 73.3 34 76.1"/>
  <polygon class="st1" points="76.6 76.1 82.2 76.1 79.4 73.3 76.6 76.1"/>
  <polygon class="st1" points="131.8 76.1 137.4 76.1 134.6 73.3 131.8 76.1"/>
  <polygon class="st1" points="12.4 76.1 18 76.1 15.2 73.3 12.4 76.1"/>
</svg>