<?xml version="1.0" encoding="UTF-8"?>
<svg id="Layer_1" data-name="Layer 1" xmlns="http://www.w3.org/2000/svg" viewBox="0 0 173.77 79.56">
  <defs>
    <style>
      .cls-1 {
        fill: #231f20;
      }

      .cls-2 {
        fill: #bf2429;
      }

      .cls-3 {
        fill: #fff;
      }
    </style>
  </defs>
  <rect class="cls-3" x="3.01" width="170.75" height="31.53"/>
  <g>
    <path class="cls-1" d="M7.87,29.11h-3.4v-13.65c2.15-.42,3.8-1.2,4.95-2.34,1.15-1.15,1.73-2.58,1.73-4.32,0-1.63-.49-2.91-1.47-3.84-.98-.93-2.33-1.4-4.03-1.4-.87,0-1.78.12-2.72.37-.94.25-1.87.6-2.78,1.05l-.14-.14.61-2.38c.69-.39,1.55-.7,2.59-.94s2.08-.35,3.13-.35c2.55,0,4.58.67,6.08,2.01,1.5,1.34,2.26,3.14,2.26,5.39s-.74,4.17-2.21,5.74c-1.21,1.28-2.74,2.19-4.59,2.73v12.05Z"/>
    <path class="cls-1" d="M28.59,26.23c-.59.9-1.33,1.63-2.23,2.19-1.19.74-2.52,1.11-4,1.11-1.8,0-3.25-.49-4.35-1.48-1.1-.99-1.65-2.29-1.65-3.91,0-2.13.98-3.7,2.95-4.71,1.94-1,4.99-1.5,9.16-1.5v-.29c0-1.81-.38-3.12-1.14-3.92s-2-1.2-3.7-1.2c-.79,0-1.71.09-2.73.27-1.03.18-1.98.42-2.85.72l-.18-.18.94-2.4c1.11-.29,2.1-.49,2.97-.62.87-.13,1.71-.2,2.52-.2,2.47,0,4.35.53,5.62,1.6,1.28,1.07,1.91,2.64,1.91,4.71v7.38c0,1.72.19,3.48.57,5.29h-3.11c-.34-.83-.57-1.79-.7-2.87ZM28.48,20.04c-3,0-5.18.32-6.56.96-1.39.65-2.09,1.67-2.09,3.07,0,.94.31,1.67.93,2.21.62.53,1.47.8,2.55.8,1.94,0,3.67-1.04,5.18-3.12v-3.91Z"/>
    <path class="cls-1" d="M41.78,29.11h-3.4v-13.65c2.15-.42,3.8-1.2,4.95-2.34,1.15-1.15,1.73-2.58,1.73-4.32,0-1.63-.49-2.91-1.47-3.84-.98-.93-2.33-1.4-4.03-1.4-.87,0-1.78.12-2.72.37-.94.25-1.87.6-2.78,1.05l-.14-.14.61-2.38c.69-.39,1.55-.7,2.59-.94s2.08-.35,3.13-.35c2.55,0,4.58.67,6.08,2.01,1.5,1.34,2.26,3.14,2.26,5.39s-.74,4.17-2.21,5.74c-1.21,1.28-2.74,2.19-4.59,2.73v12.05Z"/>
    <path class="cls-1" d="M48.71,37.31c-.4-.1-.77-.21-1.09-.31l-.55-2.21.14-.14c1.03.33,1.86.49,2.5.49,1.02,0,1.73-.29,2.16-.88.42-.59.63-1.57.63-2.95V10.63h3.36v20.41c0,4.28-1.86,6.43-5.59,6.43-.64,0-1.16-.05-1.56-.16ZM52.62,6.66c-.36-.38-.55-.89-.55-1.54s.19-1.19.58-1.57.9-.58,1.55-.58,1.16.19,1.53.56.56.88.56,1.53-.19,1.19-.58,1.58c-.38.39-.92.59-1.59.59-.64,0-1.14-.19-1.5-.57Z"/>
    <path class="cls-1" d="M68.59,29.53c-2.59,0-4.64-.48-6.15-1.45-1.51-.96-2.27-2.27-2.27-3.93,0-1.26.44-2.32,1.32-3.18s2.11-1.43,3.68-1.7v-.1c-2.84-.82-4.26-2.18-4.26-4.08,0-1.47.73-2.67,2.2-3.59,1.46-.92,3.36-1.39,5.67-1.39,1.12,0,2.24.11,3.35.34,1.11.23,2.05.53,2.8.91v2.4c-.81-.38-1.74-.67-2.78-.89-1.05-.21-2.06-.32-3.04-.32-1.48,0-2.64.26-3.48.77-.83.51-1.25,1.23-1.25,2.16,0,.99.51,1.72,1.54,2.18,1.03.46,2.64.69,4.82.69h1.52c.17,0,.33,0,.47-.02v2.34c-.42-.03-.86-.05-1.32-.07-.46-.02-.9-.03-1.32-.03-2.16,0-3.76.25-4.8.75-1.04.5-1.56,1.27-1.56,2.31s.5,1.9,1.51,2.51c1.01.61,2.4.91,4.17.91,1.05,0,2.09-.11,3.1-.33,1.01-.22,1.94-.53,2.78-.94l.14.14-.59,2.32c-.79.4-1.73.72-2.81.94-1.08.22-2.23.33-3.46.33Z"/>
    <path class="cls-1" d="M80.78,27.01c-1.6-1.69-2.4-4.03-2.4-7.02s.86-5.55,2.59-7.27,4.16-2.59,7.29-2.59c1.71,0,3.2.28,4.47.84v2.4c-1.52-.52-3.01-.78-4.45-.78-4.26,0-6.39,2.37-6.39,7.11,0,2.4.56,4.23,1.68,5.49,1.12,1.26,2.75,1.89,4.9,1.89,1.46,0,2.98-.36,4.57-1.07l.14.14-.59,2.3c-.57.33-1.33.59-2.27.79-.94.2-1.89.3-2.85.3-2.86,0-5.1-.84-6.7-2.53ZM80.55,2.21l1.58-1.15,4.82,4.57,4.82-4.57,1.58,1.15-4.75,6.45h-3.32l-4.75-6.45Z"/>
    <path class="cls-1" d="M112.79,37.05c-.6.34-1.31.51-2.13.51-.91,0-1.66-.21-2.25-.62s-1.09-1.06-1.5-1.96l-3.48-7.64-5.31,9.94h-3.22l7.15-12.99-4.28-9.37c-.31-.69-.62-1.17-.92-1.45-.3-.27-.69-.41-1.17-.41s-.91.09-1.27.27l-.14-.14.64-2.58c.44-.27,1.05-.41,1.84-.41.91,0,1.68.25,2.3.75.62.5,1.24,1.42,1.84,2.74l3.24,7.13,5.2-10.21h3.22l-6.99,13.32,4.16,9.14c.26.56.57.96.92,1.21s.79.37,1.33.37.99-.11,1.33-.33l.14.14-.64,2.58Z"/>
    <path class="cls-1" d="M113.34,6.78h3.14l1.93,6.31c.1.35.2.7.29,1.04.09.34.16.68.21,1.02h.1c.06-.3.15-.62.25-.98.1-.35.22-.72.35-1.09l2.3-6.29h2.77l2.3,6.31c.14.36.25.69.33.99s.16.65.25,1.06h.1c.06-.38.14-.73.21-1.04.08-.32.18-.66.29-1.03l1.99-6.29h2.46l-3.75,11.17h-3.14l-2.21-5.74c-.13-.36-.25-.74-.35-1.13-.1-.39-.19-.74-.25-1.04h-.12c-.05.27-.13.61-.23,1-.1.39-.23.77-.37,1.15l-2.19,5.76h-3.11l-3.59-11.17Z"/>
    <path class="cls-1" d="M136.68,27.02c-1.54-1.68-2.3-4.01-2.3-6.99s.81-5.49,2.44-7.26c1.63-1.76,3.85-2.65,6.68-2.65s4.92.84,6.48,2.51c1.56,1.67,2.34,3.98,2.34,6.92,0,2.03-.38,3.79-1.14,5.28-.76,1.49-1.84,2.65-3.22,3.47s-3.02,1.23-4.91,1.23c-2.71,0-4.83-.84-6.37-2.52ZM147.4,25.33c.94-1.28,1.41-3.16,1.41-5.63s-.46-4.24-1.37-5.46c-.91-1.22-2.28-1.83-4.1-1.83s-3.19.61-4.09,1.84c-.91,1.22-1.36,3.07-1.36,5.53s.45,4.34,1.36,5.6c.9,1.26,2.24,1.88,4.01,1.88s3.2-.64,4.14-1.92Z"/>
    <path class="cls-1" d="M158.36,28.4c-.74-.75-1.11-1.87-1.11-3.34v-11.97h-2.77l.31-2.15,2.46-.08v-4.67l3.36-.55v5.16h4.63v2.29h-4.63v11.46c0,.91.16,1.56.47,1.94.31.38.84.58,1.58.58.51,0,.99-.07,1.44-.21s.97-.37,1.55-.69l.14.12-.59,2.25c-.48.31-1.03.56-1.65.73-.62.18-1.25.26-1.9.26-1.45,0-2.54-.38-3.28-1.13Z"/>
    <path class="cls-1" d="M7.87,71.11h-3.4v-13.65c2.15-.42,3.8-1.2,4.95-2.34,1.15-1.15,1.73-2.58,1.73-4.32,0-1.63-.49-2.91-1.47-3.84-.98-.93-2.33-1.4-4.03-1.4-.87,0-1.78.12-2.72.37-.94.25-1.87.6-2.78,1.05l-.14-.14.61-2.38c.69-.39,1.55-.7,2.59-.94s2.08-.35,3.13-.35c2.55,0,4.58.67,6.08,2.01,1.5,1.34,2.26,3.14,2.26,5.39s-.74,4.17-2.21,5.74c-1.21,1.28-2.74,2.19-4.59,2.73v12.05Z"/>
    <path class="cls-1" d="M29.38,68.23c-.59.9-1.33,1.63-2.23,2.19-1.19.74-2.52,1.11-4,1.11-1.8,0-3.25-.49-4.35-1.48-1.1-.99-1.65-2.29-1.65-3.91,0-2.13.98-3.7,2.95-4.71,1.94-1,4.99-1.5,9.16-1.5v-.29c0-1.81-.38-3.12-1.14-3.92s-2-1.2-3.7-1.2c-.79,0-1.71.09-2.73.27-1.03.18-1.98.42-2.85.72l-.18-.18.94-2.4c1.11-.29,2.1-.49,2.97-.62.87-.13,1.71-.2,2.52-.2,2.47,0,4.35.53,5.62,1.6,1.28,1.07,1.91,2.64,1.91,4.71v7.38c0,1.72.19,3.48.57,5.29h-3.11c-.34-.83-.57-1.79-.7-2.87ZM29.26,62.04c-3,0-5.18.32-6.56.96-1.39.65-2.09,1.67-2.09,3.07,0,.94.31,1.67.93,2.21.62.53,1.47.8,2.55.8,1.94,0,3.67-1.04,5.18-3.12v-3.91Z"/>
    <path class="cls-1" d="M43.44,71.11h-3.4v-13.65c2.15-.42,3.8-1.2,4.95-2.34,1.15-1.15,1.73-2.58,1.73-4.32,0-1.63-.49-2.91-1.47-3.84-.98-.93-2.33-1.4-4.03-1.4-.87,0-1.78.12-2.72.37-.94.25-1.87.6-2.78,1.05l-.14-.14.61-2.38c.69-.39,1.55-.7,2.59-.94s2.08-.35,3.13-.35c2.55,0,4.58.67,6.08,2.01,1.5,1.34,2.26,3.14,2.26,5.39s-.74,4.17-2.21,5.74c-1.21,1.28-2.74,2.19-4.59,2.73v12.05Z"/>
    <path class="cls-1" d="M50.37,79.31c-.4-.1-.77-.21-1.09-.31l-.55-2.21.14-.14c1.03.33,1.86.49,2.5.49,1.02,0,1.73-.29,2.16-.88.42-.59.63-1.57.63-2.95v-20.68h3.36v20.41c0,4.28-1.86,6.43-5.59,6.43-.64,0-1.16-.05-1.56-.16ZM54.28,48.66c-.36-.38-.55-.89-.55-1.54s.19-1.19.58-1.57c.38-.38.9-.58,1.55-.58s1.16.19,1.53.56.56.88.56,1.53-.19,1.19-.58,1.58c-.38.39-.92.59-1.59.59-.64,0-1.14-.19-1.5-.57Z"/>
    <path class="cls-1" d="M70.25,71.53c-2.59,0-4.64-.48-6.15-1.45-1.51-.96-2.27-2.27-2.27-3.93,0-1.26.44-2.32,1.32-3.18s2.11-1.43,3.68-1.7v-.1c-2.84-.82-4.26-2.18-4.26-4.08,0-1.47.73-2.67,2.2-3.59,1.46-.92,3.36-1.39,5.67-1.39,1.12,0,2.24.11,3.35.34,1.11.23,2.05.53,2.8.91v2.4c-.81-.38-1.74-.67-2.78-.89-1.05-.21-2.06-.32-3.04-.32-1.48,0-2.64.26-3.48.77-.83.51-1.25,1.23-1.25,2.16,0,.99.51,1.72,1.54,2.18,1.03.46,2.64.69,4.82.69h1.52c.17,0,.33,0,.47-.02v2.34c-.42-.03-.86-.05-1.32-.07-.46-.02-.9-.03-1.32-.03-2.16,0-3.76.25-4.8.75-1.04.5-1.56,1.27-1.56,2.31s.5,1.9,1.51,2.51c1.01.61,2.4.91,4.17.91,1.05,0,2.09-.11,3.1-.33,1.01-.22,1.94-.53,2.78-.94l.14.14-.59,2.32c-.79.4-1.73.72-2.81.94-1.08.22-2.23.33-3.46.33Z"/>
    <path class="cls-1" d="M82.83,69.01c-1.6-1.69-2.4-4.03-2.4-7.02s.86-5.55,2.59-7.28c1.73-1.72,4.16-2.59,7.29-2.59,1.71,0,3.2.28,4.47.84v2.4c-1.52-.52-3.01-.78-4.45-.78-4.26,0-6.39,2.37-6.39,7.11,0,2.4.56,4.23,1.68,5.49,1.12,1.26,2.75,1.89,4.9,1.89,1.46,0,2.98-.36,4.57-1.07l.14.14-.59,2.3c-.57.33-1.33.59-2.27.79-.94.2-1.89.3-2.85.3-2.86,0-5.1-.84-6.7-2.53ZM82.6,44.21l1.58-1.15,4.82,4.57,4.82-4.57,1.58,1.15-4.75,6.45h-3.32l-4.75-6.45Z"/>
    <path class="cls-1" d="M114.84,79.05c-.6.34-1.31.51-2.13.51-.91,0-1.66-.21-2.25-.62s-1.09-1.06-1.5-1.96l-3.48-7.64-5.31,9.94h-3.22l7.15-12.99-4.28-9.38c-.31-.69-.62-1.17-.92-1.45-.3-.27-.69-.41-1.17-.41s-.91.09-1.27.27l-.14-.14.64-2.58c.44-.27,1.05-.41,1.84-.41.91,0,1.68.25,2.3.75.62.5,1.24,1.42,1.84,2.74l3.24,7.13,5.2-10.21h3.22l-6.99,13.32,4.16,9.14c.26.56.57.96.92,1.21s.79.37,1.33.37.99-.11,1.33-.33l.14.14-.64,2.58Z"/>
    <path class="cls-1" d="M115.39,48.78h3.14l1.93,6.31c.1.35.2.7.29,1.04.09.34.16.68.21,1.02h.1c.06-.3.15-.62.25-.98.1-.35.22-.72.35-1.09l2.3-6.29h2.77l2.3,6.31c.14.37.25.69.33.99s.16.65.25,1.06h.1c.06-.38.14-.73.21-1.04.08-.32.18-.66.29-1.03l1.99-6.29h2.46l-3.75,11.17h-3.14l-2.21-5.74c-.13-.36-.25-.74-.35-1.13-.1-.39-.19-.74-.25-1.04h-.12c-.05.27-.13.61-.23,1-.1.39-.23.78-.37,1.15l-2.19,5.76h-3.11l-3.59-11.17Z"/>
    <path class="cls-1" d="M139.12,69.02c-1.54-1.68-2.3-4.01-2.3-6.99s.81-5.49,2.44-7.26c1.63-1.76,3.85-2.65,6.68-2.65s4.92.84,6.48,2.51c1.56,1.67,2.34,3.98,2.34,6.92,0,2.03-.38,3.79-1.14,5.28-.76,1.49-1.84,2.65-3.22,3.47s-3.02,1.23-4.91,1.23c-2.71,0-4.83-.84-6.37-2.52ZM149.84,67.33c.94-1.28,1.41-3.16,1.41-5.63s-.46-4.24-1.37-5.46c-.91-1.22-2.28-1.83-4.1-1.83s-3.19.61-4.09,1.84c-.91,1.22-1.36,3.07-1.36,5.53s.45,4.34,1.36,5.6c.9,1.26,2.24,1.88,4.01,1.88s3.2-.64,4.14-1.92Z"/>
    <path class="cls-1" d="M160.8,70.4c-.74-.75-1.11-1.87-1.11-3.34v-11.97h-2.77l.31-2.15,2.46-.08v-4.67l3.36-.55v5.16h4.63v2.29h-4.63v11.46c0,.91.16,1.56.47,1.94.31.38.84.58,1.58.58.51,0,.99-.07,1.44-.21s.97-.37,1.55-.69l.14.12-.59,2.25c-.48.31-1.03.56-1.65.73-.62.18-1.25.26-1.9.26-1.45,0-2.54-.38-3.28-1.13Z"/>
  </g>
  <polygon class="cls-2" points="33.99 76.05 39.57 76.05 36.78 73.26 33.99 76.05"/>
  <polygon class="cls-2" points="76.63 76.05 82.22 76.05 79.43 73.26 76.63 76.05"/>
  <polygon class="cls-2" points="131.78 76.05 137.37 76.05 134.58 73.26 131.78 76.05"/>
  <polygon class="cls-2" points="12.45 76.05 18.03 76.05 15.24 73.26 12.45 76.05"/>
</svg>