<?xml version="1.0" encoding="UTF-8"?>
<svg id="Layer_1" data-name="Layer 1" xmlns="http://www.w3.org/2000/svg" viewBox="0 0 173.61 80.68">
  <defs>
    <style>
      .cls-1 {
        fill: #231f20;
      }

      .cls-2 {
        fill: #bf2429;
      }

      .cls-3 {
        fill: #fff;
      }
    </style>
  </defs>
  <rect class="cls-3" x="2.86" y="4.62" width="170.75" height="31.53"/>
  <g>
    <path class="cls-1" d="M7.97,10.59H0v-2.52h19.69l-.35,2.52h-7.77v23.14h-3.59V10.59Z"/>
    <path class="cls-1" d="M28.28,8.07h2.32l10.27,25.66h-3.93l-2.73-7.4h-10.23l-2.81,7.4h-3.24l10.35-25.66ZM24.73,5.23L33.03,0l1.8,3.09-9.12,3.69-.98-1.54ZM33.28,23.83l-4.04-10.92h-.14l-4.16,10.92h8.34Z"/>
    <path class="cls-1" d="M44.12,38.63l-.84-1.52c1.69-.57,2.6-1.63,2.71-3.16-.16.04-.33.06-.51.06-.65,0-1.18-.2-1.58-.61-.4-.4-.61-.93-.61-1.58,0-.7.23-1.27.68-1.7.46-.43,1.06-.64,1.82-.64.85,0,1.5.29,1.95.87.46.58.68,1.4.68,2.47,0,1.38-.37,2.58-1.12,3.59-.75,1.02-1.81,1.76-3.19,2.23Z"/>
    <path class="cls-1" d="M60.14,33.73h-3.59v-11.46h-5.41v-2.48h5.41v-9.2h-7.97v-2.52h19.69l-.35,2.52h-7.77v9.2h5.64l-.35,2.48h-5.29v11.46Z"/>
    <path class="cls-1" d="M71.48,8.07h15.02l-.35,2.52h-11.07v8.57h9.51v2.48h-9.51v9.57h11.84v2.52h-15.43V8.07Z"/>
    <path class="cls-1" d="M94.84,33.9c-.95-.2-1.85-.49-2.7-.86-.85-.37-1.59-.81-2.23-1.32l-.68-2.79.14-.12c1.41.95,2.75,1.66,4.03,2.12,1.28.46,2.56.69,3.84.69,1.74,0,3.14-.39,4.19-1.18,1.05-.79,1.57-1.84,1.57-3.15,0-.75-.17-1.42-.52-1.98-.35-.57-.97-1.12-1.88-1.67-.91-.55-2.21-1.15-3.89-1.82-1.09-.44-2.17-.95-3.23-1.53-1.06-.58-1.94-1.33-2.64-2.25-.7-.92-1.04-2.1-1.04-3.54,0-2.12.81-3.8,2.42-5.04,1.61-1.24,3.81-1.86,6.58-1.86,1.2,0,2.35.13,3.46.38,1.11.25,2.08.61,2.91,1.06v2.62c-1.08-.53-2.1-.92-3.07-1.17-.96-.25-1.95-.37-2.97-.37-1.84,0-3.29.36-4.36,1.07-1.07.72-1.6,1.69-1.6,2.93,0,.99.41,1.83,1.22,2.52.81.69,2.27,1.46,4.37,2.3,1.09.44,2.11.89,3.06,1.34.94.45,1.76.96,2.46,1.54.7.58,1.24,1.27,1.63,2.08.39.81.59,1.78.59,2.91,0,1.5-.36,2.8-1.08,3.91-.72,1.11-1.75,1.96-3.08,2.57s-2.89.91-4.69.91c-.92,0-1.86-.1-2.81-.3Z"/>
    <path class="cls-1" d="M7.97,52.59H0v-2.52h19.69l-.35,2.52h-7.77v23.14h-3.59v-23.14Z"/>
    <path class="cls-1" d="M30.43,50.07h2.32l10.27,25.66h-3.93l-2.73-7.4h-10.23l-2.81,7.4h-3.24l10.35-25.66ZM26.88,47.23l8.3-5.23,1.8,3.09-9.12,3.69-.98-1.54ZM35.43,65.83l-4.04-10.92h-.14l-4.16,10.92h8.34Z"/>
    <path class="cls-1" d="M45.78,80.63l-.84-1.52c1.69-.57,2.6-1.63,2.71-3.16-.16.04-.33.06-.51.06-.65,0-1.18-.2-1.58-.61-.4-.4-.61-.93-.61-1.58,0-.7.23-1.27.68-1.7.46-.43,1.06-.64,1.82-.64.85,0,1.5.29,1.95.87.46.58.68,1.4.68,2.47,0,1.38-.37,2.58-1.12,3.59-.75,1.02-1.81,1.76-3.19,2.23Z"/>
    <path class="cls-1" d="M63.75,75.73h-3.59v-11.46h-5.41v-2.48h5.41v-9.2h-7.97v-2.52h19.69l-.35,2.52h-7.77v9.2h5.64l-.35,2.48h-5.29v11.46Z"/>
    <path class="cls-1" d="M75.1,50.07h15.02l-.35,2.52h-11.07v8.57h9.51v2.48h-9.51v9.57h11.84v2.52h-15.43v-25.66Z"/>
    <path class="cls-1" d="M98.46,75.9c-.95-.2-1.85-.49-2.7-.86-.85-.37-1.59-.81-2.23-1.32l-.68-2.79.14-.12c1.41.95,2.75,1.66,4.03,2.12,1.28.46,2.56.69,3.84.69,1.74,0,3.14-.39,4.19-1.18,1.05-.79,1.57-1.84,1.57-3.15,0-.75-.17-1.42-.52-1.98-.35-.57-.97-1.12-1.88-1.67-.91-.55-2.21-1.15-3.89-1.82-1.09-.44-2.17-.95-3.23-1.53-1.06-.58-1.94-1.33-2.64-2.25-.7-.92-1.04-2.1-1.04-3.54,0-2.12.81-3.8,2.42-5.04,1.61-1.24,3.81-1.86,6.58-1.86,1.2,0,2.35.13,3.46.38,1.11.25,2.08.61,2.91,1.06v2.62c-1.08-.53-2.1-.92-3.07-1.17-.96-.25-1.95-.37-2.97-.37-1.84,0-3.29.36-4.36,1.07-1.07.72-1.6,1.69-1.6,2.93,0,.99.41,1.83,1.22,2.52.81.69,2.27,1.46,4.37,2.3,1.09.44,2.11.89,3.06,1.34.94.45,1.76.96,2.46,1.54.7.58,1.24,1.27,1.63,2.08.39.81.59,1.78.59,2.91,0,1.5-.36,2.8-1.08,3.91-.72,1.11-1.75,1.96-3.08,2.57s-2.89.91-4.69.91c-.92,0-1.86-.1-2.81-.3Z"/>
  </g>
  <polygon class="cls-2" points="50.83 80.68 56.42 80.68 53.62 77.89 50.83 80.68"/>
  <polygon class="cls-2" points="13.29 80.68 18.87 80.68 16.08 77.89 13.29 80.68"/>
</svg>