<?xml version="1.0" encoding="UTF-8"?>
<svg id="Layer_1" data-name="Layer 1" xmlns="http://www.w3.org/2000/svg" viewBox="0 0 170.75 39.255">
  <rect width="170.75" height="38.87" fill="#fff"/>
  <g>
    <path d="M1.445,39.255v-21.172c0-.964-.046-1.943-.137-2.939-.092-.996-.209-1.846-.352-2.549h3.066c.221.495.377.97.469,1.426v.117c1.496-1.367,3.359-2.051,5.586-2.051,1.627,0,3.043.381,4.248,1.143,1.203.762,2.139,1.829,2.803,3.203s.996,2.985.996,4.834c0,2.005-.375,3.776-1.123,5.312-.75,1.536-1.785,2.741-3.105,3.613-1.322.872-2.85,1.309-4.58,1.309-.887,0-1.719-.131-2.5-.391-.613-.208-1.27-.515-1.973-.918v9.062H1.445ZM4.844,16.013v11.914c.533.352,1.119.638,1.758.859.885.325,1.758.488,2.617.488,1.809,0,3.16-.696,4.053-2.09.891-1.394,1.338-3.274,1.338-5.645s-.443-4.157-1.328-5.361c-.887-1.204-2.201-1.807-3.945-1.807-1.85,0-3.348.547-4.492,1.641Z" fill="#231f20"/>
    <path d="M34.238,31.072c-.339-.833-.573-1.79-.703-2.871-.586.898-1.328,1.628-2.227,2.188-1.185.742-2.52,1.113-4.004,1.113-1.797,0-3.245-.495-4.346-1.484s-1.65-2.292-1.65-3.906c0-2.136.983-3.704,2.949-4.707,1.94-1.003,4.993-1.504,9.16-1.504v-.293c0-1.81-.381-3.115-1.143-3.916s-1.995-1.201-3.701-1.201c-.794,0-1.706.091-2.734.273s-1.979.423-2.852.723l-.176-.176.938-2.402c1.106-.286,2.097-.495,2.969-.625s1.712-.195,2.52-.195c2.474,0,4.349.534,5.625,1.602s1.914,2.637,1.914,4.707v7.383c0,1.719.188,3.483.566,5.293h-3.105ZM33.418,22.009c-2.995,0-5.183.319-6.562.957-1.394.651-2.09,1.673-2.09,3.066,0,.938.31,1.673.928,2.207s1.468.801,2.549.801c1.94,0,3.665-1.042,5.176-3.125v-3.906Z" fill="#231f20"/>
    <path d="M49.434,31.502c-1.614,0-3.024-.388-4.229-1.162s-2.136-1.872-2.793-3.291-.986-3.079-.986-4.98c0-2.019.361-3.772,1.084-5.264s1.738-2.649,3.047-3.477,2.842-1.24,4.6-1.24c1.719,0,3.327.527,4.824,1.582.078-.352.176-.71.293-1.074h3.086c-.078.586-.14,1.328-.186,2.227s-.068,1.81-.068,2.734v21.699h-3.398v-9.668c-1.406,1.276-3.164,1.914-5.273,1.914ZM54.707,27.4v-11.68c-1.328-.95-2.812-1.426-4.453-1.426-1.731,0-3.05.632-3.955,1.895s-1.357,3.157-1.357,5.684c0,2.435.439,4.268,1.318,5.498s2.185,1.846,3.916,1.846c1.888,0,3.398-.605,4.531-1.816Z" fill="#231f20"/>
    <path d="M73.359,14.627v13.535c1.394-.039,2.812-.319,4.258-.84l.137.117-.586,2.246c-.56.3-1.309.54-2.246.723-.521.104-1.042.176-1.562.215v2.461l-2.461.371v-2.812c-2.317-.195-4.167-.983-5.547-2.363-1.602-1.602-2.402-3.828-2.402-6.68,0-2.981.866-5.293,2.598-6.934,1.354-1.289,3.138-2.07,5.352-2.344v-2.852h2.461v2.734c1.445.052,2.761.3,3.945.742v2.363c-1.367-.403-2.683-.632-3.945-.684ZM70.898,14.802c-2.995.625-4.492,2.8-4.492,6.523,0,2.239.566,3.938,1.699,5.098.716.742,1.647,1.243,2.793,1.504v-13.125Z" fill="#bf2429"/>
    <path d="M82.324,31.072v-12.988c0-.925-.046-1.888-.137-2.891s-.208-1.868-.352-2.598h3.066c.183.378.345.905.488,1.582.052.234.098.481.137.742.755-.794,1.647-1.438,2.676-1.934,1.25-.599,2.552-.898,3.906-.898,1.927,0,3.389.557,4.385,1.67s1.494,2.737,1.494,4.873l.02,12.441h-3.398v-11.855c0-1.511-.303-2.634-.908-3.369s-1.56-1.104-2.861-1.104c-1.067,0-2.116.273-3.145.82-.742.391-1.399.879-1.973,1.465v14.043h-3.398Z" fill="#231f20"/>
    <path d="M115.371,31.072c-.339-.833-.573-1.79-.703-2.871-.586.898-1.328,1.628-2.227,2.188-1.185.742-2.52,1.113-4.004,1.113-1.797,0-3.245-.495-4.346-1.484s-1.65-2.292-1.65-3.906c0-2.136.983-3.704,2.949-4.707,1.94-1.003,4.993-1.504,9.16-1.504v-.293c0-1.81-.381-3.115-1.143-3.916s-1.995-1.201-3.701-1.201c-.794,0-1.706.091-2.734.273s-1.979.423-2.852.723l-.176-.176.938-2.402c1.106-.286,2.097-.495,2.969-.625s1.712-.195,2.52-.195c2.474,0,4.349.534,5.625,1.602s1.914,2.637,1.914,4.707v7.383c0,1.719.188,3.483.566,5.293h-3.105ZM114.551,22.009c-2.995,0-5.183.319-6.562.957-1.394.651-2.09,1.673-2.09,3.066,0,.938.31,1.673.928,2.207s1.468.801,2.549.801c1.94,0,3.665-1.042,5.176-3.125v-3.906Z" fill="#231f20"/>
    <path d="M123.809,31.072v-12.988c0-.925-.046-1.888-.137-2.891s-.208-1.868-.352-2.598h3.066c.183.378.345.905.488,1.582.052.234.098.481.137.742.755-.794,1.647-1.438,2.676-1.934,1.25-.599,2.552-.898,3.906-.898,1.927,0,3.389.557,4.385,1.67s1.494,2.737,1.494,4.873l.02,12.441h-3.398v-11.855c0-1.511-.303-2.634-.908-3.369s-1.56-1.104-2.861-1.104c-1.067,0-2.116.273-3.145.82-.742.391-1.399.879-1.973,1.465v14.043h-3.398Z" fill="#231f20"/>
    <path d="M156.855,31.072c-.339-.833-.573-1.79-.703-2.871-.586.898-1.328,1.628-2.227,2.188-1.185.742-2.52,1.113-4.004,1.113-1.797,0-3.245-.495-4.346-1.484s-1.65-2.292-1.65-3.906c0-2.136.983-3.704,2.949-4.707,1.94-1.003,4.993-1.504,9.16-1.504v-.293c0-1.81-.381-3.115-1.143-3.916s-1.995-1.201-3.701-1.201c-.794,0-1.706.091-2.734.273s-1.979.423-2.852.723l-.176-.176.938-2.402c1.106-.286,2.097-.495,2.969-.625s1.712-.195,2.52-.195c2.474,0,4.349.534,5.625,1.602s1.914,2.637,1.914,4.707v7.383c0,1.719.188,3.483.566,5.293h-3.105ZM156.035,22.009c-2.995,0-5.183.319-6.562.957-1.394.651-2.09,1.673-2.09,3.066,0,.938.31,1.673.928,2.207s1.468.801,2.549.801c1.94,0,3.665-1.042,5.176-3.125v-3.906Z" fill="#231f20"/>
  </g>
</svg>