<?xml version="1.0" encoding="UTF-8"?>
<svg id="Layer_1" data-name="Layer 1" xmlns="http://www.w3.org/2000/svg" viewBox="0 0 170.75 39.255">
  <rect width="170.75" height="38.87" fill="#fff"/>
  <g>
    <path d="M1.445,39.255v-21.172c0-.964-.046-1.943-.137-2.939-.092-.996-.209-1.846-.352-2.549h3.066c.221.495.377.97.469,1.426v.117c1.496-1.367,3.359-2.051,5.586-2.051,1.627,0,3.043.381,4.248,1.143,1.203.762,2.139,1.829,2.803,3.203s.996,2.985.996,4.834c0,2.005-.375,3.776-1.123,5.312-.75,1.536-1.785,2.741-3.105,3.613-1.322.872-2.85,1.309-4.58,1.309-.887,0-1.719-.131-2.5-.391-.613-.208-1.27-.515-1.973-.918v9.062H1.445ZM4.844,16.013v11.914c.533.352,1.119.638,1.758.859.885.325,1.758.488,2.617.488,1.809,0,3.16-.696,4.053-2.09.891-1.394,1.338-3.274,1.338-5.645s-.443-4.157-1.328-5.361c-.887-1.204-2.201-1.807-3.945-1.807-1.85,0-3.348.547-4.492,1.641Z" fill="#231f20"/>
    <path d="M34.238,31.072c-.339-.833-.573-1.79-.703-2.871-.586.898-1.328,1.628-2.227,2.188-1.185.742-2.52,1.113-4.004,1.113-1.797,0-3.245-.495-4.346-1.484s-1.65-2.292-1.65-3.906c0-2.136.983-3.704,2.949-4.707,1.94-1.003,4.993-1.504,9.16-1.504v-.293c0-1.81-.381-3.115-1.143-3.916s-1.995-1.201-3.701-1.201c-.794,0-1.706.091-2.734.273s-1.979.423-2.852.723l-.176-.176.938-2.402c1.106-.286,2.097-.495,2.969-.625s1.712-.195,2.52-.195c2.474,0,4.349.534,5.625,1.602s1.914,2.637,1.914,4.707v7.383c0,1.719.188,3.483.566,5.293h-3.105ZM33.418,22.009c-2.995,0-5.183.319-6.562.957-1.394.651-2.09,1.673-2.09,3.066,0,.938.31,1.673.928,2.207s1.468.801,2.549.801c1.94,0,3.665-1.042,5.176-3.125v-3.906Z" fill="#231f20"/>
    <path d="M49.434,31.502c-1.614,0-3.024-.388-4.229-1.162s-2.136-1.872-2.793-3.291-.986-3.079-.986-4.98c0-2.019.361-3.772,1.084-5.264s1.738-2.649,3.047-3.477,2.842-1.24,4.6-1.24c1.719,0,3.327.527,4.824,1.582.078-.352.176-.71.293-1.074h3.086c-.078.586-.14,1.328-.186,2.227s-.068,1.81-.068,2.734v21.699h-3.398v-9.668c-1.406,1.276-3.164,1.914-5.273,1.914ZM54.707,27.4v-11.68c-1.328-.95-2.812-1.426-4.453-1.426-1.731,0-3.05.632-3.955,1.895s-1.357,3.157-1.357,5.684c0,2.435.439,4.268,1.318,5.498s2.185,1.846,3.916,1.846c1.888,0,3.398-.605,4.531-1.816Z" fill="#231f20"/>
    <path d="M72.051,31.502c-1.146,0-2.194-.137-3.145-.41l-1.27,3.301-2.168-.879,1.289-3.379c-.508-.325-.977-.716-1.406-1.172-1.602-1.68-2.402-4.017-2.402-7.012,0-3.125.862-5.55,2.588-7.275s4.157-2.588,7.295-2.588c.286,0,.573.007.859.02l1.211-3.164,2.168.879-1.016,2.637c.481.13.931.286,1.348.469v2.402c-.742-.261-1.484-.456-2.227-.586l-5.254,13.711c.886.391,1.927.586,3.125.586.755,0,1.501-.088,2.236-.264s1.514-.446,2.334-.811l.137.137-.586,2.305c-.573.325-1.328.589-2.266.791-.938.201-1.888.303-2.852.303ZM72.754,14.548c-2.058.013-3.613.605-4.668,1.777-1.081,1.198-1.621,2.976-1.621,5.332,0,2.278.508,4.043,1.523,5.293l4.766-12.402Z" fill="#bf2429"/>
    <path d="M82.324,31.072v-12.988c0-.925-.046-1.888-.137-2.891s-.208-1.868-.352-2.598h3.066c.183.378.345.905.488,1.582.052.234.098.481.137.742.755-.794,1.647-1.438,2.676-1.934,1.25-.599,2.552-.898,3.906-.898,1.927,0,3.389.557,4.385,1.67s1.494,2.737,1.494,4.873l.02,12.441h-3.398v-11.855c0-1.511-.303-2.634-.908-3.369s-1.56-1.104-2.861-1.104c-1.067,0-2.116.273-3.145.82-.742.391-1.399.879-1.973,1.465v14.043h-3.398Z" fill="#231f20"/>
    <path d="M115.371,31.072c-.339-.833-.573-1.79-.703-2.871-.586.898-1.328,1.628-2.227,2.188-1.185.742-2.52,1.113-4.004,1.113-1.797,0-3.245-.495-4.346-1.484s-1.65-2.292-1.65-3.906c0-2.136.983-3.704,2.949-4.707,1.94-1.003,4.993-1.504,9.16-1.504v-.293c0-1.81-.381-3.115-1.143-3.916s-1.995-1.201-3.701-1.201c-.794,0-1.706.091-2.734.273s-1.979.423-2.852.723l-.176-.176.938-2.402c1.106-.286,2.097-.495,2.969-.625s1.712-.195,2.52-.195c2.474,0,4.349.534,5.625,1.602s1.914,2.637,1.914,4.707v7.383c0,1.719.188,3.483.566,5.293h-3.105ZM114.551,22.009c-2.995,0-5.183.319-6.562.957-1.394.651-2.09,1.673-2.09,3.066,0,.938.31,1.673.928,2.207s1.468.801,2.549.801c1.94,0,3.665-1.042,5.176-3.125v-3.906Z" fill="#231f20"/>
    <path d="M123.809,31.072v-12.988c0-.925-.046-1.888-.137-2.891s-.208-1.868-.352-2.598h3.066c.183.378.345.905.488,1.582.052.234.098.481.137.742.755-.794,1.647-1.438,2.676-1.934,1.25-.599,2.552-.898,3.906-.898,1.927,0,3.389.557,4.385,1.67s1.494,2.737,1.494,4.873l.02,12.441h-3.398v-11.855c0-1.511-.303-2.634-.908-3.369s-1.56-1.104-2.861-1.104c-1.067,0-2.116.273-3.145.82-.742.391-1.399.879-1.973,1.465v14.043h-3.398Z" fill="#231f20"/>
    <path d="M156.855,31.072c-.339-.833-.573-1.79-.703-2.871-.586.898-1.328,1.628-2.227,2.188-1.185.742-2.52,1.113-4.004,1.113-1.797,0-3.245-.495-4.346-1.484s-1.65-2.292-1.65-3.906c0-2.136.983-3.704,2.949-4.707,1.94-1.003,4.993-1.504,9.16-1.504v-.293c0-1.81-.381-3.115-1.143-3.916s-1.995-1.201-3.701-1.201c-.794,0-1.706.091-2.734.273s-1.979.423-2.852.723l-.176-.176.938-2.402c1.106-.286,2.097-.495,2.969-.625s1.712-.195,2.52-.195c2.474,0,4.349.534,5.625,1.602s1.914,2.637,1.914,4.707v7.383c0,1.719.188,3.483.566,5.293h-3.105ZM156.035,22.009c-2.995,0-5.183.319-6.562.957-1.394.651-2.09,1.673-2.09,3.066,0,.938.31,1.673.928,2.207s1.468.801,2.549.801c1.94,0,3.665-1.042,5.176-3.125v-3.906Z" fill="#231f20"/>
  </g>
</svg>