<?xml version="1.0" encoding="UTF-8"?>
<svg id="Layer_1" data-name="Layer 1" xmlns="http://www.w3.org/2000/svg" viewBox="0 0 170.75 39.255">
  <rect width="170.75" height="38.87" fill="#fff"/>
  <g>
    <path d="M1.445,31.072V3.689l3.398-.547v11.523c.793-.729,1.686-1.315,2.676-1.758,1.223-.547,2.492-.82,3.809-.82,1.9,0,3.34.56,4.316,1.68s1.465,2.78,1.465,4.98v12.324h-3.398v-11.777c0-1.55-.297-2.695-.889-3.438-.594-.742-1.514-1.113-2.764-1.113-1.928,0-3.666.703-5.215,2.109v14.219H1.445Z" fill="#231f20"/>
    <path d="M34.473,31.072c-.339-.833-.573-1.79-.703-2.871-.586.898-1.328,1.628-2.227,2.188-1.185.742-2.52,1.113-4.004,1.113-1.797,0-3.245-.495-4.346-1.484s-1.65-2.292-1.65-3.906c0-2.136.983-3.704,2.949-4.707,1.94-1.003,4.993-1.504,9.16-1.504v-.293c0-1.81-.381-3.115-1.143-3.916s-1.995-1.201-3.701-1.201c-.794,0-1.706.091-2.734.273s-1.979.423-2.852.723l-.176-.176.938-2.402c1.106-.286,2.097-.495,2.969-.625s1.712-.195,2.52-.195c2.474,0,4.349.534,5.625,1.602s1.914,2.637,1.914,4.707v7.383c0,1.719.188,3.483.566,5.293h-3.105ZM33.652,22.009c-2.995,0-5.183.319-6.562.957-1.394.651-2.09,1.673-2.09,3.066,0,.938.31,1.673.928,2.207s1.468.801,2.549.801c1.94,0,3.665-1.042,5.176-3.125v-3.906Z" fill="#231f20"/>
    <path d="M42.91,31.072V3.689l3.398-.547v17.949l8.477-8.496h3.379l-8.34,8.242,8.77,10.234h-4.375l-7.91-9.434v9.434h-3.398Z" fill="#231f20"/>
    <path d="M68.066,31.502c-1.614,0-3.024-.388-4.229-1.162s-2.136-1.872-2.793-3.291-.986-3.079-.986-4.98c0-2.019.361-3.772,1.084-5.264s1.738-2.649,3.047-3.477,2.842-1.24,4.6-1.24c1.719,0,3.327.527,4.824,1.582.078-.352.176-.71.293-1.074h3.086c-.078.586-.14,1.328-.186,2.227s-.068,1.81-.068,2.734v21.699h-3.398v-9.668c-1.406,1.276-3.164,1.914-5.273,1.914ZM73.34,27.4v-11.68c-1.328-.95-2.812-1.426-4.453-1.426-1.731,0-3.05.632-3.955,1.895s-1.357,3.157-1.357,5.684c0,2.435.439,4.268,1.318,5.498s2.185,1.846,3.916,1.846c1.888,0,3.398-.605,4.531-1.816Z" fill="#231f20"/>
    <path d="M87.617,31.502c-2.175,0-4.121-.534-5.84-1.602l-.566-2.324.137-.117c.794.481,1.735.866,2.822,1.152s2.139.43,3.154.43c1.276,0,2.253-.222,2.93-.664s1.016-1.074,1.016-1.895c0-.469-.11-.876-.332-1.221s-.625-.681-1.211-1.006-1.433-.703-2.539-1.133c-1.003-.403-1.946-.827-2.832-1.27s-1.602-1.003-2.148-1.68-.82-1.562-.82-2.656c0-1.667.674-2.988,2.021-3.965s3.154-1.465,5.42-1.465c.886,0,1.748.085,2.588.254s1.579.41,2.217.723v2.461c-1.641-.651-3.216-.977-4.727-.977-1.341,0-2.39.225-3.145.674s-1.133,1.077-1.133,1.885c0,.638.264,1.162.791,1.572s1.585.921,3.174,1.533c.703.273,1.403.569,2.1.889s1.331.7,1.904,1.143,1.035.977,1.387,1.602.527,1.38.527,2.266c0,1.641-.625,2.949-1.875,3.926s-2.923,1.465-5.02,1.465Z" fill="#231f20"/>
    <path d="M110.391,31.072c-.339-.833-.573-1.79-.703-2.871-.586.898-1.328,1.628-2.227,2.188-1.185.742-2.52,1.113-4.004,1.113-1.797,0-3.245-.495-4.346-1.484s-1.65-2.292-1.65-3.906c0-2.136.983-3.704,2.949-4.707,1.94-1.003,4.993-1.504,9.16-1.504v-.293c0-1.81-.381-3.115-1.143-3.916s-1.995-1.201-3.701-1.201c-.794,0-1.706.091-2.734.273s-1.979.423-2.852.723l-.176-.176.938-2.402c1.106-.286,2.097-.495,2.969-.625s1.712-.195,2.52-.195c2.474,0,4.349.534,5.625,1.602s1.914,2.637,1.914,4.707v7.383c0,1.719.188,3.483.566,5.293h-3.105ZM109.57,22.009c-2.995,0-5.183.319-6.562.957-1.394.651-2.09,1.673-2.09,3.066,0,.938.31,1.673.928,2.207s1.468.801,2.549.801c1.94,0,3.665-1.042,5.176-3.125v-3.906Z" fill="#231f20"/>
    <path d="M122.871,31.072h-3.398v-9.512h-3.047v-2.344h3.047v-3.789h-3.047v-2.344h3.047V3.689l3.398-.547v9.941h3.32l-.332,2.344h-2.988v3.789h3.223l-.332,2.344h-2.891v9.512Z" fill="#bf2429"/>
    <path d="M141.191,31.072c-.339-.833-.573-1.79-.703-2.871-.586.898-1.328,1.628-2.227,2.188-1.185.742-2.52,1.113-4.004,1.113-1.797,0-3.245-.495-4.346-1.484s-1.65-2.292-1.65-3.906c0-2.136.983-3.704,2.949-4.707,1.94-1.003,4.993-1.504,9.16-1.504v-.293c0-1.81-.381-3.115-1.143-3.916s-1.995-1.201-3.701-1.201c-.794,0-1.706.091-2.734.273s-1.979.423-2.852.723l-.176-.176.938-2.402c1.106-.286,2.097-.495,2.969-.625s1.712-.195,2.52-.195c2.474,0,4.349.534,5.625,1.602s1.914,2.637,1.914,4.707v7.383c0,1.719.188,3.483.566,5.293h-3.105ZM140.371,22.009c-2.995,0-5.183.319-6.562.957-1.394.651-2.09,1.673-2.09,3.066,0,.938.31,1.673.928,2.207s1.468.801,2.549.801c1.94,0,3.665-1.042,5.176-3.125v-3.906Z" fill="#231f20"/>
  </g>
</svg>