<?xml version="1.0" encoding="UTF-8"?>
<svg id="Layer_1" data-name="Layer 1" xmlns="http://www.w3.org/2000/svg" viewBox="0 0 170.75 38.87">
  <rect x="0" width="170.75" height="38.87" fill="#fff"/>
  <g>
    <path d="M12.93,31.072c-.34-.833-.574-1.79-.703-2.871-.586.898-1.328,1.628-2.227,2.188-1.186.742-2.52,1.113-4.004,1.113-1.797,0-3.246-.495-4.346-1.484-1.101-.989-1.65-2.292-1.65-3.906,0-2.136.982-3.704,2.949-4.707,1.939-1.003,4.992-1.504,9.16-1.504v-.293c0-1.81-.381-3.115-1.143-3.916s-1.996-1.201-3.701-1.201c-.795,0-1.707.091-2.734.273-1.029.183-1.98.423-2.852.723l-.176-.176.938-2.402c1.105-.286,2.096-.495,2.969-.625.871-.13,1.711-.195,2.52-.195,2.473,0,4.348.534,5.625,1.602,1.275,1.067,1.914,2.637,1.914,4.707v7.383c0,1.719.188,3.483.566,5.293h-3.105ZM12.109,22.009c-2.996,0-5.184.319-6.562.957-1.395.651-2.09,1.673-2.09,3.066,0,.938.309,1.673.928,2.207.617.534,1.467.801,2.549.801,1.939,0,3.664-1.042,5.176-3.125v-3.906Z" fill="#231f20"/>
    <path d="M23.613,31.072l-5.137-18.477h3.516l3.027,11.895c.144.56.286,1.123.43,1.689s.247,1.143.312,1.729h.137c.104-.586.234-1.172.391-1.758s.319-1.159.488-1.719l3.574-11.836h3.535l3.633,11.895c.183.625.342,1.188.479,1.689s.264,1.077.381,1.729h.137c.104-.677.208-1.257.312-1.738s.241-1.062.41-1.738l3.086-11.836h3.066l-5.391,18.477h-3.75l-3.594-11.582c-.169-.56-.325-1.12-.469-1.68s-.261-1.081-.352-1.562h-.156c-.091.481-.212.996-.361,1.543s-.31,1.106-.479,1.68l-3.496,11.602h-3.73Z" fill="#231f20"/>
    <path d="M59.961,31.072c-.339-.833-.573-1.79-.703-2.871-.586.898-1.328,1.628-2.227,2.188-1.185.742-2.52,1.113-4.004,1.113-1.797,0-3.245-.495-4.346-1.484s-1.65-2.292-1.65-3.906c0-2.136.983-3.704,2.949-4.707,1.94-1.003,4.993-1.504,9.16-1.504v-.293c0-1.81-.381-3.115-1.143-3.916s-1.995-1.201-3.701-1.201c-.794,0-1.706.091-2.734.273s-1.979.423-2.852.723l-.176-.176.938-2.402c1.106-.286,2.097-.495,2.969-.625s1.712-.195,2.52-.195c2.474,0,4.349.534,5.625,1.602s1.914,2.637,1.914,4.707v7.383c0,1.719.188,3.483.566,5.293h-3.105ZM59.141,22.009c-2.995,0-5.183.319-6.562.957-1.394.651-2.09,1.673-2.09,3.066,0,.938.31,1.673.928,2.207s1.468.801,2.549.801c1.94,0,3.665-1.042,5.176-3.125v-3.906Z" fill="#231f20"/>
    <path d="M68.398,31.072V3.689l3.398-.547v17.949l8.477-8.496h3.379l-8.34,8.242,8.77,10.234h-4.375l-7.91-9.434v9.434h-3.398ZM81.152,37.302h-10.547v-2.441h10.547v2.441Z" fill="#231f20"/>
    <path d="M88.984,4.998c.847,0,1.517.296,2.012.889s.742,1.409.742,2.451c0,1.302-.397,2.441-1.191,3.418s-1.882,1.66-3.262,2.051l-.898-1.504c.989-.3,1.719-.716,2.188-1.25.391-.43.625-.977.703-1.641-.183.026-.371.039-.566.039-.664,0-1.194-.192-1.592-.576s-.596-.896-.596-1.533c0-.703.228-1.27.684-1.699s1.048-.645,1.777-.645Z" fill="#bf262a"/>
    <path d="M97.891,31.072l-5.137-18.477h3.516l3.027,11.895c.144.56.286,1.123.43,1.689s.247,1.143.312,1.729h.137c.104-.586.234-1.172.391-1.758s.319-1.159.488-1.719l3.574-11.836h3.535l3.633,11.895c.183.625.342,1.188.479,1.689s.264,1.077.381,1.729h.137c.104-.677.208-1.257.312-1.738s.241-1.062.41-1.738l3.086-11.836h3.066l-5.391,18.477h-3.75l-3.594-11.582c-.169-.56-.325-1.12-.469-1.68s-.261-1.081-.352-1.562h-.156c-.091.481-.212.996-.361,1.543s-.31,1.106-.479,1.68l-3.496,11.602h-3.73Z" fill="#231f20"/>
    <path d="M134.238,31.072c-.339-.833-.573-1.79-.703-2.871-.586.898-1.328,1.628-2.227,2.188-1.185.742-2.52,1.113-4.004,1.113-1.797,0-3.245-.495-4.346-1.484s-1.65-2.292-1.65-3.906c0-2.136.983-3.704,2.949-4.707,1.94-1.003,4.993-1.504,9.16-1.504v-.293c0-1.81-.381-3.115-1.143-3.916s-1.995-1.201-3.701-1.201c-.794,0-1.706.091-2.734.273s-1.979.423-2.852.723l-.176-.176.938-2.402c1.106-.286,2.097-.495,2.969-.625s1.712-.195,2.52-.195c2.474,0,4.349.534,5.625,1.602s1.914,2.637,1.914,4.707v7.383c0,1.719.188,3.483.566,5.293h-3.105ZM133.418,22.009c-2.995,0-5.183.319-6.562.957-1.394.651-2.09,1.673-2.09,3.066,0,.938.31,1.673.928,2.207s1.468.801,2.549.801c1.94,0,3.665-1.042,5.176-3.125v-3.906Z" fill="#231f20"/>
    <path d="M134.824,37.302h-10.547v-2.441h10.547v2.441Z" fill="#231f20"/>
    <path d="M147.461,31.502c-2.175,0-4.121-.534-5.84-1.602l-.566-2.324.137-.117c.794.481,1.735.866,2.822,1.152s2.139.43,3.154.43c1.276,0,2.253-.222,2.93-.664s1.016-1.074,1.016-1.895c0-.469-.11-.876-.332-1.221s-.625-.681-1.211-1.006-1.433-.703-2.539-1.133c-1.003-.403-1.946-.827-2.832-1.27s-1.602-1.003-2.148-1.68-.82-1.562-.82-2.656c0-1.667.674-2.988,2.021-3.965s3.154-1.465,5.42-1.465c.886,0,1.748.085,2.588.254s1.579.41,2.217.723v2.461c-1.641-.651-3.216-.977-4.727-.977-1.341,0-2.39.225-3.145.674s-1.133,1.077-1.133,1.885c0,.638.264,1.162.791,1.572s1.585.921,3.174,1.533c.703.273,1.403.569,2.1.889s1.331.7,1.904,1.143,1.035.977,1.387,1.602.527,1.38.527,2.266c0,1.641-.625,2.949-1.875,3.926s-2.923,1.465-5.02,1.465Z" fill="#231f20"/>
  </g>
</svg>