<?xml version="1.0" encoding="UTF-8"?>
<svg id="Layer_1" data-name="Layer 1" xmlns="http://www.w3.org/2000/svg" xmlns:xlink="http://www.w3.org/1999/xlink" viewBox="0 0 170.75 38.66">
  <defs>
    <style>
      .cls-1 {
        fill: none;
      }

      .cls-2 {
        fill: #231f20;
      }

      .cls-3 {
        fill: #bf2429;
      }

      .cls-4 {
        fill: #fff;
      }

      .cls-5 {
        clip-path: url(#clippath);
      }
    </style>
    <clipPath id="clippath">
      <rect class="cls-1" x="73.39" y="0" width="5.12" height="7.36"/>
    </clipPath>
  </defs>
  <rect class="cls-4" y="7.13" width="170.75" height="31.53"/>
  <g>
    <path class="cls-2" d="M0,10.57h3.59v25.66H0V10.57ZM3.42,23.05l11.04-12.48h3.42l-10.61,11.89,11.68,13.77h-4.63L3.42,23.05Z"/>
    <path class="cls-2" d="M19,17.75h3.52l3.03,11.89c.14.56.29,1.12.43,1.69.14.57.25,1.14.31,1.73h.14c.1-.59.23-1.17.39-1.76s.32-1.16.49-1.72l3.57-11.84h3.54l3.63,11.89c.18.62.34,1.19.48,1.69.14.5.26,1.08.38,1.73h.14c.1-.68.21-1.26.31-1.74.1-.48.24-1.06.41-1.74l3.09-11.84h3.07l-5.39,18.48h-3.75l-3.59-11.58c-.17-.56-.33-1.12-.47-1.68-.14-.56-.26-1.08-.35-1.56h-.16c-.09.48-.21,1-.36,1.54-.15.55-.31,1.11-.48,1.68l-3.5,11.6h-3.73l-5.14-18.48Z"/>
    <path class="cls-2" d="M49.21,35.18c-1.1-.99-1.65-2.29-1.65-3.91,0-2.13.98-3.7,2.94-4.71,1.96-1,5.04-1.5,9.23-1.5h.53v2.11h-.53c-3.02,0-5.23.32-6.62.97-1.39.64-2.09,1.66-2.09,3.06,0,.94.31,1.67.93,2.21.62.53,1.47.8,2.55.8,2.2,0,4.13-1.34,5.78-4.02v2.3c-.62,1.3-1.53,2.32-2.71,3.07-1.19.74-2.52,1.11-4,1.11-1.8,0-3.25-.49-4.35-1.48ZM59.67,31.7v-6.93c0-1.81-.38-3.12-1.14-3.92s-2-1.2-3.7-1.2c-.79,0-1.71.09-2.73.27-1.03.18-1.98.42-2.85.72l-.18-.18.94-2.4c1.11-.29,2.1-.49,2.97-.62.87-.13,1.71-.2,2.52-.2,2.47,0,4.35.53,5.62,1.6,1.28,1.07,1.91,2.64,1.91,4.71v7.38c0,1.72.19,3.48.57,5.29h-3.11c-.51-1.25-.78-2.76-.82-4.53Z"/>
    <path class="cls-2" d="M68.93,8.85l3.4-.55v27.93h-3.4V8.85ZM72.07,26.5l8.73-8.75h3.38l-8.67,8.57v-.72l9.1,10.62h-4.38l-8.16-9.73Z"/>
    <path class="cls-2" d="M85.61,17.75h3.52l3.03,11.89c.14.56.29,1.12.43,1.69.14.57.25,1.14.31,1.73h.14c.1-.59.23-1.17.39-1.76s.32-1.16.49-1.72l3.57-11.84h3.54l3.63,11.89c.18.62.34,1.19.48,1.69.14.5.26,1.08.38,1.73h.14c.1-.68.21-1.26.31-1.74.1-.48.24-1.06.41-1.74l3.09-11.84h3.07l-5.39,18.48h-3.75l-3.59-11.58c-.17-.56-.33-1.12-.47-1.68-.14-.56-.26-1.08-.35-1.56h-.16c-.09.48-.21,1-.36,1.54-.15.55-.31,1.11-.48,1.68l-3.5,11.6h-3.73l-5.14-18.48Z"/>
    <path class="cls-2" d="M115.81,35.18c-1.1-.99-1.65-2.29-1.65-3.91,0-2.13.98-3.7,2.94-4.71,1.96-1,5.04-1.5,9.23-1.5h.53v2.11h-.53c-3.02,0-5.23.32-6.62.97-1.39.64-2.09,1.66-2.09,3.06,0,.94.31,1.67.93,2.21.62.53,1.47.8,2.55.8,2.2,0,4.13-1.34,5.78-4.02v2.3c-.62,1.3-1.53,2.32-2.71,3.07-1.19.74-2.52,1.11-4,1.11-1.8,0-3.25-.49-4.35-1.48ZM126.27,31.7v-6.93c0-1.81-.38-3.12-1.14-3.92s-2-1.2-3.7-1.2c-.79,0-1.71.09-2.73.27-1.03.18-1.98.42-2.85.72l-.18-.18.94-2.4c1.11-.29,2.1-.49,2.97-.62.87-.13,1.71-.2,2.52-.2,2.47,0,4.35.53,5.62,1.6,1.28,1.07,1.91,2.64,1.91,4.71v7.38c0,1.72.19,3.48.57,5.29h-3.11c-.51-1.25-.78-2.76-.82-4.53Z"/>
    <path class="cls-2" d="M135.53,8.85l3.4-.55v27.93h-3.4V8.85Z"/>
    <path class="cls-2" d="M145.22,35.18c-1.1-.99-1.65-2.29-1.65-3.91,0-2.13.98-3.7,2.94-4.71,1.96-1,5.04-1.5,9.23-1.5h.53v2.11h-.53c-3.02,0-5.23.32-6.62.97-1.39.64-2.09,1.66-2.09,3.06,0,.94.31,1.67.93,2.21.62.53,1.47.8,2.55.8,2.2,0,4.13-1.34,5.78-4.02v2.3c-.62,1.3-1.53,2.32-2.71,3.07-1.19.74-2.52,1.11-4,1.11-1.8,0-3.25-.49-4.35-1.48ZM155.68,31.7v-6.93c0-1.81-.38-3.12-1.14-3.92s-2-1.2-3.7-1.2c-.79,0-1.71.09-2.73.27-1.03.18-1.98.42-2.85.72l-.18-.18.94-2.4c1.11-.29,2.1-.49,2.97-.62.87-.13,1.71-.2,2.52-.2,2.47,0,4.35.53,5.62,1.6,1.28,1.07,1.91,2.64,1.91,4.71v7.38c0,1.72.19,3.48.57,5.29h-3.11c-.51-1.25-.78-2.76-.82-4.53Z"/>
  </g>
  <g class="cls-5">
    <path class="cls-3" d="M77.3,5.83c.81-.8,1.21-1.78,1.21-2.94,0-.89-.24-1.59-.71-2.11-.48-.52-1.14-.78-1.98-.78-.74,0-1.33.19-1.77.56-.44.37-.65.87-.65,1.49,0,.55.17.99.5,1.33.33.34.77.51,1.32.51.77,0,1.32-.25,1.66-.76l-.94-.84c.22.48.33.89.33,1.23,0,.55-.24,1.01-.7,1.4-.47.38-1.17.65-2.11.79l.45,1.66c1.46-.22,2.59-.73,3.4-1.53"/>
  </g>
</svg>