<?xml version="1.0" encoding="UTF-8"?>
<svg id="Layer_1" data-name="Layer 1" xmlns="http://www.w3.org/2000/svg" viewBox="0 0 170.75 31.53">
  <defs>
    <style>
      .cls-1 {
        fill: #231f20;
      }

      .cls-2 {
        fill: #bf2429;
      }

      .cls-3 {
        fill: #fff;
      }
    </style>
  </defs>
  <rect class="cls-3" width="170.75" height="31.53"/>
  <g>
    <path class="cls-1" d="M.01,3.44h3.59v25.66H.01V3.44ZM3.43,15.92L14.47,3.44h3.42L7.28,15.34l11.68,13.77h-4.63L3.43,15.92Z"/>
    <path class="cls-1" d="M19.02,10.63h3.52l3.03,11.89c.14.56.29,1.12.43,1.69.14.57.25,1.14.31,1.73h.14c.1-.59.23-1.17.39-1.76s.32-1.16.49-1.72l3.57-11.84h3.54l3.63,11.89c.18.62.34,1.19.48,1.69.14.5.26,1.08.38,1.73h.14c.1-.68.21-1.26.31-1.74.1-.48.24-1.06.41-1.74l3.09-11.84h3.07l-5.39,18.48h-3.75l-3.59-11.58c-.17-.56-.33-1.12-.47-1.68-.14-.56-.26-1.08-.35-1.56h-.16c-.09.48-.21,1-.36,1.54-.15.55-.31,1.11-.48,1.68l-3.5,11.6h-3.73l-5.14-18.48Z"/>
    <path class="cls-1" d="M49.22,28.05c-1.1-.99-1.65-2.29-1.65-3.91,0-2.13.98-3.7,2.94-4.71,1.96-1,5.04-1.5,9.23-1.5h.53v2.11h-.53c-3.02,0-5.23.32-6.62.97-1.39.64-2.09,1.66-2.09,3.06,0,.94.31,1.67.93,2.21.62.53,1.47.8,2.55.8,2.2,0,4.13-1.34,5.78-4.02v2.3c-.62,1.3-1.53,2.32-2.71,3.07-1.19.74-2.52,1.11-4,1.11-1.8,0-3.25-.49-4.35-1.48ZM59.68,24.57v-6.93c0-1.81-.38-3.12-1.14-3.92s-2-1.2-3.7-1.2c-.79,0-1.71.09-2.73.27-1.03.18-1.98.42-2.85.72l-.18-.18.94-2.4c1.11-.29,2.1-.49,2.97-.62.87-.13,1.71-.2,2.52-.2,2.47,0,4.35.53,5.62,1.6,1.28,1.07,1.91,2.64,1.91,4.71v7.38c0,1.72.19,3.48.57,5.29h-3.11c-.51-1.25-.78-2.76-.82-4.53Z"/>
    <path class="cls-1" d="M68.94,1.72l3.4-.55v27.93h-3.4V1.72ZM72.09,19.38l8.73-8.75h3.38l-8.67,8.57v-.72l9.1,10.62h-4.38l-8.16-9.73Z"/>
    <path class="cls-2" d="M87.14,12.21l-.02-8.59,3.01-.47.02,9.06h-3.01Z"/>
    <path class="cls-1" d="M92.94,10.63h3.52l3.03,11.89c.14.56.29,1.12.43,1.69.14.57.25,1.14.31,1.73h.14c.1-.59.23-1.17.39-1.76s.32-1.16.49-1.72l3.57-11.84h3.54l3.63,11.89c.18.62.34,1.19.48,1.69.14.5.26,1.08.38,1.73h.14c.1-.68.21-1.26.31-1.74.1-.48.24-1.06.41-1.74l3.09-11.84h3.07l-5.39,18.48h-3.75l-3.59-11.58c-.17-.56-.33-1.12-.47-1.68-.14-.56-.26-1.08-.35-1.56h-.16c-.09.48-.21,1-.36,1.54-.15.55-.31,1.11-.48,1.68l-3.5,11.6h-3.73l-5.14-18.48Z"/>
    <path class="cls-1" d="M123.15,28.05c-1.1-.99-1.65-2.29-1.65-3.91,0-2.13.98-3.7,2.94-4.71,1.96-1,5.04-1.5,9.23-1.5h.53v2.11h-.53c-3.02,0-5.23.32-6.62.97-1.39.64-2.09,1.66-2.09,3.06,0,.94.31,1.67.93,2.21.62.53,1.47.8,2.55.8,2.2,0,4.13-1.34,5.78-4.02v2.3c-.62,1.3-1.53,2.32-2.71,3.07-1.19.74-2.52,1.11-4,1.11-1.8,0-3.25-.49-4.35-1.48ZM133.61,24.57v-6.93c0-1.81-.38-3.12-1.14-3.92s-2-1.2-3.7-1.2c-.79,0-1.71.09-2.73.27-1.03.18-1.98.42-2.85.72l-.18-.18.94-2.4c1.11-.29,2.1-.49,2.97-.62.87-.13,1.71-.2,2.52-.2,2.47,0,4.35.53,5.62,1.6,1.28,1.07,1.91,2.64,1.91,4.71v7.38c0,1.72.19,3.48.57,5.29h-3.11c-.51-1.25-.78-2.76-.82-4.53Z"/>
    <path class="cls-1" d="M142.87,1.72l3.4-.55v27.93h-3.4V1.72Z"/>
    <path class="cls-1" d="M152.56,28.05c-1.1-.99-1.65-2.29-1.65-3.91,0-2.13.98-3.7,2.94-4.71,1.96-1,5.04-1.5,9.23-1.5h.53v2.11h-.53c-3.02,0-5.23.32-6.62.97-1.39.64-2.09,1.66-2.09,3.06,0,.94.31,1.67.93,2.21.62.53,1.47.8,2.55.8,2.2,0,4.13-1.34,5.78-4.02v2.3c-.62,1.3-1.53,2.32-2.71,3.07-1.19.74-2.52,1.11-4,1.11-1.8,0-3.25-.49-4.35-1.48ZM163.02,24.57v-6.93c0-1.81-.38-3.12-1.14-3.92s-2-1.2-3.7-1.2c-.79,0-1.71.09-2.73.27-1.03.18-1.98.42-2.85.72l-.18-.18.94-2.4c1.11-.29,2.1-.49,2.97-.62.87-.13,1.71-.2,2.52-.2,2.47,0,4.35.53,5.62,1.6,1.28,1.07,1.91,2.64,1.91,4.71v7.38c0,1.72.19,3.48.57,5.29h-3.11c-.51-1.25-.78-2.76-.82-4.53Z"/>
  </g>
</svg>