<?xml version="1.0" encoding="UTF-8"?>
<svg id="Layer_1" xmlns="http://www.w3.org/2000/svg" xmlns:xlink="http://www.w3.org/1999/xlink" version="1.1" viewBox="0 0 170.8 38.7">
  <!-- Generator: Adobe Illustrator 29.3.1, SVG Export Plug-In . SVG Version: 2.1.0 Build 151)  -->
  <defs>
    <style>
      .st0 {
        fill: none;
      }

      .st1 {
        fill: #231f20;
      }

      .st2 {
        fill: #bf2429;
      }

      .st3 {
        fill: #fff;
      }

      .st4 {
        clip-path: url(#clippath);
      }
    </style>
    <clipPath id="clippath">
      <rect class="st0" x="73.4" width="5.1" height="7.4"/>
    </clipPath>
  </defs>
  <rect class="st3" width="170.8" height="38.7"/>
  <g>
    <path class="st1" d="M0,10.6h3.6v25.7H0V10.6ZM3.4,23l11-12.5h3.4l-10.6,11.9,11.7,13.8h-4.6L3.4,23Z"/>
    <path class="st1" d="M19,17.8h3.5l3,11.9c.1.6.3,1.1.4,1.7s.2,1.1.3,1.7h.1c.1-.6.2-1.2.4-1.8s.3-1.2.5-1.7l3.6-11.8h3.5l3.6,11.9c.2.6.3,1.2.5,1.7s.3,1.1.4,1.7h.1c0-.7.2-1.3.3-1.7,0-.5.2-1.1.4-1.7l3.1-11.8h3.1l-5.4,18.5h-3.8l-3.6-11.6c-.2-.6-.3-1.1-.5-1.7s-.3-1.1-.3-1.6h-.2c0,.5-.2,1-.4,1.5-.1.5-.3,1.1-.5,1.7l-3.5,11.6h-3.7l-5.1-18.5h0Z"/>
    <path class="st1" d="M49.2,35.2c-1.1-1-1.7-2.3-1.7-3.9s1-3.7,2.9-4.7c2-1,5-1.5,9.2-1.5h.5v2.1h-.5c-3,0-5.2.3-6.6,1-1.4.6-2.1,1.7-2.1,3.1s.3,1.7.9,2.2c.6.5,1.5.8,2.5.8,2.2,0,4.1-1.3,5.8-4v2.3c-.6,1.3-1.5,2.3-2.7,3.1-1.2.7-2.5,1.1-4,1.1s-3.2-.5-4.3-1.5h0ZM59.7,31.7v-6.9c0-1.8-.4-3.1-1.1-3.9s-2-1.2-3.7-1.2-1.7,0-2.7.3c-1,.2-2,.4-2.8.7l-.2-.2.9-2.4c1.1-.3,2.1-.5,3-.6.9-.1,1.7-.2,2.5-.2,2.5,0,4.3.5,5.6,1.6,1.3,1.1,1.9,2.6,1.9,4.7v7.4c0,1.7.2,3.5.6,5.3h-3.1c-.5-1.2-.8-2.8-.8-4.5h0Z"/>
    <path class="st1" d="M68.9,8.9l3.4-.6v27.9h-3.4V8.9ZM72.1,26.5l8.7-8.8h3.4l-8.7,8.6v-.7l9.1,10.6h-4.4l-8.2-9.7h0Z"/>
    <path class="st1" d="M85.6,17.8h3.5l3,11.9c.1.6.3,1.1.4,1.7s.2,1.1.3,1.7h.1c0-.6.2-1.2.4-1.8s.3-1.2.5-1.7l3.6-11.8h3.5l3.6,11.9c.2.6.3,1.2.5,1.7.1.5.3,1.1.4,1.7h.1c0-.7.2-1.3.3-1.7s.2-1.1.4-1.7l3.1-11.8h3.1l-5.4,18.5h-3.8l-3.6-11.6c-.2-.6-.3-1.1-.5-1.7s-.3-1.1-.3-1.6h-.2c0,.5-.2,1-.4,1.5-.2.5-.3,1.1-.5,1.7l-3.5,11.6h-3.7l-5.1-18.5h0Z"/>
    <path class="st1" d="M115.8,35.2c-1.1-1-1.7-2.3-1.7-3.9s1-3.7,2.9-4.7c2-1,5-1.5,9.2-1.5h.5v2.1h-.5c-3,0-5.2.3-6.6,1-1.4.6-2.1,1.7-2.1,3.1s.3,1.7.9,2.2c.6.5,1.5.8,2.6.8,2.2,0,4.1-1.3,5.8-4v2.3c-.6,1.3-1.5,2.3-2.7,3.1-1.2.7-2.5,1.1-4,1.1s-3.2-.5-4.3-1.5h0ZM126.3,31.7v-6.9c0-1.8-.4-3.1-1.1-3.9s-2-1.2-3.7-1.2-1.7,0-2.7.3c-1,.2-2,.4-2.8.7l-.2-.2.9-2.4c1.1-.3,2.1-.5,3-.6.9-.1,1.7-.2,2.5-.2,2.5,0,4.3.5,5.6,1.6,1.3,1.1,1.9,2.6,1.9,4.7v7.4c0,1.7.2,3.5.6,5.3h-3.1c-.5-1.2-.8-2.8-.8-4.5h0Z"/>
    <path class="st1" d="M135.5,8.9l3.4-.6v27.9h-3.4V8.9Z"/>
    <path class="st1" d="M145.2,35.2c-1.1-1-1.6-2.3-1.6-3.9s1-3.7,2.9-4.7c2-1,5-1.5,9.2-1.5h.5v2.1h-.5c-3,0-5.2.3-6.6,1-1.4.6-2.1,1.7-2.1,3.1s.3,1.7.9,2.2c.6.5,1.5.8,2.6.8,2.2,0,4.1-1.3,5.8-4v2.3c-.6,1.3-1.5,2.3-2.7,3.1-1.2.7-2.5,1.1-4,1.1s-3.2-.5-4.4-1.5h0ZM155.7,31.7v-6.9c0-1.8-.4-3.1-1.1-3.9s-2-1.2-3.7-1.2-1.7,0-2.7.3c-1,.2-2,.4-2.9.7l-.2-.2.9-2.4c1.1-.3,2.1-.5,3-.6.9-.1,1.7-.2,2.5-.2,2.5,0,4.4.5,5.6,1.6,1.3,1.1,1.9,2.6,1.9,4.7v7.4c0,1.7.2,3.5.6,5.3h-3.1c-.5-1.2-.8-2.8-.8-4.5h0Z"/>
  </g>
  <g class="st4">
    <path class="st2" d="M77.3,5.8c.8-.8,1.2-1.8,1.2-2.9s-.2-1.6-.7-2.1c-.5-.5-1.1-.8-2-.8s-1.3.2-1.8.6c-.4.4-.7.9-.7,1.5s.2,1,.5,1.3c.3.3.8.5,1.3.5s1.3-.2,1.7-.8l-.9-.8c.2.5.3.9.3,1.2,0,.5-.2,1-.7,1.4-.5.4-1.2.7-2.1.8l.4,1.7c1.5-.2,2.6-.7,3.4-1.5"/>
  </g>
</svg>