<?xml version="1.0" encoding="UTF-8"?>
<svg id="Layer_1" data-name="Layer 1" xmlns="http://www.w3.org/2000/svg" viewBox="0 0 171.31 37.43">
  <defs>
    <style>
      .cls-1 {
        fill: #231f20;
      }

      .cls-2 {
        fill: #fff;
      }
    </style>
  </defs>
  <rect class="cls-2" x=".55" width="170.75" height="31.53"/>
  <g>
    <path class="cls-1" d="M.49,16.12c0-.96-.05-1.94-.14-2.94-.09-1-.21-1.85-.35-2.55h3.07c.18.36.34.89.49,1.56.14.68.25,1.45.31,2.3l.02.51v14.1H.49v-12.99ZM12.4,17.15c0-1.48-.29-2.58-.88-3.3-.59-.72-1.5-1.07-2.73-1.07-.94,0-1.85.21-2.74.62-.89.42-1.66.99-2.29,1.72l-.25-2.01c.82-.94,1.81-1.67,2.96-2.2s2.36-.79,3.62-.79c1.68,0,3.05.5,4.12,1.5,1.07,1,1.6,2.75,1.6,5.23v12.25h-3.4v-11.95ZM24.32,17.15c0-1.48-.29-2.58-.88-3.3-.59-.72-1.49-1.07-2.71-1.07-.95,0-1.87.21-2.76.62-.89.42-1.66.99-2.29,1.72l-.51-1.82c.91-1.02,1.96-1.8,3.13-2.35,1.18-.55,2.42-.83,3.72-.83,1.68,0,3.05.5,4.11,1.5,1.06,1,1.59,2.75,1.59,5.23v12.25h-3.4v-11.95Z"/>
    <path class="cls-1" d="M34.86,27.81c-.96-1.15-1.45-2.83-1.45-5.03v-12.15h3.4v11.91c0,1.48.29,2.58.88,3.29.59.71,1.49,1.06,2.71,1.06.96,0,1.91-.22,2.85-.66.94-.44,1.74-1.06,2.42-1.86l.18,1.95c-.85,1.04-1.85,1.84-3.01,2.38-1.16.55-2.38.82-3.65.82-1.93,0-3.37-.58-4.34-1.73ZM45.9,27.54c-.12-.55-.21-1.12-.27-1.72l-.08-1.13v-14.06h3.4v13.18c0,.83.05,1.7.15,2.61.1.91.24,1.8.42,2.69h-3.14c-.2-.49-.35-1.02-.47-1.56Z"/>
    <path class="cls-1" d="M53.98,27.93l-.57-2.32.14-.12c.79.48,1.73.87,2.82,1.15,1.09.29,2.14.43,3.15.43,1.28,0,2.25-.22,2.93-.66.68-.44,1.02-1.07,1.02-1.89,0-.47-.11-.88-.33-1.22-.22-.34-.62-.68-1.21-1.01-.59-.33-1.43-.7-2.54-1.13-1-.4-1.95-.83-2.83-1.27-.89-.44-1.6-1-2.15-1.68-.55-.68-.82-1.56-.82-2.66,0-1.67.67-2.99,2.02-3.96s3.15-1.46,5.42-1.46c.89,0,1.75.08,2.59.25.84.17,1.58.41,2.22.72v2.46c-1.64-.65-3.22-.98-4.73-.98-1.34,0-2.39.22-3.14.67-.76.45-1.13,1.08-1.13,1.88,0,.64.26,1.16.79,1.57s1.58.92,3.17,1.53c.7.27,1.4.57,2.1.89.7.32,1.33.7,1.9,1.14.57.44,1.04.98,1.39,1.6s.53,1.38.53,2.27c0,1.64-.62,2.95-1.88,3.93s-2.92,1.46-5.02,1.46-4.12-.53-5.84-1.6Z"/>
    <path class="cls-1" d="M65.31,35.34h-10.55v-2.44h10.55v2.44Z"/>
    <path class="cls-1" d="M73.46,28.36c-1.2-.78-2.13-1.88-2.79-3.3-.66-1.42-1-3.08-1-4.98,0-2.02.36-3.77,1.09-5.26.73-1.49,1.75-2.65,3.07-3.47,1.31-.82,2.86-1.23,4.63-1.23s3.5.54,5.08,1.62v2.25c-.66-.51-1.45-.91-2.35-1.21-.91-.3-1.78-.45-2.63-.45-1.77,0-3.11.64-4.01,1.91-.91,1.28-1.36,3.16-1.36,5.64s.44,4.29,1.32,5.52,2.18,1.85,3.92,1.85c2.17,0,3.91-.85,5.2-2.56v2.27c-1.52,1.72-3.5,2.58-5.94,2.58-1.61,0-3.02-.39-4.22-1.17ZM84.1,32.89h-10.55v2.44h10.55v-2.44ZM83.15,26.91c-.14-.84-.21-1.76-.21-2.76V1.72l3.4-.55v22.64c0,.57.02,1.16.07,1.76.05.6.11,1.2.19,1.79.08.59.18,1.18.29,1.75h-3.12c-.27-.62-.48-1.36-.62-2.2Z"/>
    <path class="cls-1" d="M90.72,26.88l10.45-13.71v-.88l.94.8h-10.86v-2.46h14.18v2.23l-10.43,13.73v.84l-.9-.78h11.52l-.35,2.46h-14.55v-2.23ZM103.36,32.89h-10.55v2.44h10.55v-2.44Z"/>
    <path class="cls-1" d="M110.17,6.66c-.37-.38-.56-.9-.56-1.56s.19-1.17.58-1.55.91-.58,1.57-.58,1.16.19,1.52.56c.36.37.55.88.55,1.53s-.19,1.21-.58,1.59-.91.58-1.57.58-1.14-.19-1.51-.57ZM110.02,10.63h3.4v18.48h-3.4V10.63Z"/>
    <path class="cls-1" d="M124.83,29.57c-.07-.01-.13-.03-.19-.06l-8.46-18.89h3.67l6.15,14.43h.76l-1.58,4.55c-.17-.01-.29-.03-.36-.04ZM119.28,37.34c-.38-.06-.75-.15-1.11-.28l-.76-3.11.12-.14c.36.1.79.21,1.27.3.48.1,1.04.15,1.66.15.78,0,1.45-.16,2-.48.55-.32,1.04-1.06,1.46-2.24l7.42-20.92h3.2l-8.5,21.99c-.46,1.2-.98,2.15-1.56,2.85s-1.22,1.2-1.9,1.5-1.41.45-2.18.45c-.36,0-.74-.03-1.11-.09Z"/>
    <path class="cls-1" d="M137.47,28.05c-1.1-.99-1.65-2.29-1.65-3.91,0-2.13.98-3.7,2.94-4.71,1.96-1,5.04-1.5,9.23-1.5h.53v2.11h-.53c-3.02,0-5.23.32-6.62.97-1.39.64-2.09,1.66-2.09,3.06,0,.94.31,1.67.93,2.21.62.53,1.47.8,2.55.8,2.2,0,4.13-1.34,5.78-4.02v2.3c-.62,1.3-1.53,2.32-2.71,3.07-1.19.74-2.52,1.11-4,1.11-1.8,0-3.25-.49-4.35-1.48ZM147.93,24.57v-6.93c0-1.81-.38-3.12-1.14-3.92s-2-1.2-3.7-1.2c-.79,0-1.71.09-2.73.27-1.03.18-1.98.42-2.85.72l-.18-.18.94-2.4c1.11-.29,2.1-.49,2.97-.62.87-.13,1.71-.2,2.52-.2,2.47,0,4.35.53,5.62,1.6,1.28,1.07,1.91,2.64,1.91,4.71v7.38c0,1.72.19,3.48.57,5.29h-3.11c-.51-1.25-.78-2.76-.82-4.53Z"/>
    <path class="cls-1" d="M157.71,3.03c.85,0,1.52.3,2.01.89.49.59.74,1.4.74,2.43,0,1.42-.46,2.65-1.37,3.7-.91,1.05-2.1,1.72-3.57,2.02l-.47-1.84c1.02-.26,1.76-.64,2.24-1.15.48-.51.72-1.19.73-2.05l1.33-.41c-.17.26-.43.47-.77.62-.35.16-.73.23-1.14.23-.66,0-1.19-.19-1.59-.58-.4-.38-.6-.9-.6-1.53,0-.7.23-1.27.68-1.7.46-.43,1.05-.64,1.78-.64Z"/>
  </g>
</svg>