<?xml version="1.0" encoding="UTF-8"?>
<svg id="Layer_1" xmlns="http://www.w3.org/2000/svg" version="1.1" viewBox="0 0 171.3 37.4">
  <!-- Generator: Adobe Illustrator 29.3.1, SVG Export Plug-In . SVG Version: 2.1.0 Build 151)  -->
  <defs>
    <style>
      .st0 {
        fill: #231f20;
      }

      .st1 {
        fill: #fff;
      }
    </style>
  </defs>
  <rect class="st1" width="171.3" height="37.4"/>
  <g>
    <path class="st0" d="M.5,16.1c0-1,0-1.9-.1-2.9C.3,12.2.1,11.3,0,10.6h3.1c.2.4.3.9.5,1.6.1.7.2,1.4.3,2.3v.5s0,14.1,0,14.1H.5v-13H.5ZM12.4,17.1c0-1.5-.3-2.6-.9-3.3s-1.5-1.1-2.7-1.1-1.8.2-2.7.6c-.9.4-1.7,1-2.3,1.7l-.2-2c.8-.9,1.8-1.7,3-2.2s2.4-.8,3.6-.8,3.1.5,4.1,1.5,1.6,2.8,1.6,5.2v12.2h-3.4v-11.9h0ZM24.3,17.1c0-1.5-.3-2.6-.9-3.3-.6-.7-1.5-1.1-2.7-1.1s-1.9.2-2.8.6c-.9.4-1.7,1-2.3,1.7l-.5-1.8c.9-1,2-1.8,3.1-2.3,1.2-.6,2.4-.8,3.7-.8s3,.5,4.1,1.5c1.1,1,1.6,2.8,1.6,5.2v12.2h-3.4v-12Z"/>
    <path class="st0" d="M34.9,27.8c-1-1.1-1.5-2.8-1.5-5v-12.1h3.4v11.9c0,1.5.3,2.6.9,3.3s1.5,1.1,2.7,1.1,1.9-.2,2.8-.7,1.7-1.1,2.4-1.9l.2,2c-.8,1-1.8,1.8-3,2.4-1.2.5-2.4.8-3.7.8-1.9,0-3.4-.6-4.3-1.7h0ZM45.9,27.5c-.1-.5-.2-1.1-.3-1.7v-1.1c0,0,0-14.1,0-14.1h3.4v13.2c0,.8,0,1.7.2,2.6,0,.9.2,1.8.4,2.7h-3.1c-.2-.5-.3-1-.5-1.6h0Z"/>
    <path class="st0" d="M54,27.9l-.6-2.3h.1c.8.4,1.7.8,2.8,1,1.1.3,2.1.4,3.2.4s2.2-.2,2.9-.7,1-1.1,1-1.9-.1-.9-.3-1.2-.6-.7-1.2-1-1.4-.7-2.5-1.1c-1-.4-2-.8-2.8-1.3-.9-.4-1.6-1-2.2-1.7-.5-.7-.8-1.6-.8-2.7,0-1.7.7-3,2-4s3.2-1.5,5.4-1.5,1.8,0,2.6.2,1.6.4,2.2.7v2.5c-1.6-.6-3.2-1-4.7-1s-2.4.2-3.1.7c-.8.4-1.1,1.1-1.1,1.9s.3,1.2.8,1.6,1.6.9,3.2,1.5c.7.3,1.4.6,2.1.9.7.3,1.3.7,1.9,1.1.6.4,1,1,1.4,1.6s.5,1.4.5,2.3c0,1.6-.6,3-1.9,3.9s-2.9,1.5-5,1.5-4.1-.5-5.8-1.6h0Z"/>
    <path class="st0" d="M65.3,35.3h-10.5v-2.4h10.5v2.4Z"/>
    <path class="st0" d="M73.5,28.4c-1.2-.8-2.1-1.9-2.8-3.3s-1-3.1-1-5,.4-3.8,1.1-5.3c.7-1.5,1.8-2.6,3.1-3.5,1.3-.8,2.9-1.2,4.6-1.2s3.5.5,5.1,1.6v2.2c-.7-.5-1.4-.9-2.3-1.2-.9-.3-1.8-.4-2.6-.4-1.8,0-3.1.6-4,1.9-.9,1.3-1.4,3.2-1.4,5.6s.4,4.3,1.3,5.5,2.2,1.9,3.9,1.9,3.9-.9,5.2-2.6v2.3c-1.5,1.7-3.5,2.6-5.9,2.6s-3-.4-4.2-1.2h0ZM84.1,32.9h-10.6v2.4h10.6v-2.4ZM83.2,26.9c-.1-.8-.2-1.8-.2-2.8V1.7l3.4-.5v22.6c0,.6,0,1.2,0,1.8s.1,1.2.2,1.8.2,1.2.3,1.8h-3.1c-.3-.6-.5-1.4-.6-2.2Z"/>
    <path class="st0" d="M90.7,26.9l10.4-13.7v-.9l.9.8h-10.9v-2.5h14.2v2.2l-10.4,13.7v.8l-.9-.8h11.5l-.3,2.5h-14.6s0-2.2,0-2.2ZM103.4,32.9h-10.6v2.4h10.6v-2.4Z"/>
    <path class="st0" d="M110.2,6.7c-.4-.4-.6-.9-.6-1.6s.2-1.2.6-1.5.9-.6,1.6-.6,1.2.2,1.5.6c.4.4.6.9.6,1.5s-.2,1.2-.6,1.6-.9.6-1.6.6-1.1-.2-1.5-.6ZM110,10.6h3.4v18.5h-3.4V10.6Z"/>
    <path class="st0" d="M124.8,29.6c0,0-.1,0-.2,0l-8.5-18.9h3.7l6.2,14.4h.8l-1.6,4.6c-.2,0-.3,0-.4,0h0ZM119.3,37.3c-.4,0-.8-.2-1.1-.3l-.8-3.1h.1c.4,0,.8,0,1.3.2.5,0,1,.2,1.7.2s1.4-.2,2-.5,1-1.1,1.5-2.2l7.4-20.9h3.2l-8.5,22c-.5,1.2-1,2.2-1.6,2.8s-1.2,1.2-1.9,1.5-1.4.5-2.2.5-.7,0-1.1,0h0Z"/>
    <path class="st0" d="M137.5,28c-1.1-1-1.6-2.3-1.6-3.9s1-3.7,2.9-4.7c2-1,5-1.5,9.2-1.5h.5v2.1h-.5c-3,0-5.2.3-6.6,1-1.4.6-2.1,1.7-2.1,3.1s.3,1.7.9,2.2c.6.5,1.5.8,2.6.8,2.2,0,4.1-1.3,5.8-4v2.3c-.6,1.3-1.5,2.3-2.7,3.1-1.2.7-2.5,1.1-4,1.1s-3.2-.5-4.4-1.5h0ZM147.9,24.6v-6.9c0-1.8-.4-3.1-1.1-3.9s-2-1.2-3.7-1.2-1.7,0-2.7.3c-1,.2-2,.4-2.9.7l-.2-.2.9-2.4c1.1-.3,2.1-.5,3-.6s1.7-.2,2.5-.2c2.5,0,4.4.5,5.6,1.6,1.3,1.1,1.9,2.6,1.9,4.7v7.4c0,1.7.2,3.5.6,5.3h-3.1c-.5-1.2-.8-2.8-.8-4.5h0Z"/>
    <path class="st0" d="M157.7,3c.9,0,1.5.3,2,.9.5.6.7,1.4.7,2.4s-.5,2.6-1.4,3.7c-.9,1.1-2.1,1.7-3.6,2l-.5-1.8c1-.3,1.8-.6,2.2-1.1.5-.5.7-1.2.7-2.1l1.3-.4c-.2.3-.4.5-.8.6-.4.2-.7.2-1.1.2-.7,0-1.2-.2-1.6-.6-.4-.4-.6-.9-.6-1.5s.2-1.3.7-1.7c.5-.4,1.1-.6,1.8-.6h0Z"/>
  </g>
</svg>