<?xml version="1.0" encoding="UTF-8"?>
<svg id="Layer_1" data-name="Layer 1" xmlns="http://www.w3.org/2000/svg" viewBox="0 0 173.57 37.37">
  <defs>
    <style>
      .cls-1 {
        fill: #231f20;
      }

      .cls-2 {
        fill: #fff;
      }
    </style>
  </defs>
  <rect class="cls-2" x="2.82" width="170.75" height="31.53"/>
  <g>
    <path class="cls-1" d="M3.24,29.11H0L10.35,3.44h2.32l10.27,25.66h-2.13c-.5.33-.96.75-1.41,1.28-.44.53-.8,1.07-1.06,1.64-.27.57-.4,1.08-.4,1.53,0,1,.62,1.5,1.86,1.5.4,0,.81-.06,1.23-.17.42-.11.77-.26,1.07-.46l.14.12-.51,2.03c-.31.21-.77.39-1.36.55-.59.16-1.16.23-1.69.23-1.03,0-1.87-.3-2.51-.89s-.97-1.36-.97-2.31c0-.89.31-1.81.94-2.77.57-.9,1.45-1.87,2.64-2.91l-2.5-6.78H6.05l-2.81,7.4ZM15.35,19.2l-4.04-10.92h-.14l-4.16,10.92h8.34Z"/>
    <path class="cls-1" d="M31.18,26.59h11.84v2.52h-1.88c-.92.66-1.67,1.39-2.25,2.19-.59.81-.88,1.54-.88,2.19,0,1.05.62,1.58,1.86,1.58.38,0,.77-.06,1.19-.18.42-.12.79-.27,1.11-.47l.14.14-.59,2.01c-.33.22-.78.41-1.36.57-.58.16-1.11.23-1.59.23-1.03,0-1.87-.3-2.52-.9-.65-.6-.98-1.37-.98-2.32,0-1.58,1-3.23,3.01-4.96v-.08h-10.7V3.44h15.02l-.35,2.52h-11.07v8.57h9.51v2.48h-9.51v9.57Z"/>
    <path class="cls-1" d="M47.44,36.47c-.65-.6-.98-1.38-.98-2.34,0-.81.25-1.63.74-2.47.49-.84,1.22-1.69,2.19-2.55h2.52c-.77.6-1.41,1.32-1.93,2.17-.52.85-.78,1.59-.78,2.25,0,1.03.63,1.54,1.89,1.54.38,0,.77-.06,1.19-.18.42-.12.79-.27,1.11-.45l.14.12-.51,2.03c-.31.21-.77.39-1.37.55-.6.16-1.17.23-1.7.23-1.03,0-1.87-.3-2.52-.9ZM48.42,3.44h3.59v25.66h-3.59V3.44Z"/>
    <path class="cls-1" d="M70.03,29.61l-.02-.06c-.17.01-.37.02-.61.02h-.53c-6.45,0-9.67-3.5-9.67-10.51V3.44h3.59v15.37c0,2.9.51,5.02,1.54,6.34,1.03,1.32,2.68,1.98,4.96,1.98s4.03-.66,5.14-1.99c1.11-1.33,1.66-3.38,1.66-6.17V3.44h2.85v15.2c0,2.08-.23,3.75-.68,4.99-.46,1.24-.98,2.19-1.57,2.84-.59.65-1.1,1.13-1.53,1.45-1.72,1.25-3.03,2.26-3.95,3.04-.91.77-1.37,1.6-1.37,2.49,0,1.08.62,1.62,1.86,1.62.46,0,.89-.07,1.31-.21.42-.14.75-.28,1-.44l.14.14-.59,2.01c-.25.16-.65.33-1.21.52-.56.19-1.15.28-1.76.28-.94,0-1.75-.27-2.44-.82-.69-.55-1.04-1.32-1.04-2.32s.3-1.88.9-2.64c.6-.75,1.27-1.41,2.01-1.97Z"/>
    <path class="cls-1" d="M100.66,29.11h-1.35c-.94.66-1.69,1.39-2.25,2.19-.59.82-.88,1.56-.88,2.23,0,1.03.63,1.54,1.89,1.54.38,0,.77-.06,1.19-.18.42-.12.79-.27,1.11-.45l.14.12-.51,2.03c-.31.21-.77.39-1.37.55-.6.16-1.17.23-1.7.23-1.03,0-1.87-.3-2.52-.89-.65-.59-.98-1.37-.98-2.33s.33-1.86.99-2.81c.66-.95,1.62-1.89,2.88-2.83h.02c-.23-.69-.4-1.45-.49-2.27-.59.9-1.33,1.63-2.23,2.19-1.19.74-2.52,1.11-4,1.11-1.8,0-3.25-.49-4.35-1.48-1.1-.99-1.65-2.29-1.65-3.91,0-2.13.98-3.7,2.95-4.71,1.94-1,4.99-1.5,9.16-1.5v-.29c0-1.81-.38-3.12-1.14-3.92s-2-1.2-3.7-1.2c-.79,0-1.71.09-2.73.27-1.03.18-1.98.42-2.85.72l-.18-.18.94-2.4c1.11-.29,2.1-.49,2.97-.62.87-.13,1.71-.2,2.52-.2,2.47,0,4.35.53,5.62,1.6,1.28,1.07,1.91,2.64,1.91,4.71v7.38c0,1.72.19,3.48.57,5.29ZM96.73,23.95v-3.91c-3,0-5.18.32-6.56.96-1.39.65-2.09,1.67-2.09,3.07,0,.94.31,1.67.93,2.21.62.53,1.47.8,2.55.8,1.94,0,3.67-1.04,5.18-3.12Z"/>
    <path class="cls-1" d="M116.68,37.37c-1.03,0-1.87-.3-2.52-.9-.65-.6-.98-1.38-.98-2.34s.27-1.76.82-2.52,1.22-1.43,2.01-2.01v-.08c-.23.01-.49.02-.76.02-2.9,0-5.18-.86-6.84-2.58-1.65-1.72-2.48-4.09-2.48-7.11,0-1.99.36-3.71,1.07-5.17.72-1.45,1.73-2.57,3.05-3.37,1.31-.79,2.86-1.19,4.65-1.19,2.58,0,4.55.8,5.91,2.41,1.36,1.61,2.04,3.94,2.04,7v.39c0,.08,0,.16-.02.23h-13.24c.06,2.25.61,3.95,1.62,5.08,1.07,1.21,2.7,1.82,4.9,1.82,1.12,0,2.17-.16,3.14-.48.98-.32,1.97-.82,2.97-1.49l.12.1-.53,2.54-.96.57c-1.43.85-2.58,1.71-3.45,2.6-.87.89-1.3,1.76-1.3,2.64,0,1.03.63,1.54,1.89,1.54.38,0,.77-.06,1.19-.18.42-.12.79-.27,1.11-.45l.14.12-.51,2.03c-.31.21-.77.39-1.37.55-.6.16-1.17.23-1.7.23ZM109.5,17.95h9.57c-.09-1.89-.51-3.29-1.25-4.2-.74-.91-1.81-1.37-3.2-1.37-1.65,0-2.94.64-3.85,1.91-.66.94-1.09,2.16-1.27,3.65Z"/>
    <path class="cls-1" d="M127.61,36.47c-.65-.6-.98-1.38-.98-2.34,0-.81.25-1.63.74-2.47.49-.84,1.22-1.69,2.19-2.55h2.52c-.77.6-1.41,1.32-1.93,2.17-.52.85-.78,1.59-.78,2.25,0,1.03.63,1.54,1.89,1.54.38,0,.77-.06,1.19-.18.42-.12.79-.27,1.11-.45l.14.12-.51,2.03c-.31.21-.77.39-1.37.55-.6.16-1.17.23-1.7.23-1.03,0-1.87-.3-2.52-.9ZM128.83,6.66c-.37-.38-.56-.9-.56-1.56s.19-1.17.58-1.55.91-.58,1.57-.58,1.16.19,1.52.56c.36.37.55.88.55,1.53s-.19,1.21-.58,1.59-.91.58-1.57.58-1.14-.19-1.51-.57ZM128.68,10.63h3.4v18.48h-3.4V10.63Z"/>
    <path class="cls-1" d="M144.98,29.53c-1.93,0-3.37-.58-4.34-1.73-.96-1.15-1.45-2.83-1.45-5.03v-12.15h3.4v11.91c0,1.48.29,2.58.88,3.29.59.71,1.49,1.06,2.71,1.06.96,0,1.91-.22,2.85-.66.87-.42,1.63-.98,2.29-1.7v-13.91h3.4v13.18c0,.83.05,1.7.15,2.61.1.91.24,1.8.42,2.69h-1.35c-.92.66-1.67,1.39-2.25,2.19-.59.81-.88,1.54-.88,2.19,0,1.05.63,1.58,1.89,1.58.38,0,.77-.06,1.19-.18.42-.12.79-.27,1.11-.45l.14.12-.51,2.03c-.31.21-.77.39-1.37.55-.6.16-1.17.23-1.7.23-1.03,0-1.87-.3-2.52-.89-.65-.59-.98-1.37-.98-2.33s.34-1.91,1.04-2.89c.62-.89,1.56-1.8,2.81-2.75-.1-.31-.19-.63-.25-.96-.08-.34-.14-.68-.2-1.04-.81.95-1.76,1.69-2.85,2.21-1.16.55-2.38.82-3.65.82Z"/>
  </g>
</svg>