<?xml version="1.0" encoding="UTF-8"?>
<svg id="Layer_1" xmlns="http://www.w3.org/2000/svg" version="1.1" viewBox="0 0 173.6 37.4">
  <!-- Generator: Adobe Illustrator 29.3.1, SVG Export Plug-In . SVG Version: 2.1.0 Build 151)  -->
  <defs>
    <style>
      .st0 {
        fill: #231f20;
      }

      .st1 {
        fill: #fff;
      }
    </style>
  </defs>
  <rect class="st1" width="173.6" height="37.3"/>
  <g>
    <path class="st0" d="M3.2,29.1H0L10.4,3.4h2.3l10.3,25.7h-2.1c-.5.3-1,.8-1.4,1.3-.4.5-.8,1.1-1.1,1.6-.3.6-.4,1.1-.4,1.5,0,1,.6,1.5,1.9,1.5s.8,0,1.2-.2c.4-.1.8-.3,1.1-.5h.1c0,.1-.5,2.1-.5,2.1-.3.2-.8.4-1.4.5s-1.2.2-1.7.2c-1,0-1.9-.3-2.5-.9s-1-1.4-1-2.3.3-1.8.9-2.8c.6-.9,1.5-1.9,2.6-2.9l-2.5-6.8H6.1l-2.8,7.4h0ZM15.4,19.2l-4-10.9h-.1l-4.2,10.9h8.3Z"/>
    <path class="st0" d="M31.2,26.6h11.8v2.5h-1.9c-.9.7-1.7,1.4-2.2,2.2-.6.8-.9,1.5-.9,2.2,0,1,.6,1.6,1.9,1.6s.8,0,1.2-.2.8-.3,1.1-.5h.1c0,.1-.6,2.1-.6,2.1-.3.2-.8.4-1.4.6s-1.1.2-1.6.2c-1,0-1.9-.3-2.5-.9-.7-.6-1-1.4-1-2.3,0-1.6,1-3.2,3-5h0c0,0-10.7,0-10.7,0V3.4h15l-.3,2.5h-11.1v8.6h9.5v2.5h-9.5v9.6h0Z"/>
    <path class="st0" d="M47.4,36.5c-.7-.6-1-1.4-1-2.3s.2-1.6.7-2.5c.5-.8,1.2-1.7,2.2-2.5h2.5c-.8.6-1.4,1.3-1.9,2.2-.5.8-.8,1.6-.8,2.2,0,1,.6,1.5,1.9,1.5s.8,0,1.2-.2.8-.3,1.1-.5h.1c0,.1-.5,2.1-.5,2.1-.3.2-.8.4-1.4.5s-1.2.2-1.7.2c-1,0-1.9-.3-2.5-.9h0ZM48.4,3.4h3.6v25.7h-3.6V3.4Z"/>
    <path class="st0" d="M70,29.6h0c-.2,0-.4,0-.6,0h-.5c-6.5,0-9.7-3.5-9.7-10.5V3.4h3.6v15.4c0,2.9.5,5,1.5,6.3s2.7,2,5,2,4-.7,5.1-2,1.7-3.4,1.7-6.2V3.4h2.8v15.2c0,2.1-.2,3.8-.7,5-.5,1.2-1,2.2-1.6,2.8s-1.1,1.1-1.5,1.5c-1.7,1.2-3,2.3-3.9,3-.9.8-1.4,1.6-1.4,2.5s.6,1.6,1.9,1.6.9,0,1.3-.2.8-.3,1-.4h.1c0,.1-.6,2.1-.6,2.1-.2.2-.7.3-1.2.5s-1.2.3-1.8.3c-.9,0-1.8-.3-2.4-.8s-1-1.3-1-2.3.3-1.9.9-2.6c.6-.8,1.3-1.4,2-2h0Z"/>
    <path class="st0" d="M100.7,29.1h-1.3c-.9.7-1.7,1.4-2.2,2.2-.6.8-.9,1.6-.9,2.2,0,1,.6,1.5,1.9,1.5s.8,0,1.2-.2c.4-.1.8-.3,1.1-.5h.1c0,.1-.5,2.1-.5,2.1-.3.2-.8.4-1.4.5-.6.2-1.2.2-1.7.2-1,0-1.9-.3-2.5-.9-.7-.6-1-1.4-1-2.3s.3-1.9,1-2.8c.7-1,1.6-1.9,2.9-2.8h0c-.2-.7-.4-1.5-.5-2.3-.6.9-1.3,1.6-2.2,2.2-1.2.7-2.5,1.1-4,1.1s-3.2-.5-4.3-1.5-1.7-2.3-1.7-3.9,1-3.7,2.9-4.7c1.9-1,5-1.5,9.2-1.5v-.3c0-1.8-.4-3.1-1.1-3.9s-2-1.2-3.7-1.2-1.7,0-2.7.3c-1,.2-2,.4-2.8.7l-.2-.2.9-2.4c1.1-.3,2.1-.5,3-.6s1.7-.2,2.5-.2c2.5,0,4.3.5,5.6,1.6,1.3,1.1,1.9,2.6,1.9,4.7v7.4c0,1.7.2,3.5.6,5.3h0ZM96.7,24v-3.9c-3,0-5.2.3-6.6,1-1.4.6-2.1,1.7-2.1,3.1s.3,1.7.9,2.2c.6.5,1.5.8,2.6.8,1.9,0,3.7-1,5.2-3.1h0Z"/>
    <path class="st0" d="M116.7,37.4c-1,0-1.9-.3-2.5-.9-.7-.6-1-1.4-1-2.3s.3-1.8.8-2.5,1.2-1.4,2-2h0c-.2,0-.5,0-.8,0-2.9,0-5.2-.9-6.8-2.6-1.7-1.7-2.5-4.1-2.5-7.1s.4-3.7,1.1-5.2c.7-1.4,1.7-2.6,3.1-3.4,1.3-.8,2.9-1.2,4.7-1.2,2.6,0,4.6.8,5.9,2.4,1.4,1.6,2,3.9,2,7v.4c0,0,0,.2,0,.2h-13.2c0,2.2.6,4,1.6,5.1,1.1,1.2,2.7,1.8,4.9,1.8s2.2-.2,3.1-.5c1-.3,2-.8,3-1.5h.1c0,.1-.5,2.6-.5,2.6l-1,.6c-1.4.9-2.6,1.7-3.4,2.6-.9.9-1.3,1.8-1.3,2.6s.6,1.5,1.9,1.5.8,0,1.2-.2c.4-.1.8-.3,1.1-.5h.1c0,.1-.5,2.1-.5,2.1-.3.2-.8.4-1.4.5-.6.2-1.2.2-1.7.2h0ZM109.5,18h9.6c0-1.9-.5-3.3-1.2-4.2s-1.8-1.4-3.2-1.4-2.9.6-3.8,1.9c-.7.9-1.1,2.2-1.3,3.6h0Z"/>
    <path class="st0" d="M127.6,36.5c-.7-.6-1-1.4-1-2.3s.2-1.6.7-2.5c.5-.8,1.2-1.7,2.2-2.5h2.5c-.8.6-1.4,1.3-1.9,2.2-.5.8-.8,1.6-.8,2.2,0,1,.6,1.5,1.9,1.5s.8,0,1.2-.2.8-.3,1.1-.5h.1c0,.1-.5,2.1-.5,2.1-.3.2-.8.4-1.4.5-.6.2-1.2.2-1.7.2-1,0-1.9-.3-2.5-.9h0ZM128.8,6.7c-.4-.4-.6-.9-.6-1.6s.2-1.2.6-1.5.9-.6,1.6-.6,1.2.2,1.5.6c.4.4.6.9.6,1.5s-.2,1.2-.6,1.6-.9.6-1.6.6-1.1-.2-1.5-.6h0ZM128.7,10.6h3.4v18.5h-3.4V10.6Z"/>
    <path class="st0" d="M145,29.5c-1.9,0-3.4-.6-4.3-1.7-1-1.1-1.4-2.8-1.4-5v-12.1h3.4v11.9c0,1.5.3,2.6.9,3.3.6.7,1.5,1.1,2.7,1.1s1.9-.2,2.9-.7c.9-.4,1.6-1,2.3-1.7v-13.9h3.4v13.2c0,.8,0,1.7.1,2.6.1.9.2,1.8.4,2.7h-1.4c-.9.7-1.7,1.4-2.2,2.2-.6.8-.9,1.5-.9,2.2,0,1,.6,1.6,1.9,1.6s.8,0,1.2-.2.8-.3,1.1-.5h.1c0,.1-.5,2.1-.5,2.1-.3.2-.8.4-1.4.5-.6.2-1.2.2-1.7.2-1,0-1.9-.3-2.5-.9-.6-.6-1-1.4-1-2.3s.3-1.9,1-2.9c.6-.9,1.6-1.8,2.8-2.8-.1-.3-.2-.6-.2-1,0-.3-.1-.7-.2-1-.8,1-1.8,1.7-2.9,2.2-1.2.5-2.4.8-3.6.8h0Z"/>
  </g>
</svg>