<?xml version="1.0" encoding="UTF-8"?>
<svg id="Layer_1" data-name="Layer 1" xmlns="http://www.w3.org/2000/svg" viewBox="0 0 174.06 81.3">
  <defs>
    <style>
      .cls-1 {
        fill: #231f20;
      }

      .cls-2 {
        fill: #fff;
      }
    </style>
  </defs>
  <rect class="cls-2" width="174.06" height="81.3"/>
  <g>
    <path class="cls-1" d="M10.84,3.44h2.32l10.27,25.66h-3.93l-2.73-7.4H6.54l-2.81,7.4H.49L10.84,3.44ZM13.54,37.12c-.62.16-1.28.24-1.95.24-1.29,0-2.31-.31-3.07-.92-.76-.61-1.13-1.45-1.13-2.5,0-1.12.44-1.97,1.33-2.54.73-.47,1.73-.74,2.99-.8v-1.89h1.97v3.75c-2.21.08-3.32.61-3.32,1.6,0,.4.2.73.59.97s.9.36,1.54.36c.47,0,.97-.07,1.5-.2.53-.13.96-.29,1.29-.49l.1.08-.39,1.7c-.34.26-.82.47-1.45.63ZM15.84,19.2l-4.04-10.92h-.14l-4.16,10.92h8.34Z"/>
    <path class="cls-1" d="M28.08,3.44h15.02l-.35,2.52h-11.07v8.57h9.51v2.48h-9.51v9.57h11.84v2.52h-6.02v3.36c-2.21.08-3.32.61-3.32,1.6,0,.4.2.73.59.97s.9.36,1.54.36c.47,0,.97-.07,1.5-.2.53-.13.96-.29,1.29-.49l.1.08-.39,1.7c-.34.26-.82.47-1.45.63s-1.28.24-1.95.24c-1.29,0-2.31-.31-3.07-.92-.76-.61-1.13-1.45-1.13-2.5,0-1.12.44-1.97,1.33-2.54.73-.47,1.73-.74,2.99-.8v-1.5h-7.44V3.44Z"/>
    <path class="cls-1" d="M48.9,3.44h3.59v25.66h-.1v3.36c-2.21.08-3.32.61-3.32,1.6,0,.4.2.73.59.97s.9.36,1.54.36c.47,0,.97-.07,1.5-.2.53-.13.96-.29,1.29-.49l.1.08-.39,1.7c-.34.26-.82.47-1.45.63s-1.28.24-1.95.24c-1.29,0-2.31-.31-3.07-.92-.76-.61-1.13-1.45-1.13-2.5,0-1.12.44-1.97,1.33-2.54.73-.47,1.73-.74,2.99-.8v-1.5h-1.52V3.44Z"/>
    <path class="cls-1" d="M71.04,37.12c-.62.16-1.28.24-1.95.24-1.29,0-2.31-.31-3.07-.92-.76-.61-1.13-1.45-1.13-2.5,0-1.12.44-1.97,1.33-2.54.73-.47,1.73-.74,2.99-.8v-1.04c-6.34-.05-9.51-3.55-9.51-10.51V3.44h3.59v15.37c0,2.9.51,5.02,1.54,6.34,1.03,1.32,2.68,1.98,4.96,1.98s4.03-.66,5.14-1.99c1.11-1.33,1.66-3.38,1.66-6.17V3.44h2.85v15.2c0,6.6-2.75,10.21-8.26,10.84v2.99c-2.21.08-3.32.61-3.32,1.6,0,.4.2.73.59.97s.9.36,1.54.36c.47,0,.97-.07,1.5-.2.53-.13.96-.29,1.29-.49l.1.08-.39,1.7c-.34.26-.82.47-1.45.63Z"/>
    <path class="cls-1" d="M101.15,29.11h-3.11c-.34-.83-.57-1.79-.7-2.87-.59.9-1.33,1.63-2.23,2.19-.04.03-.08.05-.12.08v3.96c-2.21.08-3.32.61-3.32,1.58,0,.4.19.73.57.98.38.25.89.37,1.52.37.49,0,1.01-.06,1.53-.19s.96-.29,1.3-.5l.1.08-.39,1.7c-.34.26-.82.47-1.45.63s-1.28.24-1.95.24c-1.29,0-2.31-.31-3.07-.92-.76-.61-1.13-1.44-1.13-2.48,0-1.12.44-1.97,1.33-2.56.73-.47,1.73-.74,2.99-.8v-1.31c-.61.16-1.25.23-1.91.23-1.8,0-3.25-.49-4.35-1.48-1.1-.99-1.65-2.29-1.65-3.91,0-2.13.98-3.7,2.95-4.71,1.94-1,4.99-1.5,9.16-1.5v-.29c0-1.81-.38-3.12-1.14-3.92s-2-1.2-3.7-1.2c-.79,0-1.71.09-2.73.27-1.03.18-1.98.42-2.85.72l-.18-.18.94-2.4c1.11-.29,2.1-.49,2.97-.62.87-.13,1.71-.2,2.52-.2,2.47,0,4.35.53,5.62,1.6,1.28,1.07,1.91,2.64,1.91,4.71v7.38c0,1.72.19,3.48.57,5.29ZM97.22,20.04c-3,0-5.18.32-6.56.96-1.39.65-2.09,1.67-2.09,3.07,0,.94.31,1.67.93,2.21.62.53,1.47.8,2.55.8,1.94,0,3.67-1.04,5.18-3.12v-3.91Z"/>
    <path class="cls-1" d="M116.86,37.12c-.62.16-1.28.24-1.95.24-1.29,0-2.31-.31-3.07-.92-.76-.61-1.13-1.45-1.13-2.5,0-1.12.44-1.97,1.33-2.54.73-.47,1.73-.74,2.99-.8v-1.09c-2.57-.13-4.6-.98-6.11-2.56-1.65-1.72-2.48-4.09-2.48-7.11,0-1.99.36-3.71,1.07-5.17.72-1.45,1.73-2.57,3.05-3.37,1.31-.79,2.86-1.19,4.65-1.19,2.58,0,4.55.8,5.91,2.41,1.36,1.61,2.04,3.94,2.04,7v.39c0,.08,0,.16-.02.23h-13.24c.06,2.25.61,3.95,1.62,5.08,1.07,1.21,2.7,1.82,4.9,1.82,1.12,0,2.17-.16,3.14-.48.98-.32,1.97-.82,2.97-1.49l.12.1-.53,2.54c-.87.59-1.86,1.04-2.95,1.35-.7.2-1.43.33-2.17.41v2.99c-2.21.08-3.32.61-3.32,1.6,0,.4.2.73.59.97s.9.36,1.54.36c.47,0,.97-.07,1.5-.2.53-.13.96-.29,1.29-.49l.1.08-.39,1.7c-.34.26-.82.47-1.45.63ZM119.56,17.95c-.08-1.74-.44-3.07-1.07-3.98-.76-1.05-1.88-1.58-3.38-1.58-1.65,0-2.94.64-3.85,1.91-.66.94-1.09,2.16-1.27,3.65h9.57Z"/>
    <path class="cls-1" d="M129.17,10.63h3.4v21.84c-2.21.08-3.32.61-3.32,1.6,0,.4.2.73.59.97s.9.36,1.54.36c.47,0,.97-.07,1.5-.2.53-.13.96-.29,1.29-.49l.1.08-.39,1.7c-.34.26-.82.47-1.45.63s-1.28.24-1.95.24c-1.29,0-2.31-.31-3.07-.92-.76-.61-1.13-1.45-1.13-2.5,0-1.12.44-1.97,1.33-2.54.73-.47,1.73-.74,2.99-.8v-1.5h-1.43V10.63Z"/>
    <path class="cls-1" d="M139.69,22.78v-12.15h3.4v11.91c0,1.47.29,2.57.87,3.28.58.72,1.47,1.07,2.69,1.07.99,0,1.95-.22,2.89-.66.87-.42,1.63-.98,2.29-1.7v-13.91h3.4v13.18c0,.83.05,1.7.15,2.61.1.91.24,1.8.42,2.69h-3.14c-.2-.52-.35-1.05-.47-1.58-.08-.33-.14-.66-.2-1.02-.89,1.05-1.91,1.83-3.07,2.32v3.63c-1.04.04-1.86.21-2.44.5s-.88.69-.88,1.18c0,.83.68,1.25,2.05,1.25.49,0,1.01-.06,1.53-.19s.97-.29,1.34-.5l.1.08-.39,1.7c-.34.26-.82.47-1.45.63s-1.27.24-1.93.24c-1.29,0-2.31-.31-3.08-.93s-1.14-1.46-1.14-2.51c0-.68.16-1.26.47-1.74.64-.95,1.92-1.48,3.85-1.58v-1.19c-.5.08-1,.12-1.52.12-3.82,0-5.72-2.25-5.72-6.76Z"/>
    <path class="cls-1" d="M15.88,79.12c-.62.16-1.28.24-1.95.24-1.29,0-2.31-.31-3.07-.92-.76-.61-1.13-1.45-1.13-2.5,0-1.12.44-1.97,1.33-2.54.73-.47,1.73-.74,2.99-.8v-1.04c-2.38-.03-4.44-.56-6.17-1.6-1.77-1.05-3.13-2.57-4.09-4.55-.96-1.98-1.44-4.33-1.44-7.05s.49-5.14,1.48-7.15c.99-2,2.4-3.55,4.24-4.63,1.84-1.08,4.02-1.62,6.54-1.62s4.63.52,6.42,1.57c1.79,1.05,3.17,2.54,4.14,4.48.97,1.94,1.46,4.26,1.46,6.95s-.51,5.16-1.52,7.2c-1.02,2.04-2.45,3.61-4.32,4.72-1.41.85-3,1.37-4.77,1.58v2.99c-2.21.08-3.32.61-3.32,1.6,0,.4.2.73.59.97s.9.36,1.54.36c.47,0,.97-.07,1.5-.2.53-.13.96-.29,1.29-.49l.1.08-.39,1.7c-.34.26-.82.47-1.45.63ZM20.71,66.28c1.46-1.9,2.2-4.63,2.2-8.2s-.72-6.16-2.15-7.96c-1.43-1.8-3.54-2.71-6.31-2.71s-4.87.91-6.28,2.72c-1.41,1.82-2.12,4.5-2.12,8.06s.71,6.28,2.13,8.14c1.42,1.86,3.48,2.79,6.19,2.79s4.87-.95,6.34-2.85Z"/>
    <path class="cls-1" d="M44.38,79.12c-.62.16-1.28.24-1.95.24-1.29,0-2.31-.31-3.07-.92-.76-.61-1.13-1.45-1.13-2.5,0-1.12.44-1.97,1.33-2.54.73-.47,1.73-.74,2.99-.8v-1.05c-2.16-.01-4.02-.52-5.57-1.52-1.58-1-2.78-2.45-3.61-4.35-.83-1.89-1.25-4.17-1.25-6.83,0-.31,0-.51,0-.6,0-.08.02-.17.03-.26h18.32c0-3.53-.69-6.17-2.07-7.91-1.39-1.73-3.51-2.6-6.35-2.6-1.41,0-2.87.2-4.38.6-1.52.4-2.91.95-4.19,1.65l-.12-.12.61-2.42c.98-.65,2.26-1.18,3.85-1.59,1.59-.41,3.18-.62,4.79-.62,3.7,0,6.56,1.12,8.58,3.36,2.02,2.24,3.04,5.4,3.04,9.47,0,2.8-.47,5.23-1.42,7.29-.94,2.06-2.28,3.65-4.01,4.77-1.26.82-2.69,1.34-4.28,1.56v3.03c-2.21.08-3.32.61-3.32,1.6,0,.4.2.73.59.97s.9.36,1.54.36c.47,0,.97-.07,1.5-.2.53-.13.96-.29,1.29-.49l.1.08-.39,1.7c-.34.26-.82.47-1.45.63ZM35.77,60.44c.03,2.55.63,4.6,1.82,6.13,1.29,1.69,3.06,2.54,5.31,2.54,2.41,0,4.28-.97,5.61-2.91.99-1.46,1.61-3.38,1.86-5.76h-14.59Z"/>
    <path class="cls-1" d="M69.76,79.12c-.62.16-1.28.24-1.95.24-1.29,0-2.31-.31-3.07-.92-.76-.61-1.13-1.45-1.13-2.5,0-1.12.44-1.97,1.33-2.54.73-.47,1.73-.74,2.99-.8v-1.07c-2.66-.03-4.74-.87-6.25-2.52-1.54-1.68-2.3-4.01-2.3-6.99s.81-5.49,2.44-7.26c1.63-1.76,3.85-2.65,6.68-2.65s4.92.84,6.48,2.51c1.56,1.67,2.34,3.98,2.34,6.92,0,2.03-.38,3.79-1.14,5.28-.76,1.49-1.83,2.65-3.21,3.47-.91.53-1.93.9-3.07,1.09v3.07c-2.21.08-3.32.61-3.32,1.6,0,.4.2.73.59.97s.9.36,1.54.36c.47,0,.97-.07,1.5-.2.53-.13.96-.29,1.29-.49l.1.08-.39,1.7c-.34.26-.82.47-1.45.63ZM72.4,67.33c.94-1.28,1.41-3.16,1.41-5.63s-.46-4.24-1.37-5.46c-.91-1.22-2.28-1.83-4.1-1.83s-3.19.61-4.09,1.84c-.91,1.22-1.36,3.07-1.36,5.53s.45,4.34,1.36,5.6c.9,1.26,2.24,1.88,4.01,1.88s3.2-.64,4.14-1.92Z"/>
    <path class="cls-1" d="M91.71,79.12c-.62.16-1.28.24-1.95.24-1.29,0-2.31-.31-3.07-.92-.76-.61-1.13-1.45-1.13-2.5,0-1.12.44-1.97,1.33-2.54.73-.47,1.73-.74,2.99-.8v-1.02c-2.45-.05-4.35-.89-5.7-2.52-1.41-1.68-2.11-4.07-2.11-7.17v-.51c0-.05,0-.12.02-.21h13.38c-.07-2.2-.54-3.83-1.43-4.88-.96-1.12-2.49-1.68-4.59-1.68-1.09,0-2.18.15-3.25.45-1.07.3-2.15.76-3.23,1.37l-.18-.16.98-2.52c2-1.04,4.09-1.56,6.25-1.56,2.84,0,5.03.81,6.58,2.44,1.55,1.63,2.32,3.94,2.32,6.93,0,2.04-.36,3.82-1.07,5.32-.72,1.5-1.73,2.66-3.05,3.47-.87.55-1.86.91-2.95,1.09v3.01c-2.21.08-3.32.61-3.32,1.6,0,.4.2.73.59.97s.9.36,1.54.36c.47,0,.97-.07,1.5-.2.53-.13.96-.29,1.29-.49l.1.08-.39,1.7c-.34.26-.82.47-1.45.63ZM85.57,63.39c.05,1.85.46,3.28,1.21,4.3.81,1.11,1.97,1.66,3.5,1.66,1.67,0,2.95-.66,3.85-1.99.66-.99,1.08-2.31,1.25-3.96h-9.8Z"/>
  </g>
</svg>