<?xml version="1.0" encoding="UTF-8"?>
<svg id="Layer_1" data-name="Layer 1" xmlns="http://www.w3.org/2000/svg" viewBox="0 0 174.06 82.4">
  <defs>
    <style>
      .cls-1 {
        fill: #231f20;
      }

      .cls-2 {
        fill: #fff;
      }
    </style>
  </defs>
  <rect class="cls-2" width="174.06" height="82.4"/>
  <g>
    <path class="cls-1" d="M10.84,3.44h2.32l10.27,25.66h-3.93l-2.73-7.4H6.54l-2.81,7.4H.49L10.84,3.44ZM15.84,19.2l-4.04-10.92h-.14l-4.16,10.92h8.34ZM9.2,36.47c-.65-.6-.98-1.38-.98-2.34,0-.81.25-1.63.74-2.47.49-.84,1.22-1.69,2.19-2.55h2.52c-.77.6-1.41,1.32-1.93,2.17-.52.85-.78,1.59-.78,2.25,0,1.03.63,1.54,1.89,1.54.38,0,.77-.06,1.19-.18.42-.12.79-.27,1.11-.45l.14.12-.51,2.03c-.31.21-.77.39-1.37.55-.6.16-1.17.23-1.7.23-1.03,0-1.87-.3-2.52-.9Z"/>
    <path class="cls-1" d="M28.08,3.44h15.02l-.35,2.52h-11.07v8.57h9.51v2.48h-9.51v9.57h11.84v2.52h-15.43V3.44ZM33.02,36.47c-.65-.6-.98-1.38-.98-2.34,0-.81.25-1.63.74-2.47.49-.84,1.22-1.69,2.19-2.55h2.52c-.77.6-1.41,1.32-1.93,2.17-.52.85-.78,1.59-.78,2.25,0,1.03.63,1.54,1.89,1.54.38,0,.77-.06,1.19-.18.42-.12.79-.27,1.11-.45l.14.12-.51,2.03c-.31.21-.77.39-1.37.55-.6.16-1.17.23-1.7.23-1.03,0-1.87-.3-2.52-.9Z"/>
    <path class="cls-1" d="M47.93,36.47c-.65-.6-.98-1.38-.98-2.34,0-.81.25-1.63.74-2.47.49-.84,1.22-1.69,2.19-2.55h2.52c-.77.6-1.41,1.32-1.93,2.17-.52.85-.78,1.59-.78,2.25,0,1.03.63,1.54,1.89,1.54.38,0,.77-.06,1.19-.18.42-.12.79-.27,1.11-.45l.14.12-.51,2.03c-.31.21-.77.39-1.37.55-.6.16-1.17.23-1.7.23-1.03,0-1.87-.3-2.52-.9ZM48.9,3.44h3.59v25.66h-3.59V3.44Z"/>
    <path class="cls-1" d="M66.71,36.47c-.65-.6-.98-1.38-.98-2.34,0-.81.25-1.63.74-2.48.42-.69.99-1.39,1.72-2.11-5.66-.4-8.5-3.89-8.5-10.47V3.44h3.59v15.37c0,2.9.51,5.02,1.54,6.34,1.03,1.32,2.68,1.98,4.96,1.98s4.03-.66,5.14-1.99c1.11-1.33,1.66-3.38,1.66-6.17V3.44h2.85v15.2c0,6.8-2.92,10.42-8.75,10.88-.56.51-1.04,1.09-1.45,1.76-.52.85-.78,1.59-.78,2.25,0,1.03.63,1.54,1.89,1.54.38,0,.77-.06,1.19-.18.42-.12.79-.27,1.11-.45l.14.12-.51,2.03c-.31.21-.77.39-1.37.55-.6.16-1.17.23-1.7.23-1.03,0-1.87-.3-2.52-.9Z"/>
    <path class="cls-1" d="M101.15,29.11h-3.11c-.34-.75-.57-1.67-.7-2.75-.26.29-.57.62-.92,1-.6.62-1.21,1.3-1.83,2.02-.62.72-1.14,1.44-1.56,2.16-.42.72-.63,1.38-.63,1.99,0,1.03.63,1.54,1.89,1.54.38,0,.77-.06,1.19-.18.42-.12.79-.27,1.11-.45l.14.12-.51,2.03c-.31.21-.77.39-1.37.55-.6.16-1.17.23-1.7.23-1.03,0-1.87-.3-2.52-.9-.65-.6-.98-1.38-.98-2.34,0-.73.2-1.49.61-2.29.4-.8.96-1.55,1.68-2.24v-.1c-.29.03-.54.04-.76.04-1.85,0-3.32-.5-4.42-1.5-1.1-1-1.65-2.33-1.65-3.98,0-2.1.98-3.64,2.95-4.63,1.95-.99,5.01-1.48,9.16-1.48v-.29c0-1.8-.37-3.1-1.12-3.91-.75-.81-1.96-1.21-3.62-1.21-.87,0-1.83.09-2.86.27-1.04.18-1.98.42-2.82.72l-.18-.18.94-2.4c1.12-.3,2.12-.51,2.99-.63.87-.12,1.71-.19,2.52-.19,2.46,0,4.33.53,5.61,1.6,1.28,1.07,1.91,2.64,1.91,4.71v7.38c0,1.72.19,3.48.57,5.29ZM97.22,20.04c-3,0-5.18.31-6.56.94-1.39.64-2.09,1.65-2.09,3.03,0,.95.31,1.7.92,2.25.61.55,1.45.82,2.52.82,1.97,0,3.7-1.04,5.21-3.12v-3.91Z"/>
    <path class="cls-1" d="M112.52,36.47c-.65-.6-.98-1.38-.98-2.34,0-.81.25-1.63.74-2.48.43-.73,1.04-1.46,1.84-2.21-2.15-.27-3.89-1.1-5.21-2.48-1.65-1.72-2.48-4.09-2.48-7.11,0-1.99.36-3.71,1.07-5.17.72-1.45,1.73-2.57,3.05-3.37,1.31-.79,2.86-1.19,4.65-1.19,2.58,0,4.55.8,5.91,2.41,1.36,1.61,2.04,3.94,2.04,7v.39c0,.08,0,.16-.02.23h-13.24c.06,2.25.61,3.95,1.62,5.08,1.07,1.21,2.7,1.82,4.9,1.82,1.12,0,2.17-.16,3.14-.48.98-.32,1.97-.82,2.97-1.49l.12.1-.53,2.54c-.87.59-1.86,1.04-2.95,1.35-.86.25-1.75.4-2.66.45-.56.51-1.04,1.09-1.45,1.76-.52.85-.78,1.59-.78,2.25,0,1.03.63,1.54,1.89,1.54.38,0,.77-.06,1.19-.18.42-.12.79-.27,1.11-.45l.14.12-.51,2.03c-.31.21-.77.39-1.37.55-.6.16-1.17.23-1.7.23-1.03,0-1.87-.3-2.52-.9ZM119.56,17.95c-.08-1.74-.44-3.07-1.07-3.98-.76-1.05-1.88-1.58-3.38-1.58-1.65,0-2.94.64-3.85,1.91-.66.94-1.09,2.16-1.27,3.65h9.57Z"/>
    <path class="cls-1" d="M128.1,36.47c-.65-.6-.98-1.38-.98-2.34,0-.81.25-1.63.74-2.47.49-.84,1.22-1.69,2.19-2.55h2.52c-.77.6-1.41,1.32-1.93,2.17-.52.85-.78,1.59-.78,2.25,0,1.03.63,1.54,1.89,1.54.38,0,.77-.06,1.19-.18.42-.12.79-.27,1.11-.45l.14.12-.51,2.03c-.31.21-.77.39-1.37.55-.6.16-1.17.23-1.7.23-1.03,0-1.87-.3-2.52-.9ZM129.17,10.63h3.4v18.48h-3.4V10.63Z"/>
    <path class="cls-1" d="M147.64,37.37c-1.03,0-1.87-.3-2.52-.9-.65-.6-.98-1.38-.98-2.34,0-.74.21-1.51.62-2.3s.97-1.54,1.69-2.23v-.1c-.29.03-.61.04-.96.04-1.91,0-3.36-.57-4.34-1.71-.98-1.14-1.46-2.82-1.46-5.05v-12.15h3.4v11.91c0,1.47.29,2.57.87,3.28.58.72,1.47,1.07,2.69,1.07.99,0,1.95-.22,2.89-.66.87-.42,1.63-.98,2.29-1.7v-13.91h3.4v13.18c0,.83.05,1.7.15,2.61.1.91.24,1.8.42,2.69h-3.14c-.2-.46-.35-.96-.47-1.5-.07-.31-.12-.65-.18-1.02-1.59,1.38-2.81,2.64-3.67,3.77-.96,1.25-1.45,2.3-1.45,3.14,0,1.04.63,1.56,1.89,1.56.38,0,.77-.06,1.19-.18.42-.12.79-.27,1.11-.45l.14.12-.51,2.03c-.31.21-.77.39-1.37.55-.6.16-1.17.23-1.7.23Z"/>
    <path class="cls-1" d="M11.54,78.47c-.65-.6-.98-1.38-.98-2.34,0-.81.25-1.63.74-2.48.42-.69.99-1.39,1.72-2.11-1.95-.14-3.67-.66-5.16-1.56-1.77-1.05-3.13-2.57-4.09-4.55-.96-1.98-1.44-4.33-1.44-7.05s.49-5.14,1.48-7.15c.99-2,2.4-3.55,4.24-4.63,1.84-1.08,4.02-1.62,6.54-1.62s4.63.52,6.42,1.57c1.79,1.05,3.17,2.54,4.14,4.48.97,1.94,1.46,4.26,1.46,6.95s-.51,5.16-1.52,7.2c-1.02,2.04-2.45,3.61-4.32,4.72-1.52.92-3.27,1.46-5.25,1.62-.56.51-1.04,1.09-1.45,1.76-.52.85-.78,1.59-.78,2.25,0,1.03.63,1.54,1.89,1.54.38,0,.77-.06,1.19-.18.42-.12.79-.27,1.11-.45l.14.12-.51,2.03c-.31.21-.77.39-1.37.55-.6.16-1.17.23-1.7.23-1.03,0-1.87-.3-2.52-.9ZM20.71,66.28c1.46-1.9,2.2-4.63,2.2-8.2s-.72-6.16-2.15-7.96c-1.43-1.8-3.54-2.71-6.31-2.71s-4.87.91-6.28,2.72c-1.41,1.82-2.12,4.5-2.12,8.06s.71,6.28,2.13,8.14c1.42,1.86,3.48,2.79,6.19,2.79s4.87-.95,6.34-2.85Z"/>
    <path class="cls-1" d="M40.05,78.47c-.65-.6-.98-1.38-.98-2.34,0-.81.25-1.63.74-2.48.42-.7,1-1.41,1.76-2.13-1.76-.14-3.29-.64-4.59-1.48-1.58-1-2.78-2.45-3.61-4.35-.83-1.89-1.25-4.17-1.25-6.83,0-.31,0-.51,0-.6,0-.08.02-.17.03-.26h18.32c0-3.53-.69-6.17-2.07-7.91-1.39-1.73-3.51-2.6-6.35-2.6-1.41,0-2.87.2-4.38.6-1.52.4-2.91.95-4.19,1.65l-.12-.12.61-2.42c.98-.65,2.26-1.18,3.85-1.59,1.59-.41,3.18-.62,4.79-.62,3.7,0,6.56,1.12,8.58,3.36,2.02,2.24,3.04,5.4,3.04,9.47,0,2.8-.47,5.23-1.42,7.29-.94,2.06-2.28,3.65-4.01,4.77-1.38.89-2.96,1.42-4.73,1.6-.57.52-1.07,1.12-1.48,1.8-.52.85-.78,1.59-.78,2.25,0,1.03.63,1.54,1.89,1.54.38,0,.77-.06,1.19-.18.42-.12.79-.27,1.11-.45l.14.12-.51,2.03c-.31.21-.77.39-1.37.55-.6.16-1.17.23-1.7.23-1.03,0-1.87-.3-2.52-.9ZM35.77,60.44c.03,2.55.63,4.6,1.82,6.13,1.29,1.69,3.06,2.54,5.31,2.54,2.41,0,4.28-.97,5.61-2.91.99-1.46,1.61-3.38,1.86-5.76h-14.59Z"/>
    <path class="cls-1" d="M65.43,78.47c-.65-.6-.98-1.38-.98-2.34,0-.81.25-1.63.74-2.48.42-.7,1.01-1.42,1.78-2.15-2.2-.21-3.96-1.04-5.29-2.48-1.54-1.68-2.3-4.01-2.3-6.99s.81-5.49,2.44-7.26c1.63-1.76,3.85-2.65,6.68-2.65s4.92.84,6.48,2.51c1.56,1.67,2.34,3.98,2.34,6.92,0,2.03-.38,3.79-1.14,5.28-.76,1.49-1.83,2.65-3.21,3.47-1.03.6-2.19.98-3.48,1.15-.59.52-1.09,1.13-1.52,1.82-.52.85-.78,1.59-.78,2.25,0,1.03.63,1.54,1.89,1.54.38,0,.77-.06,1.19-.18.42-.12.79-.27,1.11-.45l.14.12-.51,2.03c-.31.21-.77.39-1.37.55-.6.16-1.17.23-1.7.23-1.03,0-1.87-.3-2.52-.9ZM72.4,67.33c.94-1.28,1.41-3.16,1.41-5.63s-.46-4.24-1.37-5.46c-.91-1.22-2.28-1.83-4.1-1.83s-3.19.61-4.09,1.84c-.91,1.22-1.36,3.07-1.36,5.53s.45,4.34,1.36,5.6c.9,1.26,2.24,1.88,4.01,1.88s3.2-.64,4.14-1.92Z"/>
    <path class="cls-1" d="M87.37,78.47c-.65-.6-.98-1.38-.98-2.34,0-.81.25-1.63.74-2.48.42-.7,1-1.41,1.74-2.13-1.98-.22-3.55-1.04-4.71-2.44-1.41-1.68-2.11-4.07-2.11-7.17v-.51c0-.05,0-.12.02-.21h13.38c-.07-2.2-.54-3.83-1.43-4.88-.96-1.12-2.49-1.68-4.59-1.68-1.09,0-2.18.15-3.25.45-1.07.3-2.15.76-3.23,1.37l-.18-.16.98-2.52c2-1.04,4.09-1.56,6.25-1.56,2.84,0,5.03.81,6.58,2.44,1.55,1.63,2.32,3.94,2.32,6.93,0,2.04-.36,3.82-1.07,5.32-.72,1.5-1.73,2.66-3.05,3.47-1,.62-2.15,1.02-3.44,1.17-.56.51-1.04,1.09-1.45,1.74-.52.85-.78,1.59-.78,2.25,0,1.03.63,1.54,1.89,1.54.38,0,.77-.06,1.19-.18.42-.12.79-.27,1.11-.45l.14.12-.51,2.03c-.31.21-.77.39-1.37.55-.6.16-1.17.23-1.7.23-1.03,0-1.87-.3-2.52-.9ZM85.57,63.39c.05,1.85.46,3.28,1.21,4.3.81,1.11,1.97,1.66,3.5,1.66,1.67,0,2.95-.66,3.85-1.99.66-.99,1.08-2.31,1.25-3.96h-9.8Z"/>
  </g>
</svg>