<?xml version="1.0" encoding="UTF-8"?>
<svg id="Layer_1" data-name="Layer 1" xmlns="http://www.w3.org/2000/svg" viewBox="0 0 173.57 79.37">
  <defs>
    <style>
      .cls-1 {
        fill: #231f20;
      }

      .cls-2 {
        fill: #fff;
      }
    </style>
  </defs>
  <rect class="cls-2" x="2.82" width="170.75" height="31.53"/>
  <g>
    <path class="cls-1" d="M10.35,3.44h2.32l10.27,25.66h-3.93l-7.71-20.82h-.14L3.24,29.11H0L10.35,3.44ZM6.43,19.2h9.51l.94,2.5H5.47l.96-2.5ZM13.05,37.12c-.62.16-1.28.24-1.95.24-1.29,0-2.31-.31-3.07-.92-.76-.61-1.13-1.45-1.13-2.5,0-1.12.44-1.97,1.33-2.54.89-.57,2.17-.85,3.87-.82l-.88.96v-2.83h1.97v3.75c-2.21.08-3.32.61-3.32,1.6,0,.4.2.73.59.97s.9.36,1.54.36c.47,0,.97-.07,1.5-.2.53-.13.96-.29,1.29-.49l.1.08-.39,1.7c-.34.26-.82.47-1.45.63Z"/>
    <path class="cls-1" d="M27.59,3.44h15.02l-.35,2.52h-11.07v8.57h9.51v2.48h-9.51v9.57h11.84v2.52h-15.43V3.44ZM36.86,37.12c-.62.16-1.28.24-1.95.24-1.29,0-2.31-.31-3.07-.92-.76-.61-1.13-1.45-1.13-2.5,0-1.12.44-1.97,1.33-2.54.89-.57,2.17-.85,3.87-.82l-.88.96v-2.83h1.97v3.75c-2.21.08-3.32.61-3.32,1.6,0,.4.2.73.59.97s.9.36,1.54.36c.47,0,.97-.07,1.5-.2.53-.13.96-.29,1.29-.49l.1.08-.39,1.7c-.34.26-.82.47-1.45.63Z"/>
    <path class="cls-1" d="M51.77,37.12c-.62.16-1.28.24-1.95.24-1.29,0-2.31-.31-3.07-.92-.76-.61-1.13-1.45-1.13-2.5,0-1.12.44-1.97,1.33-2.54.89-.57,2.17-.85,3.87-.82l-.88.96v-2.83h1.97v3.75c-2.21.08-3.32.61-3.32,1.6,0,.4.2.73.59.97s.9.36,1.54.36c.47,0,.97-.07,1.5-.2.53-.13.96-.29,1.29-.49l.1.08-.39,1.7c-.34.26-.82.47-1.45.63ZM48.42,3.44h3.59v25.66h-3.59V3.44Z"/>
    <path class="cls-1" d="M59.21,19.07V3.44h3.59v15.37c0,2.9.51,5.02,1.54,6.34,1.03,1.32,2.68,1.98,4.96,1.98s4.03-.66,5.14-1.99c1.11-1.33,1.66-3.38,1.66-6.17V3.44h2.85v15.2c0,7.29-3.36,10.94-10.08,10.94s-9.67-3.5-9.67-10.51ZM70.55,37.12c-.62.16-1.28.24-1.95.24-1.29,0-2.31-.31-3.07-.92-.76-.61-1.13-1.45-1.13-2.5,0-1.12.44-1.97,1.33-2.54.89-.57,2.17-.85,3.87-.82l-.88.96v-2.83h1.97v3.75c-2.21.08-3.32.61-3.32,1.6,0,.4.2.73.59.97s.9.36,1.54.36c.47,0,.97-.07,1.5-.2.53-.13.96-.29,1.29-.49l.1.08-.39,1.7c-.34.26-.82.47-1.45.63Z"/>
    <path class="cls-1" d="M90.62,29.53c-1.8,0-3.25-.49-4.35-1.48-1.1-.99-1.65-2.29-1.65-3.91,0-2.13.98-3.7,2.94-4.71,1.96-1,5.04-1.5,9.23-1.5h.53v2.11h-.53c-3.02,0-5.23.32-6.62.97-1.39.64-2.09,1.66-2.09,3.06,0,.94.31,1.67.93,2.21.62.53,1.47.8,2.55.8,2.2,0,4.13-1.34,5.78-4.02v2.3c-.62,1.3-1.53,2.32-2.71,3.07-1.19.74-2.52,1.11-4,1.11ZM100.66,29.11h-3.11c-.51-1.25-.78-2.76-.82-4.53v-6.93c0-1.81-.38-3.12-1.14-3.92s-2-1.2-3.7-1.2c-.79,0-1.71.09-2.73.27-1.03.18-1.98.42-2.85.72l-.18-.18.94-2.4c1.11-.29,2.1-.49,2.97-.62.87-.13,1.71-.2,2.52-.2,2.47,0,4.35.53,5.62,1.6,1.28,1.07,1.91,2.64,1.91,4.71v7.38c0,1.72.19,3.48.57,5.29ZM95.82,36.49c-.34.26-.82.47-1.45.63s-1.28.24-1.95.24c-1.29,0-2.31-.31-3.07-.92-.76-.61-1.13-1.44-1.13-2.48,0-1.12.44-1.97,1.33-2.55.89-.58,2.17-.86,3.87-.83l-.88.96v-3.93h1.97v4.84c-2.21.08-3.32.61-3.32,1.58,0,.4.19.73.57.98.38.25.89.37,1.52.37.49,0,1.01-.06,1.53-.19s.96-.29,1.3-.5l.1.08-.39,1.7Z"/>
    <path class="cls-1" d="M108.42,26.96c-1.65-1.72-2.48-4.09-2.48-7.11,0-1.99.36-3.71,1.07-5.17.72-1.45,1.73-2.57,3.05-3.37,1.31-.79,2.86-1.19,4.65-1.19,2.58,0,4.55.8,5.91,2.41,1.36,1.61,2.04,3.94,2.04,7v.4c0,.07,0,.15-.02.22h-13.83v-2.21h11.25l-.98.88c.01-2.19-.35-3.81-1.1-4.86-.75-1.05-1.87-1.58-3.37-1.58-1.65,0-2.94.64-3.85,1.91-.91,1.28-1.37,3.09-1.37,5.43,0,2.47.54,4.31,1.61,5.52,1.07,1.21,2.71,1.81,4.91,1.81,1.12,0,2.17-.16,3.14-.48.98-.32,1.97-.82,2.97-1.49l.12.1-.53,2.54c-.87.59-1.86,1.04-2.95,1.35s-2.23.47-3.42.47c-2.9,0-5.18-.86-6.84-2.58ZM116.37,37.12c-.62.16-1.28.24-1.95.24-1.29,0-2.31-.31-3.07-.92-.76-.61-1.13-1.45-1.13-2.5,0-1.12.44-1.97,1.33-2.54.89-.57,2.17-.85,3.87-.82l-.88.96v-2.83h1.97v3.75c-2.21.08-3.32.61-3.32,1.6,0,.4.2.73.59.97s.9.36,1.54.36c.47,0,.97-.07,1.5-.2.53-.13.96-.29,1.29-.49l.1.08-.39,1.7c-.34.26-.82.47-1.45.63Z"/>
    <path class="cls-1" d="M131.95,37.12c-.62.16-1.28.24-1.95.24-1.29,0-2.31-.31-3.07-.92-.76-.61-1.13-1.45-1.13-2.5,0-1.12.44-1.97,1.33-2.54.89-.57,2.17-.85,3.87-.82l-.88.96v-2.83h1.97v3.75c-2.21.08-3.32.61-3.32,1.6,0,.4.2.73.59.97s.9.36,1.54.36c.47,0,.97-.07,1.5-.2.53-.13.96-.29,1.29-.49l.1.08-.39,1.7c-.34.26-.82.47-1.45.63ZM128.83,6.66c-.37-.38-.56-.9-.56-1.56s.19-1.17.58-1.55.91-.58,1.57-.58,1.16.19,1.52.56c.36.37.55.88.55,1.53s-.19,1.21-.58,1.59-.91.58-1.57.58-1.14-.19-1.51-.57ZM128.68,10.63h3.4v18.48h-3.4V10.63Z"/>
    <path class="cls-1" d="M139.2,22.78v-12.15h3.4v11.91c0,1.47.29,2.57.87,3.28.58.72,1.47,1.07,2.69,1.07.99,0,1.95-.22,2.89-.66.94-.44,1.74-1.06,2.42-1.86l.18,1.95c-1.75,2.14-3.98,3.2-6.72,3.2-3.82,0-5.72-2.25-5.72-6.76ZM148.28,37.12c-.62.16-1.27.24-1.93.24-1.29,0-2.31-.31-3.08-.93s-1.14-1.46-1.14-2.51c0-2.27,1.73-3.38,5.2-3.34l-.88.96v-2.91l1.97-.51v4.34c-1.04.04-1.86.21-2.44.5s-.88.69-.88,1.18c0,.83.68,1.25,2.05,1.25.49,0,1.01-.06,1.53-.19s.97-.29,1.34-.5l.1.08-.39,1.7c-.34.26-.82.47-1.45.63ZM151.68,27.52c-.12-.53-.21-1.1-.27-1.7l-.08-1.13v-14.06h3.4v13.18c0,.83.05,1.7.15,2.61.1.91.24,1.8.42,2.69h-3.14c-.2-.52-.35-1.05-.47-1.58Z"/>
    <path class="cls-1" d="M7.38,69.98c-1.77-1.06-3.13-2.58-4.09-4.56-.96-1.98-1.44-4.33-1.44-7.05s.49-5.14,1.48-7.15c.99-2,2.4-3.55,4.24-4.63,1.84-1.08,4.02-1.62,6.54-1.62s4.63.52,6.42,1.57c1.79,1.05,3.17,2.54,4.14,4.48.97,1.94,1.46,4.26,1.46,6.95s-.51,5.16-1.52,7.2c-1.02,2.04-2.45,3.61-4.32,4.73-1.86,1.11-4.06,1.67-6.58,1.67s-4.56-.53-6.33-1.59ZM20.22,66.28c1.46-1.9,2.2-4.63,2.2-8.2s-.72-6.16-2.15-7.96c-1.43-1.8-3.54-2.71-6.31-2.71s-4.87.91-6.28,2.72c-1.41,1.82-2.12,4.5-2.12,8.06s.71,6.28,2.13,8.14c1.42,1.86,3.48,2.79,6.19,2.79s4.87-.95,6.34-2.85ZM15.39,79.12c-.62.16-1.28.24-1.95.24-1.29,0-2.31-.31-3.07-.92-.76-.61-1.13-1.45-1.13-2.5,0-1.12.44-1.97,1.33-2.54.89-.57,2.17-.85,3.87-.82l-.88.96v-2.83h1.97v3.75c-2.21.08-3.32.61-3.32,1.6,0,.4.2.73.59.97s.9.36,1.54.36c.47,0,.97-.07,1.5-.2.53-.13.96-.29,1.29-.49l.1.08-.39,1.7c-.34.26-.82.47-1.45.63Z"/>
    <path class="cls-1" d="M36.49,70.04c-1.58-1.01-2.78-2.46-3.61-4.36-.83-1.89-1.25-4.17-1.25-6.83,0-.31,0-.51,0-.6,0-.08.02-.17.03-.26h18.93v2.44h-16.17l.86-.82c-.09,2.94.51,5.26,1.81,6.95,1.3,1.69,3.07,2.54,5.32,2.54,2.41,0,4.27-.97,5.6-2.9,1.32-1.93,1.98-4.66,1.98-8.19s-.69-6.18-2.08-7.92-3.5-2.61-6.34-2.61c-1.41,0-2.87.2-4.38.6-1.52.4-2.91.95-4.19,1.65l-.12-.12.61-2.42c.98-.65,2.26-1.18,3.85-1.59,1.59-.41,3.18-.62,4.79-.62,3.7,0,6.56,1.12,8.58,3.36,2.02,2.24,3.04,5.4,3.04,9.47,0,2.8-.47,5.23-1.42,7.29-.94,2.06-2.28,3.65-4.01,4.77-1.73,1.12-3.78,1.68-6.13,1.68-2.21,0-4.11-.5-5.68-1.51ZM43.9,79.12c-.62.16-1.28.24-1.95.24-1.29,0-2.31-.31-3.07-.92-.76-.61-1.13-1.45-1.13-2.5,0-1.12.44-1.97,1.33-2.54.89-.57,2.17-.85,3.87-.82l-.88.96v-2.83h1.97v3.75c-2.21.08-3.32.61-3.32,1.6,0,.4.2.73.59.97s.9.36,1.54.36c.47,0,.97-.07,1.5-.2.53-.13.96-.29,1.29-.49l.1.08-.39,1.7c-.34.26-.82.47-1.45.63Z"/>
    <path class="cls-1" d="M61.19,69.02c-1.54-1.68-2.3-4.01-2.3-6.99s.81-5.49,2.44-7.26c1.63-1.76,3.85-2.65,6.68-2.65s4.92.84,6.48,2.51c1.56,1.67,2.34,3.98,2.34,6.92,0,2.03-.38,3.79-1.14,5.28-.76,1.49-1.84,2.65-3.22,3.47s-3.02,1.23-4.91,1.23c-2.71,0-4.83-.84-6.37-2.52ZM71.91,67.33c.94-1.28,1.41-3.16,1.41-5.63s-.46-4.24-1.37-5.46c-.91-1.22-2.28-1.83-4.1-1.83s-3.19.61-4.09,1.84c-.91,1.22-1.36,3.07-1.36,5.53s.45,4.34,1.36,5.6c.9,1.26,2.24,1.88,4.01,1.88s3.2-.64,4.14-1.92ZM69.27,79.12c-.62.16-1.28.24-1.95.24-1.29,0-2.31-.31-3.07-.92-.76-.61-1.13-1.45-1.13-2.5,0-1.12.44-1.97,1.33-2.54.89-.57,2.17-.85,3.87-.82l-.88.96v-2.83h1.97v3.75c-2.21.08-3.32.61-3.32,1.6,0,.4.2.73.59.97s.9.36,1.54.36c.47,0,.97-.07,1.5-.2.53-.13.96-.29,1.29-.49l.1.08-.39,1.7c-.34.26-.82.47-1.45.63Z"/>
    <path class="cls-1" d="M83.67,69.07c-1.4-1.68-2.1-4.07-2.1-7.17v-.5c0-.06,0-.13.02-.22h13.96v2.21h-11.48l1.02-.49c-.01,2.08.39,3.68,1.2,4.79.81,1.11,1.98,1.66,3.51,1.66,1.67,0,2.95-.66,3.84-1.98.89-1.32,1.34-3.22,1.34-5.69s-.48-4.23-1.44-5.36c-.96-1.13-2.48-1.69-4.58-1.69-1.09,0-2.18.15-3.25.45-1.07.3-2.15.76-3.23,1.37l-.18-.16.98-2.52c2-1.04,4.09-1.56,6.25-1.56,2.84,0,5.03.81,6.58,2.44,1.55,1.63,2.32,3.94,2.32,6.93,0,2.04-.36,3.82-1.07,5.32-.72,1.5-1.73,2.66-3.05,3.48-1.32.81-2.88,1.22-4.69,1.22-2.57,0-4.55-.84-5.95-2.52ZM91.22,79.12c-.62.16-1.28.24-1.95.24-1.29,0-2.31-.31-3.07-.92-.76-.61-1.13-1.45-1.13-2.5,0-1.12.44-1.97,1.33-2.54.89-.57,2.17-.85,3.87-.82l-.88.96v-2.83h1.97v3.75c-2.21.08-3.32.61-3.32,1.6,0,.4.2.73.59.97s.9.36,1.54.36c.47,0,.97-.07,1.5-.2.53-.13.96-.29,1.29-.49l.1.08-.39,1.7c-.34.26-.82.47-1.45.63Z"/>
  </g>
</svg>