<?xml version="1.0" encoding="UTF-8"?>
<svg id="Layer_1" xmlns="http://www.w3.org/2000/svg" version="1.1" viewBox="0 0 173.6 80.1">
  <!-- Generator: Adobe Illustrator 29.3.1, SVG Export Plug-In . SVG Version: 2.1.0 Build 151)  -->
  <defs>
    <style>
      .st0 {
        fill: #231f20;
      }

      .st1 {
        fill: #fff;
      }
    </style>
  </defs>
  <rect class="st1" width="173.6" height="80"/>
  <g>
    <path class="st0" d="M10.4,3.4h2.3l10.3,25.7h-3.9l-7.7-20.8h-.1L3.2,29.1H0L10.4,3.4ZM6.4,19.2h9.5l.9,2.5H5.5l1-2.5ZM16.4,35.6H7.8v1.6l4.6-6h-2.5l-3.7,4.9v1.9h10.2v-2.4h0Z"/>
    <path class="st0" d="M27.6,3.4h15l-.3,2.5h-11.1v8.6h9.5v2.5h-9.5v9.6h11.8v2.5h-15.4V3.4h0ZM40.2,35.6h-8.6v1.6l4.6-6h-2.5l-3.7,4.9v1.9h10.2v-2.4Z"/>
    <path class="st0" d="M55.1,38h-10.2v-1.9l3.7-4.9h2.5l-4.6,6v-1.6h8.6v2.4ZM48.4,29.1h3.6V3.4h-3.6v25.7h0Z"/>
    <path class="st0" d="M59.2,19.1V3.4h3.6v15.4c0,2.9.5,5,1.5,6.3s2.7,2,5,2,4-.7,5.1-2,1.7-3.4,1.7-6.2V3.4h2.8v15.2c0,7.3-3.4,10.9-10.1,10.9s-9.7-3.5-9.7-10.5h0ZM73.9,35.6h-8.6v1.6l4.6-6h-2.5l-3.7,4.9v1.9h10.3v-2.4Z"/>
    <path class="st0" d="M86.3,28c-1.1-1-1.7-2.3-1.7-3.9s1-3.7,2.9-4.7c2-1,5-1.5,9.2-1.5h.5v2.1h-.5c-3,0-5.2.3-6.6,1-1.4.6-2.1,1.7-2.1,3.1s.3,1.7.9,2.2c.6.5,1.5.8,2.6.8,2.2,0,4.1-1.3,5.8-4v2.3c-.6,1.3-1.5,2.3-2.7,3.1-1.2.7-2.5,1.1-4,1.1s-3.2-.5-4.3-1.5h0ZM96.7,24.6v-6.9c0-1.8-.4-3.1-1.1-3.9s-2-1.2-3.7-1.2-1.7,0-2.7.3c-1,.2-2,.4-2.8.7l-.2-.2.9-2.4c1.1-.3,2.1-.5,3-.6s1.7-.2,2.5-.2c2.5,0,4.3.5,5.6,1.6,1.3,1.1,1.9,2.6,1.9,4.7v7.4c0,1.7.2,3.5.6,5.3h-3.1c-.5-1.2-.8-2.8-.8-4.5h0ZM97.6,35.6h-8.6v1.6l4.6-6h-2.5l-3.7,4.9v1.9h10.2s0-2.4,0-2.4Z"/>
    <path class="st0" d="M108.4,27c-1.7-1.7-2.5-4.1-2.5-7.1s.4-3.7,1.1-5.2c.7-1.4,1.7-2.6,3.1-3.4,1.3-.8,2.9-1.2,4.7-1.2,2.6,0,4.6.8,5.9,2.4,1.4,1.6,2,3.9,2,7v.4c0,0,0,.1,0,.2h-13.8v-2.2h11.2l-1,.9c0-2.2-.3-3.8-1.1-4.9-.8-1.1-1.9-1.6-3.4-1.6s-2.9.6-3.8,1.9c-.9,1.3-1.4,3.1-1.4,5.4s.5,4.3,1.6,5.5c1.1,1.2,2.7,1.8,4.9,1.8s2.2-.2,3.1-.5c1-.3,2-.8,3-1.5h.1c0,.1-.5,2.6-.5,2.6-.9.6-1.9,1-2.9,1.4s-2.2.5-3.4.5c-2.9,0-5.2-.9-6.8-2.6h0ZM119.7,35.6h-8.6v1.6l4.6-6h-2.5l-3.7,4.9v1.9h10.2v-2.4Z"/>
    <path class="st0" d="M135.3,38h-10.2v-1.9l3.7-4.9h2.5l-4.6,6v-1.6h8.6v2.4ZM130.3,7.2c.7,0,1.2-.2,1.6-.6s.6-.9.6-1.6-.2-1.2-.6-1.5c-.4-.4-.9-.6-1.5-.6s-1.2.2-1.6.6-.6.9-.6,1.5.2,1.2.6,1.6c.4.4.9.6,1.5.6h0ZM128.7,29.1h3.4V10.6h-3.4v18.5Z"/>
    <path class="st0" d="M140.6,27.8c-1-1.1-1.4-2.8-1.4-5v-12.1h3.4v11.9c0,1.5.3,2.6.9,3.3.6.7,1.5,1.1,2.7,1.1s1.9-.2,2.9-.7,1.7-1.1,2.4-1.9l.2,2c-.9,1-1.9,1.8-3,2.4-1.2.5-2.4.8-3.6.8-1.9,0-3.4-.6-4.3-1.7h0ZM152.1,35.6h-8.6v1.6l4.6-6h-2.5l-3.7,4.9v1.9h10.2v-2.4ZM151.7,27.5c-.1-.5-.2-1.1-.3-1.7v-1.1c0,0,0-14.1,0-14.1h3.4v13.2c0,.8,0,1.7.1,2.6.1.9.2,1.8.4,2.7h-3.1c-.2-.5-.4-1-.5-1.6h0Z"/>
    <path class="st0" d="M7.4,70c-1.8-1.1-3.1-2.6-4.1-4.6-1-2-1.4-4.3-1.4-7s.5-5.1,1.5-7.2c1-2,2.4-3.5,4.2-4.6,1.8-1.1,4-1.6,6.5-1.6s4.6.5,6.4,1.6c1.8,1,3.2,2.5,4.1,4.5s1.5,4.3,1.5,7-.5,5.2-1.5,7.2c-1,2-2.5,3.6-4.3,4.7-1.9,1.1-4.1,1.7-6.6,1.7s-4.6-.5-6.3-1.6ZM20.2,66.3c1.5-1.9,2.2-4.6,2.2-8.2s-.7-6.2-2.1-8-3.5-2.7-6.3-2.7-4.9.9-6.3,2.7c-1.4,1.8-2.1,4.5-2.1,8.1s.7,6.3,2.1,8.1c1.4,1.9,3.5,2.8,6.2,2.8s4.9-.9,6.3-2.8h0ZM18.8,77.6h-8.6v1.6l4.6-6h-2.5l-3.7,4.9v1.9h10.2s0-2.4,0-2.4Z"/>
    <path class="st0" d="M36.5,70c-1.6-1-2.8-2.5-3.6-4.4-.8-1.9-1.2-4.2-1.2-6.8v-.6c0,0,0-.2,0-.3h18.9v2.4h-16.2l.9-.8c0,2.9.5,5.3,1.8,6.9,1.3,1.7,3.1,2.5,5.3,2.5s4.3-1,5.6-2.9c1.3-1.9,2-4.7,2-8.2s-.7-6.2-2.1-7.9-3.5-2.6-6.3-2.6-2.9.2-4.4.6c-1.5.4-2.9,1-4.2,1.7h-.1c0-.1.6-2.5.6-2.5,1-.7,2.3-1.2,3.8-1.6s3.2-.6,4.8-.6c3.7,0,6.6,1.1,8.6,3.4s3,5.4,3,9.5-.5,5.2-1.4,7.3c-.9,2.1-2.3,3.7-4,4.8-1.7,1.1-3.8,1.7-6.1,1.7s-4.1-.5-5.7-1.5h0ZM47.2,77.6h-8.6v1.6l4.6-6h-2.5l-3.7,4.9v1.9h10.2s0-2.4,0-2.4Z"/>
    <path class="st0" d="M61.2,69c-1.5-1.7-2.3-4-2.3-7s.8-5.5,2.4-7.3c1.6-1.8,3.9-2.7,6.7-2.7s4.9.8,6.5,2.5c1.6,1.7,2.3,4,2.3,6.9s-.4,3.8-1.1,5.3-1.8,2.7-3.2,3.5-3,1.2-4.9,1.2c-2.7,0-4.8-.8-6.4-2.5h0ZM72.6,77.6h-8.6v1.6l4.6-6h-2.5l-3.7,4.9v1.9h10.3s0-2.4,0-2.4ZM71.9,67.3c.9-1.3,1.4-3.2,1.4-5.6s-.5-4.2-1.4-5.5c-.9-1.2-2.3-1.8-4.1-1.8s-3.2.6-4.1,1.8c-.9,1.2-1.4,3.1-1.4,5.5s.5,4.3,1.4,5.6c.9,1.3,2.2,1.9,4,1.9s3.2-.6,4.1-1.9h0Z"/>
    <path class="st0" d="M83.7,69.1c-1.4-1.7-2.1-4.1-2.1-7.2v-.5c0,0,0-.1,0-.2h14v2.2h-11.5l1-.5c0,2.1.4,3.7,1.2,4.8s2,1.7,3.5,1.7,2.9-.7,3.8-2,1.3-3.2,1.3-5.7-.5-4.2-1.4-5.4-2.5-1.7-4.6-1.7-2.2.2-3.2.5-2.2.8-3.2,1.4l-.2-.2,1-2.5c2-1,4.1-1.6,6.2-1.6s5,.8,6.6,2.4c1.6,1.6,2.3,3.9,2.3,6.9s-.4,3.8-1.1,5.3c-.7,1.5-1.7,2.7-3.1,3.5-1.3.8-2.9,1.2-4.7,1.2-2.6,0-4.6-.8-5.9-2.5h0ZM94.6,77.6h-8.6v1.6l4.6-6h-2.5l-3.7,4.9v1.9h10.2s0-2.4,0-2.4Z"/>
  </g>
</svg>