<?xml version="1.0" encoding="UTF-8"?>
<svg id="Layer_1" data-name="Layer 1" xmlns="http://www.w3.org/2000/svg" viewBox="0 0 172.61 33.09">
  <defs>
    <style>
      .cls-1 {
        fill: #231f20;
      }

      .cls-2 {
        fill: #fff;
      }
    </style>
  </defs>
  <rect class="cls-2" x="1.86" width="170.75" height="31.53"/>
  <g>
    <path class="cls-1" d="M0,23.71l.14-.12c2.49,1.73,4.89,2.6,7.21,2.6,1.63,0,2.93-.37,3.9-1.11.97-.74,1.46-1.74,1.46-2.99,0-.91-.28-1.69-.83-2.32-.55-.64-1.53-1.29-2.92-1.97v-3.57l.33.14c1.69.69,3.03,1.39,4.02,2.11.99.72,1.7,1.5,2.13,2.34.43.85.64,1.83.64,2.95,0,1.39-.34,2.61-1.02,3.66-.68,1.05-1.63,1.86-2.86,2.43-1.23.57-2.67.86-4.33.86-1.22,0-2.52-.21-3.88-.63-1.36-.42-2.47-.96-3.33-1.61l-.66-2.75ZM11.99,6.54c-.87-.21-1.76-.32-2.66-.32-1.69,0-3.03.34-4.02,1.01-.99.67-1.48,1.58-1.48,2.72,0,.82.29,1.53.86,2.12.57.59,1.56,1.21,2.97,1.85v3.57l-.72-.29c-2.2-.9-3.82-1.87-4.84-2.91-1.03-1.04-1.54-2.38-1.54-4.02,0-2.02.75-3.61,2.26-4.78,1.5-1.17,3.55-1.75,6.14-1.75,1.11,0,2.17.11,3.19.33,1.02.22,1.9.53,2.65.92v2.58c-.99-.47-1.92-.81-2.79-1.03ZM7.07,1.35h2.46v29.77l-2.46.37V1.35Z"/>
    <path class="cls-1" d="M26.3,29.53c-1.8,0-3.25-.49-4.35-1.48-1.1-.99-1.65-2.29-1.65-3.91,0-2.13.98-3.7,2.94-4.71,1.96-1,5.04-1.5,9.23-1.5h.53v2.11h-.53c-3.02,0-5.23.32-6.62.97-1.39.64-2.09,1.66-2.09,3.06,0,.94.31,1.67.93,2.21.62.53,1.47.8,2.55.8s2.15-.33,3.11-.99c.95-.66,1.84-1.67,2.68-3.04v2.3c-.62,1.3-1.53,2.32-2.71,3.07-1.19.74-2.52,1.11-4,1.11ZM36.34,29.11h-3.11c-.25-.62-.44-1.32-.58-2.08s-.22-1.58-.24-2.45v-6.93c0-1.81-.38-3.12-1.14-3.92s-2-1.2-3.7-1.2c-.79,0-1.71.09-2.73.27-1.03.18-1.98.42-2.85.72l-.18-.18.94-2.4c1.11-.29,2.1-.49,2.97-.62.87-.13,1.71-.2,2.52-.2,2.47,0,4.35.53,5.62,1.6,1.28,1.07,1.91,2.64,1.91,4.71v7.38c0,1.72.19,3.48.57,5.29ZM36.32,8.05l-12.01,24.77-2.15-.92,12.01-24.77,2.15.92Z"/>
    <path class="cls-1" d="M51.22,22.43l.16-.12c1.38.86,2.73,1.47,4.05,1.83,1.32.36,2.48.54,3.49.54,1.2,0,2.11-.22,2.74-.65.63-.44.95-1.03.95-1.79,0-.52-.15-.97-.44-1.34s-.72-.72-1.29-1.05-1.29-.69-2.16-1.06c-1.11-.51-2.2-1.09-3.28-1.74-1.08-.65-1.98-1.45-2.7-2.4-.72-.95-1.07-2.15-1.07-3.59s.38-2.64,1.14-3.74c.76-1.1,1.9-1.97,3.41-2.6,1.51-.63,3.38-.95,5.61-.95,1.59,0,2.95.14,4.08.41s2.02.56,2.66.86v3.93c-.72-.33-1.58-.61-2.6-.85-1.02-.24-2.05-.36-3.11-.36-1.28,0-2.29.21-3.06.63-.76.42-1.14,1.03-1.14,1.81,0,.73.34,1.31,1.02,1.74.68.43,1.67.94,2.99,1.54,1.2.53,2.34,1.12,3.43,1.75,1.09.63,1.98,1.42,2.67,2.36.69.94,1.04,2.17,1.04,3.68s-.39,2.87-1.18,3.99c-.79,1.13-1.89,1.99-3.31,2.6-1.42.61-3.08.91-4.98.91-1.35,0-2.57-.14-3.63-.42-1.07-.28-1.99-.61-2.75-1-.77-.38-1.37-.73-1.8-1.03l-.92-3.89ZM59.01,1.2h3.73v3.18h-3.73V1.2ZM59.01,28.17h3.73v3.11l-3.73.45v-3.55Z"/>
    <path class="cls-1" d="M79.1,29.55c-1.86,0-3.33-.5-4.41-1.49-1.08-1-1.62-2.35-1.62-4.07,0-2.19.98-3.78,2.94-4.79,1.96-1,5.07-1.5,9.35-1.5h.49v2.48h-.49c-1.73,0-3.02.25-3.87.74-.85.5-1.27,1.25-1.27,2.27,0,.72.21,1.29.62,1.72s.96.64,1.65.64c1.43,0,2.56-.85,3.38-2.54v2.68c-.83,1.28-1.81,2.24-2.94,2.89-1.13.65-2.4.98-3.82.98ZM92.87,29.11h-6.72c-.47-1.17-.74-2.53-.8-4.08l-.1-.88v-6.5c0-1.5-.34-2.56-1.01-3.18-.67-.62-1.8-.94-3.39-.94-.96,0-2.02.1-3.15.29-1.14.2-2.12.45-2.94.76l-.18-.16,1.31-3.36c.99-.33,2.1-.58,3.33-.77,1.23-.19,2.44-.28,3.64-.28,3.12,0,5.48.6,7.07,1.8,1.59,1.2,2.38,2.97,2.38,5.31v6.7c0,1.76.18,3.52.55,5.29ZM82.22,26.74l-3.22,6.35-3.18-1.35,2.54-5h3.87ZM86.09,19.09h-3.87l6.27-12.4,3.18,1.35-5.59,11.05Z"/>
  </g>
</svg>