<?xml version="1.0" encoding="UTF-8"?>
<svg id="Layer_1" xmlns="http://www.w3.org/2000/svg" version="1.1" viewBox="0 0 172.6 33.1">
  <!-- Generator: Adobe Illustrator 29.3.1, SVG Export Plug-In . SVG Version: 2.1.0 Build 151)  -->
  <defs>
    <style>
      .st0 {
        fill: #231f20;
      }

      .st1 {
        fill: #fff;
      }
    </style>
  </defs>
  <rect class="st1" x="0" width="172.6" height="33.1"/>
  <g>
    <path class="st0" d="M0,23.7h.1c2.5,1.6,4.9,2.5,7.2,2.5s2.9-.4,3.9-1.1,1.5-1.7,1.5-3-.3-1.7-.8-2.3c-.6-.6-1.5-1.3-2.9-2v-3.6h.3c1.7.8,3,1.5,4,2.2s1.7,1.5,2.1,2.3c.4.9.6,1.8.6,3s-.3,2.6-1,3.7-1.6,1.9-2.9,2.4c-1.2.6-2.7.9-4.3.9s-2.5-.2-3.9-.6-2.5-1-3.3-1.6L0,23.7h0ZM12,6.5c-.9-.2-1.8-.3-2.7-.3-1.7,0-3,.3-4,1-1,.7-1.5,1.6-1.5,2.7s.3,1.5.9,2.1,1.6,1.2,3,1.9v3.6l-.7-.3c-2.2-.9-3.8-1.9-4.8-2.9-1-1-1.5-2.4-1.5-4s.8-3.6,2.3-4.8c1.5-1.2,3.5-1.8,6.1-1.8s2.2.1,3.2.3c1,.2,1.9.5,2.6.9v2.6c-1-.5-1.9-.8-2.8-1h0ZM7.1,1.4h2.5v29.8l-2.5.4s0-30.1,0-30.1Z"/>
    <path class="st0" d="M26.3,29.5c-1.8,0-3.2-.5-4.4-1.5s-1.6-2.3-1.6-3.9,1-3.7,2.9-4.7c2-1,5-1.5,9.2-1.5h.5v2.1h-.5c-3,0-5.2.3-6.6,1-1.4.6-2.1,1.7-2.1,3.1s.3,1.7.9,2.2c.6.5,1.5.8,2.5.8s2.1-.3,3.1-1c1-.7,1.8-1.7,2.7-3v2.3c-.6,1.3-1.5,2.3-2.7,3.1-1.2.7-2.5,1.1-4,1.1h0ZM36.3,29.1h-3.1c-.2-.6-.4-1.3-.6-2.1s-.2-1.6-.2-2.5v-6.9c0-1.8-.4-3.1-1.1-3.9s-2-1.2-3.7-1.2-1.7,0-2.7.3c-1,.2-2,.4-2.9.7l-.2-.2.9-2.4c1.1-.3,2.1-.5,3-.6.9-.1,1.7-.2,2.5-.2,2.5,0,4.4.5,5.6,1.6,1.3,1.1,1.9,2.6,1.9,4.7v7.4c0,1.7.2,3.5.6,5.3h0ZM36.3,8.1l-12,24.8-2.1-.9,12-24.8s2.2.9,2.2.9Z"/>
    <path class="st0" d="M51.2,22.4h.2c1.4.7,2.7,1.3,4,1.7s2.5.5,3.5.5,2.1-.2,2.7-.6c.6-.4,1-1,1-1.8s-.2-1-.4-1.3-.7-.7-1.3-1-1.3-.7-2.2-1.1c-1.1-.5-2.2-1.1-3.3-1.7-1.1-.6-2-1.4-2.7-2.4s-1.1-2.1-1.1-3.6.4-2.6,1.1-3.7c.8-1.1,1.9-2,3.4-2.6,1.5-.6,3.4-1,5.6-1s3,.1,4.1.4,2,.6,2.7.9v3.9c-.7-.3-1.6-.6-2.6-.9-1-.2-2-.4-3.1-.4s-2.3.2-3.1.6c-.8.4-1.1,1-1.1,1.8s.3,1.3,1,1.7,1.7.9,3,1.5c1.2.5,2.3,1.1,3.4,1.8s2,1.4,2.7,2.4c.7.9,1,2.2,1,3.7s-.4,2.9-1.2,4c-.8,1.1-1.9,2-3.3,2.6s-3.1.9-5,.9-2.6-.1-3.6-.4c-1.1-.3-2-.6-2.8-1-.8-.4-1.4-.7-1.8-1l-.9-3.9h0ZM59,1.2h3.7v3.2h-3.7V1.2ZM59,28.2h3.7v3.1l-3.7.5v-3.5h0Z"/>
    <path class="st0" d="M79.1,29.5c-1.9,0-3.3-.5-4.4-1.5-1.1-1-1.6-2.4-1.6-4.1s1-3.8,2.9-4.8c2-1,5.1-1.5,9.3-1.5h.5v2.5h-.5c-1.7,0-3,.2-3.9.7-.8.5-1.3,1.2-1.3,2.3s.2,1.3.6,1.7,1,.6,1.7.6c1.4,0,2.6-.9,3.4-2.5v2.7c-.8,1.3-1.8,2.2-2.9,2.9-1.1.6-2.4,1-3.8,1h0ZM92.9,29.1h-6.7c-.5-1.2-.7-2.5-.8-4.1v-.9c0,0,0-6.5,0-6.5,0-1.5-.3-2.6-1-3.2-.7-.6-1.8-.9-3.4-.9s-2,.1-3.2.3c-1.1.2-2.1.4-2.9.8l-.2-.2,1.3-3.4c1-.3,2.1-.6,3.3-.8s2.4-.3,3.6-.3c3.1,0,5.5.6,7.1,1.8s2.4,3,2.4,5.3v6.7c0,1.8.2,3.5.6,5.3h0ZM82.2,26.7l-3.2,6.4-3.2-1.4,2.5-5h3.9,0ZM86.1,19.1h-3.9l6.3-12.4,3.2,1.4-5.6,11h0Z"/>
  </g>
</svg>