<?xml version="1.0" encoding="UTF-8"?>
<svg id="Layer_1" data-name="Layer 1" xmlns="http://www.w3.org/2000/svg" viewBox="0 0 173.61 37.28">
  <defs>
    <style>
      .cls-1 {
        fill: #231f20;
      }

      .cls-2 {
        fill: #bf2429;
      }

      .cls-3 {
        fill: #fff;
      }
    </style>
  </defs>
  <rect class="cls-3" x="2.85" width="170.75" height="31.53"/>
  <g>
    <path class="cls-1" d="M7.32,19.36l1.37,2.21-5.49,7.54H0l7.32-9.75ZM.31,10.62h3.98l13.07,18.48h-4.02L.31,10.62ZM8.73,17.83l5.21-7.21h3.22l-7.05,9.39-1.39-2.19Z"/>
    <path class="cls-1" d="M20.79,28.05c-1.1-.99-1.65-2.29-1.65-3.91,0-2.13.98-3.7,2.94-4.71,1.96-1,5.04-1.5,9.23-1.5h.53v2.11h-.53c-3.02,0-5.23.32-6.62.97-1.39.64-2.09,1.66-2.09,3.06,0,.94.31,1.67.93,2.21.62.53,1.47.8,2.55.8,2.2,0,4.13-1.34,5.78-4.02v2.3c-.62,1.3-1.53,2.32-2.71,3.07-1.19.74-2.52,1.11-4,1.11-1.8,0-3.25-.49-4.35-1.48ZM31.25,24.57v-6.93c0-1.81-.38-3.12-1.14-3.92s-2-1.2-3.7-1.2c-.79,0-1.71.09-2.73.27-1.03.18-1.98.42-2.85.72l-.18-.18.94-2.4c1.11-.29,2.1-.49,2.97-.62.87-.13,1.71-.2,2.52-.2,2.47,0,4.35.53,5.62,1.6,1.28,1.07,1.91,2.64,1.91,4.71v7.38c0,1.72.19,3.48.57,5.29h-3.11c-.51-1.25-.78-2.76-.82-4.53ZM24.94,7.93L29.22.68l2.99,1.89-5.55,6.41-1.72-1.05Z"/>
    <path class="cls-1" d="M40.51,16.11c0-.96-.05-1.94-.14-2.94-.09-1-.21-1.85-.35-2.55h3.07c.18.36.34.89.49,1.56.14.68.25,1.45.31,2.3l.02.51v14.1h-3.4v-12.99ZM52.42,17.15c0-1.48-.29-2.58-.88-3.3-.59-.72-1.5-1.07-2.73-1.07-.94,0-1.85.21-2.74.62-.89.42-1.66.99-2.29,1.72l-.25-2.01c.82-.94,1.81-1.67,2.96-2.2s2.36-.79,3.62-.79c1.68,0,3.05.5,4.12,1.5,1.07,1,1.6,2.75,1.6,5.23v12.25h-3.4v-11.95ZM64.34,17.15c0-1.48-.29-2.58-.88-3.3-.59-.72-1.49-1.07-2.71-1.07-.95,0-1.87.21-2.76.62-.89.42-1.66.99-2.29,1.72l-.51-1.82c.91-1.02,1.96-1.8,3.13-2.35,1.18-.55,2.42-.83,3.72-.83,1.68,0,3.05.5,4.11,1.5,1.06,1,1.59,2.75,1.59,5.23v12.25h-3.4v-11.95Z"/>
    <path class="cls-1" d="M72.19,18.22h10.49l-.21,2.77h-10.49l.21-2.77Z"/>
    <path class="cls-1" d="M87.33,28.05c-1.1-.99-1.65-2.29-1.65-3.91,0-2.13.98-3.7,2.94-4.71,1.96-1,5.04-1.5,9.23-1.5h.53v2.11h-.53c-3.02,0-5.23.32-6.62.97-1.39.64-2.09,1.66-2.09,3.06,0,.94.31,1.67.93,2.21.62.53,1.47.8,2.55.8,2.2,0,4.13-1.34,5.78-4.02v2.3c-.62,1.3-1.53,2.32-2.71,3.07-1.19.74-2.52,1.11-4,1.11-1.8,0-3.25-.49-4.35-1.48ZM97.79,24.57v-6.93c0-1.81-.38-3.12-1.14-3.92s-2-1.2-3.7-1.2c-.79,0-1.71.09-2.73.27-1.03.18-1.98.42-2.85.72l-.18-.18.94-2.4c1.11-.29,2.1-.49,2.97-.62.87-.13,1.71-.2,2.52-.2,2.47,0,4.35.53,5.62,1.6,1.28,1.07,1.91,2.64,1.91,4.71v7.38c0,1.72.19,3.48.57,5.29h-3.11c-.51-1.25-.78-2.76-.82-4.53Z"/>
    <path class="cls-1" d="M107.05,1.72l3.4-.55v27.93h-3.4V1.72Z"/>
    <path class="cls-1" d="M116.75,28.05c-1.1-.99-1.65-2.29-1.65-3.91,0-2.13.98-3.7,2.94-4.71,1.96-1,5.04-1.5,9.23-1.5h.53v2.11h-.53c-3.02,0-5.23.32-6.62.97-1.39.64-2.09,1.66-2.09,3.06,0,.94.31,1.67.93,2.21.62.53,1.47.8,2.55.8,2.2,0,4.13-1.34,5.78-4.02v2.3c-.62,1.3-1.53,2.32-2.71,3.07-1.19.74-2.52,1.11-4,1.11-1.8,0-3.25-.49-4.35-1.48ZM127.21,24.57v-6.93c0-1.81-.38-3.12-1.14-3.92s-2-1.2-3.7-1.2c-.79,0-1.71.09-2.73.27-1.03.18-1.98.42-2.85.72l-.18-.18.94-2.4c1.11-.29,2.1-.49,2.97-.62.87-.13,1.71-.2,2.52-.2,2.47,0,4.35.53,5.62,1.6,1.28,1.07,1.91,2.64,1.91,4.71v7.38c0,1.72.19,3.48.57,5.29h-3.11c-.51-1.25-.78-2.76-.82-4.53Z"/>
    <path class="cls-1" d="M136.46,16.11c0-.96-.05-1.94-.14-2.94-.09-1-.21-1.85-.35-2.55h3.07c.22.5.37.97.46,1.44.08.46.17.95.24,1.46l.12.49v23.28h-3.4v-21.17ZM141.84,29.14c-.78-.26-1.63-.69-2.56-1.29v-2.32c.68.55,1.46.98,2.34,1.3.89.32,1.76.48,2.62.48,1.81,0,3.16-.7,4.05-2.09.89-1.39,1.34-3.27,1.34-5.64s-.44-4.16-1.33-5.36c-.89-1.2-2.2-1.81-3.95-1.81-2.27,0-4,.82-5.21,2.46v-2.32c1.55-1.61,3.54-2.42,5.96-2.42,1.63,0,3.04.38,4.25,1.14,1.2.76,2.14,1.83,2.8,3.2.66,1.37,1,2.99,1,4.83,0,2.01-.37,3.78-1.12,5.31-.75,1.54-1.78,2.74-3.11,3.61-1.32.87-2.85,1.31-4.58,1.31-.89,0-1.72-.13-2.5-.39Z"/>
  </g>
  <rect class="cls-2" x="1.85" y="32.86" width="13.48" height="2.44"/>
</svg>