<?xml version="1.0" encoding="UTF-8"?>
<svg id="Layer_1" xmlns="http://www.w3.org/2000/svg" version="1.1" viewBox="0 0 173.6 37.3">
  <!-- Generator: Adobe Illustrator 29.3.1, SVG Export Plug-In . SVG Version: 2.1.0 Build 151)  -->
  <defs>
    <style>
      .st0 {
        fill: #231f20;
      }

      .st1 {
        fill: #bf2429;
      }

      .st2 {
        fill: #fff;
      }
    </style>
  </defs>
  <rect class="st2" width="173.6" height="37.3"/>
  <g>
    <path class="st0" d="M7.3,19.4l1.4,2.2-5.5,7.5H0l7.3-9.8ZM.3,10.6h4l13.1,18.5h-4L.3,10.6ZM8.7,17.8l5.2-7.2h3.2l-7.1,9.4-1.4-2.2h0Z"/>
    <path class="st0" d="M20.8,28c-1.1-1-1.6-2.3-1.6-3.9s1-3.7,2.9-4.7c2-1,5-1.5,9.2-1.5h.5v2.1h-.5c-3,0-5.2.3-6.6,1-1.4.6-2.1,1.7-2.1,3.1s.3,1.7.9,2.2c.6.5,1.5.8,2.5.8,2.2,0,4.1-1.3,5.8-4v2.3c-.6,1.3-1.5,2.3-2.7,3.1-1.2.7-2.5,1.1-4,1.1s-3.2-.5-4.4-1.5h0ZM31.2,24.6v-6.9c0-1.8-.4-3.1-1.1-3.9s-2-1.2-3.7-1.2-1.7,0-2.7.3c-1,.2-2,.4-2.9.7l-.2-.2.9-2.4c1.1-.3,2.1-.5,3-.6.9-.1,1.7-.2,2.5-.2,2.5,0,4.4.5,5.6,1.6,1.3,1.1,1.9,2.6,1.9,4.7v7.4c0,1.7.2,3.5.6,5.3h-3.1c-.5-1.2-.8-2.8-.8-4.5h0ZM24.9,7.9L29.2.7l3,1.9-5.5,6.4s-1.7-1.1-1.7-1Z"/>
    <path class="st0" d="M40.5,16.1c0-1,0-1.9-.1-2.9s-.2-1.9-.3-2.6h3.1c.2.4.3.9.5,1.6.1.7.2,1.4.3,2.3v.5s0,14.1,0,14.1h-3.4v-13h0ZM52.4,17.1c0-1.5-.3-2.6-.9-3.3s-1.5-1.1-2.7-1.1-1.8.2-2.7.6c-.9.4-1.7,1-2.3,1.7l-.2-2c.8-.9,1.8-1.7,3-2.2s2.4-.8,3.6-.8,3,.5,4.1,1.5,1.6,2.8,1.6,5.2v12.2h-3.4v-11.9h0ZM64.3,17.1c0-1.5-.3-2.6-.9-3.3s-1.5-1.1-2.7-1.1-1.9.2-2.8.6c-.9.4-1.7,1-2.3,1.7l-.5-1.8c.9-1,2-1.8,3.1-2.3,1.2-.6,2.4-.8,3.7-.8s3.1.5,4.1,1.5,1.6,2.8,1.6,5.2v12.2h-3.4v-12Z"/>
    <path class="st0" d="M72.2,18.2h10.5l-.2,2.8h-10.5l.2-2.8Z"/>
    <path class="st0" d="M87.3,28c-1.1-1-1.7-2.3-1.7-3.9s1-3.7,2.9-4.7c2-1,5-1.5,9.2-1.5h.5v2.1h-.5c-3,0-5.2.3-6.6,1-1.4.6-2.1,1.7-2.1,3.1s.3,1.7.9,2.2c.6.5,1.5.8,2.6.8,2.2,0,4.1-1.3,5.8-4v2.3c-.6,1.3-1.5,2.3-2.7,3.1-1.2.7-2.5,1.1-4,1.1s-3.2-.5-4.3-1.5h0ZM97.8,24.6v-6.9c0-1.8-.4-3.1-1.1-3.9s-2-1.2-3.7-1.2-1.7,0-2.7.3c-1,.2-2,.4-2.8.7l-.2-.2.9-2.4c1.1-.3,2.1-.5,3-.6s1.7-.2,2.5-.2c2.5,0,4.3.5,5.6,1.6,1.3,1.1,1.9,2.6,1.9,4.7v7.4c0,1.7.2,3.5.6,5.3h-3.1c-.5-1.2-.8-2.8-.8-4.5h0Z"/>
    <path class="st0" d="M107.1,1.7l3.4-.5v27.9h-3.4V1.7Z"/>
    <path class="st0" d="M116.8,28c-1.1-1-1.7-2.3-1.7-3.9s1-3.7,2.9-4.7c2-1,5-1.5,9.2-1.5h.5v2.1h-.5c-3,0-5.2.3-6.6,1-1.4.6-2.1,1.7-2.1,3.1s.3,1.7.9,2.2c.6.5,1.5.8,2.6.8,2.2,0,4.1-1.3,5.8-4v2.3c-.6,1.3-1.5,2.3-2.7,3.1-1.2.7-2.5,1.1-4,1.1s-3.2-.5-4.3-1.5h0ZM127.2,24.6v-6.9c0-1.8-.4-3.1-1.1-3.9s-2-1.2-3.7-1.2-1.7,0-2.7.3c-1,.2-2,.4-2.8.7l-.2-.2.9-2.4c1.1-.3,2.1-.5,3-.6s1.7-.2,2.5-.2c2.5,0,4.3.5,5.6,1.6,1.3,1.1,1.9,2.6,1.9,4.7v7.4c0,1.7.2,3.5.6,5.3h-3.1c-.5-1.2-.8-2.8-.8-4.5h0Z"/>
    <path class="st0" d="M136.5,16.1c0-1,0-1.9-.1-2.9s-.2-1.9-.4-2.6h3.1c.2.5.4,1,.5,1.4,0,.5.2.9.2,1.5v.5c.1,0,.1,23.3.1,23.3h-3.4v-21.2h0ZM141.8,29.1c-.8-.3-1.6-.7-2.6-1.3v-2.3c.7.5,1.5,1,2.3,1.3.9.3,1.8.5,2.6.5,1.8,0,3.2-.7,4.1-2.1s1.3-3.3,1.3-5.6-.4-4.2-1.3-5.4c-.9-1.2-2.2-1.8-3.9-1.8s-4,.8-5.2,2.5v-2.3c1.6-1.6,3.5-2.4,6-2.4s3,.4,4.2,1.1c1.2.8,2.1,1.8,2.8,3.2s1,3,1,4.8-.4,3.8-1.1,5.3c-.8,1.5-1.8,2.7-3.1,3.6-1.3.9-2.9,1.3-4.6,1.3s-1.7-.1-2.5-.4Z"/>
  </g>
  <rect class="st1" x="3.3" y="33" width="10.5" height="2.4"/>
</svg>