<?xml version="1.0" encoding="UTF-8"?>
<svg id="Layer_1" data-name="Layer 1" xmlns="http://www.w3.org/2000/svg" viewBox="0 0 175.87 69.57">
  <defs>
    <style>
      .cls-1 {
        fill: #231f20;
      }

      .cls-2 {
        fill: #fff;
      }
    </style>
  </defs>
  <rect class="cls-2" x="1.51" width="174.36" height="31.53"/>
  <g>
    <path class="cls-1" d="M1.65,28.05c-1.1-.99-1.65-2.29-1.65-3.91,0-2.13.98-3.7,2.94-4.71,1.96-1,5.04-1.5,9.23-1.5h.53v2.11h-.53c-3.02,0-5.23.32-6.62.97-1.39.64-2.09,1.66-2.09,3.06,0,.94.31,1.67.93,2.21.62.53,1.47.8,2.55.8,2.2,0,4.13-1.34,5.78-4.02v2.3c-.62,1.3-1.53,2.32-2.71,3.07-1.19.74-2.52,1.11-4,1.11-1.8,0-3.25-.49-4.35-1.48ZM12.11,24.57v-6.93c0-1.81-.38-3.12-1.14-3.92s-2-1.2-3.7-1.2c-.79,0-1.71.09-2.73.27-1.03.18-1.98.42-2.85.72l-.18-.18.94-2.4c1.11-.29,2.1-.49,2.97-.62.87-.13,1.71-.2,2.52-.2,2.47,0,4.35.53,5.62,1.6,1.28,1.07,1.91,2.64,1.91,4.71v7.38c0,1.72.19,3.48.57,5.29h-3.11c-.51-1.25-.78-2.76-.82-4.53Z"/>
    <path class="cls-1" d="M22.6,21.34c.99-2.64,2.16-5.24,3.51-7.8,1.35-2.56,2.8-5.01,4.35-7.32v-.84l.8.68h-14.71v-2.62h16.8v2.36c-1.73,2.73-3.19,5.38-4.38,7.95-1.19,2.57-2.17,5.11-2.95,7.64-.77,2.53-1.42,5.1-1.92,7.71h-3.73c.51-2.54,1.26-5.13,2.25-7.76Z"/>
    <path class="cls-1" d="M37.42,27.81c-.96-1.15-1.45-2.83-1.45-5.03v-12.15h3.4v11.91c0,1.48.29,2.58.88,3.29.59.71,1.49,1.06,2.71,1.06.96,0,1.91-.22,2.85-.66.94-.44,1.74-1.06,2.42-1.86l.18,1.95c-.85,1.04-1.85,1.84-3.01,2.38-1.16.55-2.38.82-3.65.82-1.93,0-3.37-.58-4.34-1.73ZM41.31,7.93l4.28-7.25,2.99,1.89-5.55,6.41-1.72-1.05ZM48.46,27.54c-.12-.55-.21-1.12-.27-1.72l-.08-1.13v-14.06h3.4v13.18c0,.83.05,1.7.15,2.61.1.91.24,1.8.42,2.69h-3.14c-.2-.49-.35-1.02-.47-1.56Z"/>
    <path class="cls-1" d="M60,21.34c.99-2.64,2.16-5.24,3.51-7.8,1.35-2.56,2.8-5.01,4.35-7.32v-.84l.8.68h-14.71v-2.62h16.8v2.36c-1.73,2.73-3.19,5.38-4.38,7.95-1.19,2.57-2.17,5.11-2.95,7.64-.77,2.53-1.42,5.1-1.92,7.71h-3.73c.51-2.54,1.26-5.13,2.25-7.76Z"/>
    <path class="cls-1" d="M72.5,27.93l-.57-2.32.14-.12c.79.48,1.73.87,2.82,1.15,1.09.29,2.14.43,3.15.43,1.28,0,2.25-.22,2.93-.66.68-.44,1.02-1.07,1.02-1.89,0-.47-.11-.88-.33-1.22-.22-.34-.62-.68-1.21-1.01-.59-.33-1.43-.7-2.54-1.13-1-.4-1.95-.83-2.83-1.27-.89-.44-1.6-1-2.15-1.68-.55-.68-.82-1.56-.82-2.66,0-1.67.67-2.99,2.02-3.96s3.15-1.46,5.42-1.46c.89,0,1.75.08,2.59.25.84.17,1.58.41,2.22.72v2.46c-1.64-.65-3.22-.98-4.73-.98-1.34,0-2.39.22-3.14.67-.76.45-1.13,1.08-1.13,1.88,0,.64.26,1.16.79,1.57s1.58.92,3.17,1.53c.7.27,1.4.57,2.1.89.7.32,1.33.7,1.9,1.14.57.44,1.04.98,1.39,1.6s.53,1.38.53,2.27c0,1.64-.62,2.95-1.88,3.93s-2.92,1.46-5.02,1.46-4.12-.53-5.84-1.6Z"/>
    <path class="cls-1" d="M89.83,28.05c-1.1-.99-1.65-2.29-1.65-3.91,0-2.13.98-3.7,2.94-4.71,1.96-1,5.04-1.5,9.23-1.5h.53v2.11h-.53c-3.02,0-5.23.32-6.62.97-1.39.64-2.09,1.66-2.09,3.06,0,.94.31,1.67.93,2.21.62.53,1.47.8,2.55.8,2.2,0,4.13-1.34,5.78-4.02v2.3c-.62,1.3-1.53,2.32-2.71,3.07-1.19.74-2.52,1.11-4,1.11-1.8,0-3.25-.49-4.35-1.48ZM100.29,24.57v-6.93c0-1.81-.38-3.12-1.14-3.92s-2-1.2-3.7-1.2c-.79,0-1.71.09-2.73.27-1.03.18-1.98.42-2.85.72l-.18-.18.94-2.4c1.11-.29,2.1-.49,2.97-.62.87-.13,1.71-.2,2.52-.2,2.47,0,4.35.53,5.62,1.6,1.28,1.07,1.91,2.64,1.91,4.71v7.38c0,1.72.19,3.48.57,5.29h-3.11c-.51-1.25-.78-2.76-.82-4.53Z"/>
    <path class="cls-1" d="M110.78,21.34c.99-2.64,2.16-5.24,3.51-7.8,1.35-2.56,2.8-5.01,4.35-7.32v-.84l.8.68h-14.71v-2.62h16.8v2.36c-1.73,2.73-3.19,5.38-4.38,7.95-1.19,2.57-2.17,5.11-2.95,7.64-.77,2.53-1.42,5.1-1.92,7.71h-3.73c.51-2.54,1.26-5.13,2.25-7.76Z"/>
    <path class="cls-1" d="M123.32,10.94l4.2-.14h6.25v2.29h-10.76l.31-2.15ZM126.89,28.4c-.74-.75-1.11-1.87-1.11-3.34V6.2l3.36-.55v18.91c0,.91.16,1.56.47,1.94.31.38.84.58,1.58.58.51,0,.99-.07,1.44-.21s.97-.37,1.55-.69l.14.12-.59,2.25c-.48.31-1.03.56-1.65.73-.62.18-1.25.26-1.9.26-1.45,0-2.54-.38-3.28-1.13Z"/>
    <path class="cls-1" d="M138.93,26.96c-1.65-1.72-2.48-4.09-2.48-7.11,0-1.99.36-3.71,1.07-5.17.72-1.45,1.73-2.57,3.05-3.37,1.31-.79,2.86-1.19,4.65-1.19,2.58,0,4.55.8,5.91,2.41,1.36,1.61,2.04,3.94,2.04,7v.4c0,.07,0,.15-.02.22h-13.83v-2.21h11.25l-.98.88c.01-2.19-.35-3.81-1.1-4.86-.75-1.05-1.87-1.58-3.37-1.58-1.65,0-2.94.64-3.85,1.91-.91,1.28-1.37,3.09-1.37,5.43,0,2.47.54,4.31,1.61,5.52,1.07,1.21,2.71,1.81,4.91,1.81,1.12,0,2.17-.16,3.14-.48.98-.32,1.97-.82,2.97-1.49l.12.1-.53,2.54c-.87.59-1.86,1.04-2.95,1.35s-2.23.47-3.42.47c-2.9,0-5.18-.86-6.84-2.58Z"/>
    <path class="cls-1" d="M157.99,16.12c0-.92-.05-1.89-.14-2.89-.09-1-.21-1.87-.35-2.6h3.07c.18.38.34.91.49,1.58.14.68.25,1.44.31,2.29l.02.51v14.1h-3.4v-12.99ZM170.27,17.25c0-1.51-.3-2.63-.91-3.37-.61-.74-1.56-1.1-2.86-1.1-1.07,0-2.12.27-3.15.82s-1.92,1.3-2.65,2.25v-2.32c.86-1.07,1.91-1.9,3.16-2.5,1.25-.6,2.55-.9,3.91-.9,1.93,0,3.39.56,4.38,1.67s1.49,2.74,1.49,4.87l.02,12.44h-3.4v-11.85Z"/>
    <path class="cls-1" d="M1.45,56.12c0-.92-.05-1.89-.14-2.89-.09-1-.21-1.87-.35-2.6h3.07c.18.38.34.91.49,1.58.14.68.25,1.44.31,2.29l.02.51v14.1H1.45v-12.99ZM13.73,57.25c0-1.51-.3-2.63-.91-3.37-.61-.74-1.56-1.1-2.86-1.1-1.07,0-2.12.27-3.15.82s-1.92,1.3-2.65,2.25v-2.32c.86-1.07,1.91-1.9,3.16-2.5,1.25-.6,2.55-.9,3.91-.9,1.93,0,3.39.56,4.38,1.67s1.49,2.74,1.49,4.87l.02,12.44h-3.4v-11.86Z"/>
    <path class="cls-1" d="M24.24,66.96c-1.65-1.72-2.48-4.09-2.48-7.11,0-1.99.36-3.71,1.07-5.17.72-1.45,1.73-2.57,3.05-3.37,1.31-.79,2.86-1.19,4.65-1.19,2.58,0,4.55.8,5.91,2.41,1.36,1.61,2.04,3.94,2.04,7v.4c0,.07,0,.15-.02.22h-13.83v-2.21h11.25l-.98.88c.01-2.19-.35-3.81-1.1-4.86-.75-1.05-1.87-1.58-3.37-1.58-1.65,0-2.94.64-3.85,1.91-.91,1.28-1.37,3.09-1.37,5.43,0,2.47.54,4.31,1.61,5.52,1.07,1.21,2.71,1.81,4.91,1.81,1.12,0,2.17-.16,3.14-.48.98-.32,1.97-.82,2.97-1.49l.12.1-.53,2.54c-.87.59-1.86,1.04-2.95,1.35s-2.23.47-3.42.47c-2.9,0-5.18-.86-6.84-2.58Z"/>
    <path class="cls-1" d="M43.45,46.66c-.37-.38-.56-.9-.56-1.56s.19-1.17.58-1.55c.38-.38.91-.58,1.57-.58s1.16.19,1.52.56c.36.37.55.88.55,1.53s-.19,1.21-.58,1.59c-.38.38-.91.58-1.57.58s-1.14-.19-1.51-.57ZM43.3,50.63h3.4v18.48h-3.4v-18.48Z"/>
    <path class="cls-1" d="M50.98,65.28l.16-.16c1.12.64,2.24,1.11,3.36,1.42,1.12.31,2.28.46,3.48.46,2.14,0,3.8-.45,4.98-1.36,1.18-.9,1.78-2.16,1.78-3.78,0-3.23-2.48-4.84-7.44-4.84-.44,0-.93,0-1.46.03s-.98.05-1.36.09v-2.64c.39.01.8.02,1.24.03.44,0,.78,0,1.03,0,2.34,0,4.11-.4,5.29-1.2,1.18-.8,1.78-1.95,1.78-3.45,0-1.39-.47-2.47-1.42-3.24-.94-.77-2.28-1.15-3.99-1.15-.99,0-2.04.13-3.15.4-1.11.27-2.15.63-3.12,1.08v-2.52c1.95-.99,4.17-1.48,6.66-1.48,2.64,0,4.73.58,6.25,1.75,1.52,1.17,2.29,2.76,2.29,4.78,0,1.46-.42,2.68-1.27,3.67-.85.99-2.11,1.73-3.79,2.23v.14c1.9.33,3.39,1.05,4.46,2.18,1.07,1.13,1.61,2.52,1.61,4.19,0,1.52-.41,2.86-1.23,4.01s-1.96,2.05-3.42,2.7c-1.46.64-3.15.97-5.08.97-1.32,0-2.58-.18-3.8-.53-1.22-.35-2.3-.85-3.25-1.48l-.59-2.29Z"/>
    <path class="cls-1" d="M74.22,66.96c-1.65-1.72-2.48-4.09-2.48-7.11,0-1.99.36-3.71,1.07-5.17.72-1.45,1.73-2.57,3.05-3.37,1.31-.79,2.86-1.19,4.65-1.19,2.58,0,4.55.8,5.91,2.41,1.36,1.61,2.04,3.94,2.04,7v.4c0,.07,0,.15-.02.22h-13.83v-2.21h11.25l-.98.88c.01-2.19-.35-3.81-1.1-4.86-.75-1.05-1.87-1.58-3.37-1.58-1.65,0-2.94.64-3.85,1.91-.91,1.28-1.37,3.09-1.37,5.43,0,2.47.54,4.31,1.61,5.52,1.07,1.21,2.71,1.81,4.91,1.81,1.12,0,2.17-.16,3.14-.48.98-.32,1.97-.82,2.97-1.49l.12.1-.53,2.54c-.87.59-1.86,1.04-2.95,1.35s-2.23.47-3.42.47c-2.9,0-5.18-.86-6.84-2.58ZM77.97,47.93l4.28-7.25,2.99,1.89-5.55,6.41-1.72-1.05Z"/>
    <path class="cls-1" d="M93.22,66.91c.04-.88.06-1.8.06-2.76v-22.42l3.4-.55v24.82c0,.31-.02.64-.06.99-.04.35-.09.69-.17,1.04-.07.35-.17.71-.28,1.07h-3.11c.06-.59.12-1.32.16-2.2ZM98.64,69.08c-.77-.31-1.62-.82-2.53-1.53v-2.29c.82.69,1.64,1.21,2.46,1.54.82.34,1.67.51,2.54.51,1.71,0,3.02-.67,3.95-2.02.92-1.35,1.39-3.26,1.39-5.73s-.45-4.14-1.34-5.34c-.89-1.2-2.21-1.81-3.96-1.81-2.17,0-3.86.7-5.06,2.11v-2.29c1.48-1.41,3.41-2.11,5.78-2.11,1.64,0,3.07.38,4.28,1.13,1.21.76,2.15,1.82,2.81,3.19.66,1.37,1,2.99,1,4.83,0,1.99-.37,3.76-1.11,5.3s-1.77,2.75-3.09,3.63c-1.32.88-2.83,1.32-4.53,1.32-.95,0-1.81-.15-2.59-.46Z"/>
    <path class="cls-1" d="M114.93,46.66c-.37-.38-.56-.9-.56-1.56s.19-1.17.58-1.55c.38-.38.91-.58,1.57-.58s1.16.19,1.52.56c.36.37.55.88.55,1.53s-.19,1.21-.58,1.59c-.38.38-.91.58-1.57.58s-1.14-.19-1.51-.57ZM114.79,50.63h3.4v18.48h-3.4v-18.48Z"/>
    <path class="cls-1" d="M124.42,46.66c-.37-.38-.56-.9-.56-1.56s.19-1.17.58-1.55c.38-.38.91-.58,1.57-.58s1.16.19,1.52.56c.36.37.55.88.55,1.53s-.19,1.21-.58,1.59c-.38.38-.91.58-1.57.58s-1.14-.19-1.51-.57ZM124.28,50.63h3.4v18.48h-3.4v-18.48Z"/>
  </g>
</svg>