<?xml version="1.0" encoding="UTF-8"?>
<svg id="Layer_1" xmlns="http://www.w3.org/2000/svg" version="1.1" viewBox="0 0 175.9 69.6">
  <!-- Generator: Adobe Illustrator 29.3.1, SVG Export Plug-In . SVG Version: 2.1.0 Build 151)  -->
  <defs>
    <style>
      .st0 {
        fill: #231f20;
      }

      .st1 {
        fill: #fff;
      }
    </style>
  </defs>
  <rect class="st1" width="175.9" height="69.5"/>
  <g>
    <path class="st0" d="M1.6,28c-1.1-1-1.6-2.3-1.6-3.9s1-3.7,2.9-4.7c2-1,5-1.5,9.2-1.5h.5v2.1h-.5c-3,0-5.2.3-6.6,1-1.4.6-2.1,1.7-2.1,3.1s.3,1.7.9,2.2c.6.5,1.5.8,2.6.8,2.2,0,4.1-1.3,5.8-4v2.3c-.6,1.3-1.5,2.3-2.7,3.1-1.2.7-2.5,1.1-4,1.1s-3.2-.5-4.3-1.5h0ZM12.1,24.6v-6.9c0-1.8-.4-3.1-1.1-3.9s-2-1.2-3.7-1.2-1.7,0-2.7.3c-1,.2-2,.4-2.8.7l-.2-.2.9-2.4c1.1-.3,2.1-.5,3-.6.9-.1,1.7-.2,2.5-.2,2.5,0,4.3.5,5.6,1.6,1.3,1.1,1.9,2.6,1.9,4.7v7.4c0,1.7.2,3.5.6,5.3h-3.1c-.5-1.2-.8-2.8-.8-4.5h0Z"/>
    <path class="st0" d="M22.6,21.3c1-2.6,2.2-5.2,3.5-7.8s2.8-5,4.4-7.3v-.8l.8.7h-14.7v-2.6h16.8v2.4c-1.7,2.7-3.2,5.4-4.4,7.9-1.2,2.6-2.2,5.1-3,7.6-.8,2.5-1.4,5.1-1.9,7.7h-3.7c.5-2.5,1.3-5.1,2.2-7.8h0Z"/>
    <path class="st0" d="M37.4,27.8c-1-1.1-1.5-2.8-1.5-5v-12.1h3.4v11.9c0,1.5.3,2.6.9,3.3s1.5,1.1,2.7,1.1,1.9-.2,2.8-.7,1.7-1.1,2.4-1.9l.2,2c-.8,1-1.8,1.8-3,2.4-1.2.5-2.4.8-3.7.8-1.9,0-3.4-.6-4.3-1.7h0ZM41.3,7.9l4.3-7.2,3,1.9-5.5,6.4s-1.7-1.1-1.7-1ZM48.5,27.5c-.1-.5-.2-1.1-.3-1.7v-1.1c0,0,0-14.1,0-14.1h3.4v13.2c0,.8,0,1.7.2,2.6,0,.9.2,1.8.4,2.7h-3.1c-.2-.5-.3-1-.5-1.6h0Z"/>
    <path class="st0" d="M60,21.3c1-2.6,2.2-5.2,3.5-7.8,1.4-2.6,2.8-5,4.4-7.3v-.8l.8.7h-14.7v-2.6h16.8v2.4c-1.7,2.7-3.2,5.4-4.4,7.9-1.2,2.6-2.2,5.1-3,7.6-.8,2.5-1.4,5.1-1.9,7.7h-3.7c.5-2.5,1.3-5.1,2.2-7.8h0Z"/>
    <path class="st0" d="M72.5,27.9l-.6-2.3h.1c.8.4,1.7.8,2.8,1,1.1.3,2.1.4,3.2.4s2.2-.2,2.9-.7,1-1.1,1-1.9-.1-.9-.3-1.2-.6-.7-1.2-1-1.4-.7-2.5-1.1c-1-.4-1.9-.8-2.8-1.3-.9-.4-1.6-1-2.2-1.7s-.8-1.6-.8-2.7c0-1.7.7-3,2-4s3.2-1.5,5.4-1.5,1.8,0,2.6.2,1.6.4,2.2.7v2.5c-1.6-.6-3.2-1-4.7-1s-2.4.2-3.1.7c-.8.4-1.1,1.1-1.1,1.9s.3,1.2.8,1.6,1.6.9,3.2,1.5c.7.3,1.4.6,2.1.9s1.3.7,1.9,1.1c.6.4,1,1,1.4,1.6s.5,1.4.5,2.3c0,1.6-.6,3-1.9,3.9s-2.9,1.5-5,1.5-4.1-.5-5.8-1.6h0Z"/>
    <path class="st0" d="M89.8,28c-1.1-1-1.7-2.3-1.7-3.9s1-3.7,2.9-4.7c2-1,5-1.5,9.2-1.5h.5v2.1h-.5c-3,0-5.2.3-6.6,1-1.4.6-2.1,1.7-2.1,3.1s.3,1.7.9,2.2c.6.5,1.5.8,2.6.8,2.2,0,4.1-1.3,5.8-4v2.3c-.6,1.3-1.5,2.3-2.7,3.1-1.2.7-2.5,1.1-4,1.1s-3.2-.5-4.3-1.5h0ZM100.3,24.6v-6.9c0-1.8-.4-3.1-1.1-3.9s-2-1.2-3.7-1.2-1.7,0-2.7.3c-1,.2-2,.4-2.8.7l-.2-.2.9-2.4c1.1-.3,2.1-.5,3-.6s1.7-.2,2.5-.2c2.5,0,4.3.5,5.6,1.6,1.3,1.1,1.9,2.6,1.9,4.7v7.4c0,1.7.2,3.5.6,5.3h-3.1c-.5-1.2-.8-2.8-.8-4.5h0Z"/>
    <path class="st0" d="M110.8,21.3c1-2.6,2.2-5.2,3.5-7.8s2.8-5,4.3-7.3v-.8l.8.7h-14.7v-2.6h16.8v2.4c-1.7,2.7-3.2,5.4-4.4,7.9-1.2,2.6-2.2,5.1-2.9,7.6-.8,2.5-1.4,5.1-1.9,7.7h-3.7c.5-2.5,1.3-5.1,2.2-7.8h0Z"/>
    <path class="st0" d="M123.3,10.9h4.2c0-.1,6.2-.1,6.2-.1v2.3h-10.8l.3-2.2h0ZM126.9,28.4c-.7-.8-1.1-1.9-1.1-3.3V6.2l3.4-.6v18.9c0,.9.2,1.6.5,1.9.3.4.8.6,1.6.6s1,0,1.4-.2,1-.4,1.6-.7h.1c0,.1-.6,2.4-.6,2.4-.5.3-1,.6-1.6.7-.6.2-1.2.3-1.9.3-1.4,0-2.5-.4-3.3-1.1h0Z"/>
    <path class="st0" d="M138.9,27c-1.6-1.7-2.5-4.1-2.5-7.1s.4-3.7,1.1-5.2c.7-1.4,1.7-2.6,3.1-3.4,1.3-.8,2.9-1.2,4.6-1.2,2.6,0,4.6.8,5.9,2.4s2,3.9,2,7v.4c0,0,0,.1,0,.2h-13.8v-2.2h11.2l-1,.9c0-2.2-.4-3.8-1.1-4.9-.8-1.1-1.9-1.6-3.4-1.6s-2.9.6-3.9,1.9c-.9,1.3-1.4,3.1-1.4,5.4s.5,4.3,1.6,5.5c1.1,1.2,2.7,1.8,4.9,1.8s2.2-.2,3.1-.5c1-.3,2-.8,3-1.5h.1c0,.1-.5,2.6-.5,2.6-.9.6-1.9,1-2.9,1.4s-2.2.5-3.4.5c-2.9,0-5.2-.9-6.8-2.6h0Z"/>
    <path class="st0" d="M158,16.1c0-.9,0-1.9-.1-2.9s-.2-1.9-.4-2.6h3.1c.2.4.3.9.5,1.6.1.7.2,1.4.3,2.3v.5s0,14.1,0,14.1h-3.4v-13h0ZM170.3,17.2c0-1.5-.3-2.6-.9-3.4s-1.6-1.1-2.9-1.1-2.1.3-3.1.8-1.9,1.3-2.6,2.2v-2.3c.9-1.1,1.9-1.9,3.2-2.5s2.6-.9,3.9-.9c1.9,0,3.4.6,4.4,1.7s1.5,2.7,1.5,4.9v12.4s-3.4,0-3.4,0v-11.9h0Z"/>
    <path class="st0" d="M1.5,56.1c0-.9,0-1.9-.1-2.9s-.2-1.9-.4-2.6h3.1c.2.4.3.9.5,1.6.1.7.2,1.4.3,2.3v.5s0,14.1,0,14.1H1.5v-13ZM13.7,57.2c0-1.5-.3-2.6-.9-3.4-.6-.7-1.6-1.1-2.9-1.1s-2.1.3-3.2.8-1.9,1.3-2.7,2.2v-2.3c.9-1.1,1.9-1.9,3.2-2.5s2.6-.9,3.9-.9c1.9,0,3.4.6,4.4,1.7,1,1.1,1.5,2.7,1.5,4.9v12.4s-3.4,0-3.4,0v-11.9h0Z"/>
    <path class="st0" d="M24.2,67c-1.6-1.7-2.5-4.1-2.5-7.1s.4-3.7,1.1-5.2c.7-1.5,1.7-2.6,3-3.4,1.3-.8,2.9-1.2,4.6-1.2,2.6,0,4.5.8,5.9,2.4s2,3.9,2,7v.4c0,0,0,.2,0,.2h-13.8v-2.2h11.2l-1,.9c0-2.2-.3-3.8-1.1-4.9s-1.9-1.6-3.4-1.6-2.9.6-3.9,1.9c-.9,1.3-1.4,3.1-1.4,5.4s.5,4.3,1.6,5.5,2.7,1.8,4.9,1.8,2.2-.2,3.1-.5c1-.3,2-.8,3-1.5h.1c0,0-.5,2.6-.5,2.6-.9.6-1.9,1-3,1.3s-2.2.5-3.4.5c-2.9,0-5.2-.9-6.8-2.6h0Z"/>
    <path class="st0" d="M43.5,46.7c-.4-.4-.6-.9-.6-1.6s.2-1.2.6-1.5c.4-.4.9-.6,1.6-.6s1.2.2,1.5.6c.4.4.5.9.5,1.5s-.2,1.2-.6,1.6c-.4.4-.9.6-1.6.6s-1.1-.2-1.5-.6ZM43.3,50.6h3.4v18.5h-3.4v-18.5Z"/>
    <path class="st0" d="M51,65.3l.2-.2c1.1.6,2.2,1.1,3.4,1.4s2.3.5,3.5.5c2.1,0,3.8-.4,5-1.4,1.2-.9,1.8-2.2,1.8-3.8,0-3.2-2.5-4.8-7.4-4.8s-.9,0-1.5,0-1,0-1.4,0v-2.6c.4,0,.8,0,1.2,0h1c2.3,0,4.1-.4,5.3-1.2s1.8-2,1.8-3.5-.5-2.5-1.4-3.2c-.9-.8-2.3-1.2-4-1.2s-2,.1-3.2.4-2.2.6-3.1,1.1v-2.5c2-1,4.2-1.5,6.7-1.5s4.7.6,6.3,1.8c1.5,1.2,2.3,2.8,2.3,4.8s-.4,2.7-1.3,3.7-2.1,1.7-3.8,2.2h0c1.9.5,3.4,1.2,4.5,2.3s1.6,2.5,1.6,4.2-.4,2.9-1.2,4-2,2.1-3.4,2.7c-1.5.6-3.2,1-5.1,1s-2.6-.2-3.8-.5c-1.2-.3-2.3-.8-3.2-1.5l-.6-2.3h0Z"/>
    <path class="st0" d="M74.2,67c-1.7-1.7-2.5-4.1-2.5-7.1s.4-3.7,1.1-5.2c.7-1.5,1.7-2.6,3.1-3.4,1.3-.8,2.9-1.2,4.7-1.2,2.6,0,4.6.8,5.9,2.4,1.4,1.6,2,3.9,2,7v.4c0,0,0,.2,0,.2h-13.8v-2.2h11.2l-1,.9c0-2.2-.3-3.8-1.1-4.9s-1.9-1.6-3.4-1.6-2.9.6-3.8,1.9c-.9,1.3-1.4,3.1-1.4,5.4s.5,4.3,1.6,5.5,2.7,1.8,4.9,1.8,2.2-.2,3.1-.5c1-.3,2-.8,3-1.5h.1c0,0-.5,2.6-.5,2.6-.9.6-1.9,1-2.9,1.3s-2.2.5-3.4.5c-2.9,0-5.2-.9-6.8-2.6h0ZM78,47.9l4.3-7.2,3,1.9-5.6,6.4s-1.7-1-1.7-1Z"/>
    <path class="st0" d="M93.2,66.9c0-.9,0-1.8,0-2.8v-22.4l3.4-.5v24.8c0,.3,0,.6,0,1s0,.7-.2,1c0,.3-.2.7-.3,1.1h-3.1c0-.6.1-1.3.2-2.2h0ZM98.6,69.1c-.8-.3-1.6-.8-2.5-1.5v-2.3c.8.7,1.6,1.2,2.5,1.5.8.3,1.7.5,2.5.5,1.7,0,3-.7,3.9-2,.9-1.3,1.4-3.3,1.4-5.7s-.4-4.1-1.3-5.3-2.2-1.8-4-1.8-3.9.7-5.1,2.1v-2.3c1.5-1.4,3.4-2.1,5.8-2.1s3.1.4,4.3,1.1c1.2.8,2.2,1.8,2.8,3.2.7,1.4,1,3,1,4.8s-.4,3.8-1.1,5.3c-.7,1.5-1.8,2.8-3.1,3.6s-2.8,1.3-4.5,1.3-1.8-.2-2.6-.5h0Z"/>
    <path class="st0" d="M114.9,46.7c-.4-.4-.6-.9-.6-1.6s.2-1.2.6-1.5c.4-.4.9-.6,1.6-.6s1.2.2,1.5.6c.4.4.6.9.6,1.5s-.2,1.2-.6,1.6c-.4.4-.9.6-1.6.6s-1.1-.2-1.5-.6ZM114.8,50.6h3.4v18.5h-3.4v-18.5Z"/>
    <path class="st0" d="M124.4,46.7c-.4-.4-.6-.9-.6-1.6s.2-1.2.6-1.5c.4-.4.9-.6,1.6-.6s1.2.2,1.5.6c.4.4.6.9.6,1.5s-.2,1.2-.6,1.6c-.4.4-.9.6-1.6.6s-1.1-.2-1.5-.6ZM124.3,50.6h3.4v18.5h-3.4v-18.5Z"/>
  </g>
</svg>