<?xml version="1.0" encoding="UTF-8"?>
<svg id="Layer_1" data-name="Layer 1" xmlns="http://www.w3.org/2000/svg" viewBox="0 0 172.61 34.26">
  <defs>
    <style>
      .cls-1 {
        fill: #231f20;
      }

      .cls-2 {
        fill: #fff;
      }
    </style>
  </defs>
  <rect class="cls-2" x="1.86" width="170.75" height="31.53"/>
  <g>
    <path class="cls-1" d="M2.75,11.98c-.85,0-1.52-.3-2.01-.89-.5-.59-.74-1.4-.74-2.43,0-1.42.46-2.66,1.37-3.71.91-1.05,2.1-1.73,3.57-2.01l.47,1.84c-1.02.26-1.76.64-2.23,1.15s-.72,1.19-.74,2.05l-1.33.41c.18-.26.44-.47.78-.62.34-.16.72-.23,1.13-.23.66,0,1.19.19,1.59.57.4.38.6.89.6,1.54,0,.7-.23,1.27-.68,1.7-.46.43-1.05.64-1.78.64ZM9.55,11.98c-.85,0-1.52-.3-2.01-.89-.5-.59-.74-1.4-.74-2.43,0-1.42.46-2.66,1.37-3.71.91-1.05,2.1-1.73,3.57-2.01l.47,1.84c-1.02.26-1.76.64-2.23,1.15s-.72,1.19-.74,2.05l-1.33.41c.18-.26.44-.47.78-.62.34-.16.72-.23,1.13-.23.66,0,1.19.19,1.59.57.4.38.6.89.6,1.54,0,.7-.23,1.27-.68,1.7-.46.43-1.05.64-1.78.64Z"/>
    <path class="cls-1" d="M19.38,11.98c-.85,0-1.52-.3-2.01-.89-.5-.59-.74-1.4-.74-2.43,0-1.42.46-2.66,1.37-3.71.91-1.05,2.1-1.73,3.57-2.01l.47,1.84c-1.02.26-1.76.64-2.23,1.15s-.72,1.19-.74,2.05l-1.33.41c.18-.26.44-.47.78-.62.34-.16.72-.23,1.13-.23.66,0,1.19.19,1.59.57.4.38.6.89.6,1.54,0,.7-.23,1.27-.68,1.7-.46.43-1.05.64-1.78.64Z"/>
    <path class="cls-1" d="M30.94,19.36l1.37,2.21-5.49,7.54h-3.2l7.32-9.75ZM23.93,10.63h3.98l13.07,18.48h-4.02l-13.03-18.48ZM32.35,17.84l5.21-7.21h3.22l-7.05,9.39-1.39-2.19Z"/>
    <path class="cls-1" d="M32.66.69c.87,0,1.56.29,2.06.87.5.58.75,1.36.75,2.35,0,1.32-.44,2.46-1.33,3.43-.89.97-2.05,1.59-3.5,1.87l-.51-1.8c1.77-.43,2.66-1.33,2.66-2.71,0-.44-.11-.89-.33-1.33l1.35.62c-.42.52-.98.78-1.68.78-.56,0-1.01-.17-1.36-.52s-.52-.8-.52-1.38c0-.65.22-1.18.66-1.58.44-.4,1.02-.61,1.74-.61Z"/>
    <path class="cls-1" d="M43.42,34.26l-.59-1.72c1.8-.59,2.7-1.78,2.7-3.59l1.35-.53c-.43.64-1.04.96-1.82.96-.64,0-1.16-.2-1.57-.6-.41-.4-.62-.93-.62-1.59,0-.72.23-1.29.69-1.71.46-.42,1.07-.63,1.83-.63.85,0,1.49.28,1.94.85s.67,1.38.67,2.43c0,1.47-.42,2.76-1.25,3.86-.83,1.1-1.95,1.86-3.34,2.28Z"/>
    <path class="cls-1" d="M57.45,19.36l1.37,2.21-5.49,7.54h-3.2l7.32-9.75ZM50.44,10.63h3.98l13.07,18.48h-4.02l-13.03-18.48ZM58.85,17.84l5.21-7.21h3.22l-7.05,9.39-1.39-2.19Z"/>
    <path class="cls-1" d="M56.57,7.93l4.28-7.25,2.99,1.89-5.55,6.41-1.72-1.05Z"/>
    <path class="cls-1" d="M70.22,34.26l-.59-1.72c1.8-.59,2.7-1.78,2.7-3.59l1.35-.53c-.43.64-1.04.96-1.82.96-.64,0-1.16-.2-1.57-.6-.41-.4-.62-.93-.62-1.59,0-.72.23-1.29.69-1.71.46-.42,1.07-.63,1.83-.63.85,0,1.49.28,1.94.85s.67,1.38.67,2.43c0,1.47-.42,2.76-1.25,3.86-.83,1.1-1.95,1.86-3.34,2.28ZM72.25,15.51c.74,0,1.33-.22,1.77-.66.44-.44.65-1.03.65-1.76s-.2-1.28-.6-1.68c-.4-.4-.95-.61-1.67-.61s-1.33.21-1.75.64c-.42.43-.63,1.02-.63,1.76s.2,1.28.6,1.69c.4.41.94.62,1.63.62Z"/>
    <path class="cls-1" d="M80.51,3.03c.85,0,1.52.3,2.01.89.49.59.74,1.4.74,2.43,0,1.42-.46,2.65-1.37,3.7-.91,1.05-2.1,1.72-3.57,2.02l-.47-1.84c1.02-.26,1.76-.64,2.24-1.15.48-.51.72-1.19.73-2.05l1.33-.41c-.17.26-.43.47-.77.62-.35.16-.73.23-1.14.23-.66,0-1.19-.19-1.59-.58-.4-.38-.6-.9-.6-1.53,0-.7.23-1.27.68-1.7.46-.43,1.05-.64,1.78-.64Z"/>
    <path class="cls-1" d="M90.35,3.03c.85,0,1.52.3,2.01.89.49.59.74,1.4.74,2.43,0,1.42-.46,2.65-1.37,3.7-.91,1.05-2.1,1.72-3.57,2.02l-.47-1.84c1.02-.26,1.76-.64,2.24-1.15.48-.51.72-1.19.73-2.05l1.33-.41c-.17.26-.43.47-.77.62-.35.16-.73.23-1.14.23-.66,0-1.19-.19-1.59-.58-.4-.38-.6-.9-.6-1.53,0-.7.23-1.27.68-1.7.46-.43,1.05-.64,1.78-.64ZM97.04,3.03c.85,0,1.52.3,2.01.89.49.59.74,1.4.74,2.43,0,1.42-.46,2.65-1.37,3.7-.91,1.05-2.1,1.72-3.57,2.02l-.47-1.84c1.02-.26,1.76-.64,2.24-1.15.48-.51.72-1.19.73-2.05l1.33-.41c-.17.26-.43.47-.77.62-.35.16-.73.23-1.14.23-.66,0-1.19-.19-1.59-.58-.4-.38-.6-.9-.6-1.53,0-.7.23-1.27.68-1.7.46-.43,1.05-.64,1.78-.64Z"/>
  </g>
</svg>