<?xml version="1.0" encoding="UTF-8"?>
<svg id="Layer_1" xmlns="http://www.w3.org/2000/svg" version="1.1" viewBox="0 0 172.6 34.3">
  <!-- Generator: Adobe Illustrator 29.3.1, SVG Export Plug-In . SVG Version: 2.1.0 Build 151)  -->
  <defs>
    <style>
      .st0 {
        fill: #231f20;
      }

      .st1 {
        fill: #fff;
      }
    </style>
  </defs>
  <rect class="st1" width="172.6" height="34.3"/>
  <g>
    <path class="st0" d="M2.8,12c-.9,0-1.5-.3-2-.9-.5-.6-.7-1.4-.7-2.4s.5-2.7,1.4-3.7c.9-1,2.1-1.7,3.6-2l.5,1.8c-1,.3-1.8.6-2.2,1.2s-.7,1.2-.7,2l-1.3.4c.2-.3.4-.5.8-.6.3-.2.7-.2,1.1-.2.7,0,1.2.2,1.6.6.4.4.6.9.6,1.5s-.2,1.3-.7,1.7c-.5.4-1,.6-1.8.6h0ZM9.6,12c-.9,0-1.5-.3-2-.9-.5-.6-.7-1.4-.7-2.4s.5-2.7,1.4-3.7c.9-1,2.1-1.7,3.6-2l.5,1.8c-1,.3-1.8.6-2.2,1.2s-.7,1.2-.7,2l-1.3.4c.2-.3.4-.5.8-.6.3-.2.7-.2,1.1-.2.7,0,1.2.2,1.6.6s.6.9.6,1.5-.2,1.3-.7,1.7c-.5.4-1.1.6-1.8.6h0Z"/>
    <path class="st0" d="M19.4,12c-.9,0-1.5-.3-2-.9-.5-.6-.7-1.4-.7-2.4s.5-2.7,1.4-3.7c.9-1,2.1-1.7,3.6-2l.5,1.8c-1,.3-1.8.6-2.2,1.2s-.7,1.2-.7,2l-1.3.4c.2-.3.4-.5.8-.6.3-.2.7-.2,1.1-.2.7,0,1.2.2,1.6.6s.6.9.6,1.5-.2,1.3-.7,1.7c-.5.4-1,.6-1.8.6h0Z"/>
    <path class="st0" d="M30.9,19.4l1.4,2.2-5.5,7.5h-3.2l7.3-9.8ZM23.9,10.6h4l13.1,18.5h-4s-13-18.5-13-18.5ZM32.3,17.8l5.2-7.2h3.2l-7,9.4-1.4-2.2h0Z"/>
    <path class="st0" d="M32.7.7c.9,0,1.6.3,2.1.9s.8,1.4.8,2.3-.4,2.5-1.3,3.4c-.9,1-2,1.6-3.5,1.9l-.5-1.8c1.8-.4,2.7-1.3,2.7-2.7s-.1-.9-.3-1.3l1.3.6c-.4.5-1,.8-1.7.8s-1-.2-1.4-.5-.5-.8-.5-1.4.2-1.2.7-1.6c.4-.4,1-.6,1.7-.6h0Z"/>
    <path class="st0" d="M43.4,34.3l-.6-1.7c1.8-.6,2.7-1.8,2.7-3.6l1.3-.5c-.4.6-1,1-1.8,1s-1.2-.2-1.6-.6-.6-.9-.6-1.6.2-1.3.7-1.7c.5-.4,1.1-.6,1.8-.6s1.5.3,1.9.9.7,1.4.7,2.4-.4,2.8-1.2,3.9c-.8,1.1-2,1.9-3.3,2.3h0Z"/>
    <path class="st0" d="M57.5,19.4l1.4,2.2-5.5,7.5h-3.2l7.3-9.8ZM50.4,10.6h4l13.1,18.5h-4s-13-18.5-13-18.5ZM58.8,17.8l5.2-7.2h3.2l-7,9.4-1.4-2.2h0Z"/>
    <path class="st0" d="M56.6,7.9l4.3-7.2,3,1.9-5.5,6.4s-1.7-1.1-1.7-1Z"/>
    <path class="st0" d="M70.2,34.3l-.6-1.7c1.8-.6,2.7-1.8,2.7-3.6l1.3-.5c-.4.6-1,1-1.8,1s-1.2-.2-1.6-.6c-.4-.4-.6-.9-.6-1.6s.2-1.3.7-1.7c.5-.4,1.1-.6,1.8-.6s1.5.3,1.9.9.7,1.4.7,2.4-.4,2.8-1.2,3.9c-.8,1.1-1.9,1.9-3.3,2.3h0ZM72.2,15.5c.7,0,1.3-.2,1.8-.7.4-.4.7-1,.7-1.8s-.2-1.3-.6-1.7c-.4-.4-.9-.6-1.7-.6s-1.3.2-1.8.6-.6,1-.6,1.8.2,1.3.6,1.7c.4.4.9.6,1.6.6Z"/>
    <path class="st0" d="M80.5,3c.8,0,1.5.3,2,.9.5.6.7,1.4.7,2.4s-.5,2.6-1.4,3.7-2.1,1.7-3.6,2l-.5-1.8c1-.3,1.8-.6,2.2-1.1.5-.5.7-1.2.7-2.1l1.3-.4c-.2.3-.4.5-.8.6-.3.2-.7.2-1.1.2-.7,0-1.2-.2-1.6-.6-.4-.4-.6-.9-.6-1.5s.2-1.3.7-1.7c.5-.4,1.1-.6,1.8-.6h0Z"/>
    <path class="st0" d="M90.3,3c.8,0,1.5.3,2,.9.5.6.7,1.4.7,2.4s-.5,2.6-1.4,3.7-2.1,1.7-3.6,2l-.5-1.8c1-.3,1.8-.6,2.2-1.1.5-.5.7-1.2.7-2.1l1.3-.4c-.2.3-.4.5-.8.6-.3.2-.7.2-1.1.2-.7,0-1.2-.2-1.6-.6-.4-.4-.6-.9-.6-1.5s.2-1.3.7-1.7c.5-.4,1.1-.6,1.8-.6h0ZM97,3c.8,0,1.5.3,2,.9.5.6.7,1.4.7,2.4s-.5,2.6-1.4,3.7-2.1,1.7-3.6,2l-.5-1.8c1-.3,1.8-.6,2.2-1.1.5-.5.7-1.2.7-2.1l1.3-.4c-.2.3-.4.5-.8.6-.3.2-.7.2-1.1.2-.7,0-1.2-.2-1.6-.6-.4-.4-.6-.9-.6-1.5s.2-1.3.7-1.7c.5-.4,1.1-.6,1.8-.6h0Z"/>
  </g>
</svg>