<?xml version="1.0" encoding="UTF-8"?>
<svg id="Layer_1" data-name="Layer 1" xmlns="http://www.w3.org/2000/svg" viewBox="0 0 172.52 33.5">
  <defs>
    <style>
      .cls-1 {
        fill: #bf2429;
        stroke: #bf2429;
        stroke-miterlimit: 10;
        stroke-width: .1px;
      }

      .cls-2 {
        fill: #231f20;
      }

      .cls-3 {
        fill: #fff;
      }
    </style>
  </defs>
  <rect class="cls-3" x="1.76" width="170.75" height="31.53"/>
  <g>
    <path class="cls-2" d="M0,11.29c.16-.75.36-1.51.62-2.28.26-.76.56-1.51.91-2.24.34-.73.72-1.43,1.12-2.11.4-.68.83-1.31,1.27-1.89l1.64.62c-.62,1.39-1.1,2.78-1.44,4.17s-.59,2.85-.77,4.4l-3.36-.68ZM6.17,11.39c.16-.75.37-1.51.63-2.28.27-.76.57-1.51.91-2.25.34-.74.71-1.44,1.12-2.12.41-.68.84-1.31,1.28-1.89l1.62.62c-.62,1.39-1.1,2.78-1.44,4.17s-.59,2.85-.77,4.4l-3.36-.66Z"/>
    <path class="cls-2" d="M16.08,11.29c.16-.75.37-1.51.63-2.28.27-.76.57-1.51.91-2.24.34-.73.71-1.43,1.12-2.11.41-.68.84-1.31,1.28-1.89l1.62.62c-.62,1.39-1.1,2.78-1.43,4.17-.33,1.39-.58,2.85-.76,4.4l-3.38-.68Z"/>
    <path class="cls-2" d="M36.14,29.11l-4.98-7.07-5.16,7.07h-3.2l6.88-9.16-6.56-9.32h3.98l4.77,6.74,4.88-6.74h3.22l-6.62,8.83,6.82,9.65h-4.02Z"/>
    <path class="cls-2" d="M40.96,32.87c.62-1.38,1.1-2.77,1.44-4.16.33-1.39.6-2.86.79-4.39l3.5.7c-.16.74-.38,1.49-.66,2.26-.29.76-.61,1.51-.98,2.24s-.76,1.43-1.19,2.11-.87,1.3-1.31,1.88l-1.58-.62Z"/>
    <path class="cls-2" d="M62.64,29.11l-4.98-7.07-5.16,7.07h-3.2l6.88-9.16-6.56-9.32h3.98l4.77,6.74,4.88-6.74h3.22l-6.62,8.83,6.82,9.65h-4.02Z"/>
    <path class="cls-2" d="M57.47,8.99l-1.72-1.05,4.28-7.25,2.99,1.89-5.55,6.41Z"/>
    <path class="cls-2" d="M67.82,32.87c.62-1.38,1.1-2.77,1.44-4.16.33-1.39.6-2.86.79-4.39l3.5.7c-.16.74-.38,1.49-.66,2.26-.29.76-.61,1.51-.98,2.24s-.76,1.43-1.19,2.11-.87,1.3-1.31,1.88l-1.58-.62ZM71.49,15.51c-.7,0-1.25-.21-1.64-.62s-.59-.97-.59-1.69c0-.79.22-1.39.66-1.8.44-.4,1.02-.61,1.72-.61s1.26.2,1.66.59c.4.39.61.96.61,1.7s-.22,1.36-.67,1.79c-.45.42-1.03.63-1.75.63Z"/>
    <path class="cls-2" d="M76.78,11.72c.62-1.39,1.1-2.78,1.44-4.17s.59-2.85.77-4.4l3.36.68c-.16.76-.36,1.51-.62,2.28-.26.76-.56,1.51-.91,2.24-.35.73-.72,1.43-1.12,2.11-.4.68-.83,1.31-1.27,1.89l-1.64-.62Z"/>
    <path class="cls-2" d="M86.71,11.63c.62-1.39,1.1-2.78,1.44-4.17s.59-2.85.77-4.4l3.36.68c-.16.76-.36,1.51-.62,2.28-.26.76-.56,1.51-.91,2.24-.35.73-.72,1.44-1.12,2.12-.4.68-.83,1.32-1.27,1.9l-1.64-.64ZM92.88,11.72c.62-1.39,1.1-2.78,1.44-4.17s.59-2.85.77-4.4l3.36.68c-.16.76-.36,1.51-.62,2.28-.26.76-.56,1.51-.91,2.24-.35.73-.72,1.43-1.12,2.11-.4.68-.83,1.31-1.27,1.89l-1.64-.62Z"/>
  </g>
  <path class="cls-1" d="M30.02,8.68c.59-1.32,1.05-2.64,1.36-3.96s.56-2.71.73-4.18l3.19.65c-.15.72-.35,1.44-.59,2.16-.25.72-.54,1.43-.86,2.12-.33.69-.68,1.36-1.07,2-.38.64-.79,1.24-1.21,1.8l-1.56-.59Z"/>
</svg>