<?xml version="1.0" encoding="UTF-8"?>
<svg id="Layer_1" xmlns="http://www.w3.org/2000/svg" version="1.1" viewBox="0 0 172.5 33.5">
  <!-- Generator: Adobe Illustrator 29.3.1, SVG Export Plug-In . SVG Version: 2.1.0 Build 151)  -->
  <defs>
    <style>
      .st0 {
        fill: #231f20;
      }

      .st1 {
        fill: #bf2429;
        stroke: #bf2429;
        stroke-miterlimit: 10;
        stroke-width: .1px;
      }

      .st2 {
        fill: #fff;
      }
    </style>
  </defs>
  <rect class="st2" x="0" width="172.5" height="33.5"/>
  <g>
    <path class="st0" d="M0,11.3c.2-.8.4-1.5.6-2.3.3-.8.6-1.5.9-2.2.3-.7.7-1.4,1.1-2.1.4-.7.8-1.3,1.3-1.9l1.6.6c-.6,1.4-1.1,2.8-1.4,4.2s-.6,2.8-.8,4.4L0,11.3h0ZM6.2,11.4c.2-.8.4-1.5.6-2.3.3-.8.6-1.5.9-2.2.3-.7.7-1.4,1.1-2.1s.8-1.3,1.3-1.9l1.6.6c-.6,1.4-1.1,2.8-1.4,4.2s-.6,2.8-.8,4.4l-3.4-.7h0Z"/>
    <path class="st0" d="M16.1,11.3c.2-.8.4-1.5.6-2.3.3-.8.6-1.5.9-2.2.3-.7.7-1.4,1.1-2.1.4-.7.8-1.3,1.3-1.9l1.6.6c-.6,1.4-1.1,2.8-1.4,4.2s-.6,2.8-.8,4.4l-3.4-.7h0Z"/>
    <path class="st0" d="M36.1,29.1l-5-7.1-5.2,7.1h-3.2l6.9-9.2-6.6-9.3h4l4.8,6.7,4.9-6.7h3.2l-6.6,8.8,6.8,9.6h-4Z"/>
    <path class="st0" d="M41,32.9c.6-1.4,1.1-2.8,1.4-4.2.3-1.4.6-2.9.8-4.4l3.5.7c-.2.7-.4,1.5-.7,2.3-.3.8-.6,1.5-1,2.2s-.8,1.4-1.2,2.1-.9,1.3-1.3,1.9l-1.6-.6h0Z"/>
    <path class="st0" d="M62.6,29.1l-5-7.1-5.2,7.1h-3.2l6.9-9.2-6.6-9.3h4l4.8,6.7,4.9-6.7h3.2l-6.6,8.8,6.8,9.6h-4Z"/>
    <path class="st0" d="M57.5,9l-1.7-1.1,4.3-7.2,3,1.9-5.5,6.4Z"/>
    <path class="st0" d="M67.8,32.9c.6-1.4,1.1-2.8,1.4-4.2.3-1.4.6-2.9.8-4.4l3.5.7c-.2.7-.4,1.5-.7,2.3-.3.8-.6,1.5-1,2.2s-.8,1.4-1.2,2.1-.9,1.3-1.3,1.9l-1.6-.6h0ZM71.5,15.5c-.7,0-1.2-.2-1.6-.6s-.6-1-.6-1.7.2-1.4.7-1.8c.4-.4,1-.6,1.7-.6s1.3.2,1.7.6.6,1,.6,1.7-.2,1.4-.7,1.8c-.4.4-1,.6-1.8.6h0Z"/>
    <path class="st0" d="M76.8,11.7c.6-1.4,1.1-2.8,1.4-4.2s.6-2.8.8-4.4l3.4.7c-.2.8-.4,1.5-.6,2.3-.3.8-.6,1.5-.9,2.2-.3.7-.7,1.4-1.1,2.1-.4.7-.8,1.3-1.3,1.9l-1.6-.6h0Z"/>
    <path class="st0" d="M86.7,11.6c.6-1.4,1.1-2.8,1.4-4.2s.6-2.8.8-4.4l3.4.7c-.2.8-.4,1.5-.6,2.3-.3.8-.6,1.5-.9,2.2-.3.7-.7,1.4-1.1,2.1-.4.7-.8,1.3-1.3,1.9l-1.6-.6h0ZM92.9,11.7c.6-1.4,1.1-2.8,1.4-4.2s.6-2.8.8-4.4l3.4.7c-.2.8-.4,1.5-.6,2.3-.3.8-.6,1.5-.9,2.2-.3.7-.7,1.4-1.1,2.1-.4.7-.8,1.3-1.3,1.9l-1.6-.6h0Z"/>
  </g>
  <path class="st1" d="M30,8.7c.6-1.3,1-2.6,1.4-4s.6-2.7.7-4.2l3.2.6c-.2.7-.3,1.4-.6,2.2-.2.7-.5,1.4-.9,2.1-.3.7-.7,1.4-1.1,2-.4.6-.8,1.2-1.2,1.8l-1.6-.6h0Z"/>
</svg>