<?xml version="1.0" encoding="UTF-8"?>
<svg id="Layer_1" xmlns="http://www.w3.org/2000/svg" version="1.1" viewBox="0 0 178.9 79.6">
  <!-- Generator: Adobe Illustrator 29.3.1, SVG Export Plug-In . SVG Version: 2.1.0 Build 151)  -->
  <defs>
    <style>
      .st0 {
        fill: #231f20;
      }

      .st1 {
        fill: #fff;
      }
    </style>
  </defs>
  <rect class="st1" width="172.7" height="79.6"/>
  <g>
    <path class="st0" d="M2.1,36.2c-1.4-.9-2.1-2.2-2.1-3.8s.2-1.6.7-2.4c.5-.7,1.2-1.5,2.3-2.2l1.8.7c-1.3,1-1.9,2.1-1.9,3.5s.5,1.9,1.4,2.4c.9.6,2.2.8,3.9.8s3.6-.4,4.8-1.1,1.8-1.7,1.8-2.9-.3-1.4-1-1.8c-.6-.3-1.7-.5-3.2-.5h-4.5c-1.5,0-2.7-.3-3.5-1-.9-.6-1.3-1.5-1.3-2.5s.9-2.7,2.6-3.8l1.7.6c-.5.4-.9.7-1.2,1.1-.3.4-.4.8-.4,1.2s.2.8.6,1.1.9.4,1.7.4h5.1c4.3,0,6.4,1.5,6.4,4.5s-.4,2.6-1.2,3.7-2,1.9-3.5,2.4-3.2.9-5.2.9-4.4-.5-5.8-1.4h0ZM2.9,21.8c-1.4-1.2-2.1-2.8-2.1-4.8s.3-2.6,1-3.6c.7-1,1.6-1.8,2.8-2.4,1.2-.6,2.6-.9,4.2-.9s2.9.3,4.1.9,2.1,1.4,2.7,2.4c.7,1,1,2.2,1,3.5,0,2-.7,3.6-2.2,4.9s-3.4,1.9-5.9,1.9-4.2-.6-5.6-1.8h0ZM12.1,20.2c.8-.8,1.2-1.9,1.2-3.4s-.4-2.5-1.2-3.3c-.8-.8-1.9-1.1-3.4-1.1-3.1,0-4.6,1.5-4.6,4.5s.4,2.6,1.2,3.4c.8.8,1.9,1.2,3.4,1.2s2.6-.4,3.4-1.2ZM11.7,10.8h7.2l-.3,2.1-3.9.3s-3.1-2.3-3.1-2.3Z"/>
    <path class="st0" d="M23.5,36.2c-1.4-.9-2.1-2.2-2.1-3.8s.2-1.6.7-2.4,1.2-1.5,2.2-2.2l1.8.7c-1.3,1-1.9,2.1-1.9,3.5s.5,1.9,1.4,2.4c.9.6,2.2.8,3.9.8s3.6-.4,4.8-1.1,1.8-1.7,1.8-2.9-.3-1.4-1-1.8c-.6-.3-1.7-.5-3.2-.5h-4.5c-1.5,0-2.7-.3-3.5-1-.9-.6-1.3-1.5-1.3-2.5s.9-2.7,2.6-3.8l1.7.6c-.5.4-.9.7-1.2,1.1-.3.4-.4.8-.4,1.2s.2.8.6,1.1c.4.2.9.4,1.7.4h5.1c4.3,0,6.4,1.5,6.4,4.5s-.4,2.6-1.2,3.7-2,1.9-3.5,2.4-3.2.9-5.2.9-4.4-.5-5.8-1.4h0ZM24.4,21.8c-1.4-1.2-2.1-2.8-2.1-4.8s.3-2.6,1-3.6,1.6-1.8,2.8-2.4,2.6-.9,4.2-.9,2.9.3,4.1.9,2.1,1.4,2.7,2.4c.7,1,1,2.2,1,3.5,0,2-.7,3.6-2.2,4.9s-3.4,1.9-5.9,1.9-4.2-.6-5.6-1.8h0ZM24,7.9l4.8-6.4h3.3l4.8,6.4-1.6,1.2-6-5.7h2.4l-6,5.7-1.6-1.2ZM33.5,20.2c.8-.8,1.2-1.9,1.2-3.4s-.4-2.5-1.2-3.3c-.8-.8-1.9-1.1-3.4-1.1-3.1,0-4.6,1.5-4.6,4.5s.4,2.6,1.2,3.4c.8.8,1.9,1.2,3.4,1.2s2.6-.4,3.4-1.2ZM33.2,10.8h7.2l-.3,2.1-3.8.3-3.1-2.3Z"/>
    <path class="st0" d="M45,36.2c-1.4-.9-2.1-2.2-2.1-3.8s.2-1.6.7-2.4,1.2-1.5,2.2-2.2l1.8.7c-1.3,1-1.9,2.1-1.9,3.5s.5,1.9,1.4,2.4c.9.6,2.2.8,3.9.8s3.6-.4,4.8-1.1,1.8-1.7,1.8-2.9-.3-1.4-1-1.8c-.6-.3-1.7-.5-3.2-.5h-4.5c-1.5,0-2.7-.3-3.5-1-.9-.6-1.3-1.5-1.3-2.5s.9-2.7,2.6-3.8l1.7.6c-.5.4-.9.7-1.2,1.1-.3.4-.4.8-.4,1.2s.2.8.6,1.1c.4.2.9.4,1.7.4h5.1c4.3,0,6.4,1.5,6.4,4.5s-.4,2.6-1.2,3.7-2,1.9-3.5,2.4-3.2.9-5.2.9-4.4-.5-5.8-1.4h0ZM45.8,21.8c-1.4-1.2-2.1-2.8-2.1-4.8s.3-2.6,1-3.6,1.6-1.8,2.8-2.4,2.6-.9,4.2-.9,2.9.3,4.1.9,2.1,1.4,2.7,2.4c.7,1,1,2.2,1,3.5,0,2-.7,3.6-2.2,4.9s-3.4,1.9-5.9,1.9-4.2-.6-5.6-1.8h0ZM45.5,2.2l1.6-1.1,6,5.7h-2.4l6-5.7,1.6,1.2-4.8,6.4h-3.3s-4.8-6.4-4.8-6.4ZM55,20.2c.8-.8,1.2-1.9,1.2-3.4s-.4-2.5-1.2-3.3c-.8-.8-1.9-1.1-3.4-1.1-3.1,0-4.6,1.5-4.6,4.5s.4,2.6,1.2,3.4c.8.8,1.9,1.2,3.4,1.2s2.6-.4,3.4-1.2ZM54.6,10.8h7.2l-.3,2.1-3.8.3-3.1-2.3Z"/>
    <path class="st0" d="M66.4,36.2c-1.4-.9-2.1-2.2-2.1-3.8s.2-1.6.7-2.4,1.2-1.5,2.2-2.2l1.8.7c-1.3,1-1.9,2.1-1.9,3.5s.4,1.9,1.4,2.4c.9.6,2.2.8,3.9.8s3.6-.4,4.8-1.1,1.8-1.7,1.8-2.9-.3-1.4-1-1.8c-.6-.3-1.7-.5-3.2-.5h-4.5c-1.5,0-2.7-.3-3.5-1-.9-.6-1.3-1.5-1.3-2.5s.9-2.7,2.6-3.8l1.7.6c-.5.4-.9.7-1.2,1.1-.3.4-.4.8-.4,1.2s.2.8.6,1.1c.4.2.9.4,1.7.4h5.1c4.3,0,6.4,1.5,6.4,4.5s-.4,2.6-1.2,3.7-2,1.9-3.5,2.4-3.2.9-5.2.9-4.4-.5-5.8-1.4h0ZM67.3,21.8c-1.4-1.2-2.1-2.8-2.1-4.8s.3-2.6,1-3.6,1.6-1.8,2.8-2.4c1.2-.6,2.6-.9,4.2-.9s2.9.3,4.1.9,2.1,1.4,2.7,2.4c.7,1,1,2.2,1,3.5,0,2-.7,3.6-2.2,4.9s-3.4,1.9-5.9,1.9-4.2-.6-5.6-1.8h0ZM68,4.2h10.6v2.4h-10.6v-2.4ZM76.4,20.2c.8-.8,1.2-1.9,1.2-3.4s-.4-2.5-1.2-3.3c-.8-.8-1.9-1.1-3.4-1.1-3.1,0-4.6,1.5-4.6,4.5s.4,2.6,1.2,3.4c.8.8,1.9,1.2,3.4,1.2s2.6-.4,3.4-1.2ZM76.1,10.8h7.2l-.3,2.1-3.8.3s-3.1-2.3-3.1-2.3Z"/>
    <path class="st0" d="M87.9,36.2c-1.4-.9-2.1-2.2-2.1-3.8s.2-1.6.7-2.4,1.2-1.5,2.2-2.2l1.8.7c-1.3,1-1.9,2.1-1.9,3.5s.4,1.9,1.4,2.4c.9.6,2.2.8,3.9.8s3.6-.4,4.8-1.1,1.8-1.7,1.8-2.9-.3-1.4-1-1.8c-.6-.3-1.7-.5-3.2-.5h-4.5c-1.5,0-2.7-.3-3.5-1-.9-.6-1.3-1.5-1.3-2.5s.9-2.7,2.6-3.8l1.7.6c-.5.4-.9.7-1.2,1.1-.3.4-.4.8-.4,1.2s.2.8.6,1.1c.4.2.9.4,1.7.4h5.1c4.3,0,6.4,1.5,6.4,4.5s-.4,2.6-1.2,3.7-2,1.9-3.5,2.4-3.2.9-5.2.9-4.4-.5-5.8-1.4h0ZM88.7,21.8c-1.4-1.2-2.1-2.8-2.1-4.8s.3-2.6,1-3.6,1.6-1.8,2.8-2.4c1.2-.6,2.6-.9,4.2-.9s2.9.3,4.1.9,2.1,1.4,2.7,2.4c.7,1,1,2.2,1,3.5,0,2-.7,3.6-2.2,4.9s-3.4,1.9-5.9,1.9-4.2-.6-5.6-1.8h0ZM90.7,2c.5,2.8,1.8,4.2,4.1,4.2s2-.3,2.6-1,1.1-1.7,1.4-3.2l1.8.3c0,2-.7,3.6-1.7,4.8-1.1,1.2-2.5,1.8-4.2,1.8s-3.1-.6-4.2-1.8c-1.1-1.2-1.6-2.8-1.7-4.8l1.9-.2h0ZM97.9,20.2c.8-.8,1.2-1.9,1.2-3.4s-.4-2.5-1.2-3.3c-.8-.8-1.9-1.1-3.4-1.1-3.1,0-4.6,1.5-4.6,4.5s.4,2.6,1.2,3.4c.8.8,1.9,1.2,3.4,1.2s2.6-.4,3.5-1.2ZM97.5,10.8h7.2l-.3,2.1-3.8.3s-3.1-2.3-3.1-2.3Z"/>
    <path class="st0" d="M109.3,36.2c-1.4-.9-2.1-2.2-2.1-3.8s.2-1.6.7-2.4,1.2-1.5,2.2-2.2l1.8.7c-1.3,1-1.9,2.1-1.9,3.5s.4,1.9,1.4,2.4c.9.6,2.2.8,3.9.8s3.6-.4,4.8-1.1,1.8-1.7,1.8-2.9-.3-1.4-1-1.8c-.6-.3-1.7-.5-3.2-.5h-4.5c-1.5,0-2.7-.3-3.5-1-.9-.6-1.3-1.5-1.3-2.5s.9-2.7,2.6-3.8l1.7.6c-.5.4-.9.7-1.2,1.1-.3.4-.4.8-.4,1.2s.2.8.6,1.1c.4.2.9.4,1.7.4h5.1c4.3,0,6.4,1.5,6.4,4.5s-.4,2.6-1.2,3.7-2,1.9-3.5,2.4-3.2.9-5.2.9-4.4-.5-5.8-1.4h0ZM110.2,21.8c-1.4-1.2-2.1-2.8-2.1-4.8s.3-2.6,1-3.6,1.6-1.8,2.8-2.4c1.2-.6,2.6-.9,4.2-.9s2.9.3,4.1.9,2.1,1.4,2.7,2.4c.7,1,1,2.2,1,3.5,0,2-.7,3.6-2.2,4.9s-3.4,1.9-5.9,1.9-4.2-.6-5.6-1.8h0ZM119.3,20.2c.8-.8,1.2-1.9,1.2-3.4s-.4-2.5-1.2-3.3c-.8-.8-1.9-1.1-3.4-1.1-3.1,0-4.6,1.5-4.6,4.5s.4,2.6,1.2,3.4c.8.8,1.9,1.2,3.4,1.2s2.6-.4,3.5-1.2ZM114.7,6.8c-.4-.4-.6-.9-.6-1.6s.2-1.2.6-1.6.9-.6,1.6-.6,1.2.2,1.5.6c.4.4.6.9.6,1.5s-.2,1.2-.6,1.6c-.4.4-.9.6-1.6.6s-1.1-.2-1.5-.6ZM119,10.8h7.2l-.3,2.1-3.8.3s-3.1-2.3-3.1-2.3Z"/>
    <path class="st0" d="M130.8,36.2c-1.4-.9-2.1-2.2-2.1-3.8s.2-1.6.7-2.4,1.2-1.5,2.2-2.2l1.8.7c-1.3,1-1.9,2.1-1.9,3.5s.4,1.9,1.4,2.4c.9.6,2.2.8,3.9.8s3.6-.4,4.8-1.1,1.8-1.7,1.8-2.9-.3-1.4-1-1.8c-.6-.3-1.7-.5-3.2-.5h-4.5c-1.5,0-2.7-.3-3.5-1-.9-.6-1.3-1.5-1.3-2.5s.9-2.7,2.6-3.8l1.7.6c-.5.4-.9.7-1.2,1.1-.3.4-.4.8-.4,1.2s.2.8.6,1.1.9.4,1.7.4h5.1c4.3,0,6.4,1.5,6.4,4.5s-.4,2.6-1.2,3.7-2,1.9-3.5,2.4-3.2.9-5.2.9-4.4-.5-5.8-1.4h0ZM131.6,21.8c-1.4-1.2-2.1-2.8-2.1-4.8s.3-2.6,1-3.6,1.6-1.8,2.8-2.4,2.6-.9,4.2-.9,2.9.3,4.1.9,2.1,1.4,2.7,2.4c.7,1,1,2.2,1,3.5,0,2-.7,3.6-2.2,4.9s-3.4,1.9-5.9,1.9-4.2-.6-5.6-1.8h0ZM140.8,20.2c.8-.8,1.2-1.9,1.2-3.4s-.4-2.5-1.2-3.3c-.8-.8-1.9-1.1-3.4-1.1-3.1,0-4.6,1.5-4.6,4.5s.4,2.6,1.2,3.4c.8.8,1.9,1.2,3.4,1.2s2.6-.4,3.4-1.2ZM139.3,8.4c.4-.4.6-.9.6-1.6s-.2-1-.5-1.4c-.3-.3-.8-.5-1.4-.5s-1.3.3-1.7.8l1.4.6c-.2-.4-.3-.9-.3-1.3,0-1.4.9-2.3,2.7-2.7l-.5-1.8c-1.4.3-2.6.9-3.5,1.9-.9,1-1.3,2.1-1.3,3.4s.2,1.8.8,2.3c.5.6,1.2.9,2.1.9s1.3-.2,1.8-.6h0ZM140.4,10.8h7.2l-.3,2.1-3.9.3-3.1-2.3Z"/>
    <path class="st0" d="M169.5,33.1h-21.2v-2.2h21.5l-.3,2.2ZM158,37.6c-2.5,0-4.4-.5-5.8-1.4s-2.1-2.2-2.1-3.8.2-1.6.7-2.4,1.2-1.5,2.2-2.2l1.8.7c-.6.5-1.1,1-1.4,1.6-.3.6-.5,1.2-.5,1.9,0,1.1.5,1.9,1.4,2.5s2.2.9,3.9.9,3.6-.4,4.8-1.1,1.8-1.7,1.8-3-.3-1.5-1-1.8c-.6-.4-1.7-.5-3.3-.5h-4.5c-1.5,0-2.7-.3-3.5-.9s-1.3-1.5-1.3-2.5.9-2.7,2.6-3.8l1.7.6c-.5.4-.9.7-1.2,1.1-.3.4-.4.8-.4,1.2s.2.8.6,1.1.9.4,1.7.4h5.1c4.3,0,6.4,1.5,6.4,4.5s-.4,2.6-1.2,3.7-2,1.9-3.5,2.4-3.2.9-5.2.9h0ZM158.6,23.5c-2.3,0-4.2-.6-5.6-1.8-1.4-1.2-2.1-2.8-2.1-4.8s.3-2.6,1-3.6,1.6-1.8,2.8-2.4,2.6-.9,4.2-.9,2.9.3,4.1.9,2.1,1.4,2.7,2.4c.7,1,1,2.2,1,3.5,0,2-.7,3.6-2.2,4.9s-3.4,1.9-5.9,1.9h0ZM158.8,21.4c1.5,0,2.6-.4,3.4-1.2.8-.8,1.2-1.9,1.2-3.4s-.4-2.5-1.2-3.3c-.8-.8-1.9-1.1-3.4-1.1-3.1,0-4.6,1.5-4.6,4.5s.4,2.6,1.2,3.4c.8.8,1.9,1.2,3.4,1.2ZM168.8,12.9l-3.9.3-3.1-2.3h7.2l-.3,2.1Z"/>
    <path class="st0" d="M4.4,70.4c-1.2-.8-2.1-1.9-2.8-3.3-.7-1.4-1-3.1-1-5s.4-3.8,1.1-5.3c.7-1.5,1.7-2.7,3-3.5,1.3-.8,2.8-1.2,4.6-1.2s1.8.1,2.6.4,1.6.8,2.6,1.4v2.3c-1.7-1.3-3.4-1.9-5.1-1.9s-3.1.6-4,1.9c-.9,1.3-1.4,3.2-1.4,5.7s.4,4.3,1.3,5.5c.9,1.2,2.2,1.8,3.9,1.8s3.8-.8,5.1-2.5v2.3c-1.6,1.7-3.5,2.5-5.9,2.5s-3-.4-4.2-1.2h0ZM2.4,77.9l-.6-2.4h.2c1,.5,2,.9,3.1,1.2,1.1.3,2.2.4,3.3.4,1.9,0,3.3-.5,4.2-1.4s1.3-2.5,1.3-4.7v-15.5c0-.4,0-.9.1-1.4,0-.5.2-1,.4-1.6h3.1c0,.6-.1,1.3-.2,2.2,0,.9,0,1.8,0,2.7v13.2c0,2.9-.7,5.1-2.2,6.5s-3.6,2.2-6.4,2.2-4.4-.6-6.4-1.7h0Z"/>
    <path class="st0" d="M27.1,70.4c-1.2-.8-2.1-1.9-2.8-3.3-.7-1.4-1-3.1-1-5s.4-3.8,1.1-5.3c.7-1.5,1.7-2.7,3-3.5,1.3-.8,2.8-1.2,4.6-1.2s1.8.1,2.6.4,1.7.8,2.6,1.4v2.3c-1.7-1.3-3.4-1.9-5.1-1.9s-3,.6-4,1.9c-.9,1.3-1.4,3.2-1.4,5.7s.4,4.3,1.3,5.5c.9,1.2,2.2,1.8,3.9,1.8s3.8-.8,5.1-2.5v2.3c-1.5,1.7-3.5,2.5-5.9,2.5s-3-.4-4.2-1.2h0ZM25.1,77.9l-.6-2.4h.2c1,.5,2,.9,3.1,1.2,1.1.3,2.2.4,3.3.4,1.9,0,3.3-.5,4.2-1.4s1.3-2.5,1.3-4.7v-15.5c0-.4,0-.9.1-1.4,0-.5.2-1,.4-1.6h3.1c0,.6-.1,1.3-.2,2.2,0,.9,0,1.8,0,2.7v13.2c0,2.9-.7,5.1-2.2,6.5s-3.6,2.2-6.4,2.2-4.4-.6-6.4-1.7h0ZM25.9,49.9l4.8-6.5h3.3l4.8,6.5-1.6,1.2-6-5.7h2.4l-6,5.7s-1.6-1.2-1.6-1.2Z"/>
    <path class="st0" d="M49.8,70.4c-1.2-.8-2.1-1.9-2.8-3.3-.7-1.4-1-3.1-1-5s.4-3.8,1.1-5.3c.7-1.5,1.7-2.7,3-3.5,1.3-.8,2.8-1.2,4.6-1.2s1.8.1,2.6.4,1.7.8,2.6,1.4v2.3c-1.7-1.3-3.4-1.9-5.1-1.9s-3,.6-4,1.9c-.9,1.3-1.4,3.2-1.4,5.7s.4,4.3,1.3,5.5c.9,1.2,2.2,1.8,3.9,1.8s3.8-.8,5.1-2.5v2.3c-1.5,1.7-3.5,2.5-5.9,2.5s-3-.4-4.2-1.2h0ZM47.8,77.9l-.6-2.4h.2c1,.5,2,.9,3.1,1.2,1.1.3,2.2.4,3.3.4,1.9,0,3.3-.5,4.2-1.4s1.3-2.5,1.3-4.7v-15.5c0-.4,0-.9.1-1.4,0-.5.2-1,.4-1.6h3.1c0,.6-.1,1.3-.2,2.2,0,.9,0,1.8,0,2.7v13.2c0,2.9-.7,5.1-2.2,6.5s-3.6,2.2-6.3,2.2-4.4-.6-6.4-1.7h0ZM48.6,44.2l1.6-1.2,6,5.7h-2.4l6-5.7,1.6,1.2-4.8,6.5h-3.3s-4.8-6.5-4.8-6.5Z"/>
    <path class="st0" d="M72.6,70.4c-1.2-.8-2.1-1.9-2.8-3.3-.7-1.4-1-3.1-1-5s.4-3.8,1.1-5.3c.7-1.5,1.7-2.7,3.1-3.5,1.3-.8,2.8-1.2,4.6-1.2s1.8.1,2.6.4,1.7.8,2.6,1.4v2.3c-1.7-1.3-3.4-1.9-5.1-1.9s-3.1.6-4,1.9c-.9,1.3-1.4,3.2-1.4,5.7s.4,4.3,1.3,5.5c.9,1.2,2.2,1.8,3.9,1.8s3.8-.8,5.1-2.5v2.3c-1.6,1.7-3.5,2.5-5.9,2.5s-3-.4-4.2-1.2h0ZM70.6,77.9l-.6-2.4h.2c1,.5,2,.9,3.1,1.2,1.1.3,2.2.4,3.3.4,1.9,0,3.3-.5,4.2-1.4s1.3-2.5,1.3-4.7v-15.5c0-.4,0-.9.1-1.4,0-.5.2-1,.4-1.6h3.1c0,.6-.1,1.3-.2,2.2,0,.9,0,1.8,0,2.7v13.2c0,2.9-.7,5.1-2.2,6.5s-3.6,2.2-6.3,2.2-4.4-.6-6.4-1.7h0ZM72.4,46.2h10.6v2.4h-10.6v-2.4Z"/>
    <path class="st0" d="M95.3,70.4c-1.2-.8-2.1-1.9-2.8-3.3-.7-1.4-1-3.1-1-5s.4-3.8,1.1-5.3c.7-1.5,1.7-2.7,3.1-3.5,1.3-.8,2.8-1.2,4.6-1.2s1.8.1,2.6.4,1.7.8,2.6,1.4v2.3c-1.7-1.3-3.4-1.9-5.1-1.9s-3.1.6-4,1.9c-.9,1.3-1.4,3.2-1.4,5.7s.4,4.3,1.3,5.5c.9,1.2,2.2,1.8,3.9,1.8s3.8-.8,5.1-2.5v2.3c-1.6,1.7-3.5,2.5-5.9,2.5s-3-.4-4.2-1.2h0ZM93.3,77.9l-.6-2.4h.2c1,.5,2,.9,3.1,1.2,1.1.3,2.2.4,3.3.4,1.9,0,3.3-.5,4.2-1.4s1.3-2.5,1.3-4.7v-15.5c0-.4,0-.9.1-1.4,0-.5.2-1,.4-1.6h3.1c0,.6-.1,1.3-.2,2.2,0,.9,0,1.8,0,2.7v13.2c0,2.9-.7,5.1-2.2,6.5s-3.6,2.2-6.3,2.2-4.4-.6-6.4-1.7h0ZM96.4,44c.5,2.8,1.8,4.2,4.1,4.2s2-.3,2.6-1,1.1-1.7,1.4-3.2l1.8.3c0,2-.7,3.6-1.7,4.8-1.1,1.2-2.5,1.8-4.2,1.8s-3.1-.6-4.2-1.8c-1.1-1.2-1.6-2.8-1.7-4.8l1.9-.2h0Z"/>
    <path class="st0" d="M118,70.4c-1.2-.8-2.1-1.9-2.8-3.3-.7-1.4-1-3.1-1-5s.4-3.8,1.1-5.3c.7-1.5,1.7-2.7,3.1-3.5,1.3-.8,2.8-1.2,4.6-1.2s1.8.1,2.6.4,1.7.8,2.6,1.4v2.3c-1.7-1.3-3.4-1.9-5.1-1.9s-3.1.6-4,1.9c-.9,1.3-1.4,3.2-1.4,5.7s.4,4.3,1.3,5.5c.9,1.2,2.2,1.8,3.9,1.8s3.8-.8,5.1-2.5v2.3c-1.6,1.7-3.5,2.5-5.9,2.5s-3-.4-4.2-1.2h0ZM116,77.9l-.6-2.4h.2c1,.5,2,.9,3.1,1.2,1.1.3,2.2.4,3.3.4,1.9,0,3.3-.5,4.2-1.4s1.3-2.5,1.3-4.7v-15.5c0-.4,0-.9.1-1.4,0-.5.2-1,.4-1.6h3.1c0,.6-.1,1.3-.2,2.2,0,.9,0,1.8,0,2.7v13.2c0,2.9-.7,5.1-2.2,6.5s-3.6,2.2-6.3,2.2-4.4-.6-6.4-1.7h0ZM121.6,48.8c-.4-.4-.6-.9-.6-1.6s.2-1.2.6-1.6.9-.6,1.6-.6,1.2.2,1.5.6.6.9.6,1.5-.2,1.2-.6,1.6c-.4.4-.9.6-1.6.6s-1.1-.2-1.5-.6Z"/>
    <path class="st0" d="M140.8,70.4c-1.2-.8-2.1-1.9-2.8-3.3-.7-1.4-1-3.1-1-5s.4-3.8,1.1-5.3c.7-1.5,1.7-2.7,3.1-3.5,1.3-.8,2.8-1.2,4.6-1.2s1.8.1,2.6.4c.8.3,1.6.8,2.6,1.4v2.3c-1.7-1.3-3.4-1.9-5.1-1.9s-3.1.6-4,1.9c-.9,1.3-1.4,3.2-1.4,5.7s.4,4.3,1.3,5.5c.9,1.2,2.2,1.8,3.9,1.8s3.8-.8,5.1-2.5v2.3c-1.6,1.7-3.5,2.5-5.9,2.5s-3-.4-4.2-1.2h0ZM138.7,77.9l-.6-2.4h.2c1,.5,2,.9,3.1,1.2,1.1.3,2.2.4,3.3.4,1.9,0,3.3-.5,4.2-1.4s1.3-2.5,1.3-4.7v-15.5c0-.4,0-.9.1-1.4,0-.5.2-1,.4-1.6h3.1c0,.6-.1,1.3-.2,2.2,0,.9,0,1.8,0,2.7v13.2c0,2.9-.7,5.1-2.2,6.5s-3.6,2.2-6.4,2.2-4.4-.6-6.4-1.7h0ZM147.5,50.4c.4-.4.6-.9.6-1.6s-.2-1-.5-1.4c-.3-.3-.8-.5-1.4-.5s-1.3.3-1.7.8l1.4.6c-.2-.4-.3-.9-.3-1.3,0-1.4.9-2.3,2.7-2.7l-.5-1.8c-1.4.3-2.6.9-3.5,1.9-.9,1-1.3,2.1-1.3,3.4s.2,1.8.8,2.3c.5.6,1.2.9,2.1.9s1.3-.2,1.8-.6h0Z"/>
    <path class="st0" d="M167.7,70.6c-1.6,0-3-.4-4.2-1.2-1.2-.8-2.1-1.8-2.8-3.2-.7-1.4-1-2.9-1-4.7s.4-3.7,1.2-5.1,1.8-2.5,3.1-3.2c1.3-.7,2.8-1.1,4.4-1.1s1.8.1,2.6.4c.8.3,1.6.8,2.6,1.4v2.3c-1.7-1.3-3.4-1.9-5.1-1.9s-3.1.6-4,1.9-1.4,3-1.4,5.3.4,3.7,1.3,4.9,2.2,1.8,3.9,1.8,3.8-.8,5.1-2.5v2.3c-.8.8-1.6,1.4-2.6,1.8-1,.4-2.1.6-3.2.6h0ZM167.9,79.6c-1.2,0-2.3-.1-3.3-.4s-2.1-.6-3.1-1.1l-.6-2.4h.2c1,.4,2,.8,3.1,1.1s2.2.5,3.3.5c2,0,3.4-.5,4.2-1.4.8-.9,1.2-2.5,1.2-4.6v-15.7c0-.4,0-.9.1-1.4,0-.5.2-1,.4-1.6h3.1c0,.6-.1,1.3-.2,2.2,0,.9,0,1.8,0,2.7v13.4c0,2.9-.7,5.1-2.2,6.5s-3.6,2.1-6.4,2.1h0ZM178.6,74.3h-13.8v-2.3h14.1l-.3,2.3Z"/>
  </g>
</svg>