<?xml version="1.0" encoding="UTF-8"?>
<svg id="Layer_1" data-name="Layer 1" xmlns="http://www.w3.org/2000/svg" viewBox="0 0 178.95 79.56">
  <defs>
    <style>
      .cls-1 {
        fill: #231f20;
      }

      .cls-2 {
        fill: #fff;
      }
    </style>
  </defs>
  <rect class="cls-2" x="1.94" width="170.75" height="31.53"/>
  <g>
    <path class="cls-1" d="M2.06,36.17c-1.37-.93-2.06-2.2-2.06-3.82,0-.85.23-1.63.7-2.36s1.22-1.47,2.25-2.23l1.78.66c-1.26.96-1.89,2.14-1.89,3.54,0,1.05.45,1.86,1.36,2.42.9.56,2.21.84,3.92.84,1.99,0,3.59-.36,4.8-1.07s1.82-1.67,1.82-2.85c0-.82-.32-1.4-.96-1.75-.64-.34-1.72-.52-3.24-.52h-4.51c-1.48,0-2.67-.32-3.54-.95-.88-.63-1.32-1.48-1.32-2.55,0-1.43.87-2.7,2.6-3.79l1.74.57c-.53.35-.93.72-1.19,1.09-.26.38-.39.78-.39,1.21,0,.48.19.84.56,1.08.37.24.93.36,1.69.36h5.12c4.28,0,6.43,1.51,6.43,4.53,0,1.39-.41,2.61-1.23,3.66s-1.97,1.86-3.46,2.44-3.22.87-5.2.87c-2.46,0-4.38-.47-5.75-1.4ZM2.91,21.75c-1.39-1.19-2.09-2.78-2.09-4.76,0-1.37.33-2.57,1-3.6s1.59-1.84,2.79-2.41c1.2-.57,2.58-.86,4.16-.86s2.91.28,4.08.85,2.09,1.35,2.74,2.36c.66,1.01.99,2.18.99,3.51,0,2.01-.74,3.62-2.23,4.85s-3.44,1.85-5.88,1.85-4.17-.6-5.57-1.79ZM12.08,20.17c.81-.8,1.22-1.93,1.22-3.39s-.4-2.53-1.19-3.3c-.79-.77-1.93-1.15-3.42-1.15-3.06,0-4.59,1.49-4.59,4.47,0,1.47.39,2.6,1.17,3.39.78.79,1.9,1.18,3.36,1.18s2.63-.4,3.45-1.2ZM11.7,10.8h7.21l-.27,2.05-3.85.29-3.09-2.34Z"/>
    <path class="cls-1" d="M23.51,36.17c-1.37-.93-2.06-2.2-2.06-3.82,0-.85.23-1.63.7-2.36s1.22-1.47,2.25-2.23l1.78.66c-1.26.96-1.89,2.14-1.89,3.54,0,1.05.45,1.86,1.36,2.42.9.56,2.21.84,3.92.84,1.99,0,3.59-.36,4.8-1.07s1.82-1.67,1.82-2.85c0-.82-.32-1.4-.96-1.75-.64-.34-1.72-.52-3.24-.52h-4.51c-1.48,0-2.67-.32-3.54-.95-.88-.63-1.32-1.48-1.32-2.55,0-1.43.87-2.7,2.6-3.79l1.74.57c-.53.35-.93.72-1.19,1.09-.26.38-.39.78-.39,1.21,0,.48.19.84.56,1.08.37.24.93.36,1.69.36h5.12c4.28,0,6.43,1.51,6.43,4.53,0,1.39-.41,2.61-1.23,3.66s-1.97,1.86-3.46,2.44-3.22.87-5.2.87c-2.46,0-4.38-.47-5.75-1.4ZM24.36,21.75c-1.39-1.19-2.09-2.78-2.09-4.76,0-1.37.33-2.57,1-3.6s1.59-1.84,2.79-2.41c1.2-.57,2.58-.86,4.16-.86s2.91.28,4.08.85,2.09,1.35,2.74,2.36c.66,1.01.99,2.18.99,3.51,0,2.01-.74,3.62-2.23,4.85s-3.44,1.85-5.88,1.85-4.17-.6-5.57-1.79ZM23.99,7.89l4.75-6.45h3.32l4.75,6.45-1.58,1.15-6.04-5.74h2.42l-6.04,5.74-1.58-1.15ZM33.53,20.17c.81-.8,1.22-1.93,1.22-3.39s-.4-2.53-1.19-3.3c-.79-.77-1.93-1.15-3.42-1.15-3.06,0-4.59,1.49-4.59,4.47,0,1.47.39,2.6,1.17,3.39.78.79,1.9,1.18,3.36,1.18s2.63-.4,3.45-1.2ZM33.15,10.8h7.21l-.27,2.05-3.85.29-3.09-2.34Z"/>
    <path class="cls-1" d="M44.97,36.17c-1.37-.93-2.06-2.2-2.06-3.82,0-.85.23-1.63.7-2.36s1.22-1.47,2.25-2.23l1.78.66c-1.26.96-1.89,2.14-1.89,3.54,0,1.05.45,1.86,1.36,2.42.9.56,2.21.84,3.92.84,1.99,0,3.59-.36,4.8-1.07s1.82-1.67,1.82-2.85c0-.82-.32-1.4-.96-1.75-.64-.34-1.72-.52-3.24-.52h-4.51c-1.48,0-2.67-.32-3.54-.95-.88-.63-1.32-1.48-1.32-2.55,0-1.43.87-2.7,2.6-3.79l1.74.57c-.53.35-.93.72-1.19,1.09-.26.38-.39.78-.39,1.21,0,.48.19.84.56,1.08.37.24.93.36,1.69.36h5.12c4.28,0,6.43,1.51,6.43,4.53,0,1.39-.41,2.61-1.23,3.66s-1.97,1.86-3.46,2.44-3.22.87-5.2.87c-2.46,0-4.38-.47-5.75-1.4ZM45.82,21.75c-1.39-1.19-2.09-2.78-2.09-4.76,0-1.37.33-2.57,1-3.6s1.59-1.84,2.79-2.41c1.2-.57,2.58-.86,4.16-.86s2.91.28,4.08.85,2.09,1.35,2.74,2.36c.66,1.01.99,2.18.99,3.51,0,2.01-.74,3.62-2.23,4.85s-3.44,1.85-5.88,1.85-4.17-.6-5.57-1.79ZM45.45,2.21l1.58-1.15,6.04,5.72h-2.42l6.04-5.72,1.58,1.15-4.75,6.45h-3.32l-4.75-6.45ZM54.99,20.17c.81-.8,1.22-1.93,1.22-3.39s-.4-2.53-1.19-3.3c-.79-.77-1.93-1.15-3.42-1.15-3.06,0-4.59,1.49-4.59,4.47,0,1.47.39,2.6,1.17,3.39.78.79,1.9,1.18,3.36,1.18s2.63-.4,3.45-1.2ZM54.61,10.8h7.21l-.27,2.05-3.85.29-3.09-2.34Z"/>
    <path class="cls-1" d="M66.42,36.17c-1.37-.93-2.06-2.2-2.06-3.82,0-.85.23-1.63.7-2.36s1.22-1.47,2.25-2.23l1.78.66c-1.26.96-1.89,2.14-1.89,3.54,0,1.05.45,1.86,1.36,2.42.9.56,2.21.84,3.92.84,1.99,0,3.59-.36,4.8-1.07s1.82-1.67,1.82-2.85c0-.82-.32-1.4-.96-1.75-.64-.34-1.72-.52-3.24-.52h-4.51c-1.48,0-2.67-.32-3.54-.95-.88-.63-1.32-1.48-1.32-2.55,0-1.43.87-2.7,2.6-3.79l1.74.57c-.53.35-.93.72-1.19,1.09-.26.38-.39.78-.39,1.21,0,.48.19.84.56,1.08.37.24.93.36,1.69.36h5.12c4.28,0,6.43,1.51,6.43,4.53,0,1.39-.41,2.61-1.23,3.66s-1.97,1.86-3.46,2.44-3.22.87-5.2.87c-2.46,0-4.38-.47-5.75-1.4ZM67.27,21.75c-1.39-1.19-2.09-2.78-2.09-4.76,0-1.37.33-2.57,1-3.6s1.59-1.84,2.79-2.41c1.2-.57,2.58-.86,4.16-.86s2.91.28,4.08.85,2.09,1.35,2.74,2.36c.66,1.01.99,2.18.99,3.51,0,2.01-.74,3.62-2.23,4.85s-3.44,1.85-5.88,1.85-4.17-.6-5.57-1.79ZM68.03,4.2h10.55v2.44h-10.55v-2.44ZM76.44,20.17c.81-.8,1.22-1.93,1.22-3.39s-.4-2.53-1.19-3.3c-.79-.77-1.93-1.15-3.42-1.15-3.06,0-4.59,1.49-4.59,4.47,0,1.47.39,2.6,1.17,3.39.78.79,1.9,1.18,3.36,1.18s2.63-.4,3.45-1.2ZM76.06,10.8h7.21l-.27,2.05-3.85.29-3.09-2.34Z"/>
    <path class="cls-1" d="M87.88,36.17c-1.37-.93-2.06-2.2-2.06-3.82,0-.85.23-1.63.7-2.36s1.22-1.47,2.25-2.23l1.78.66c-1.26.96-1.89,2.14-1.89,3.54,0,1.05.45,1.86,1.36,2.42.9.56,2.21.84,3.92.84,1.99,0,3.59-.36,4.8-1.07s1.82-1.67,1.82-2.85c0-.82-.32-1.4-.96-1.75-.64-.34-1.72-.52-3.24-.52h-4.51c-1.48,0-2.67-.32-3.54-.95-.88-.63-1.32-1.48-1.32-2.55,0-1.43.87-2.7,2.6-3.79l1.74.57c-.53.35-.93.72-1.19,1.09-.26.38-.39.78-.39,1.21,0,.48.19.84.56,1.08.37.24.93.36,1.69.36h5.12c4.28,0,6.43,1.51,6.43,4.53,0,1.39-.41,2.61-1.23,3.66s-1.97,1.86-3.46,2.44-3.22.87-5.2.87c-2.46,0-4.38-.47-5.75-1.4ZM88.73,21.75c-1.39-1.19-2.09-2.78-2.09-4.76,0-1.37.33-2.57,1-3.6s1.59-1.84,2.79-2.41c1.2-.57,2.58-.86,4.16-.86s2.91.28,4.08.85,2.09,1.35,2.74,2.36c.66,1.01.99,2.18.99,3.51,0,2.01-.74,3.62-2.23,4.85s-3.44,1.85-5.88,1.85-4.17-.6-5.57-1.79ZM90.74,2.02c.48,2.8,1.85,4.2,4.1,4.2,1.11,0,1.99-.34,2.64-1.02.65-.68,1.12-1.74,1.41-3.18l1.8.27c-.09,2.01-.67,3.6-1.73,4.78-1.06,1.18-2.46,1.77-4.19,1.77s-3.12-.59-4.18-1.77c-1.05-1.18-1.63-2.78-1.74-4.79l1.89-.25ZM97.9,20.17c.81-.8,1.22-1.93,1.22-3.39s-.4-2.53-1.19-3.3c-.79-.77-1.93-1.15-3.42-1.15-3.06,0-4.59,1.49-4.59,4.47,0,1.47.39,2.6,1.17,3.39.78.79,1.9,1.18,3.36,1.18s2.63-.4,3.45-1.2ZM97.51,10.8h7.21l-.27,2.05-3.85.29-3.09-2.34Z"/>
    <path class="cls-1" d="M109.33,36.17c-1.37-.93-2.06-2.2-2.06-3.82,0-.85.23-1.63.7-2.36s1.22-1.47,2.25-2.23l1.78.66c-1.26.96-1.89,2.14-1.89,3.54,0,1.05.45,1.86,1.36,2.42.9.56,2.21.84,3.92.84,1.99,0,3.59-.36,4.8-1.07s1.82-1.67,1.82-2.85c0-.82-.32-1.4-.96-1.75-.64-.34-1.72-.52-3.24-.52h-4.51c-1.48,0-2.67-.32-3.54-.95-.88-.63-1.32-1.48-1.32-2.55,0-1.43.87-2.7,2.6-3.79l1.74.57c-.53.35-.93.72-1.19,1.09-.26.38-.39.78-.39,1.21,0,.48.19.84.56,1.08.37.24.93.36,1.69.36h5.12c4.28,0,6.43,1.51,6.43,4.53,0,1.39-.41,2.61-1.23,3.66s-1.97,1.86-3.46,2.44-3.22.87-5.2.87c-2.46,0-4.38-.47-5.75-1.4ZM110.18,21.75c-1.39-1.19-2.09-2.78-2.09-4.76,0-1.37.33-2.57,1-3.6s1.59-1.84,2.79-2.41c1.2-.57,2.58-.86,4.16-.86s2.91.28,4.08.85,2.09,1.35,2.74,2.36c.66,1.01.99,2.18.99,3.51,0,2.01-.74,3.62-2.23,4.85s-3.44,1.85-5.88,1.85-4.17-.6-5.57-1.79ZM119.35,20.17c.81-.8,1.22-1.93,1.22-3.39s-.4-2.53-1.19-3.3c-.79-.77-1.93-1.15-3.42-1.15-3.06,0-4.59,1.49-4.59,4.47,0,1.47.39,2.6,1.17,3.39.78.79,1.9,1.18,3.36,1.18s2.63-.4,3.45-1.2ZM114.65,6.84c-.36-.38-.55-.9-.55-1.56s.19-1.18.57-1.56.9-.57,1.56-.57,1.16.19,1.53.56.56.88.56,1.53-.19,1.19-.58,1.58c-.38.39-.92.59-1.59.59-.64,0-1.14-.19-1.5-.57ZM118.97,10.8h7.21l-.27,2.05-3.85.29-3.09-2.34Z"/>
    <path class="cls-1" d="M130.78,36.17c-1.37-.93-2.06-2.2-2.06-3.82,0-.85.23-1.63.7-2.36s1.22-1.47,2.25-2.23l1.78.66c-1.26.96-1.89,2.14-1.89,3.54,0,1.05.45,1.86,1.36,2.42.9.56,2.21.84,3.92.84,1.99,0,3.59-.36,4.8-1.07s1.82-1.67,1.82-2.85c0-.82-.32-1.4-.96-1.75-.64-.34-1.72-.52-3.24-.52h-4.51c-1.48,0-2.67-.32-3.54-.95-.88-.63-1.32-1.48-1.32-2.55,0-1.43.87-2.7,2.6-3.79l1.74.57c-.53.35-.93.72-1.19,1.09-.26.38-.39.78-.39,1.21,0,.48.19.84.56,1.08.37.24.93.36,1.69.36h5.12c4.28,0,6.43,1.51,6.43,4.53,0,1.39-.41,2.61-1.23,3.66s-1.97,1.86-3.46,2.44-3.22.87-5.2.87c-2.46,0-4.38-.47-5.75-1.4ZM131.63,21.75c-1.39-1.19-2.09-2.78-2.09-4.76,0-1.37.33-2.57,1-3.6s1.59-1.84,2.79-2.41c1.2-.57,2.58-.86,4.16-.86s2.91.28,4.08.85,2.09,1.35,2.74,2.36c.66,1.01.99,2.18.99,3.51,0,2.01-.74,3.62-2.23,4.85s-3.44,1.85-5.88,1.85-4.17-.6-5.57-1.79ZM140.8,20.17c.81-.8,1.22-1.93,1.22-3.39s-.4-2.53-1.19-3.3c-.79-.77-1.93-1.15-3.42-1.15-3.06,0-4.59,1.49-4.59,4.47,0,1.47.39,2.6,1.17,3.39.78.79,1.9,1.18,3.36,1.18s2.63-.4,3.45-1.2ZM139.26,8.4c.44-.4.65-.93.65-1.58,0-.57-.17-1.03-.51-1.38-.34-.34-.79-.52-1.37-.52-.7,0-1.26.26-1.68.78l1.35.62c-.22-.44-.33-.89-.33-1.33,0-1.38.89-2.29,2.66-2.71l-.51-1.8c-1.45.27-2.61.9-3.5,1.87-.89.97-1.33,2.11-1.33,3.43,0,.99.25,1.77.75,2.35.5.58,1.19.87,2.06.87.73,0,1.31-.2,1.75-.61ZM140.42,10.8h7.21l-.27,2.05-3.85.29-3.09-2.34Z"/>
    <path class="cls-1" d="M169.53,33.11h-21.19v-2.21h21.5l-.31,2.21ZM157.99,37.56c-2.46,0-4.38-.47-5.75-1.4-1.37-.93-2.06-2.2-2.06-3.82,0-.85.23-1.63.7-2.36s1.22-1.47,2.25-2.23l1.78.66c-.61.47-1.09,1.01-1.43,1.61-.34.61-.51,1.25-.51,1.92,0,1.11.46,1.95,1.38,2.52s2.23.86,3.94.86c1.99,0,3.6-.36,4.82-1.09,1.22-.73,1.84-1.71,1.84-2.95,0-.86-.33-1.46-.98-1.82-.65-.35-1.74-.53-3.26-.53h-4.51c-1.48,0-2.67-.31-3.54-.94s-1.32-1.45-1.32-2.48c0-1.43.87-2.7,2.6-3.79l1.74.57c-.53.35-.93.72-1.19,1.09-.26.38-.39.78-.39,1.21,0,.48.19.84.56,1.08.37.24.93.36,1.69.36h5.12c4.28,0,6.43,1.51,6.43,4.53,0,1.39-.41,2.61-1.23,3.66s-1.97,1.86-3.46,2.44-3.22.87-5.2.87ZM158.65,23.54c-2.32,0-4.17-.6-5.57-1.79-1.39-1.19-2.09-2.78-2.09-4.76,0-1.37.33-2.57,1-3.6s1.59-1.84,2.79-2.41c1.2-.57,2.58-.86,4.16-.86s2.91.28,4.08.85,2.09,1.35,2.74,2.36c.66,1.01.99,2.18.99,3.51,0,2.01-.74,3.62-2.23,4.85s-3.44,1.85-5.88,1.85ZM158.81,21.37c1.48,0,2.63-.4,3.45-1.2.81-.8,1.22-1.93,1.22-3.39s-.4-2.53-1.19-3.3c-.79-.77-1.93-1.15-3.42-1.15-3.06,0-4.59,1.49-4.59,4.47,0,1.47.39,2.6,1.17,3.39.78.79,1.9,1.18,3.36,1.18ZM168.81,12.86l-3.85.29-3.09-2.34h7.21l-.27,2.05Z"/>
    <path class="cls-1" d="M4.4,70.37c-1.2-.77-2.14-1.87-2.79-3.29-.66-1.42-.99-3.08-.99-4.98,0-2.02.36-3.77,1.08-5.26.72-1.49,1.74-2.65,3.05-3.48,1.31-.83,2.84-1.24,4.6-1.24.96,0,1.84.14,2.63.42.79.28,1.65.75,2.59,1.42v2.27c-1.69-1.26-3.4-1.89-5.12-1.89s-3.05.64-3.96,1.91c-.91,1.28-1.36,3.17-1.36,5.68s.44,4.26,1.32,5.49c.88,1.22,2.18,1.84,3.92,1.84,2.14,0,3.84-.82,5.12-2.46v2.27c-1.55,1.65-3.5,2.48-5.86,2.48-1.61,0-3.02-.39-4.23-1.16ZM2.4,77.9l-.57-2.38.16-.12c1,.6,2.04,1.05,3.11,1.35,1.07.3,2.17.45,3.32.45,1.94,0,3.34-.48,4.2-1.44s1.29-2.51,1.29-4.66v-15.47c0-.44.05-.9.14-1.39.09-.48.23-1.02.43-1.62h3.09c-.08.59-.14,1.33-.19,2.23-.05.9-.07,1.81-.07,2.73v13.22c0,2.89-.72,5.07-2.17,6.54s-3.56,2.21-6.35,2.21c-2.29,0-4.42-.55-6.39-1.66Z"/>
    <path class="cls-1" d="M27.13,70.37c-1.2-.77-2.14-1.87-2.79-3.29-.66-1.42-.99-3.08-.99-4.98,0-2.02.36-3.77,1.08-5.26.72-1.49,1.74-2.65,3.05-3.48,1.31-.83,2.84-1.24,4.6-1.24.96,0,1.84.14,2.63.42.79.28,1.65.75,2.59,1.42v2.27c-1.69-1.26-3.4-1.89-5.12-1.89s-3.05.64-3.96,1.91c-.91,1.28-1.36,3.17-1.36,5.68s.44,4.26,1.32,5.49c.88,1.22,2.18,1.84,3.92,1.84,2.14,0,3.84-.82,5.12-2.46v2.27c-1.55,1.65-3.5,2.48-5.86,2.48-1.61,0-3.02-.39-4.23-1.16ZM25.13,77.9l-.57-2.38.16-.12c1,.6,2.04,1.05,3.11,1.35,1.07.3,2.17.45,3.32.45,1.94,0,3.34-.48,4.2-1.44s1.29-2.51,1.29-4.66v-15.47c0-.44.05-.9.14-1.39.09-.48.23-1.02.43-1.62h3.09c-.08.59-.14,1.33-.19,2.23-.05.9-.07,1.81-.07,2.73v13.22c0,2.89-.72,5.07-2.17,6.54s-3.56,2.21-6.35,2.21c-2.29,0-4.42-.55-6.39-1.66ZM25.87,49.89l4.75-6.45h3.32l4.75,6.45-1.58,1.15-6.04-5.74h2.42l-6.04,5.74-1.58-1.15Z"/>
    <path class="cls-1" d="M49.85,70.37c-1.2-.77-2.14-1.87-2.79-3.29-.66-1.42-.99-3.08-.99-4.98,0-2.02.36-3.77,1.08-5.26.72-1.49,1.74-2.65,3.05-3.48,1.31-.83,2.84-1.24,4.6-1.24.96,0,1.84.14,2.63.42.79.28,1.65.75,2.59,1.42v2.27c-1.69-1.26-3.4-1.89-5.12-1.89s-3.05.64-3.96,1.91c-.91,1.28-1.36,3.17-1.36,5.68s.44,4.26,1.32,5.49c.88,1.22,2.18,1.84,3.92,1.84,2.14,0,3.84-.82,5.12-2.46v2.27c-1.55,1.65-3.5,2.48-5.86,2.48-1.61,0-3.02-.39-4.23-1.16ZM47.85,77.9l-.57-2.38.16-.12c1,.6,2.04,1.05,3.11,1.35,1.07.3,2.17.45,3.32.45,1.94,0,3.34-.48,4.2-1.44s1.29-2.51,1.29-4.66v-15.47c0-.44.05-.9.14-1.39.09-.48.23-1.02.43-1.62h3.09c-.08.59-.14,1.33-.19,2.23-.05.9-.07,1.81-.07,2.73v13.22c0,2.89-.72,5.07-2.17,6.54s-3.56,2.21-6.35,2.21c-2.29,0-4.42-.55-6.39-1.66ZM48.59,44.21l1.58-1.15,6.04,5.72h-2.42l6.04-5.72,1.58,1.15-4.75,6.45h-3.32l-4.75-6.45Z"/>
    <path class="cls-1" d="M72.57,70.37c-1.2-.77-2.14-1.87-2.79-3.29-.66-1.42-.99-3.08-.99-4.98,0-2.02.36-3.77,1.08-5.26.72-1.49,1.74-2.65,3.05-3.48,1.31-.83,2.84-1.24,4.6-1.24.96,0,1.84.14,2.63.42.79.28,1.65.75,2.59,1.42v2.27c-1.69-1.26-3.4-1.89-5.12-1.89s-3.05.64-3.96,1.91c-.91,1.28-1.36,3.17-1.36,5.68s.44,4.26,1.32,5.49c.88,1.22,2.18,1.84,3.92,1.84,2.14,0,3.84-.82,5.12-2.46v2.27c-1.55,1.65-3.5,2.48-5.86,2.48-1.61,0-3.02-.39-4.23-1.16ZM70.57,77.9l-.57-2.38.16-.12c1,.6,2.04,1.05,3.11,1.35,1.07.3,2.17.45,3.32.45,1.94,0,3.34-.48,4.2-1.44s1.29-2.51,1.29-4.66v-15.47c0-.44.05-.9.14-1.39.09-.48.23-1.02.43-1.62h3.09c-.08.59-.14,1.33-.19,2.23-.05.9-.07,1.81-.07,2.73v13.22c0,2.89-.72,5.07-2.17,6.54s-3.56,2.21-6.35,2.21c-2.29,0-4.42-.55-6.39-1.66ZM72.45,46.2h10.55v2.44h-10.55v-2.44Z"/>
    <path class="cls-1" d="M95.3,70.37c-1.2-.77-2.14-1.87-2.79-3.29-.66-1.42-.99-3.08-.99-4.98,0-2.02.36-3.77,1.08-5.26.72-1.49,1.74-2.65,3.05-3.48,1.31-.83,2.84-1.24,4.6-1.24.96,0,1.84.14,2.63.42.79.28,1.65.75,2.59,1.42v2.27c-1.69-1.26-3.4-1.89-5.12-1.89s-3.05.64-3.96,1.91c-.91,1.28-1.36,3.17-1.36,5.68s.44,4.26,1.32,5.49c.88,1.22,2.18,1.84,3.92,1.84,2.14,0,3.84-.82,5.12-2.46v2.27c-1.55,1.65-3.5,2.48-5.86,2.48-1.61,0-3.02-.39-4.23-1.16ZM93.3,77.9l-.57-2.38.16-.12c1,.6,2.04,1.05,3.11,1.35,1.07.3,2.17.45,3.32.45,1.94,0,3.34-.48,4.2-1.44s1.29-2.51,1.29-4.66v-15.47c0-.44.05-.9.14-1.39.09-.48.23-1.02.43-1.62h3.09c-.08.59-.14,1.33-.19,2.23-.05.9-.07,1.81-.07,2.73v13.22c0,2.89-.72,5.07-2.17,6.54s-3.56,2.21-6.35,2.21c-2.29,0-4.42-.55-6.39-1.66ZM96.42,44.02c.48,2.8,1.85,4.2,4.1,4.2,1.11,0,1.99-.34,2.64-1.02.65-.68,1.12-1.74,1.41-3.18l1.8.27c-.09,2.01-.67,3.6-1.73,4.78-1.06,1.18-2.46,1.77-4.19,1.77s-3.12-.59-4.18-1.77c-1.05-1.18-1.63-2.78-1.74-4.79l1.89-.25Z"/>
    <path class="cls-1" d="M118.02,70.37c-1.2-.77-2.14-1.87-2.79-3.29-.66-1.42-.99-3.08-.99-4.98,0-2.02.36-3.77,1.08-5.26.72-1.49,1.74-2.65,3.05-3.48,1.31-.83,2.84-1.24,4.6-1.24.96,0,1.84.14,2.63.42.79.28,1.65.75,2.59,1.42v2.27c-1.69-1.26-3.4-1.89-5.12-1.89s-3.05.64-3.96,1.91c-.91,1.28-1.36,3.17-1.36,5.68s.44,4.26,1.32,5.49c.88,1.22,2.18,1.84,3.92,1.84,2.14,0,3.84-.82,5.12-2.46v2.27c-1.55,1.65-3.5,2.48-5.86,2.48-1.61,0-3.02-.39-4.23-1.16ZM116.02,77.9l-.57-2.38.16-.12c1,.6,2.04,1.05,3.11,1.35,1.07.3,2.17.45,3.32.45,1.94,0,3.34-.48,4.2-1.44s1.29-2.51,1.29-4.66v-15.47c0-.44.05-.9.14-1.39.09-.48.23-1.02.43-1.62h3.09c-.08.59-.14,1.33-.19,2.23-.05.9-.07,1.81-.07,2.73v13.22c0,2.89-.72,5.07-2.17,6.54s-3.56,2.21-6.35,2.21c-2.29,0-4.42-.55-6.39-1.66ZM121.61,48.84c-.36-.38-.55-.9-.55-1.56s.19-1.18.57-1.56c.38-.38.9-.57,1.56-.57s1.16.19,1.53.56.56.88.56,1.53-.19,1.19-.58,1.58c-.38.39-.92.59-1.59.59-.64,0-1.14-.19-1.5-.57Z"/>
    <path class="cls-1" d="M140.75,70.37c-1.2-.77-2.14-1.87-2.79-3.29-.66-1.42-.99-3.08-.99-4.98,0-2.02.36-3.77,1.08-5.26.72-1.49,1.74-2.65,3.05-3.48,1.31-.83,2.84-1.24,4.6-1.24.96,0,1.84.14,2.63.42.79.28,1.65.75,2.59,1.42v2.27c-1.69-1.26-3.4-1.89-5.12-1.89s-3.05.64-3.96,1.91c-.91,1.28-1.36,3.17-1.36,5.68s.44,4.26,1.32,5.49c.88,1.22,2.18,1.84,3.92,1.84,2.14,0,3.84-.82,5.12-2.46v2.27c-1.55,1.65-3.5,2.48-5.86,2.48-1.61,0-3.02-.39-4.23-1.16ZM138.74,77.9l-.57-2.38.16-.12c1,.6,2.04,1.05,3.11,1.35,1.07.3,2.17.45,3.32.45,1.94,0,3.34-.48,4.2-1.44s1.29-2.51,1.29-4.66v-15.47c0-.44.05-.9.14-1.39.09-.48.23-1.02.43-1.62h3.09c-.08.59-.14,1.33-.19,2.23-.05.9-.07,1.81-.07,2.73v13.22c0,2.89-.72,5.07-2.17,6.54s-3.56,2.21-6.35,2.21c-2.29,0-4.42-.55-6.39-1.66ZM147.48,50.4c.44-.4.65-.93.65-1.58,0-.57-.17-1.03-.51-1.38-.34-.34-.79-.52-1.37-.52-.7,0-1.26.26-1.68.78l1.35.62c-.22-.44-.33-.88-.33-1.33,0-1.38.89-2.29,2.66-2.71l-.51-1.8c-1.45.27-2.61.9-3.5,1.87-.89.97-1.33,2.11-1.33,3.43,0,.99.25,1.77.75,2.35.5.58,1.19.87,2.06.87.73,0,1.31-.2,1.75-.61Z"/>
    <path class="cls-1" d="M167.7,70.58c-1.61,0-3.02-.39-4.23-1.16-1.2-.77-2.14-1.84-2.79-3.2-.66-1.36-.99-2.91-.99-4.66,0-1.99.39-3.69,1.17-5.1s1.83-2.48,3.15-3.22c1.32-.74,2.79-1.11,4.4-1.11.96,0,1.84.14,2.63.42.79.28,1.65.75,2.59,1.42v2.27c-1.69-1.26-3.4-1.89-5.12-1.89s-3.05.63-3.96,1.9c-.91,1.27-1.36,3.05-1.36,5.34,0,2.1.44,3.74,1.32,4.93s2.18,1.79,3.92,1.79c2.14,0,3.84-.82,5.12-2.46v2.27c-.76.81-1.63,1.42-2.63,1.85-1,.42-2.07.63-3.23.63ZM167.85,79.56c-1.16,0-2.27-.13-3.32-.4s-2.08-.62-3.07-1.06l-.57-2.38.16-.12c1,.52,2.04.93,3.11,1.24,1.07.31,2.17.46,3.32.46,2,0,3.42-.46,4.25-1.39.83-.92,1.24-2.46,1.24-4.61v-15.66c0-.44.05-.9.14-1.39.09-.48.23-1.02.43-1.62h3.09c-.08.59-.14,1.33-.19,2.23-.05.9-.07,1.81-.07,2.73v13.38c0,2.89-.72,5.05-2.17,6.46s-3.56,2.13-6.35,2.13ZM178.61,74.35h-13.77v-2.34h14.1l-.33,2.34Z"/>
  </g>
</svg>