<?xml version="1.0" encoding="UTF-8"?>
<svg id="Layer_1" data-name="Layer 1" xmlns="http://www.w3.org/2000/svg" viewBox="0 0 173.63 35.33">
  <defs>
    <style>
      .cls-1 {
        fill: #231f20;
      }

      .cls-2 {
        fill: #fff;
      }
    </style>
  </defs>
  <rect class="cls-2" x="2.87" width="170.75" height="31.53"/>
  <g>
    <path class="cls-1" d="M2.94,6.66c-.37-.38-.56-.9-.56-1.56s.19-1.17.58-1.55.91-.58,1.57-.58,1.16.19,1.52.56c.36.37.55.88.55,1.53s-.19,1.21-.58,1.59-.91.58-1.57.58-1.14-.19-1.51-.57ZM2.79,10.62h3.4v18.48h-3.4V10.62Z"/>
    <path class="cls-1" d="M8.98,35.33H0v-2.44h8.98v2.44Z"/>
    <path class="cls-1" d="M14.9,10.94l4.2-.14h6.25v2.29h-10.76l.31-2.15ZM26.29,32.89h-8.98v2.44h8.98v-2.44ZM18.48,28.4c-.74-.75-1.11-1.87-1.11-3.34V6.19l3.36-.55v18.91c0,.91.16,1.56.47,1.94.31.38.84.58,1.58.58.51,0,.99-.07,1.44-.21s.97-.37,1.55-.69l.14.12-.59,2.25c-.48.31-1.03.56-1.65.73-.62.18-1.25.26-1.9.26-1.45,0-2.54-.38-3.28-1.13Z"/>
    <path class="cls-1" d="M35.53,27.01c-1.54-1.68-2.3-4.01-2.3-6.99s.81-5.49,2.44-7.26c1.63-1.76,3.85-2.65,6.68-2.65s4.92.84,6.48,2.51c1.56,1.67,2.34,3.98,2.34,6.92,0,2.03-.38,3.79-1.14,5.28-.76,1.49-1.84,2.65-3.22,3.47s-3.02,1.23-4.91,1.23c-2.71,0-4.83-.84-6.37-2.52ZM46.25,25.32c.94-1.28,1.41-3.16,1.41-5.63s-.46-4.24-1.37-5.46c-.91-1.22-2.28-1.83-4.1-1.83s-3.19.61-4.09,1.84c-.91,1.22-1.36,3.07-1.36,5.53s.45,4.34,1.36,5.6c.9,1.26,2.24,1.88,4.01,1.88s3.2-.64,4.14-1.92Z"/>
    <path class="cls-1" d="M48.79,35.33h-13.48v-2.44h13.48v2.44Z"/>
    <path class="cls-1" d="M61.02,16.11c0-.92-.05-1.89-.14-2.89-.09-1-.21-1.87-.35-2.6h3.07c.18.38.34.91.49,1.58.14.68.25,1.44.31,2.29l.02.51v14.1h-3.4v-12.99ZM73.3,17.25c0-1.51-.3-2.63-.91-3.37-.61-.74-1.56-1.1-2.86-1.1-1.07,0-2.12.27-3.15.82s-1.92,1.3-2.65,2.25v-2.32c.86-1.07,1.91-1.9,3.16-2.5,1.25-.6,2.55-.9,3.91-.9,1.93,0,3.39.56,4.38,1.67s1.49,2.74,1.49,4.87l.02,12.44h-3.4v-11.86Z"/>
    <path class="cls-1" d="M75.59,35.33h-13.48v-2.44h13.48v2.44Z"/>
    <path class="cls-1" d="M87.58,16.11c0-.96-.05-1.94-.14-2.94-.09-1-.21-1.85-.35-2.55h3.07c.18.36.34.89.49,1.56.14.68.25,1.45.31,2.3l.02.51v14.1h-3.4v-12.99ZM99.49,17.15c0-1.48-.29-2.58-.88-3.3-.59-.72-1.5-1.07-2.73-1.07-.94,0-1.85.21-2.74.62-.89.42-1.66.99-2.29,1.72l-.25-2.01c.82-.94,1.81-1.67,2.96-2.2s2.36-.79,3.62-.79c1.68,0,3.05.5,4.12,1.5,1.07,1,1.6,2.75,1.6,5.23v12.25h-3.4v-11.95ZM111.41,17.15c0-1.48-.29-2.58-.88-3.3-.59-.72-1.49-1.07-2.71-1.07-.95,0-1.87.21-2.76.62-.89.42-1.66.99-2.29,1.72l-.51-1.82c.91-1.02,1.96-1.8,3.13-2.35,1.18-.55,2.42-.83,3.72-.83,1.68,0,3.05.5,4.11,1.5,1.06,1,1.59,2.75,1.59,5.23v12.25h-3.4v-11.95Z"/>
    <path class="cls-1" d="M110.35,35.33h-18.36v-2.44h18.36v2.44Z"/>
    <path class="cls-1" d="M123.09,10.62h3.52l3.03,11.89c.14.56.29,1.12.43,1.69.14.57.25,1.14.31,1.73h.14c.1-.59.23-1.17.39-1.76s.32-1.16.49-1.72l3.57-11.84h3.54l3.63,11.89c.18.62.34,1.19.48,1.69.14.5.26,1.08.38,1.73h.14c.1-.68.21-1.26.31-1.74.1-.48.24-1.06.41-1.74l3.09-11.84h3.07l-5.39,18.48h-3.75l-3.59-11.58c-.17-.56-.33-1.12-.47-1.68-.14-.56-.26-1.08-.35-1.56h-.16c-.09.48-.21,1-.36,1.54-.15.55-.31,1.11-.48,1.68l-3.5,11.6h-3.73l-5.14-18.48Z"/>
    <path class="cls-1" d="M145.51,35.33h-18.36v-2.44h18.36v2.44Z"/>
  </g>
</svg>