<?xml version="1.0" encoding="UTF-8"?>
<svg id="Layer_1" xmlns="http://www.w3.org/2000/svg" version="1.1" viewBox="0 0 173.6 35.3">
  <!-- Generator: Adobe Illustrator 29.3.1, SVG Export Plug-In . SVG Version: 2.1.0 Build 151)  -->
  <defs>
    <style>
      .st0 {
        fill: #231f20;
      }

      .st1 {
        fill: #fff;
      }
    </style>
  </defs>
  <rect class="st1" width="173.6" height="35.3"/>
  <g>
    <path class="st0" d="M2.9,6.7c-.4-.4-.6-.9-.6-1.6s.2-1.2.6-1.5.9-.6,1.6-.6,1.2.2,1.5.6c.4.4.6.9.6,1.5s-.2,1.2-.6,1.6-.9.6-1.6.6-1.1-.2-1.5-.6ZM2.8,10.6h3.4v18.5h-3.4V10.6Z"/>
    <path class="st0" d="M9,35.3H0v-2.4h9v2.4Z"/>
    <path class="st0" d="M14.9,10.9h4.2c0-.1,6.2-.1,6.2-.1v2.3h-10.8s.3-2.2.3-2.1ZM26.3,32.9h-9v2.4h9v-2.4ZM18.5,28.4c-.7-.8-1.1-1.9-1.1-3.3V6.2l3.4-.6v18.9c0,.9.2,1.6.5,1.9.3.4.8.6,1.6.6s1,0,1.4-.2,1-.4,1.5-.7h.1c0,.1-.6,2.4-.6,2.4-.5.3-1,.6-1.6.7-.6.2-1.2.3-1.9.3-1.5,0-2.5-.4-3.3-1.1h0Z"/>
    <path class="st0" d="M35.5,27c-1.5-1.7-2.3-4-2.3-7s.8-5.5,2.4-7.3c1.6-1.8,3.8-2.6,6.7-2.6s4.9.8,6.5,2.5,2.3,4,2.3,6.9-.4,3.8-1.1,5.3-1.8,2.6-3.2,3.5-3,1.2-4.9,1.2c-2.7,0-4.8-.8-6.4-2.5h0ZM46.2,25.3c.9-1.3,1.4-3.2,1.4-5.6s-.5-4.2-1.4-5.5-2.3-1.8-4.1-1.8-3.2.6-4.1,1.8c-.9,1.2-1.4,3.1-1.4,5.5s.5,4.3,1.4,5.6c.9,1.3,2.2,1.9,4,1.9s3.2-.6,4.1-1.9h0Z"/>
    <path class="st0" d="M48.8,35.3h-13.5v-2.4h13.5v2.4Z"/>
    <path class="st0" d="M61,16.1c0-.9,0-1.9-.1-2.9s-.2-1.9-.3-2.6h3.1c.2.4.3.9.5,1.6.1.7.2,1.4.3,2.3v.5s0,14.1,0,14.1h-3.4s0-13,0-13ZM73.3,17.2c0-1.5-.3-2.6-.9-3.4s-1.6-1.1-2.9-1.1-2.1.3-3.2.8-1.9,1.3-2.7,2.2v-2.3c.9-1.1,1.9-1.9,3.2-2.5s2.6-.9,3.9-.9c1.9,0,3.4.6,4.4,1.7s1.5,2.7,1.5,4.9v12.4s-3.4,0-3.4,0v-11.9h0Z"/>
    <path class="st0" d="M75.6,35.3h-13.5v-2.4h13.5v2.4Z"/>
    <path class="st0" d="M87.6,16.1c0-1,0-1.9-.1-2.9s-.2-1.9-.3-2.6h3.1c.2.4.3.9.5,1.6.1.7.2,1.4.3,2.3v.5s0,14.1,0,14.1h-3.4v-13h0ZM99.5,17.1c0-1.5-.3-2.6-.9-3.3s-1.5-1.1-2.7-1.1-1.8.2-2.7.6c-.9.4-1.7,1-2.3,1.7l-.2-2c.8-.9,1.8-1.7,3-2.2s2.4-.8,3.6-.8,3.1.5,4.1,1.5,1.6,2.8,1.6,5.2v12.2h-3.4v-11.9h0ZM111.4,17.1c0-1.5-.3-2.6-.9-3.3s-1.5-1.1-2.7-1.1-1.9.2-2.8.6c-.9.4-1.7,1-2.3,1.7l-.5-1.8c.9-1,2-1.8,3.1-2.3,1.2-.6,2.4-.8,3.7-.8s3.1.5,4.1,1.5,1.6,2.8,1.6,5.2v12.2h-3.4s0-11.9,0-12Z"/>
    <path class="st0" d="M110.3,35.3h-18.4v-2.4h18.4v2.4Z"/>
    <path class="st0" d="M123.1,10.6h3.5l3,11.9c.1.6.3,1.1.4,1.7s.2,1.1.3,1.7h.1c.1-.6.2-1.2.4-1.8s.3-1.2.5-1.7l3.6-11.8h3.5l3.6,11.9c.2.6.3,1.2.5,1.7s.3,1.1.4,1.7h.1c.1-.7.2-1.3.3-1.7.1-.5.2-1.1.4-1.7l3.1-11.8h3.1l-5.4,18.5h-3.8l-3.6-11.6c-.2-.6-.3-1.1-.5-1.7-.1-.6-.3-1.1-.4-1.6h-.2c0,.5-.2,1-.4,1.5-.1.6-.3,1.1-.5,1.7l-3.5,11.6h-3.7l-5.1-18.5h0Z"/>
    <path class="st0" d="M145.5,35.3h-18.4v-2.4h18.4v2.4Z"/>
  </g>
</svg>